<svg width="360" height="640" viewBox="0 0 360 640" fill="none" xmlns="http://www.w3.org/2000/svg">
<g id="entry">
<rect width="360" height="640" fill="#000C7B"/>
<path id="Anytime, Anywhere" d="M58.598 515L65.254 496.8H68.998L75.654 515H72.118L70.662 510.788H63.564L62.082 515H58.598ZM64.474 508.188H69.752L67.1 500.622L64.474 508.188ZM77.9205 515V502.104H80.8585L81.1185 504.288C81.5171 503.525 82.0891 502.919 82.8345 502.468C83.5971 502.017 84.4898 501.792 85.5125 501.792C87.1071 501.792 88.3465 502.295 89.2305 503.3C90.1145 504.305 90.5565 505.779 90.5565 507.72V515H87.2285V508.032C87.2285 506.923 87.0031 506.073 86.5525 505.484C86.1018 504.895 85.3998 504.6 84.4465 504.6C83.5105 504.6 82.7391 504.929 82.1325 505.588C81.5431 506.247 81.2485 507.165 81.2485 508.344V515H77.9205ZM94.9192 520.72L97.9092 514.142H97.1292L92.1112 502.104H95.7252L99.3392 511.178L103.109 502.104H106.645L98.4552 520.72H94.9192ZM114.567 515C113.215 515 112.132 514.671 111.317 514.012C110.502 513.353 110.095 512.183 110.095 510.502V504.886H107.885V502.104H110.095L110.485 498.646H113.423V502.104H116.907V504.886H113.423V510.528C113.423 511.152 113.553 511.585 113.813 511.828C114.09 512.053 114.558 512.166 115.217 512.166H116.829V515H114.567ZM121.558 500.102C120.952 500.102 120.449 499.92 120.05 499.556C119.669 499.192 119.478 498.733 119.478 498.178C119.478 497.623 119.669 497.173 120.05 496.826C120.449 496.462 120.952 496.28 121.558 496.28C122.165 496.28 122.659 496.462 123.04 496.826C123.439 497.173 123.638 497.623 123.638 498.178C123.638 498.733 123.439 499.192 123.04 499.556C122.659 499.92 122.165 500.102 121.558 500.102ZM119.894 515V502.104H123.222V515H119.894ZM126.696 515V502.104H129.634L129.92 503.846C130.336 503.222 130.882 502.728 131.558 502.364C132.251 501.983 133.049 501.792 133.95 501.792C135.943 501.792 137.356 502.563 138.188 504.106C138.656 503.395 139.28 502.832 140.06 502.416C140.857 502 141.724 501.792 142.66 501.792C144.341 501.792 145.633 502.295 146.534 503.3C147.435 504.305 147.886 505.779 147.886 507.72V515H144.558V508.032C144.558 506.923 144.341 506.073 143.908 505.484C143.492 504.895 142.842 504.6 141.958 504.6C141.057 504.6 140.329 504.929 139.774 505.588C139.237 506.247 138.968 507.165 138.968 508.344V515H135.64V508.032C135.64 506.923 135.423 506.073 134.99 505.484C134.557 504.895 133.889 504.6 132.988 504.6C132.104 504.6 131.385 504.929 130.83 505.588C130.293 506.247 130.024 507.165 130.024 508.344V515H126.696ZM157.311 515.312C156.011 515.312 154.859 515.035 153.853 514.48C152.848 513.925 152.059 513.145 151.487 512.14C150.915 511.135 150.629 509.973 150.629 508.656C150.629 507.321 150.907 506.134 151.461 505.094C152.033 504.054 152.813 503.248 153.801 502.676C154.807 502.087 155.985 501.792 157.337 501.792C158.603 501.792 159.721 502.069 160.691 502.624C161.662 503.179 162.416 503.941 162.953 504.912C163.508 505.865 163.785 506.931 163.785 508.11C163.785 508.301 163.777 508.5 163.759 508.708C163.759 508.916 163.751 509.133 163.733 509.358H153.931C154.001 510.363 154.347 511.152 154.971 511.724C155.613 512.296 156.384 512.582 157.285 512.582C157.961 512.582 158.525 512.435 158.975 512.14C159.443 511.828 159.79 511.429 160.015 510.944H163.395C163.153 511.759 162.745 512.504 162.173 513.18C161.619 513.839 160.925 514.359 160.093 514.74C159.279 515.121 158.351 515.312 157.311 515.312ZM157.337 504.496C156.523 504.496 155.803 504.73 155.179 505.198C154.555 505.649 154.157 506.342 153.983 507.278H160.405C160.353 506.429 160.041 505.753 159.469 505.25C158.897 504.747 158.187 504.496 157.337 504.496ZM165.259 518.016L166.741 511.542H169.965L167.443 518.016H165.259ZM177.705 515L184.361 496.8H188.105L194.761 515H191.225L189.769 510.788H182.671L181.189 515H177.705ZM183.581 508.188H188.859L186.207 500.622L183.581 508.188ZM197.028 515V502.104H199.966L200.226 504.288C200.625 503.525 201.197 502.919 201.942 502.468C202.705 502.017 203.597 501.792 204.62 501.792C206.215 501.792 207.454 502.295 208.338 503.3C209.222 504.305 209.664 505.779 209.664 507.72V515H206.336V508.032C206.336 506.923 206.111 506.073 205.66 505.484C205.209 504.895 204.507 504.6 203.554 504.6C202.618 504.6 201.847 504.929 201.24 505.588C200.651 506.247 200.356 507.165 200.356 508.344V515H197.028ZM214.027 520.72L217.017 514.142H216.237L211.219 502.104H214.833L218.447 511.178L222.217 502.104H225.753L217.563 520.72H214.027ZM230.45 515L226.68 502.104H229.982L232.218 511.386L234.818 502.104H238.51L241.11 511.386L243.372 502.104H246.674L242.878 515H239.42L236.664 505.354L233.908 515H230.45ZM248.774 515V496.28H252.102V504.08C252.535 503.369 253.116 502.815 253.844 502.416C254.589 502 255.439 501.792 256.392 501.792C257.987 501.792 259.217 502.295 260.084 503.3C260.968 504.305 261.41 505.779 261.41 507.72V515H258.108V508.032C258.108 506.923 257.883 506.073 257.432 505.484C256.999 504.895 256.305 504.6 255.352 504.6C254.416 504.6 253.636 504.929 253.012 505.588C252.405 506.247 252.102 507.165 252.102 508.344V515H248.774ZM270.858 515.312C269.558 515.312 268.406 515.035 267.4 514.48C266.395 513.925 265.606 513.145 265.034 512.14C264.462 511.135 264.176 509.973 264.176 508.656C264.176 507.321 264.454 506.134 265.008 505.094C265.58 504.054 266.36 503.248 267.348 502.676C268.354 502.087 269.532 501.792 270.884 501.792C272.15 501.792 273.268 502.069 274.238 502.624C275.209 503.179 275.963 503.941 276.5 504.912C277.055 505.865 277.332 506.931 277.332 508.11C277.332 508.301 277.324 508.5 277.306 508.708C277.306 508.916 277.298 509.133 277.28 509.358H267.478C267.548 510.363 267.894 511.152 268.518 511.724C269.16 512.296 269.931 512.582 270.832 512.582C271.508 512.582 272.072 512.435 272.522 512.14C272.99 511.828 273.337 511.429 273.562 510.944H276.942C276.7 511.759 276.292 512.504 275.72 513.18C275.166 513.839 274.472 514.359 273.64 514.74C272.826 515.121 271.898 515.312 270.858 515.312ZM270.884 504.496C270.07 504.496 269.35 504.73 268.726 505.198C268.102 505.649 267.704 506.342 267.53 507.278H273.952C273.9 506.429 273.588 505.753 273.016 505.25C272.444 504.747 271.734 504.496 270.884 504.496ZM280.131 515V502.104H283.095L283.407 504.522C283.875 503.69 284.508 503.031 285.305 502.546C286.12 502.043 287.073 501.792 288.165 501.792V505.302H287.229C286.501 505.302 285.851 505.415 285.279 505.64C284.707 505.865 284.257 506.255 283.927 506.81C283.615 507.365 283.459 508.136 283.459 509.124V515H280.131ZM296.477 515.312C295.177 515.312 294.025 515.035 293.019 514.48C292.014 513.925 291.225 513.145 290.653 512.14C290.081 511.135 289.795 509.973 289.795 508.656C289.795 507.321 290.073 506.134 290.627 505.094C291.199 504.054 291.979 503.248 292.967 502.676C293.973 502.087 295.151 501.792 296.503 501.792C297.769 501.792 298.887 502.069 299.857 502.624C300.828 503.179 301.582 503.941 302.119 504.912C302.674 505.865 302.951 506.931 302.951 508.11C302.951 508.301 302.943 508.5 302.925 508.708C302.925 508.916 302.917 509.133 302.899 509.358H293.097C293.167 510.363 293.513 511.152 294.137 511.724C294.779 512.296 295.55 512.582 296.451 512.582C297.127 512.582 297.691 512.435 298.141 512.14C298.609 511.828 298.956 511.429 299.181 510.944H302.561C302.319 511.759 301.911 512.504 301.339 513.18C300.785 513.839 300.091 514.359 299.259 514.74C298.445 515.121 297.517 515.312 296.477 515.312ZM296.503 504.496C295.689 504.496 294.969 504.73 294.345 505.198C293.721 505.649 293.323 506.342 293.149 507.278H299.571C299.519 506.429 299.207 505.753 298.635 505.25C298.063 504.747 297.353 504.496 296.503 504.496Z" fill="#B8BFFF"/>
<path id="The ultimate news source" d="M100.206 544V535.166H97.28V534.2H104.308V535.166H101.382V544H100.206ZM105.674 544V533.92H106.85V538.246C107.083 537.817 107.415 537.485 107.844 537.252C108.273 537.009 108.74 536.888 109.244 536.888C110.047 536.888 110.691 537.14 111.176 537.644C111.661 538.139 111.904 538.904 111.904 539.94V544H110.742V540.066C110.742 538.619 110.159 537.896 108.992 537.896C108.385 537.896 107.877 538.115 107.466 538.554C107.055 538.983 106.85 539.599 106.85 540.402V544H105.674ZM116.808 544.168C116.145 544.168 115.557 544.019 115.044 543.72C114.53 543.412 114.124 542.987 113.826 542.446C113.536 541.905 113.392 541.265 113.392 540.528C113.392 539.8 113.536 539.165 113.826 538.624C114.115 538.073 114.516 537.649 115.03 537.35C115.552 537.042 116.154 536.888 116.836 536.888C117.508 536.888 118.086 537.042 118.572 537.35C119.066 537.649 119.444 538.045 119.706 538.54C119.967 539.035 120.098 539.567 120.098 540.136C120.098 540.239 120.093 540.341 120.084 540.444C120.084 540.547 120.084 540.663 120.084 540.794H114.554C114.582 541.326 114.703 541.769 114.918 542.124C115.142 542.469 115.417 542.731 115.744 542.908C116.08 543.085 116.434 543.174 116.808 543.174C117.293 543.174 117.699 543.062 118.026 542.838C118.352 542.614 118.59 542.311 118.74 541.928H119.902C119.715 542.572 119.356 543.109 118.824 543.538C118.301 543.958 117.629 544.168 116.808 544.168ZM116.808 537.882C116.248 537.882 115.748 538.055 115.31 538.4C114.88 538.736 114.633 539.231 114.568 539.884H118.936C118.908 539.259 118.693 538.769 118.292 538.414C117.89 538.059 117.396 537.882 116.808 537.882ZM127.896 544.168C127.074 544.168 126.421 543.921 125.936 543.426C125.45 542.922 125.208 542.152 125.208 541.116V537.056H126.384V540.99C126.384 542.437 126.976 543.16 128.162 543.16C128.768 543.16 129.268 542.945 129.66 542.516C130.061 542.077 130.262 541.457 130.262 540.654V537.056H131.438V544H130.374L130.29 542.754C130.075 543.193 129.753 543.538 129.324 543.79C128.904 544.042 128.428 544.168 127.896 544.168ZM133.373 544V533.92H134.549V544H133.373ZM139.221 544C138.586 544 138.087 543.846 137.723 543.538C137.359 543.23 137.177 542.675 137.177 541.872V538.05H135.973V537.056H137.177L137.331 535.39H138.353V537.056H140.397V538.05H138.353V541.872C138.353 542.311 138.441 542.609 138.619 542.768C138.796 542.917 139.109 542.992 139.557 542.992H140.285V544H139.221ZM142.605 535.516C142.371 535.516 142.175 535.441 142.017 535.292C141.867 535.133 141.793 534.937 141.793 534.704C141.793 534.48 141.867 534.293 142.017 534.144C142.175 533.995 142.371 533.92 142.605 533.92C142.829 533.92 143.02 533.995 143.179 534.144C143.337 534.293 143.417 534.48 143.417 534.704C143.417 534.937 143.337 535.133 143.179 535.292C143.02 535.441 142.829 535.516 142.605 535.516ZM142.017 544V537.056H143.193V544H142.017ZM145.24 544V537.056H146.304L146.388 538.064C146.612 537.691 146.911 537.401 147.284 537.196C147.658 536.991 148.078 536.888 148.544 536.888C149.095 536.888 149.566 537 149.958 537.224C150.36 537.448 150.668 537.789 150.882 538.246C151.125 537.826 151.456 537.495 151.876 537.252C152.306 537.009 152.768 536.888 153.262 536.888C154.093 536.888 154.756 537.14 155.25 537.644C155.745 538.139 155.992 538.904 155.992 539.94V544H154.83V540.066C154.83 539.347 154.686 538.806 154.396 538.442C154.107 538.078 153.692 537.896 153.15 537.896C152.59 537.896 152.124 538.115 151.75 538.554C151.386 538.983 151.204 539.599 151.204 540.402V544H150.028V540.066C150.028 539.347 149.884 538.806 149.594 538.442C149.305 538.078 148.89 537.896 148.348 537.896C147.798 537.896 147.336 538.115 146.962 538.554C146.598 538.983 146.416 539.599 146.416 540.402V544H145.24ZM160.074 544.168C159.495 544.168 159.015 544.07 158.632 543.874C158.249 543.678 157.965 543.417 157.778 543.09C157.591 542.763 157.498 542.409 157.498 542.026C157.498 541.317 157.769 540.771 158.31 540.388C158.851 540.005 159.589 539.814 160.522 539.814H162.398V539.73C162.398 539.123 162.239 538.666 161.922 538.358C161.605 538.041 161.18 537.882 160.648 537.882C160.191 537.882 159.794 537.999 159.458 538.232C159.131 538.456 158.926 538.787 158.842 539.226H157.638C157.685 538.722 157.853 538.297 158.142 537.952C158.441 537.607 158.809 537.345 159.248 537.168C159.687 536.981 160.153 536.888 160.648 536.888C161.619 536.888 162.347 537.149 162.832 537.672C163.327 538.185 163.574 538.871 163.574 539.73V544H162.524L162.454 542.754C162.258 543.146 161.969 543.482 161.586 543.762C161.213 544.033 160.709 544.168 160.074 544.168ZM160.256 543.174C160.704 543.174 161.087 543.057 161.404 542.824C161.731 542.591 161.978 542.287 162.146 541.914C162.314 541.541 162.398 541.149 162.398 540.738V540.724H160.62C159.929 540.724 159.439 540.845 159.15 541.088C158.87 541.321 158.73 541.615 158.73 541.97C158.73 542.334 158.861 542.628 159.122 542.852C159.393 543.067 159.771 543.174 160.256 543.174ZM167.891 544C167.256 544 166.757 543.846 166.393 543.538C166.029 543.23 165.847 542.675 165.847 541.872V538.05H164.643V537.056H165.847L166.001 535.39H167.023V537.056H169.067V538.05H167.023V541.872C167.023 542.311 167.111 542.609 167.289 542.768C167.466 542.917 167.779 542.992 168.227 542.992H168.955V544H167.891ZM173.491 544.168C172.829 544.168 172.241 544.019 171.727 543.72C171.214 543.412 170.808 542.987 170.509 542.446C170.22 541.905 170.075 541.265 170.075 540.528C170.075 539.8 170.22 539.165 170.509 538.624C170.799 538.073 171.2 537.649 171.713 537.35C172.236 537.042 172.838 536.888 173.519 536.888C174.191 536.888 174.77 537.042 175.255 537.35C175.75 537.649 176.128 538.045 176.389 538.54C176.651 539.035 176.781 539.567 176.781 540.136C176.781 540.239 176.777 540.341 176.767 540.444C176.767 540.547 176.767 540.663 176.767 540.794H171.237C171.265 541.326 171.387 541.769 171.601 542.124C171.825 542.469 172.101 542.731 172.427 542.908C172.763 543.085 173.118 543.174 173.491 543.174C173.977 543.174 174.383 543.062 174.709 542.838C175.036 542.614 175.274 542.311 175.423 541.928H176.585C176.399 542.572 176.039 543.109 175.507 543.538C174.985 543.958 174.313 544.168 173.491 544.168ZM173.491 537.882C172.931 537.882 172.432 538.055 171.993 538.4C171.564 538.736 171.317 539.231 171.251 539.884H175.619C175.591 539.259 175.377 538.769 174.975 538.414C174.574 538.059 174.079 537.882 173.491 537.882ZM182.045 544V537.056H183.109L183.179 538.302C183.403 537.863 183.725 537.518 184.145 537.266C184.565 537.014 185.041 536.888 185.573 536.888C186.394 536.888 187.048 537.14 187.533 537.644C188.028 538.139 188.275 538.904 188.275 539.94V544H187.099V540.066C187.099 538.619 186.502 537.896 185.307 537.896C184.71 537.896 184.21 538.115 183.809 538.554C183.417 538.983 183.221 539.599 183.221 540.402V544H182.045ZM193.179 544.168C192.516 544.168 191.928 544.019 191.415 543.72C190.901 543.412 190.495 542.987 190.197 542.446C189.907 541.905 189.763 541.265 189.763 540.528C189.763 539.8 189.907 539.165 190.197 538.624C190.486 538.073 190.887 537.649 191.401 537.35C191.923 537.042 192.525 536.888 193.207 536.888C193.879 536.888 194.457 537.042 194.943 537.35C195.437 537.649 195.815 538.045 196.077 538.54C196.338 539.035 196.469 539.567 196.469 540.136C196.469 540.239 196.464 540.341 196.455 540.444C196.455 540.547 196.455 540.663 196.455 540.794H190.925C190.953 541.326 191.074 541.769 191.289 542.124C191.513 542.469 191.788 542.731 192.115 542.908C192.451 543.085 192.805 543.174 193.179 543.174C193.664 543.174 194.07 543.062 194.397 542.838C194.723 542.614 194.961 542.311 195.111 541.928H196.273C196.086 542.572 195.727 543.109 195.195 543.538C194.672 543.958 194 544.168 193.179 544.168ZM193.179 537.882C192.619 537.882 192.119 538.055 191.681 538.4C191.251 538.736 191.004 539.231 190.939 539.884H195.307C195.279 539.259 195.064 538.769 194.663 538.414C194.261 538.059 193.767 537.882 193.179 537.882ZM199.154 544L197.124 537.056H198.3L199.77 542.502L201.394 537.056H202.724L204.362 542.502L205.818 537.056H207.008L204.978 544H203.774L202.066 538.274L200.358 544H199.154ZM210.969 544.168C210.138 544.168 209.447 543.958 208.897 543.538C208.346 543.118 208.024 542.549 207.931 541.83H209.135C209.209 542.194 209.401 542.511 209.709 542.782C210.026 543.043 210.451 543.174 210.983 543.174C211.477 543.174 211.841 543.071 212.075 542.866C212.308 542.651 212.425 542.399 212.425 542.11C212.425 541.69 212.271 541.41 211.963 541.27C211.664 541.13 211.239 541.004 210.689 540.892C210.315 540.817 209.942 540.71 209.569 540.57C209.195 540.43 208.883 540.234 208.631 539.982C208.379 539.721 208.253 539.38 208.253 538.96C208.253 538.353 208.477 537.859 208.925 537.476C209.382 537.084 209.998 536.888 210.773 536.888C211.51 536.888 212.112 537.075 212.579 537.448C213.055 537.812 213.33 538.335 213.405 539.016H212.243C212.196 538.661 212.042 538.386 211.781 538.19C211.529 537.985 211.188 537.882 210.759 537.882C210.339 537.882 210.012 537.971 209.779 538.148C209.555 538.325 209.443 538.559 209.443 538.848C209.443 539.128 209.587 539.347 209.877 539.506C210.175 539.665 210.577 539.8 211.081 539.912C211.51 540.005 211.916 540.122 212.299 540.262C212.691 540.393 213.008 540.593 213.251 540.864C213.503 541.125 213.629 541.508 213.629 542.012C213.638 542.637 213.4 543.155 212.915 543.566C212.439 543.967 211.79 544.168 210.969 544.168ZM221.674 544.168C220.843 544.168 220.153 543.958 219.602 543.538C219.051 543.118 218.729 542.549 218.636 541.83H219.84C219.915 542.194 220.106 542.511 220.414 542.782C220.731 543.043 221.156 543.174 221.688 543.174C222.183 543.174 222.547 543.071 222.78 542.866C223.013 542.651 223.13 542.399 223.13 542.11C223.13 541.69 222.976 541.41 222.668 541.27C222.369 541.13 221.945 541.004 221.394 540.892C221.021 540.817 220.647 540.71 220.274 540.57C219.901 540.43 219.588 540.234 219.336 539.982C219.084 539.721 218.958 539.38 218.958 538.96C218.958 538.353 219.182 537.859 219.63 537.476C220.087 537.084 220.703 536.888 221.478 536.888C222.215 536.888 222.817 537.075 223.284 537.448C223.76 537.812 224.035 538.335 224.11 539.016H222.948C222.901 538.661 222.747 538.386 222.486 538.19C222.234 537.985 221.893 537.882 221.464 537.882C221.044 537.882 220.717 537.971 220.484 538.148C220.26 538.325 220.148 538.559 220.148 538.848C220.148 539.128 220.293 539.347 220.582 539.506C220.881 539.665 221.282 539.8 221.786 539.912C222.215 540.005 222.621 540.122 223.004 540.262C223.396 540.393 223.713 540.593 223.956 540.864C224.208 541.125 224.334 541.508 224.334 542.012C224.343 542.637 224.105 543.155 223.62 543.566C223.144 543.967 222.495 544.168 221.674 544.168ZM229.178 544.168C228.525 544.168 227.937 544.019 227.414 543.72C226.891 543.421 226.476 543.001 226.168 542.46C225.869 541.909 225.72 541.265 225.72 540.528C225.72 539.791 225.874 539.151 226.182 538.61C226.49 538.059 226.905 537.635 227.428 537.336C227.96 537.037 228.553 536.888 229.206 536.888C229.859 536.888 230.447 537.037 230.97 537.336C231.493 537.635 231.903 538.059 232.202 538.61C232.51 539.151 232.664 539.791 232.664 540.528C232.664 541.265 232.51 541.909 232.202 542.46C231.894 543.001 231.474 543.421 230.942 543.72C230.419 544.019 229.831 544.168 229.178 544.168ZM229.178 543.16C229.579 543.16 229.953 543.062 230.298 542.866C230.643 542.67 230.923 542.376 231.138 541.984C231.353 541.592 231.46 541.107 231.46 540.528C231.46 539.949 231.353 539.464 231.138 539.072C230.933 538.68 230.657 538.386 230.312 538.19C229.967 537.994 229.598 537.896 229.206 537.896C228.805 537.896 228.431 537.994 228.086 538.19C227.741 538.386 227.461 538.68 227.246 539.072C227.031 539.464 226.924 539.949 226.924 540.528C226.924 541.107 227.031 541.592 227.246 541.984C227.461 542.376 227.736 542.67 228.072 542.866C228.417 543.062 228.786 543.16 229.178 543.16ZM236.833 544.168C236.012 544.168 235.358 543.921 234.873 543.426C234.388 542.922 234.145 542.152 234.145 541.116V537.056H235.321V540.99C235.321 542.437 235.914 543.16 237.099 543.16C237.706 543.16 238.205 542.945 238.597 542.516C238.998 542.077 239.199 541.457 239.199 540.654V537.056H240.375V544H239.311L239.227 542.754C239.012 543.193 238.69 543.538 238.261 543.79C237.841 544.042 237.365 544.168 236.833 544.168ZM242.311 544V537.056H243.375L243.473 538.386C243.687 537.929 244.014 537.565 244.453 537.294C244.891 537.023 245.433 536.888 246.077 536.888V538.12H245.755C245.344 538.12 244.966 538.195 244.621 538.344C244.275 538.484 244 538.727 243.795 539.072C243.589 539.417 243.487 539.893 243.487 540.5V544H242.311ZM250.329 544.168C249.666 544.168 249.069 544.019 248.537 543.72C248.014 543.412 247.599 542.987 247.291 542.446C246.992 541.895 246.843 541.256 246.843 540.528C246.843 539.8 246.992 539.165 247.291 538.624C247.599 538.073 248.014 537.649 248.537 537.35C249.069 537.042 249.666 536.888 250.329 536.888C251.15 536.888 251.841 537.103 252.401 537.532C252.97 537.961 253.33 538.535 253.479 539.254H252.275C252.182 538.825 251.953 538.493 251.589 538.26C251.225 538.017 250.8 537.896 250.315 537.896C249.923 537.896 249.554 537.994 249.209 538.19C248.864 538.386 248.584 538.68 248.369 539.072C248.154 539.464 248.047 539.949 248.047 540.528C248.047 541.107 248.154 541.592 248.369 541.984C248.584 542.376 248.864 542.675 249.209 542.88C249.554 543.076 249.923 543.174 250.315 543.174C250.8 543.174 251.225 543.057 251.589 542.824C251.953 542.581 252.182 542.241 252.275 541.802H253.479C253.339 542.502 252.984 543.071 252.415 543.51C251.846 543.949 251.15 544.168 250.329 544.168ZM258.243 544.168C257.581 544.168 256.993 544.019 256.479 543.72C255.966 543.412 255.56 542.987 255.261 542.446C254.972 541.905 254.827 541.265 254.827 540.528C254.827 539.8 254.972 539.165 255.261 538.624C255.551 538.073 255.952 537.649 256.465 537.35C256.988 537.042 257.59 536.888 258.271 536.888C258.943 536.888 259.522 537.042 260.007 537.35C260.502 537.649 260.88 538.045 261.141 538.54C261.403 539.035 261.533 539.567 261.533 540.136C261.533 540.239 261.529 540.341 261.519 540.444C261.519 540.547 261.519 540.663 261.519 540.794H255.989C256.017 541.326 256.139 541.769 256.353 542.124C256.577 542.469 256.853 542.731 257.179 542.908C257.515 543.085 257.87 543.174 258.243 543.174C258.729 543.174 259.135 543.062 259.461 542.838C259.788 542.614 260.026 542.311 260.175 541.928H261.337C261.151 542.572 260.791 543.109 260.259 543.538C259.737 543.958 259.065 544.168 258.243 544.168ZM258.243 537.882C257.683 537.882 257.184 538.055 256.745 538.4C256.316 538.736 256.069 539.231 256.003 539.884H260.371C260.343 539.259 260.129 538.769 259.727 538.414C259.326 538.059 258.831 537.882 258.243 537.882Z" fill="#B8BFFF"/>
<g id="Frame">
<path id="Vector" d="M95.7137 271.622C95.0423 272.296 94.5282 273.109 94.2079 274.003C93.8877 274.898 93.7692 275.851 93.8607 276.797L93.8289 276.765C93.9231 277.878 93.7725 278.997 93.3879 280.046C93.0034 281.095 92.394 282.047 91.6024 282.837C90.8105 283.627 89.8555 284.235 88.8038 284.618C87.7523 285.001 86.6294 285.152 85.5138 285.058L85.5457 285.089C84.2111 284.966 82.8706 285.255 81.707 285.919C80.5435 286.583 79.6135 287.588 79.044 288.798C78.4745 290.008 78.2929 291.364 78.5242 292.681C78.7558 293.998 79.3887 295.211 80.3369 296.156C81.2852 297.101 82.5025 297.731 83.8229 297.96C85.1435 298.19 86.5028 298.008 87.7157 297.439C88.9286 296.87 89.9358 295.941 90.6003 294.78C91.2647 293.619 91.554 292.282 91.4286 290.951L91.4622 290.983C91.368 289.87 91.5184 288.75 91.903 287.702C92.2875 286.653 92.8971 285.7 93.6887 284.911C94.4806 284.121 95.4355 283.513 96.4871 283.13C97.5388 282.746 98.6615 282.596 99.7773 282.69L99.7437 282.658C100.834 282.756 101.931 282.578 102.934 282.14C103.937 281.702 104.812 281.019 105.48 280.154C106.147 279.289 106.585 278.27 106.752 277.191C106.92 276.112 106.811 275.008 106.437 273.982C106.063 272.956 105.435 272.041 104.612 271.322C103.789 270.602 102.797 270.102 101.728 269.866C100.659 269.631 99.5481 269.668 98.4976 269.975C97.4472 270.282 96.4915 270.849 95.719 271.622H95.7137Z" fill="#B8BFFF"/>
<path id="Vector_2" d="M82.6458 280.924L82.6122 280.892C83.5604 280.987 84.5181 280.871 85.416 280.552C86.3137 280.233 87.1293 279.719 87.8035 279.047C88.4775 278.375 88.9937 277.562 89.3142 276.667C89.6348 275.772 89.7519 274.817 89.6571 273.871L89.6908 273.903C89.5966 272.79 89.7471 271.67 90.1315 270.621C90.5161 269.573 91.1257 268.62 91.9173 267.831C92.7091 267.041 93.6641 266.433 94.7156 266.05C95.7673 265.666 96.8901 265.516 98.0059 265.61L97.9722 265.578C99.307 265.703 100.648 265.415 101.812 264.752C102.976 264.089 103.907 263.084 104.477 261.874C105.048 260.664 105.23 259.308 104.999 257.991C104.769 256.674 104.136 255.46 103.188 254.514C102.24 253.569 101.023 252.938 99.7026 252.708C98.382 252.478 97.0224 252.66 95.8091 253.229C94.5959 253.798 93.5883 254.726 92.9235 255.887C92.2587 257.048 91.9692 258.385 92.0946 259.717L92.0627 259.683C92.1572 260.796 92.0069 261.916 91.6225 262.965C91.2381 264.014 90.6286 264.966 89.8369 265.756C89.0451 266.545 88.09 267.153 87.0383 267.537C85.9864 267.92 84.8635 268.07 83.7477 267.976L83.7795 268.009C82.8313 267.914 81.8735 268.03 80.9757 268.349C80.078 268.668 79.2624 269.182 78.5882 269.854C77.914 270.526 77.398 271.339 77.0773 272.234C76.7569 273.129 76.6398 274.084 76.7346 275.03L76.7027 274.998C76.7966 276.111 76.6458 277.231 76.2612 278.279C75.8765 279.328 75.2671 280.28 74.4755 281.07C73.6837 281.859 72.7289 282.467 71.6774 282.851C70.626 283.234 69.5033 283.385 68.3876 283.291L68.4195 283.323C67.0847 283.198 65.7438 283.486 64.5796 284.149C63.4154 284.812 62.4847 285.817 61.9142 287.027C61.3438 288.237 61.1615 289.593 61.3922 290.91C61.6229 292.227 62.2553 293.441 63.2033 294.387C64.1512 295.332 65.3685 295.963 66.6892 296.193C68.0098 296.423 69.3694 296.241 70.5826 295.672C71.7958 295.103 72.8035 294.175 73.4682 293.014C74.1331 291.853 74.4225 290.516 74.2971 289.185L74.3307 289.216C74.2365 288.104 74.3871 286.984 74.7717 285.935C75.1561 284.886 75.7656 283.934 76.5573 283.144C77.3491 282.355 78.3041 281.747 79.3556 281.363C80.4073 280.98 81.53 280.83 82.6458 280.924Z" fill="#B8BFFF"/>
<path id="Vector_3" d="M70.7737 277.378C71.4451 276.704 71.9592 275.891 72.2791 274.997C72.5991 274.103 72.7172 273.149 72.6249 272.203L72.6585 272.235C72.5643 271.122 72.7148 270.002 73.0995 268.953C73.4843 267.904 74.0941 266.951 74.8863 266.162C75.6784 265.372 76.6338 264.764 77.6858 264.381C78.7379 263.998 79.8611 263.848 80.9771 263.942L80.9435 263.911C82.2777 264.035 83.6182 263.746 84.7818 263.084C85.9455 262.421 86.8756 261.416 87.4459 260.206C88.0159 258.997 88.198 257.641 87.9674 256.325C87.7367 255.008 87.1043 253.795 86.1568 252.85C85.2093 251.904 83.9923 251.274 82.6722 251.044C81.3522 250.814 79.9929 250.995 78.7802 251.564C77.5673 252.132 76.5599 253.06 75.8953 254.221C75.2305 255.381 74.9408 256.718 75.0659 258.049L75.034 258.017C75.1282 259.13 74.9777 260.25 74.5931 261.298C74.2085 262.347 73.5992 263.3 72.8074 264.089C72.0157 264.879 71.0607 265.487 70.0091 265.87C68.9575 266.254 67.8347 266.404 66.7189 266.31L66.7508 266.342C65.6606 266.244 64.5634 266.423 63.5608 266.861C62.5582 267.299 61.6827 267.982 61.0153 268.847C60.348 269.712 59.9105 270.732 59.7433 271.81C59.5762 272.889 59.6847 273.993 60.059 275.019C60.4332 276.044 61.0611 276.959 61.8843 277.679C62.7076 278.398 63.6996 278.899 64.7684 279.134C65.8372 279.369 66.9483 279.332 67.9987 279.025C69.0491 278.718 70.0048 278.151 70.7772 277.378H70.7737Z" fill="#B8BFFF"/>
<path id="Vector_4" d="M125.647 259.757H130.908V285.291H125.647V259.757Z" fill="#B8BFFF"/>
<path id="Vector_5" d="M133.888 276.548C133.881 274.713 134.42 272.917 135.436 271.387C136.453 269.858 137.902 268.664 139.6 267.957C141.298 267.25 143.168 267.061 144.973 267.414C146.778 267.768 148.438 268.648 149.742 269.943C151.045 271.237 151.934 272.889 152.296 274.688C152.658 276.487 152.476 278.353 151.773 280.049C151.071 281.745 149.88 283.195 148.35 284.215C146.821 285.236 145.023 285.78 143.183 285.78C141.961 285.794 140.75 285.565 139.618 285.106C138.486 284.648 137.458 283.969 136.593 283.109C135.727 282.25 135.042 281.227 134.578 280.1C134.113 278.973 133.879 277.766 133.888 276.548ZM147.216 276.548C147.194 275.757 146.939 274.99 146.482 274.343C146.026 273.696 145.388 273.197 144.649 272.91C143.91 272.622 143.102 272.558 142.327 272.726C141.551 272.894 140.843 273.286 140.29 273.853C139.737 274.42 139.363 275.137 139.217 275.915C139.07 276.692 139.156 277.496 139.465 278.225C139.774 278.954 140.291 279.576 140.952 280.013C141.614 280.45 142.389 280.683 143.183 280.683C143.726 280.698 144.266 280.6 144.77 280.396C145.273 280.191 145.729 279.885 146.108 279.497C146.487 279.108 146.781 278.645 146.972 278.138C147.162 277.63 147.246 277.089 147.216 276.548Z" fill="#B8BFFF"/>
<path id="Vector_6" d="M173.446 267.803V284.409C173.446 290.285 168.851 292.769 164.186 292.769C162.544 292.892 160.9 292.561 159.434 291.813C157.968 291.065 156.736 289.929 155.875 288.529L160.364 285.941C160.726 286.671 161.303 287.272 162.017 287.666C162.732 288.06 163.55 288.227 164.362 288.144C164.881 288.216 165.409 288.17 165.908 288.011C166.407 287.851 166.864 287.582 167.244 287.222C167.625 286.863 167.92 286.423 168.107 285.935C168.294 285.447 168.368 284.923 168.325 284.402V282.803C167.708 283.555 166.924 284.152 166.035 284.547C165.146 284.942 164.176 285.123 163.203 285.077C160.889 285.004 158.695 284.036 157.084 282.378C155.473 280.72 154.572 278.502 154.572 276.193C154.572 273.885 155.473 271.666 157.084 270.008C158.695 268.35 160.889 267.382 163.203 267.31C164.176 267.263 165.146 267.445 166.035 267.839C166.924 268.234 167.708 268.832 168.325 269.583V267.799L173.446 267.803ZM168.326 276.196C168.362 275.35 168.142 274.514 167.697 273.793C167.251 273.073 166.6 272.502 165.826 272.154C165.053 271.806 164.192 271.697 163.356 271.841C162.52 271.985 161.746 272.375 161.134 272.961C160.522 273.547 160.1 274.303 159.922 275.13C159.744 275.958 159.818 276.82 160.136 277.605C160.453 278.389 160.998 279.062 161.702 279.535C162.406 280.008 163.235 280.26 164.084 280.259C164.637 280.298 165.191 280.22 165.712 280.032C166.233 279.844 166.709 279.549 167.108 279.166C167.508 278.783 167.823 278.321 168.033 277.809C168.242 277.298 168.343 276.748 168.326 276.196Z" fill="#B8BFFF"/>
<path id="Vector_7" d="M176.425 276.548C176.418 274.713 176.957 272.917 177.974 271.387C178.99 269.858 180.439 268.664 182.137 267.957C183.835 267.25 185.705 267.061 187.51 267.414C189.316 267.768 190.975 268.648 192.279 269.943C193.583 271.237 194.471 272.889 194.833 274.688C195.195 276.487 195.013 278.353 194.311 280.049C193.608 281.745 192.417 283.195 190.888 284.215C189.358 285.236 187.56 285.78 185.72 285.78C184.499 285.794 183.287 285.565 182.155 285.106C181.024 284.648 179.995 283.969 179.13 283.109C178.264 282.25 177.58 281.227 177.115 280.1C176.651 278.973 176.416 277.766 176.425 276.548ZM189.753 276.548C189.732 275.757 189.476 274.99 189.02 274.343C188.563 273.696 187.925 273.197 187.186 272.91C186.447 272.622 185.639 272.558 184.864 272.726C184.089 272.894 183.38 273.286 182.827 273.853C182.274 274.42 181.901 275.137 181.754 275.915C181.607 276.692 181.694 277.496 182.002 278.225C182.311 278.954 182.828 279.576 183.49 280.013C184.151 280.45 184.927 280.683 185.72 280.683C186.263 280.698 186.804 280.6 187.307 280.396C187.811 280.191 188.266 279.885 188.645 279.497C189.024 279.108 189.318 278.645 189.509 278.138C189.7 277.63 189.783 277.089 189.753 276.548Z" fill="#B8BFFF"/>
<path id="Vector_8" d="M197.468 263.116C197.468 262.493 197.653 261.884 198 261.367C198.347 260.849 198.84 260.445 199.417 260.207C199.994 259.969 200.628 259.906 201.241 260.028C201.853 260.149 202.415 260.449 202.857 260.889C203.298 261.33 203.599 261.891 203.721 262.501C203.843 263.112 203.78 263.745 203.541 264.32C203.302 264.896 202.898 265.387 202.378 265.733C201.859 266.079 201.249 266.264 200.625 266.264C199.79 266.255 198.992 265.921 198.402 265.333C197.812 264.744 197.476 263.948 197.468 263.116ZM197.999 267.803H203.262V285.293H197.992L197.999 267.803Z" fill="#B8BFFF"/>
<path id="Vector_9" d="M225.979 276.548C226.04 277.703 225.871 278.86 225.482 279.951C225.093 281.041 224.492 282.044 223.713 282.902C222.934 283.76 221.993 284.456 220.943 284.95C219.893 285.444 218.756 285.726 217.597 285.78C216.622 285.833 215.647 285.669 214.744 285.3C213.84 284.931 213.03 284.366 212.373 283.646V292.287H207.112V267.803H212.373V269.446C213.031 268.726 213.841 268.162 214.744 267.793C215.648 267.424 216.622 267.26 217.597 267.313C218.756 267.367 219.894 267.649 220.944 268.143C221.994 268.637 222.935 269.333 223.714 270.191C224.493 271.05 225.095 272.053 225.483 273.144C225.872 274.235 226.041 275.391 225.979 276.548ZM220.718 276.548C220.698 275.729 220.435 274.935 219.964 274.264C219.493 273.593 218.835 273.076 218.07 272.777C217.306 272.478 216.47 272.41 215.668 272.583C214.865 272.755 214.131 273.16 213.558 273.746C212.985 274.332 212.598 275.074 212.445 275.879C212.293 276.683 212.381 277.514 212.7 278.269C213.019 279.024 213.554 279.667 214.239 280.12C214.923 280.573 215.725 280.814 216.546 280.814C217.11 280.839 217.673 280.745 218.197 280.538C218.722 280.331 219.197 280.016 219.591 279.613C219.985 279.21 220.288 278.729 220.483 278.2C220.677 277.672 220.757 277.109 220.718 276.548Z" fill="#B8BFFF"/>
<path id="Vector_10" d="M242.214 280.044C242.214 284.066 238.709 285.78 234.921 285.78C233.391 285.918 231.855 285.596 230.51 284.854C229.166 284.112 228.076 282.984 227.38 281.618L231.938 279.03C232.123 279.661 232.519 280.211 233.06 280.586C233.602 280.962 234.257 281.141 234.914 281.093C236.176 281.093 236.808 280.708 236.808 280.01C236.808 278.085 228.179 279.1 228.179 273.05C228.179 269.235 231.407 267.313 235.054 267.313C236.425 267.27 237.782 267.594 238.985 268.252C240.188 268.911 241.192 269.878 241.892 271.055L237.403 273.468C237.207 273.01 236.879 272.62 236.461 272.346C236.043 272.073 235.554 271.928 235.054 271.93C234.142 271.93 233.58 272.283 233.58 272.908C233.587 274.903 242.214 273.573 242.214 280.044Z" fill="#B8BFFF"/>
<path id="Vector_11" d="M261.433 267.803V285.293H256.171V283.648C255.564 284.374 254.793 284.945 253.922 285.316C253.05 285.687 252.104 285.847 251.158 285.782C247.615 285.782 244.604 283.264 244.604 278.539V267.803H249.865V277.77C249.821 278.187 249.869 278.608 250.005 279.004C250.14 279.401 250.361 279.763 250.652 280.065C250.942 280.368 251.295 280.604 251.686 280.757C252.076 280.909 252.496 280.976 252.916 280.95C254.845 280.95 256.177 279.832 256.177 277.348V267.808L261.433 267.803Z" fill="#B8BFFF"/>
<path id="Vector_12" d="M291.6 274.553V285.291H286.339V275.007C286.339 273.258 285.497 272.14 283.815 272.14C282.061 272.14 281.078 273.364 281.078 275.428V285.291H275.818V275.007C275.818 273.258 274.977 272.14 273.292 272.14C271.539 272.14 270.557 273.364 270.557 275.428V285.291H265.296V267.801H270.557V269.408C271.103 268.695 271.818 268.13 272.639 267.763C273.461 267.397 274.36 267.242 275.257 267.311C276.157 267.267 277.053 267.457 277.859 267.861C278.663 268.266 279.349 268.871 279.85 269.619C280.433 268.837 281.205 268.215 282.095 267.811C282.984 267.408 283.962 267.236 284.936 267.311C288.962 267.313 291.6 270.181 291.6 274.553Z" fill="#B8BFFF"/>
<path id="Vector_13" d="M296.05 267.695C298.206 267.695 299.954 265.951 299.954 263.801C299.954 261.651 298.206 259.907 296.05 259.907C293.894 259.907 292.146 261.651 292.146 263.801C292.146 265.951 293.894 267.695 296.05 267.695Z" fill="#B8BFFF"/>
</g>
</g>
</svg>
