<svg width="248" height="53" viewBox="0 0 248 53" fill="none" xmlns="http://www.w3.org/2000/svg">
<path d="M39.7137 23.6221C39.0423 24.2957 38.5282 25.1088 38.2079 26.003C37.8877 26.8975 37.7692 27.8513 37.8607 28.7967L37.8289 28.7649C37.9231 29.8777 37.7725 30.9974 37.3879 32.0463C37.0034 33.095 36.394 34.0474 35.6024 34.8371C34.8105 35.6266 33.8555 36.2345 32.8038 36.6179C31.7523 37.0014 30.6294 37.1516 29.5138 37.0576L29.5457 37.0894C28.2111 36.9656 26.8706 37.2551 25.707 37.9188C24.5435 38.5826 23.6135 39.588 23.044 40.7982C22.4745 42.0083 22.2929 43.3641 22.5242 44.6809C22.7558 45.9976 23.3887 47.2112 24.3369 48.156C25.2852 49.1008 26.5025 49.731 27.8229 49.9604C29.1435 50.1901 30.5028 50.0078 31.7157 49.4388C32.9286 48.8695 33.9358 47.9413 34.6003 46.7803C35.2647 45.6192 35.554 44.2822 35.4286 42.9512L35.4622 42.983C35.368 41.8704 35.5184 40.7505 35.903 39.7016C36.2875 38.6529 36.8971 37.7005 37.6887 36.9108C38.4806 36.1213 39.4355 35.5134 40.4871 35.13C41.5388 34.7464 42.6615 34.5963 43.7773 34.6903L43.7437 34.6585C44.8338 34.7562 45.9312 34.5779 46.934 34.1401C47.9366 33.7023 48.8124 33.0192 49.4799 32.154C50.1474 31.2889 50.5853 30.2695 50.7525 29.1908C50.9199 28.1119 50.8115 27.0084 50.4374 25.9824C50.0632 24.9565 49.4354 24.0413 48.6123 23.3218C47.7891 22.6022 46.7971 22.1015 45.7282 21.8662C44.6593 21.6309 43.5481 21.6683 42.4976 21.9752C41.4472 22.2823 40.4915 22.8487 39.719 23.6221H39.7137Z" fill="#B8BFFF"/>
<path d="M26.6458 32.9236L26.6122 32.8918C27.5604 32.987 28.5181 32.871 29.416 32.5519C30.3137 32.2328 31.1293 31.7189 31.8035 31.0471C32.4775 30.3752 32.9937 29.5622 33.3142 28.667C33.6348 27.7718 33.7519 26.8169 33.6571 25.8711L33.6908 25.9029C33.5966 24.79 33.7471 23.6703 34.1315 22.6215C34.5161 21.5728 35.1257 20.6204 35.9173 19.8307C36.7091 19.0411 37.6641 18.4332 38.7156 18.0499C39.7673 17.6662 40.8901 17.5162 42.0059 17.6101L41.9722 17.5783C43.307 17.7034 44.6478 17.4147 45.812 16.7517C46.9763 16.0888 47.907 15.0837 48.4774 13.8738C49.0478 12.6639 49.2301 11.3079 48.9995 9.99086C48.7688 8.67379 48.1364 7.45977 47.1884 6.51436C46.2405 5.56896 45.0232 4.93819 43.7026 4.70813C42.382 4.47806 41.0224 4.65987 39.8091 5.22877C38.5959 5.79765 37.5883 6.72595 36.9235 7.88702C36.2587 9.04807 35.9692 10.3854 36.0946 11.7165L36.0627 11.683C36.1572 12.7958 36.0069 13.9157 35.6225 14.9646C35.2381 16.0135 34.6286 16.9661 33.8369 17.7559C33.0451 18.5454 32.09 19.1533 31.0383 19.5367C29.9864 19.9201 28.8635 20.0699 27.7477 19.9757L27.7795 20.0093C26.8313 19.914 25.8735 20.0301 24.9757 20.3492C24.078 20.6681 23.2624 21.1822 22.5882 21.854C21.914 22.5259 21.398 23.3389 21.0773 24.2341C20.7569 25.1292 20.6398 26.0841 20.7346 27.03L20.7027 26.9982C20.7966 28.1109 20.6458 29.2306 20.2612 30.2793C19.8765 31.3278 19.2671 32.2802 18.4755 33.0697C17.6837 33.8592 16.7289 34.467 15.6774 34.8507C14.626 35.2342 13.5033 35.3846 12.3876 35.2909L12.4195 35.3227C11.0847 35.1977 9.74383 35.4863 8.57963 36.1494C7.41545 36.8124 6.48465 37.8173 5.91423 39.0273C5.3438 40.2373 5.16148 41.5932 5.39218 42.9102C5.62287 44.2273 6.25534 45.4413 7.20328 46.3867C8.15125 47.3322 9.36854 47.9629 10.6892 48.1929C12.0098 48.4229 13.3694 48.2411 14.5826 47.6723C15.7958 47.1034 16.8035 46.1752 17.4682 45.0141C18.1331 43.8529 18.4225 42.5157 18.2971 41.1845L18.3307 41.2163C18.2365 40.1035 18.3871 38.9838 18.7717 37.9349C19.1561 36.8862 19.7656 35.9338 20.5573 35.1441C21.3491 34.3546 22.3041 33.7467 23.3556 33.3633C24.4073 32.9798 25.53 32.8296 26.6458 32.9236Z" fill="#B8BFFF"/>
<path d="M14.7737 29.3779C15.4451 28.7044 15.9592 27.8914 16.2791 26.997C16.5991 26.1025 16.7172 25.1485 16.6249 24.2033L16.6585 24.2351C16.5643 23.1221 16.7148 22.0019 17.0995 20.9528C17.4843 19.9038 18.0941 18.9512 18.8863 18.1615C19.6784 17.3718 20.6338 16.7641 21.6858 16.3809C22.7379 15.9976 23.8611 15.8479 24.9771 15.9424L24.9435 15.9106C26.2777 16.0353 27.6182 15.7464 28.7818 15.0835C29.9455 14.4206 30.8756 13.4159 31.4459 12.2063C32.0159 10.9967 32.198 9.64127 31.9674 8.32469C31.7367 7.00812 31.1043 5.79456 30.1568 4.8495C29.2093 3.90444 27.9923 3.27388 26.6722 3.04383C25.3522 2.81375 23.9929 2.9954 22.7802 3.56395C21.5673 4.1325 20.5599 5.0603 19.8953 6.22082C19.2305 7.38135 18.9408 8.71811 19.0659 10.0488L19.034 10.017C19.1282 11.1297 18.9777 12.2496 18.5931 13.2983C18.2085 14.3471 17.5992 15.2995 16.8074 16.0892C16.0157 16.8788 15.0607 17.4866 14.0091 17.87C12.9575 18.2536 11.8347 18.4037 10.7189 18.3097L10.7508 18.3415C9.66061 18.244 8.56337 18.4226 7.56078 18.8606C6.55818 19.2985 5.68266 19.9819 5.01534 20.8472C4.34803 21.7123 3.91052 22.7317 3.74333 23.8104C3.57616 24.8893 3.68473 25.9928 4.05898 27.0185C4.43323 28.0444 5.06108 28.9594 5.88432 29.6788C6.70755 30.3983 7.69955 30.8988 8.7684 31.1341C9.83722 31.3693 10.9483 31.3317 11.9987 31.0248C13.0491 30.7177 14.0048 30.1513 14.7772 29.3779H14.7737Z" fill="#B8BFFF"/>
<path d="M69.6473 11.7572H74.9084V37.2908H69.6473V11.7572Z" fill="#B8BFFF"/>
<path d="M77.8879 28.5476C77.8807 26.7127 78.4196 24.9167 79.4364 23.3875C80.4532 21.8583 81.9022 20.6643 83.5999 19.9571C85.2977 19.2498 87.1676 19.0609 88.973 19.4144C90.7785 19.7679 92.4381 20.6477 93.7417 21.9427C95.0453 23.2375 95.9342 24.8892 96.2959 26.6883C96.6576 28.4875 96.4757 30.3533 95.7734 32.0493C95.071 33.7451 93.8797 35.1952 92.3504 36.2153C90.821 37.2355 89.0226 37.7802 87.1826 37.7802C85.9614 37.7941 84.7496 37.565 83.618 37.1064C82.4864 36.6477 81.4579 35.9688 80.5926 35.1093C79.727 34.2497 79.0422 33.2266 78.5779 32.1C78.1134 30.9734 77.8789 29.7657 77.8879 28.5476ZM91.2162 28.5476C91.1942 27.7566 90.9389 26.9897 90.4824 26.3426C90.0258 25.6956 89.3881 25.1971 88.649 24.9096C87.9098 24.622 87.1022 24.5581 86.3269 24.7259C85.5515 24.8937 84.8429 25.2856 84.2897 25.8529C83.7367 26.42 83.3633 27.1372 83.2168 27.9149C83.0701 28.6924 83.1564 29.4959 83.4651 30.2248C83.7739 30.9538 84.2911 31.5756 84.9522 32.0129C85.6135 32.4501 86.3894 32.6833 87.1826 32.6833C87.7259 32.6978 88.2664 32.5998 88.77 32.3955C89.2734 32.1913 89.7291 31.8853 90.108 31.4968C90.4869 31.1082 90.7811 30.6455 90.9717 30.1379C91.1625 29.6304 91.2458 29.0889 91.2162 28.5476Z" fill="#B8BFFF"/>
<path d="M117.446 19.8026V36.4092C117.446 42.2852 112.851 44.7691 108.186 44.7691C106.544 44.8917 104.9 44.5608 103.434 43.813C101.968 43.065 100.736 41.9288 99.8749 40.5291L104.364 37.9409C104.726 38.6706 105.303 39.2725 106.017 39.6663C106.732 40.0599 107.55 40.2266 108.362 40.144C108.881 40.2157 109.409 40.1701 109.908 40.0106C110.407 39.851 110.864 39.5816 111.244 39.2225C111.625 38.8631 111.92 38.4232 112.107 37.9349C112.294 37.4468 112.368 36.923 112.325 36.4022V34.8033C111.708 35.555 110.924 36.1524 110.035 36.5472C109.146 36.9421 108.176 37.1235 107.203 37.077C104.889 37.0042 102.695 36.0365 101.084 34.3783C99.473 32.7203 98.5722 30.502 98.5722 28.1933C98.5722 25.8847 99.473 23.6664 101.084 22.0084C102.695 20.3502 104.889 19.3825 107.203 19.3097C108.176 19.2632 109.146 19.4446 110.035 19.8395C110.924 20.2343 111.708 20.8316 112.325 21.5834V19.799L117.446 19.8026ZM112.326 28.196C112.362 27.3505 112.142 26.5136 111.697 25.7933C111.251 25.0729 110.6 24.5021 109.826 24.1542C109.053 23.8062 108.192 23.6972 107.356 23.841C106.52 23.9848 105.746 24.3749 105.134 24.9612C104.522 25.5474 104.1 26.3028 103.922 27.1303C103.744 27.9579 103.818 28.8196 104.136 29.6046C104.453 30.3895 104.998 31.0619 105.702 31.535C106.406 32.0081 107.235 32.2604 108.084 32.2593C108.637 32.2978 109.191 32.2205 109.712 32.0321C110.233 31.8438 110.709 31.5486 111.108 31.1659C111.508 30.7831 111.823 30.3211 112.033 29.8095C112.242 29.298 112.343 28.7484 112.326 28.196Z" fill="#B8BFFF"/>
<path d="M120.425 28.5476C120.418 26.7127 120.957 24.9167 121.974 23.3875C122.99 21.8583 124.439 20.6643 126.137 19.9571C127.835 19.2498 129.705 19.0609 131.51 19.4144C133.316 19.7679 134.975 20.6477 136.279 21.9427C137.583 23.2375 138.471 24.8892 138.833 26.6883C139.195 28.4875 139.013 30.3533 138.311 32.0493C137.608 33.7451 136.417 35.1952 134.888 36.2153C133.358 37.2355 131.56 37.7802 129.72 37.7802C128.499 37.7941 127.287 37.565 126.155 37.1064C125.024 36.6477 123.995 35.9688 123.13 35.1093C122.264 34.2497 121.58 33.2266 121.115 32.1C120.651 30.9734 120.416 29.7657 120.425 28.5476ZM133.753 28.5476C133.732 27.7566 133.476 26.9897 133.02 26.3426C132.563 25.6956 131.925 25.1971 131.186 24.9096C130.447 24.622 129.639 24.5581 128.864 24.7259C128.089 24.8937 127.38 25.2856 126.827 25.8529C126.274 26.42 125.901 27.1372 125.754 27.9149C125.607 28.6924 125.694 29.4959 126.002 30.2248C126.311 30.9538 126.828 31.5756 127.49 32.0129C128.151 32.4501 128.927 32.6833 129.72 32.6833C130.263 32.6978 130.804 32.5998 131.307 32.3955C131.811 32.1913 132.266 31.8853 132.645 31.4968C133.024 31.1082 133.318 30.6455 133.509 30.1379C133.7 29.6304 133.783 29.0889 133.753 28.5476Z" fill="#B8BFFF"/>
<path d="M141.468 15.1156C141.468 14.4929 141.653 13.8843 142 13.3666C142.347 12.8488 142.84 12.4453 143.417 12.2071C143.994 11.9688 144.628 11.9064 145.241 12.0279C145.853 12.1494 146.415 12.4492 146.857 12.8895C147.298 13.3298 147.599 13.8907 147.721 14.5014C147.843 15.1121 147.78 15.7451 147.541 16.3204C147.302 16.8956 146.898 17.3873 146.378 17.7333C145.859 18.0792 145.249 18.2638 144.625 18.2638C143.79 18.2555 142.992 17.9212 142.402 17.3326C141.812 16.7439 141.476 15.948 141.468 15.1156ZM141.999 19.8026H147.262V37.2926H141.992L141.999 19.8026Z" fill="#B8BFFF"/>
<path d="M169.979 28.5476C170.04 29.7035 169.871 30.86 169.482 31.9505C169.093 33.0411 168.492 34.0442 167.713 34.9023C166.934 35.7602 165.993 36.4562 164.943 36.9502C163.893 37.444 162.756 37.7261 161.597 37.7802C160.622 37.8332 159.647 37.6692 158.744 37.3002C157.84 36.9309 157.03 36.3659 156.373 35.646V44.2868H151.112V19.8026H156.373V21.4456C157.031 20.7262 157.841 20.1616 158.744 19.7928C159.648 19.424 160.622 19.2602 161.597 19.3132C162.756 19.3671 163.894 19.649 164.944 20.143C165.994 20.637 166.935 21.333 167.714 22.1913C168.493 23.0495 169.095 24.053 169.483 25.1439C169.872 26.2346 170.041 27.3915 169.979 28.5476ZM164.718 28.5476C164.698 27.7291 164.435 26.9348 163.964 26.264C163.493 25.5933 162.835 25.0761 162.07 24.7771C161.306 24.478 160.47 24.4104 159.668 24.5828C158.865 24.7551 158.131 25.1596 157.558 25.7458C156.985 26.3322 156.598 27.0738 156.445 27.8785C156.293 28.6831 156.381 29.5145 156.7 30.269C157.019 31.0235 157.554 31.6673 158.239 32.1201C158.923 32.5727 159.725 32.8142 160.546 32.8141C161.11 32.8392 161.673 32.745 162.197 32.5379C162.722 32.3311 163.197 32.0157 163.591 31.6129C163.985 31.2099 164.288 30.7287 164.483 30.2005C164.677 29.6722 164.757 29.1088 164.718 28.5476Z" fill="#B8BFFF"/>
<path d="M186.214 32.0438C186.214 36.0665 182.709 37.7802 178.921 37.7802C177.391 37.9183 175.855 37.5957 174.51 36.8535C173.166 36.1116 172.076 34.9844 171.38 33.6179L175.938 31.0297C176.123 31.6613 176.519 32.2109 177.06 32.5863C177.602 32.9619 178.257 33.1409 178.914 33.0932C180.176 33.0932 180.808 32.7081 180.808 32.0102C180.808 30.0846 172.179 31.1004 172.179 25.0496C172.179 21.2353 175.407 19.3132 179.054 19.3132C180.425 19.2699 181.782 19.5943 182.985 20.2524C184.188 20.9106 185.192 21.8784 185.892 23.055L181.403 25.4683C181.207 25.0102 180.879 24.6199 180.461 24.3463C180.043 24.0726 179.554 23.9277 179.054 23.9295C178.142 23.9295 177.58 24.2828 177.58 24.9082C177.587 26.9028 186.214 25.5725 186.214 32.0438Z" fill="#B8BFFF"/>
<path d="M205.433 19.8026V37.2926H200.171V35.6478C199.564 36.3735 198.793 36.9454 197.922 37.3164C197.05 37.6874 196.104 37.8469 195.158 37.7819C191.615 37.7819 188.604 35.2644 188.604 30.5386V19.8026H193.865V29.7701C193.821 30.1867 193.869 30.6079 194.005 31.0041C194.14 31.4006 194.361 31.7627 194.652 32.0654C194.942 32.368 195.295 32.6038 195.686 32.7566C196.076 32.9095 196.496 32.9755 196.916 32.9501C198.845 32.9501 200.177 31.8318 200.177 29.3479V19.8079L205.433 19.8026Z" fill="#B8BFFF"/>
<path d="M235.6 26.553V37.2908H230.339V27.007C230.339 25.258 229.497 24.1397 227.815 24.1397C226.061 24.1397 225.078 25.364 225.078 27.4275V37.2908H219.818V27.007C219.818 25.258 218.977 24.1397 217.292 24.1397C215.539 24.1397 214.557 25.364 214.557 27.4275V37.2908H209.296V19.8008H214.557V21.4085C215.103 20.6953 215.818 20.1296 216.639 19.7633C217.461 19.3969 218.36 19.2417 219.257 19.3114C220.157 19.2674 221.053 19.457 221.859 19.8614C222.663 20.2656 223.349 20.8712 223.85 21.6187C224.433 20.8366 225.205 20.2147 226.095 19.8112C226.984 19.4077 227.962 19.2358 228.936 19.3114C232.962 19.3132 235.6 22.1805 235.6 26.553Z" fill="#B8BFFF"/>
<path d="M240.05 19.6948C242.206 19.6948 243.954 17.9515 243.954 15.8011C243.954 13.6506 242.206 11.9073 240.05 11.9073C237.894 11.9073 236.146 13.6506 236.146 15.8011C236.146 17.9515 237.894 19.6948 240.05 19.6948Z" fill="#B8BFFF"/>
</svg>
