<svg width="18" height="18" viewBox="0 0 18 18" fill="none" xmlns="http://www.w3.org/2000/svg">
<path d="M16.9278 7.50469H9.16547V10.6951H13.5998C13.4086 11.7264 12.8286 12.5986 11.9541 13.183C11.2151 13.6771 10.2719 13.9693 9.16332 13.9693C7.01703 13.9693 5.2016 12.5191 4.55277 10.5705C4.38949 10.0764 4.29496 9.54785 4.29496 9.0043C4.29496 8.46074 4.38949 7.93223 4.55277 7.43809C5.20375 5.4916 7.01918 4.04141 9.16547 4.04141C10.375 4.04141 11.46 4.4582 12.3151 5.27461L14.6784 2.90918C13.2496 1.57715 11.387 0.760742 9.16547 0.760742C5.94496 0.760742 3.15844 2.6084 1.80277 5.30254C1.24418 6.41543 0.926208 7.67441 0.926208 9.00644C0.926208 10.3385 1.24418 11.5953 1.80277 12.7082C3.15844 15.4023 5.94496 17.25 9.16547 17.25C11.3912 17.25 13.2561 16.5109 14.6182 15.252C16.1758 13.8168 17.076 11.7027 17.076 9.19121C17.076 8.60684 17.0245 8.04609 16.9278 7.50469Z" fill="white"/>
</svg>
