<svg width="268" height="173" viewBox="0 0 268 173" fill="none" xmlns="http://www.w3.org/2000/svg">
<g filter="url(#filter0_d)">
<path d="M110.063 125.642C109.765 118.67 110.181 82.6686 110.181 82.6686C106.352 81.5991 43.7548 82.2224 41.7892 82.3121C39.8236 82.4018 39.2593 82.9354 39.2593 82.9354C39.2593 82.9354 36.8728 83.6967 35.7489 100.491L35.1176 121.631C35.1176 121.631 36.6392 120.941 41.7892 120.92C46.9391 120.899 110.702 123.45 110.063 125.642Z" fill="#4D61FC"/>
<path d="M110.316 125.642C110.614 118.67 110.2 82.6686 110.2 82.6686C114.027 81.5991 176.624 82.2224 178.592 82.3121C180.56 82.4018 181.12 82.9354 181.12 82.9354C181.12 82.9354 183.506 83.6967 184.63 100.491L185.264 121.631C185.264 121.631 183.742 120.941 178.592 120.92C173.442 120.899 109.677 123.45 110.316 125.642Z" fill="#4D61FC"/>
<path opacity="0.2" d="M35.7142 101.639C35.7142 101.639 55.1046 117.709 109.173 116.842C109.173 116.842 173.606 118.128 183.173 104.266V121.631L110.396 126.67L35.1176 121.631L35.7142 101.639Z" fill="black"/>
<path d="M179.957 109.592V137.652H39.0559V109.592C39.0559 108.904 38.7812 108.244 38.2921 107.758C37.8028 107.271 37.1393 106.998 36.4474 106.998H23.8211C23.1295 106.998 22.466 107.271 21.9767 107.758C21.4876 108.244 21.2126 108.904 21.2126 109.592V155.109C21.2124 155.45 21.2797 155.788 21.4106 156.103C21.5417 156.418 21.7337 156.704 21.976 156.946C22.2181 157.187 22.5058 157.378 22.8224 157.508C23.1392 157.639 23.4784 157.706 23.8211 157.706H195.192C195.534 157.706 195.874 157.639 196.191 157.508C196.507 157.378 196.794 157.187 197.037 156.946C197.28 156.704 197.472 156.418 197.601 156.103C197.733 155.788 197.8 155.45 197.8 155.109V109.592C197.8 108.904 197.525 108.244 197.037 107.758C196.547 107.271 195.883 106.998 195.192 106.998H182.565C181.874 106.998 181.21 107.271 180.72 107.758C180.232 108.244 179.957 108.904 179.957 109.592Z" fill="#4D61FC"/>
<path opacity="0.2" d="M179.545 142.494L143.531 143.69C121.241 144.431 98.9455 144.431 76.6437 143.69L40.1987 142.489C39.6923 142.484 39.2043 142.299 38.8228 141.967C38.4414 141.636 38.1912 141.18 38.1175 140.681L37.9625 139.722H181.775L181.62 140.681C181.548 141.18 181.298 141.636 180.919 141.968C180.537 142.3 180.052 142.487 179.545 142.494Z" fill="black"/>
<path d="M38.1176 140.808C38.1176 140.808 77.0924 143.004 110.397 140.063C110.397 140.063 111.165 122.969 109.292 121.739C107.812 120.77 107.719 120.938 99.9145 120.819C91.6866 120.701 48.2648 120.752 46.0541 120.819C43.8433 120.885 40.1988 121.421 38.1176 122.624C36.0363 123.827 36.1658 126.1 36.1658 126.1C36.1658 126.1 36.6861 132.648 36.6861 134.52C36.6861 136.392 36.0178 140.7 38.1176 140.808Z" fill="#B2B6BB"/>
<path d="M182.637 140.808C182.637 140.808 143.662 143 110.358 140.063C110.358 140.063 109.59 122.969 111.465 121.739C112.943 120.77 113.036 120.938 120.84 120.819C129.068 120.701 172.49 120.752 174.701 120.819C176.912 120.885 180.556 121.421 182.637 122.624C184.719 123.827 184.589 126.1 184.589 126.1C184.589 126.1 184.069 132.648 184.069 134.52C184.069 136.392 184.739 140.7 182.637 140.808Z" fill="#B2B6BB"/>
<path d="M30.0188 156.706H35.3376V162.61C35.3376 162.817 35.2548 163.015 35.1079 163.162C34.9609 163.308 34.7615 163.39 34.5536 163.39H30.8027C30.5946 163.39 30.3953 163.308 30.2482 163.162C30.1014 163.015 30.0188 162.817 30.0188 162.61V156.706Z" fill="#4D61FC"/>
<path opacity="0.2" d="M35.3491 157.706H30.0188V159.318H35.3491V157.706Z" fill="black"/>
<path d="M45.5452 156.706H50.8639V162.61C50.8639 162.817 50.7814 163.015 50.6343 163.162C50.4872 163.308 50.2879 163.39 50.08 163.39H46.3314C46.1235 163.39 45.9242 163.308 45.7771 163.162C45.63 163.015 45.5475 162.817 45.5475 162.61V156.706H45.5452Z" fill="#4D61FC"/>
<path opacity="0.2" d="M50.8754 157.706H45.545V160.473H50.8754V157.706Z" fill="black"/>
<path d="M187.977 163.39H184.217C184.009 163.39 183.81 163.308 183.662 163.162C183.516 163.015 183.433 162.817 183.433 162.61V156.706H188.752V162.61C188.752 162.815 188.671 163.012 188.525 163.158C188.379 163.304 188.183 163.387 187.977 163.39Z" fill="#4D61FC"/>
<path opacity="0.2" d="M183.43 159.318H188.761V157.706H183.43V159.318Z" fill="black"/>
<path d="M172.45 163.39H168.69C168.482 163.39 168.282 163.308 168.135 163.162C167.988 163.015 167.906 162.817 167.906 162.61V156.706H173.225V162.61C173.225 162.815 173.144 163.012 172.998 163.158C172.852 163.304 172.656 163.387 172.45 163.39Z" fill="#4D61FC"/>
<path opacity="0.2" d="M167.904 160.471H173.234V157.704H167.904V160.471Z" fill="black"/>
<path d="M30.6013 92.4988C30.6013 92.4988 52.3389 94.5895 54.6259 96.4618C56.913 98.334 65.9133 112.019 67.5274 120.948H41.8586C41.8933 121.026 25.4444 90.8014 30.6013 92.4988Z" fill="#4D61FC"/>
<path opacity="0.2" d="M40.5339 93.6189C40.5339 93.6189 46.3013 94.9483 51.7958 107.948C51.7958 107.948 55.9976 115.46 54.0597 120.948L64.8752 120.69L51.2315 95.1599L40.5339 93.6189Z" fill="black"/>
<path d="M187.507 92.5931C187.507 92.5931 165.77 94.6861 163.483 96.556C161.196 98.4259 152.195 112.116 150.581 121.042H176.25C176.25 121.042 192.717 90.7692 187.507 92.5931Z" fill="#4D61FC"/>
<path opacity="0.2" d="M162.763 97.2806C152.848 109.321 150.581 121.042 150.581 121.042H160.756C160.756 121.042 157.417 115.888 162.017 106.782C166.616 97.6762 170.804 94.6885 170.804 94.6885C170.804 94.6885 163.677 95.3624 162.763 97.2806Z" fill="black"/>
<path d="M263.057 163.47H4.41499C4.32295 163.47 4.23462 163.506 4.16964 163.571C4.10466 163.636 4.06812 163.723 4.06812 163.815C4.06812 163.906 4.10466 163.994 4.16964 164.059C4.23462 164.124 4.32295 164.16 4.41499 164.16H263.057C263.149 164.16 263.237 164.124 263.302 164.059C263.366 163.994 263.403 163.906 263.403 163.815C263.403 163.723 263.366 163.636 263.302 163.571C263.237 163.506 263.149 163.47 263.057 163.47Z" fill="#18259A"/>
<path d="M216.348 0.321716H139.062C138.448 0.321716 137.95 0.817136 137.95 1.42802V119.262C137.95 119.873 138.448 120.368 139.062 120.368H216.348C216.964 120.368 217.461 119.873 217.461 119.262V1.42802C217.461 0.817136 216.964 0.321716 216.348 0.321716Z" fill="#4D61FC"/>
<g opacity="0.6">
<path opacity="0.6" d="M216.348 0.321716H139.062C138.448 0.321716 137.95 0.817136 137.95 1.42802V119.262C137.95 119.873 138.448 120.368 139.062 120.368H216.348C216.964 120.368 217.461 119.873 217.461 119.262V1.42802C217.461 0.817136 216.964 0.321716 216.348 0.321716Z" fill="#B8BFFF"/>
</g>
<path d="M204.005 84.8445H151.409C148.357 84.8445 145.883 87.3055 145.883 90.3415V90.8659C145.883 93.9019 148.357 96.3629 151.409 96.3629H204.005C207.058 96.3629 209.532 93.9019 209.532 90.8659V90.3415C209.532 87.3055 207.058 84.8445 204.005 84.8445Z" fill="#B8BFFF"/>
<path d="M216.983 7.20801H138.429V58.8704H216.983V7.20801Z" fill="#B8BFFF"/>
<path d="M163.223 28.2299L163.357 27.9332L163.535 28.2046C163.68 28.4217 163.882 28.594 164.121 28.7014L164.419 28.8325L164.146 29.0119C163.927 29.1543 163.753 29.3562 163.646 29.5938L163.515 29.8882L163.334 29.6168C163.191 29.3994 162.988 29.2279 162.749 29.1223L162.453 28.9889L162.726 28.8118C162.944 28.6687 163.116 28.467 163.223 28.2299Z" fill="#4D61FC"/>
<path d="M154.281 26.0036L154.357 25.8311L154.461 25.9898C154.545 26.1161 154.663 26.2159 154.801 26.2773L154.975 26.3532L154.815 26.4568C154.688 26.5396 154.588 26.6571 154.526 26.7949L154.45 26.9674L154.346 26.8087C154.262 26.6824 154.144 26.5826 154.006 26.5212L153.832 26.4453L153.992 26.3418C154.119 26.2589 154.219 26.1416 154.281 26.0036Z" fill="#4D61FC"/>
<path d="M193.267 44.7531L193.346 44.5806L193.448 44.737C193.531 44.8638 193.649 44.9638 193.788 45.0245L193.961 45.1027L193.804 45.2062C193.677 45.289 193.575 45.4063 193.512 45.5443L193.436 45.7168L193.332 45.5581C193.249 45.4319 193.131 45.332 192.992 45.2706L192.819 45.1924L192.978 45.0889C193.105 45.0068 193.205 44.8902 193.267 44.7531Z" fill="#4D61FC"/>
<path d="M207.054 36.97L207.189 36.6733L207.367 36.9447C207.51 37.1627 207.714 37.3352 207.952 37.4415L208.25 37.5726L207.977 37.752C207.76 37.8953 207.586 38.097 207.478 38.3339L207.346 38.6306L207.165 38.3592C207.024 38.1407 206.821 37.9682 206.583 37.8624L206.284 37.729L206.557 37.5519C206.775 37.4088 206.948 37.2071 207.054 36.97Z" fill="#4D61FC"/>
<path d="M205.26 26.0909L205.491 25.5941L205.792 26.0541C206.032 26.4189 206.375 26.7076 206.775 26.8868L207.277 27.1168L206.814 27.4158C206.446 27.6545 206.155 27.994 205.977 28.3933L205.746 28.8901L205.445 28.4301C205.205 28.0646 204.862 27.7755 204.462 27.5975L203.96 27.3675L204.423 27.0685C204.788 26.8283 205.08 26.4893 205.26 26.0909Z" fill="#4D61FC"/>
<path d="M160.444 19.1449L160.675 18.6458L160.976 19.1058C161.217 19.4712 161.558 19.7611 161.959 19.9407L162.46 20.1707L161.998 20.4697C161.631 20.7098 161.341 21.0491 161.161 21.4472L160.93 21.9463L160.629 21.4863C160.388 21.1202 160.047 20.8304 159.646 20.6514L159.147 20.4214L159.609 20.1224C159.975 19.8818 160.265 19.5428 160.444 19.1449Z" fill="#4D61FC"/>
<path d="M204.005 99.0055H151.409C148.357 99.0055 145.883 101.467 145.883 104.503V105.027C145.883 108.063 148.357 110.524 151.409 110.524H204.005C207.058 110.524 209.532 108.063 209.532 105.027V104.503C209.532 101.467 207.058 99.0055 204.005 99.0055Z" fill="#4D61FC"/>
<path d="M139.132 0.321716H216.391C216.687 0.321716 216.969 0.438326 217.177 0.645786C217.385 0.853246 217.503 1.13454 217.503 1.42802V6.50182H138.02V1.42571C138.02 1.13269 138.138 0.851866 138.347 0.644866C138.555 0.437866 138.838 0.321716 139.132 0.321716Z" fill="#4D61FC"/>
<path d="M142.295 3.29331C142.296 3.48398 142.239 3.67052 142.133 3.82945C142.027 3.98815 141.876 4.11212 141.699 4.18526C141.522 4.25863 141.327 4.27795 141.139 4.24115C140.951 4.20412 140.778 4.11258 140.642 3.9778C140.507 3.84325 140.414 3.67144 140.377 3.48445C140.339 3.29746 140.358 3.10357 140.431 2.92739C140.505 2.75121 140.629 2.60055 140.788 2.49452C140.948 2.38849 141.135 2.33191 141.327 2.33191C141.583 2.3326 141.829 2.43403 142.01 2.61413C142.192 2.79422 142.294 3.03824 142.295 3.29331Z" fill="#B8BFFF"/>
<path d="M145.075 3.2933C145.076 3.4842 145.019 3.67073 144.913 3.82966C144.807 3.98836 144.655 4.11233 144.478 4.18547C144.301 4.25884 144.106 4.27793 143.918 4.2409C143.73 4.20387 143.557 4.11187 143.421 3.97709C143.285 3.84208 143.193 3.67027 143.156 3.48305C143.118 3.29584 143.138 3.10195 143.212 2.92577C143.285 2.74959 143.41 2.59917 143.569 2.49337C143.729 2.38757 143.917 2.33145 144.109 2.33191C144.365 2.3326 144.61 2.43404 144.791 2.61412C144.973 2.79444 145.075 3.03846 145.075 3.2933Z" fill="#B8BFFF"/>
<path d="M147.855 3.2933C147.855 3.4842 147.799 3.67073 147.692 3.82966C147.586 3.98836 147.435 4.11233 147.258 4.18547C147.081 4.25884 146.886 4.27793 146.697 4.2409C146.509 4.20387 146.336 4.11187 146.201 3.97709C146.065 3.84208 145.973 3.67027 145.935 3.48305C145.898 3.29584 145.918 3.10195 145.991 2.92577C146.065 2.74959 146.189 2.59917 146.349 2.49337C146.509 2.38757 146.696 2.33145 146.888 2.33191C147.144 2.3326 147.39 2.43404 147.571 2.61412C147.752 2.79444 147.854 3.03846 147.855 3.2933Z" fill="#B8BFFF"/>
<path d="M201.383 68.9722H154.029C153.849 68.9722 153.703 69.1173 153.703 69.2965V70.1935C153.703 70.3726 153.849 70.5178 154.029 70.5178H201.383C201.563 70.5178 201.709 70.3726 201.709 70.1935V69.2965C201.709 69.1173 201.563 68.9722 201.383 68.9722Z" fill="#4D61FC"/>
<path d="M208.137 74.1586H147.274C147.223 74.1586 147.173 74.1384 147.137 74.102C147.1 74.0657 147.08 74.0167 147.08 73.9654C147.08 73.9141 147.1 73.8651 147.137 73.8288C147.173 73.7927 147.223 73.7722 147.274 73.7722H208.137C208.162 73.7722 208.188 73.7773 208.211 73.7869C208.234 73.7966 208.257 73.8108 208.273 73.8288C208.292 73.8467 208.306 73.8681 208.317 73.8916C208.326 73.9148 208.331 73.9401 208.331 73.9654C208.331 73.9907 208.326 74.016 208.317 74.0392C208.306 74.0627 208.292 74.0841 208.273 74.102C208.257 74.12 208.234 74.1342 208.211 74.1439C208.188 74.1535 208.162 74.1586 208.137 74.1586Z" fill="#4D61FC"/>
<path d="M193.971 77.2499H161.441C161.389 77.2499 161.34 77.2296 161.303 77.1933C161.267 77.1572 161.246 77.1079 161.246 77.0567C161.246 77.0054 161.267 76.9564 161.303 76.92C161.34 76.8839 161.389 76.8635 161.441 76.8635H193.971C194.021 76.8635 194.072 76.8839 194.107 76.92C194.144 76.9564 194.165 77.0054 194.165 77.0567C194.165 77.1079 194.144 77.1572 194.107 77.1933C194.072 77.2296 194.021 77.2499 193.971 77.2499Z" fill="#4D61FC"/>
<path d="M158.3 93.0187H151.131V88.1887H158.3V93.0187ZM151.363 92.7887H158.069V88.4187H151.363V92.7887Z" fill="#3F4249"/>
<path d="M154.716 91.211L151.175 88.3935L151.319 88.2141L154.716 90.9166L158.113 88.2141L158.256 88.3935L154.716 91.211Z" fill="#3F4249"/>
<path d="M153.814 90.3157L151.165 92.8086L151.324 92.9756L153.973 90.4827L153.814 90.3157Z" fill="#3F4249"/>
<path d="M155.717 90.3187L155.558 90.4856L158.206 92.9793L158.365 92.8124L155.717 90.3187Z" fill="#3F4249"/>
<path d="M190.744 38.1475C196.44 38.1475 201.058 33.5549 201.058 27.8895C201.058 22.2242 196.44 17.6315 190.744 17.6315C185.049 17.6315 180.431 22.2242 180.431 27.8895C180.431 33.5549 185.049 38.1475 190.744 38.1475Z" fill="#4D61FC"/>
<path opacity="0.8" d="M190.744 38.1475C196.44 38.1475 201.058 33.5549 201.058 27.8895C201.058 22.2242 196.44 17.6315 190.744 17.6315C185.049 17.6315 180.431 22.2242 180.431 27.8895C180.431 33.5549 185.049 38.1475 190.744 38.1475Z" fill="#B8BFFF"/>
<path opacity="0.2" d="M163.33 49.6936C167.221 49.6936 170.376 46.5559 170.376 42.6855C170.376 38.815 167.221 35.6774 163.33 35.6774C159.438 35.6774 156.284 38.815 156.284 42.6855C156.284 46.5559 159.438 49.6936 163.33 49.6936Z" fill="black"/>
<path d="M185.176 25.976V33.336H183.095V25.976C183.095 23.1792 180.958 20.9045 178.331 20.9045C175.704 20.9045 173.563 23.17 173.563 25.976V33.336H171.482V25.976C171.482 21.9694 174.557 18.7103 178.338 18.7103C182.119 18.7103 185.176 21.9694 185.176 25.976Z" fill="#B2B6BB"/>
<path opacity="0.2" d="M185.176 25.976V33.336H183.095V25.976C183.095 23.1792 180.958 20.9045 178.331 20.9045C175.704 20.9045 173.563 23.17 173.563 25.976V33.336H171.482V25.976C171.482 21.9694 174.557 18.7103 178.338 18.7103C182.119 18.7103 185.176 21.9694 185.176 25.976Z" fill="black"/>
<path d="M184.455 25.976V33.336H182.373V25.976C182.373 23.1792 180.237 20.9045 177.61 20.9045C174.983 20.9045 172.844 23.1792 172.844 25.976V33.336H170.763V25.976C170.763 21.9694 173.838 18.7103 177.619 18.7103C181.4 18.7103 184.455 21.9694 184.455 25.976Z" fill="#B2B6BB"/>
<path d="M187.133 29.1454H168.064V46.3517H187.133V29.1454Z" fill="#4D61FC"/>
<path opacity="0.2" d="M187.135 29.1454H184.947V46.3517H187.135V29.1454Z" fill="black"/>
<path d="M177.232 41.0916L177.845 43.9734H175.251L175.861 41.0916C175.621 40.9434 175.436 40.7212 175.334 40.4593C175.232 40.1971 175.221 39.9091 175.297 39.6389C175.376 39.3686 175.537 39.131 175.764 38.9617C175.991 38.7925 176.264 38.7009 176.548 38.7009C176.83 38.7009 177.105 38.7925 177.33 38.9617C177.556 39.131 177.718 39.3686 177.797 39.6389C177.873 39.9091 177.861 40.1971 177.76 40.4593C177.658 40.7212 177.473 40.9434 177.232 41.0916Z" fill="#263238"/>
<path d="M234.03 148.75C232.474 126.516 230.748 125.046 230.677 124.996L230.785 124.793C230.862 124.828 232.665 125.927 234.254 148.734L234.03 148.75Z" fill="#3F4249"/>
<path d="M235.644 148.75L235.413 148.736C236.437 132.494 235.323 123.634 235.311 123.547L235.542 123.517C235.542 123.606 236.671 132.487 235.647 148.75" fill="#3F4249"/>
<path d="M237.048 149.242C235.804 139.122 238.972 131.396 239.004 131.318L239.217 131.408C239.185 131.484 236.042 139.147 237.277 149.215L237.048 149.242Z" fill="#3F4249"/>
<path d="M238.345 150.477C237.825 146.863 237.852 143.191 238.428 139.584L238.659 139.626C238.09 143.205 238.063 146.849 238.578 150.436L238.345 150.477Z" fill="#3F4249"/>
<path d="M239.043 131.5L240.047 131.417C240.761 131.358 241.453 131.147 242.077 130.798C242.38 130.621 242.697 130.464 243.021 130.327C244.263 129.83 245.65 129.92 246.987 129.853C249.174 129.74 251.318 129.193 253.291 128.243C253.406 128.192 253.503 128.106 253.566 127.997C253.772 127.622 253.39 127.289 253.059 127.089C251.367 126.051 249.644 125 247.727 124.485C245.81 123.97 243.629 124.057 241.992 125.175C240.068 126.491 239.367 129.193 239.043 131.493" fill="#4D61FC"/>
<g opacity="0.3">
<g opacity="0.3">
<path opacity="0.3" d="M253.589 127.88C253.529 127.859 253.471 127.833 253.418 127.802L252.942 127.553C252.53 127.337 251.936 127.02 251.184 126.661C250.31 126.234 249.399 125.884 248.462 125.617C247.315 125.291 246.117 125.195 244.933 125.334C243.747 125.466 242.63 125.947 241.719 126.714C241.007 127.372 240.436 128.168 240.042 129.053C239.691 129.803 239.474 130.433 239.314 130.874C239.24 131.084 239.182 131.251 239.136 131.378C239.117 131.438 239.094 131.496 239.067 131.553C239.074 131.491 239.09 131.43 239.111 131.371C239.15 131.24 239.201 131.07 239.265 130.858C239.46 130.232 239.691 129.617 239.959 129.018C240.348 128.114 240.919 127.3 241.638 126.626C242.565 125.84 243.708 125.348 244.92 125.214C246.12 125.072 247.336 125.173 248.497 125.511C249.438 125.785 250.354 126.146 251.228 126.587C251.977 126.957 252.565 127.291 252.969 127.521L253.432 127.79C253.487 127.82 253.538 127.853 253.589 127.891" fill="black"/>
</g>
</g>
<g opacity="0.3">
<g opacity="0.3">
<path opacity="0.3" d="M251.178 129.17C251.157 129.2 249.843 128.354 248.243 127.282C246.643 126.21 245.364 125.315 245.384 125.283C245.405 125.251 246.717 126.1 248.317 127.171C249.917 128.243 251.198 129.14 251.178 129.17Z" fill="black"/>
</g>
</g>
<g opacity="0.3">
<g opacity="0.3">
<path opacity="0.3" d="M249.776 125.214C249.468 125.321 249.144 125.379 248.818 125.387C248.495 125.431 248.166 125.426 247.843 125.373C248.162 125.317 248.483 125.285 248.807 125.276C249.128 125.232 249.452 125.211 249.776 125.214Z" fill="black"/>
</g>
</g>
<g opacity="0.3">
<g opacity="0.3">
<path opacity="0.3" d="M244.025 124.469C243.918 124.714 243.773 124.941 243.594 125.14C243.442 125.37 243.259 125.577 243.049 125.757C243.155 125.512 243.298 125.286 243.479 125.088C243.631 124.857 243.814 124.648 244.025 124.469Z" fill="black"/>
</g>
</g>
<g opacity="0.3">
<g opacity="0.3">
<path opacity="0.3" d="M245.202 129.938C244.98 129.848 244.767 129.734 244.57 129.598C244.191 129.368 243.678 129.034 243.13 128.639C242.582 128.243 242.098 127.868 241.742 127.595C241.546 127.459 241.363 127.305 241.197 127.135C241.409 127.246 241.61 127.377 241.798 127.526L243.199 128.537C243.745 128.931 244.247 129.278 244.612 129.526C244.818 129.65 245.012 129.79 245.193 129.945" fill="black"/>
</g>
</g>
<path d="M241.768 163.24H231.824L229.974 149.67H243.618L241.768 163.24Z" fill="#1A2CCD"/>
<path d="M244.774 151.74H228.817L228.586 148.75H245.005L244.774 151.74Z" fill="#1A2CCD"/>
<g opacity="0.2">
<g opacity="0.2">
<path opacity="0.2" d="M230.256 151.74H243.336L241.768 163.24L240.198 163.134L241.074 152.66L230.358 152.48L230.256 151.74Z" fill="black"/>
</g>
</g>
<g opacity="0.2">
<g opacity="0.2">
<path opacity="0.2" d="M241.358 148.771L240.896 151.74H244.774L245.005 148.75L241.358 148.771Z" fill="black"/>
</g>
</g>
<g opacity="0.2">
<g opacity="0.2">
<path opacity="0.2" d="M242.695 155.155H230.864V155.385H242.695V155.155Z" fill="#B8BFFF"/>
</g>
</g>
<g opacity="0.2">
<g opacity="0.2">
<path opacity="0.2" d="M242.695 156.075H230.864V156.305H242.695V156.075Z" fill="#B8BFFF"/>
</g>
</g>
<path d="M230.949 124.899C229.992 124.177 228.979 124.036 227.779 124.082C226.576 124.163 225.402 124.465 224.31 124.973C222.435 125.791 220.67 126.994 219.549 128.701C218.427 130.407 218.036 132.664 218.876 134.522C218.941 134.717 219.077 134.881 219.257 134.982C219.466 135.041 219.688 135.025 219.884 134.936C222.019 134.246 224.169 133.556 226.128 132.459C228.087 131.362 229.876 129.867 230.931 127.896C231.201 127.43 231.373 126.914 231.435 126.38C231.465 126.113 231.435 125.843 231.352 125.588C231.269 125.333 231.13 125.099 230.947 124.901" fill="#4D61FC"/>
<g opacity="0.3">
<g opacity="0.3">
<path opacity="0.3" d="M230.968 124.676C230.919 124.701 230.866 124.722 230.813 124.738L230.367 124.89L230.043 124.998C229.925 125.039 229.812 125.092 229.664 125.145C229.395 125.253 229.081 125.361 228.75 125.522L228.228 125.752C228.047 125.835 227.865 125.936 227.673 126.035C227.286 126.224 226.896 126.465 226.477 126.709C225.589 127.266 224.745 127.89 223.952 128.574C223.168 129.27 222.437 130.024 221.769 130.831C221.473 131.21 221.181 131.564 220.943 131.923C220.823 132.1 220.698 132.266 220.592 132.434C220.485 132.602 220.386 132.765 220.289 132.919C220.088 133.225 219.94 133.519 219.796 133.772C219.727 133.901 219.66 134.016 219.602 134.127L219.454 134.432C219.368 134.607 219.299 134.745 219.244 134.856C219.223 134.906 219.195 134.954 219.163 134.998C219.176 134.945 219.195 134.893 219.22 134.844C219.269 134.731 219.329 134.589 219.408 134.412L219.544 134.099C219.6 133.986 219.664 133.869 219.731 133.738C219.868 133.483 220.011 133.181 220.208 132.871L220.504 132.379C220.61 132.208 220.735 132.04 220.853 131.861C221.084 131.498 221.378 131.137 221.674 130.752C223.001 129.11 224.604 127.709 226.415 126.612C226.836 126.369 227.231 126.13 227.622 125.943C227.816 125.849 228.001 125.748 228.184 125.665L228.713 125.435C229.049 125.281 229.365 125.177 229.638 125.076C229.777 125.026 229.904 124.977 230.022 124.938L230.35 124.841L230.813 124.713C230.866 124.695 230.919 124.683 230.975 124.676" fill="black"/>
</g>
</g>
<g opacity="0.3">
<g opacity="0.3">
<path opacity="0.3" d="M223.49 128.703C221.952 129.242 220.386 129.697 218.798 130.067C219.559 129.777 220.336 129.529 221.124 129.322C222.421 128.945 223.481 128.666 223.49 128.703Z" fill="black"/>
</g>
</g>
<g opacity="0.3">
<g opacity="0.3">
<path opacity="0.3" d="M223.395 133.811C223.353 133.574 223.337 133.333 223.344 133.092C223.344 132.645 223.33 132.029 223.344 131.348C223.358 130.667 223.399 130.051 223.436 129.607C223.443 129.365 223.473 129.125 223.528 128.889C223.549 129.13 223.549 129.371 223.528 129.612C223.512 130.102 223.494 130.695 223.475 131.35C223.457 132.006 223.443 132.602 223.431 133.092C223.436 133.332 223.422 133.573 223.388 133.811" fill="black"/>
</g>
</g>
<g opacity="0.3">
<g opacity="0.3">
<path opacity="0.3" d="M227.795 131.583C227.758 131.583 227.643 130.332 227.534 128.784C227.425 127.236 227.37 125.98 227.407 125.978C227.444 125.975 227.559 127.227 227.668 128.774C227.777 130.322 227.832 131.58 227.795 131.583Z" fill="black"/>
</g>
</g>
<g opacity="0.3">
<g opacity="0.3">
<path opacity="0.3" d="M222.317 125.856C222.565 125.826 222.814 125.819 223.064 125.833C223.527 125.833 224.16 125.849 224.861 125.872C225.562 125.895 226.198 125.925 226.655 125.95C226.905 125.952 227.155 125.976 227.4 126.021C227.153 126.052 226.903 126.06 226.653 126.044C226.191 126.044 225.557 126.028 224.856 126.005C224.156 125.982 223.52 125.955 223.06 125.927C222.81 125.926 222.562 125.902 222.317 125.856Z" fill="black"/>
</g>
</g>
<path d="M229.026 120.062L227.791 122.286C227.763 122.337 227.724 122.394 227.666 122.401C227.608 122.408 227.552 122.344 227.515 122.291L224.255 117.311L225.006 116.886L229.026 120.062Z" fill="#4D61FC"/>
<g opacity="0.2">
<g opacity="0.2">
<path opacity="0.2" d="M229.026 120.062L227.791 122.286C227.763 122.337 227.724 122.394 227.666 122.401C227.608 122.408 227.552 122.344 227.515 122.291L224.255 117.311L225.006 116.886L229.026 120.062Z" fill="black"/>
</g>
</g>
<path d="M235.644 124.069L224.514 117.537C224.391 117.484 224.297 117.387 224.243 117.265C224.199 117.102 224.322 116.943 224.442 116.821C225.208 116.031 226.135 115.415 227.159 115.014C228.186 114.613 229.287 114.437 230.388 114.498C231.488 114.576 232.554 114.919 233.493 115.499C234.43 116.078 235.211 116.877 235.769 117.824C236.844 119.731 236.879 122.256 235.648 124.069" fill="#4D61FC"/>
<g opacity="0.3">
<g opacity="0.3">
<path opacity="0.3" d="M226.119 115.453C226.165 115.439 226.216 115.433 226.264 115.434C226.359 115.434 226.496 115.411 226.685 115.414C227.201 115.406 227.719 115.447 228.228 115.536C229.925 115.82 231.505 116.581 232.781 117.729C234.058 118.878 234.978 120.366 235.431 122.017C235.57 122.513 235.662 123.022 235.706 123.535C235.718 123.642 235.725 123.75 235.725 123.857C235.716 123.943 235.686 124.026 235.639 124.099C235.672 123.914 235.679 123.726 235.656 123.54C235.434 121.601 234.589 119.785 233.248 118.36C231.907 116.935 230.143 115.977 228.212 115.628C227.707 115.532 227.196 115.478 226.685 115.464C226.32 115.464 226.119 115.464 226.119 115.464" fill="black"/>
</g>
</g>
<g opacity="0.3">
<g opacity="0.3">
<path opacity="0.3" d="M234.136 119.561C233.958 119.666 233.771 119.751 233.575 119.814C233.221 119.954 232.724 120.131 232.171 120.306C231.618 120.481 231.107 120.621 230.737 120.711C230.541 120.771 230.337 120.81 230.131 120.826C230.316 120.737 230.51 120.668 230.712 120.619L232.129 120.179L233.542 119.719C233.734 119.643 233.933 119.587 234.136 119.554" fill="black"/>
</g>
</g>
<g opacity="0.3">
<g opacity="0.3">
<path opacity="0.3" d="M232.384 114.878C232.483 115.282 232.527 115.697 232.515 116.113C232.548 116.527 232.525 116.944 232.448 117.353C232.409 117.353 232.4 116.798 232.384 116.115C232.352 115.704 232.352 115.29 232.384 114.878Z" fill="black"/>
</g>
</g>
<g opacity="0.3">
<g opacity="0.3">
<path opacity="0.3" d="M224.417 117.412C224.678 117.297 224.949 117.202 225.226 117.13C225.73 116.975 226.436 116.778 227.22 116.591C228.004 116.405 228.723 116.258 229.243 116.168C229.523 116.105 229.805 116.067 230.092 116.053C229.821 116.142 229.544 116.211 229.262 116.26C228.746 116.373 228.036 116.532 227.252 116.72C226.468 116.909 225.763 117.088 225.252 117.219C224.979 117.305 224.699 117.369 224.417 117.412Z" fill="black"/>
</g>
</g>
<path d="M240.292 136.436C239.333 136.185 238.19 137.112 237.994 138.078C237.797 139.044 238.16 140.031 238.586 140.921C239.532 142.89 240.834 144.716 242.549 146.075C244.265 147.434 246.414 148.306 248.606 148.295C248.201 146.422 248.715 144.467 248.488 142.568C248.289 140.893 247.526 139.335 246.321 138.148C245.116 136.962 243.541 136.217 241.856 136.036C241.243 135.969 240.535 135.875 240.292 136.436Z" fill="#4D61FC"/>
<g opacity="0.3">
<g opacity="0.3">
<path opacity="0.3" d="M248.606 148.29C248.557 148.274 248.513 148.252 248.47 148.226C248.345 148.159 248.224 148.083 248.111 147.996C247.709 147.648 247.387 147.219 247.165 146.737C247.013 146.443 246.842 146.123 246.675 145.767C246.509 145.41 246.342 145.033 246.159 144.635C245.974 144.219 245.764 143.814 245.528 143.423C245.267 143.009 244.975 142.616 244.656 142.246C243.999 141.477 243.296 140.815 242.686 140.176C242.133 139.622 241.631 139.021 241.183 138.382C240.882 137.948 240.637 137.48 240.45 136.988C240.399 136.855 240.357 136.719 240.323 136.581C240.306 136.533 240.297 136.484 240.292 136.433C240.292 136.433 240.357 136.629 240.498 136.969C240.702 137.449 240.958 137.904 241.261 138.329C241.717 138.956 242.221 139.545 242.774 140.09C243.387 140.716 244.094 141.378 244.758 142.16C245.084 142.536 245.378 142.937 245.639 143.359C245.877 143.754 246.088 144.164 246.273 144.587C246.448 144.987 246.617 145.366 246.777 145.723C246.936 146.077 247.103 146.413 247.251 146.696C247.459 147.173 247.764 147.603 248.146 147.959C248.426 148.189 248.608 148.288 248.608 148.301" fill="black"/>
</g>
</g>
<g opacity="0.3">
<g opacity="0.3">
<path opacity="0.3" d="M243.653 146.74C243.655 146.523 243.685 146.308 243.741 146.098C243.815 145.705 243.94 145.167 244.104 144.58C244.268 143.994 244.448 143.469 244.592 143.094C244.656 142.888 244.744 142.69 244.853 142.503C244.816 142.716 244.758 142.925 244.68 143.126C244.562 143.506 244.4 144.03 244.233 144.615C244.067 145.199 243.93 145.732 243.833 146.119C243.792 146.331 243.731 146.538 243.653 146.74Z" fill="black"/>
</g>
</g>
<g opacity="0.3">
<g opacity="0.3">
<path opacity="0.3" d="M248.425 142.147C248.196 142.114 247.969 142.063 247.75 141.993C247.336 141.884 246.767 141.737 246.131 141.595C245.495 141.452 244.917 141.344 244.498 141.263C244.269 141.234 244.043 141.185 243.823 141.116C244.057 141.109 244.288 141.128 244.517 141.171C244.942 141.227 245.527 141.323 246.163 141.466C246.799 141.608 247.37 141.772 247.782 141.903C248.006 141.96 248.226 142.042 248.432 142.147" fill="black"/>
</g>
</g>
<g opacity="0.3">
<g opacity="0.3">
<path opacity="0.3" d="M240.098 143.481C240.107 143.23 240.142 142.981 240.2 142.738C240.285 142.278 240.42 141.657 240.598 140.974C240.776 140.291 240.968 139.681 241.118 139.242C241.187 139.003 241.28 138.772 241.393 138.552C241.351 138.798 241.289 139.041 241.208 139.279C241.081 139.722 240.905 140.334 240.727 141.015C240.549 141.696 240.394 142.31 240.292 142.77C240.248 143.016 240.184 143.257 240.098 143.492" fill="black"/>
</g>
</g>
<g opacity="0.3">
<g opacity="0.3">
<path opacity="0.3" d="M246.226 138.145C246.226 138.179 245.026 138.083 243.555 137.928C242.665 137.858 241.777 137.742 240.898 137.581C241.791 137.608 242.683 137.681 243.569 137.797C244.459 137.868 245.347 137.984 246.226 138.145Z" fill="black"/>
</g>
</g>
<path d="M235.568 127.013C235.487 126.146 234.606 125.49 233.718 125.481C232.83 125.472 232.025 125.994 231.489 126.684C230.952 127.374 230.658 128.216 230.416 129.053C229.826 131.097 229.491 133.246 229.754 135.357C230.018 137.468 230.869 139.548 232.393 141.04C232.64 141.27 232.962 141.526 233.302 141.452C233.484 141.397 233.649 141.296 233.78 141.158C235.272 139.8 236.456 138.14 237.249 136.29C238.045 134.44 238.431 132.441 238.385 130.43C238.359 129.628 238.255 128.793 237.806 128.13C237.358 127.468 236.317 126.75 235.556 127.02" fill="#4D61FC"/>
<g opacity="0.3">
<g opacity="0.3">
<path opacity="0.3" d="M232.881 141.33C232.869 141.282 232.865 141.232 232.865 141.183C232.865 141.07 232.865 140.93 232.846 140.757C232.83 140.387 232.825 139.851 232.846 139.189C232.867 138.526 232.904 137.74 232.985 136.868C233.066 135.996 233.195 135.028 233.376 134.046C233.556 133.064 233.78 132.112 234.009 131.263C234.238 130.414 234.472 129.653 234.703 129.039C234.934 128.425 235.119 127.912 235.265 127.569C235.334 127.411 235.39 127.279 235.434 127.176C235.455 127.13 235.475 127.086 235.501 127.043C235.494 127.092 235.48 127.141 235.459 127.187L235.307 127.59C235.175 127.937 234.994 128.441 234.786 129.071C234.578 129.701 234.347 130.451 234.12 131.298C233.894 132.144 233.683 133.078 233.501 134.071C233.318 135.065 233.193 136.013 233.101 136.882C233.008 137.751 232.957 138.536 232.934 139.193C232.911 139.851 232.897 140.389 232.897 140.757C232.897 140.932 232.897 141.073 232.897 141.185C232.904 141.234 232.904 141.284 232.897 141.332" fill="black"/>
</g>
</g>
<g opacity="0.3">
<g opacity="0.3">
<path opacity="0.3" d="M233.468 134.083C233.338 134.261 233.19 134.424 233.024 134.568C232.737 134.853 232.33 135.237 231.868 135.644C231.405 136.052 230.966 136.403 230.644 136.65C230.478 136.794 230.297 136.92 230.103 137.024C230.249 136.861 230.411 136.711 230.584 136.578L231.78 135.546L232.966 134.499C233.123 134.346 233.292 134.206 233.475 134.083" fill="black"/>
</g>
</g>
<g opacity="0.3">
<g opacity="0.3">
<path opacity="0.3" d="M236.99 136.905C236.819 136.7 236.666 136.482 236.527 136.254L235.427 134.658L234.305 133.078C234.136 132.868 233.988 132.645 233.856 132.411C234.048 132.599 234.224 132.804 234.381 133.023C234.689 133.411 235.103 133.961 235.538 134.582C235.972 135.203 236.347 135.78 236.606 136.203C236.759 136.421 236.89 136.652 236.999 136.893" fill="black"/>
</g>
</g>
<g opacity="0.3">
<g opacity="0.3">
<path opacity="0.3" d="M235.145 128.032C235.165 128.061 233.988 128.846 232.532 129.78C231.075 130.713 229.868 131.449 229.847 131.419C229.826 131.389 231.003 130.605 232.46 129.669C233.917 128.733 235.126 127.999 235.145 128.032Z" fill="black"/>
</g>
</g>
<g opacity="0.3">
<g opacity="0.3">
<path opacity="0.3" d="M238.445 131.574C237.236 130.52 236.086 129.402 234.999 128.225C236.209 129.277 237.36 130.395 238.445 131.574Z" fill="black"/>
</g>
</g>
<path d="M87.1538 17.252H57.4661V40.4429H87.1538V17.252Z" fill="#B8BFFF"/>
<path d="M84.1686 20.3409H60.4539V37.3518H84.1686V20.3409Z" fill="#ADB5FF"/>
<path d="M87.8223 17.2567H87.1448V40.4268H87.8223V17.2567Z" fill="#DADDDF"/>
<path d="M72.7493 29.7135C73.481 29.7135 74.1965 29.4977 74.8049 29.0934C75.4133 28.6888 75.8876 28.1143 76.1677 27.4418C76.4477 26.7692 76.521 26.0293 76.3781 25.3156C76.2354 24.6017 75.883 23.946 75.3657 23.4313C74.8481 22.9167 74.1888 22.5662 73.471 22.4243C72.7535 22.2822 72.0093 22.3551 71.3334 22.6336C70.6572 22.9122 70.0793 23.3839 69.6728 23.989C69.2662 24.5941 69.0493 25.3058 69.0493 26.0335C69.0493 27.0096 69.439 27.9455 70.1329 28.6357C70.8269 29.3257 71.7679 29.7135 72.7493 29.7135Z" fill="#4D61FC"/>
<path d="M118.43 8.00378H96.5076V38.1705H118.43V8.00378Z" fill="#B8BFFF"/>
<path d="M115.505 10.796H99.4354V35.3784H115.505V10.796Z" fill="#ADB5FF"/>
<path d="M119.089 7.98999H118.451V38.1568H119.089V7.98999Z" fill="#DADDDF"/>
<path d="M111.243 19.4991H103.716V31.3786H111.243V19.4991Z" fill="#4D61FC"/>
<path d="M107.481 18.0111C108.464 18.01 109.407 17.6226 110.104 16.9333C110.801 16.244 111.196 15.3088 111.204 14.3311H103.776C103.776 15.3072 104.166 16.2431 104.86 16.9333C105.554 17.6233 106.495 18.0111 107.476 18.0111" fill="#4D61FC"/>
<path d="M31.1129 59.0614C36.7069 59.0614 41.2417 54.5511 41.2417 48.9874C41.2417 43.4237 36.7069 38.9135 31.1129 38.9135C25.519 38.9135 20.9842 43.4237 20.9842 48.9874C20.9842 54.5511 25.519 59.0614 31.1129 59.0614Z" fill="#B8BFFF"/>
<path d="M31.1129 59.165C29.089 59.165 27.1106 58.5681 25.4278 57.4499C23.745 56.3314 22.4336 54.7418 21.6589 52.8823C20.8845 51.0225 20.6819 48.9762 21.0766 47.0019C21.4716 45.0278 22.4461 43.2142 23.8773 41.791C25.3083 40.3675 27.1317 39.3983 29.1165 39.0055C31.1015 38.6128 33.159 38.8143 35.0289 39.5846C36.8985 40.3551 38.4967 41.6594 39.6212 43.3331C40.7456 45.0068 41.3457 46.9745 41.3457 48.9875C41.3427 51.6858 40.2637 54.2726 38.3452 56.1807C36.4268 58.0886 33.8259 59.162 31.1129 59.165ZM31.1129 39.0147C29.1297 39.0147 27.1911 39.5995 25.5421 40.6955C23.8933 41.7912 22.608 43.3488 21.8493 45.1711C21.0903 46.9934 20.8916 48.9985 21.2785 50.933C21.6654 52.8676 22.6205 54.6445 24.0228 56.0392C25.4251 57.434 27.2117 58.3839 29.1567 58.7687C31.1018 59.1535 33.1178 58.9559 34.95 58.201C36.7822 57.4464 38.3482 56.1681 39.4501 54.5282C40.5518 52.888 41.1399 50.9599 41.1399 48.9875C41.1369 46.3434 40.0793 43.8085 38.1998 41.9389C36.3199 40.0694 33.7713 39.0176 31.1129 39.0147Z" fill="#4D61FC"/>
<path d="M43.9472 56.2026C43.5411 56.2026 43.144 56.3224 42.8064 56.5469C42.4685 56.7711 42.2054 57.0902 42.05 57.4634C41.8946 57.8365 41.8539 58.2473 41.9332 58.6434C42.0123 59.0397 42.2079 59.4035 42.4951 59.6892C42.7824 59.9748 43.1482 60.1694 43.5467 60.2481C43.9449 60.327 44.3579 60.2865 44.733 60.1319C45.1084 59.9774 45.4291 59.7156 45.6548 59.3796C45.8803 59.0438 46.0008 58.6489 46.0008 58.245C45.9996 57.7038 45.7829 57.1849 45.3979 56.8022C45.0131 56.4195 44.4916 56.2037 43.9472 56.2026ZM43.9472 60.0735C43.5809 60.0758 43.222 59.9698 42.9163 59.769C42.6105 59.5682 42.3717 59.2816 42.2299 58.9456C42.0879 58.6096 42.0497 58.2392 42.1198 57.8816C42.1899 57.5239 42.3652 57.195 42.6235 56.9365C42.8816 56.678 43.2113 56.5016 43.5705 56.4298C43.9296 56.3578 44.3022 56.3935 44.641 56.5324C44.9798 56.6713 45.2693 56.9073 45.473 57.21C45.677 57.5129 45.7857 57.8692 45.7857 58.2335C45.7857 58.7195 45.5924 59.1857 45.248 59.5305C44.9035 59.8753 44.4359 60.0705 43.9472 60.0735Z" fill="#4D61FC"/>
<path d="M48.4563 59.6525C48.1874 59.6525 47.9244 59.7319 47.7008 59.8805C47.4772 60.029 47.303 60.2402 47.2001 60.4874C47.0972 60.7345 47.0702 61.0065 47.1227 61.2687C47.1752 61.5312 47.3047 61.772 47.4948 61.9613C47.6851 62.1504 47.9272 62.2792 48.1911 62.3314C48.4549 62.3836 48.7282 62.3567 48.9766 62.2543C49.2252 62.152 49.4375 61.9788 49.5869 61.7564C49.7363 61.534 49.8161 61.2724 49.8161 61.0049C49.8154 60.6464 49.672 60.3027 49.4171 60.0493C49.1623 59.7958 48.8168 59.6532 48.4563 59.6525ZM48.4563 62.1573C48.2276 62.1573 48.0042 62.0899 47.8139 61.9634C47.6238 61.8371 47.4756 61.6575 47.3882 61.4472C47.3005 61.2372 47.2776 61.0059 47.3222 60.783C47.3669 60.5599 47.4769 60.355 47.6388 60.194C47.8005 60.0332 48.0065 59.9237 48.2308 59.8793C48.4551 59.8349 48.6875 59.8577 48.8989 59.9449C49.11 60.0318 49.2907 60.1792 49.4176 60.3683C49.5448 60.5574 49.6126 60.7798 49.6126 61.0072C49.6126 61.3122 49.4907 61.6048 49.274 61.8205C49.0571 62.036 48.7629 62.1573 48.4563 62.1573Z" fill="#4D61FC"/>
<path d="M30.4487 51.9936C30.3608 51.9524 30.2863 51.8873 30.2341 51.8061C30.1816 51.7247 30.1534 51.6302 30.1527 51.5336V48.953C30.1529 48.8732 30.1716 48.7945 30.2075 48.723C30.2433 48.6517 30.2954 48.5893 30.3594 48.5413C30.4235 48.4932 30.4979 48.4605 30.5768 48.4458C30.6556 48.4309 30.7368 48.4345 30.814 48.4562C31.0275 48.5116 31.2497 48.5229 31.4678 48.4897C31.6856 48.4564 31.8945 48.3793 32.0813 48.263C32.254 48.1647 32.4046 48.0325 32.5239 47.8743C32.6432 47.716 32.7286 47.5352 32.7751 47.343C32.8093 47.1472 32.8033 46.9469 32.7575 46.7537C32.7117 46.5603 32.6273 46.3783 32.5091 46.2183C32.3875 46.0363 32.2305 45.8804 32.0475 45.7594C31.8644 45.6387 31.6588 45.5554 31.443 45.5145C30.6082 45.3811 29.6763 45.9745 29.4057 46.8232C29.3579 46.9457 29.2647 47.0456 29.1453 47.1024C29.026 47.159 28.8894 47.1684 28.7633 47.1286C28.6373 47.0888 28.5311 47.0026 28.4666 46.8878C28.4021 46.773 28.3841 46.638 28.416 46.5104C28.8392 45.1856 30.266 44.2816 31.6049 44.4932C31.9601 44.5547 32.2994 44.6869 32.6016 44.8822C32.9041 45.0777 33.1638 45.3318 33.3647 45.6295C33.5625 45.9048 33.7024 46.2171 33.7759 46.5474C33.8494 46.8779 33.855 47.2197 33.7926 47.5523C33.7176 47.8832 33.5752 48.1953 33.374 48.469C33.1726 48.743 32.9168 48.9725 32.6224 49.1439C32.1935 49.4063 31.6993 49.5441 31.1956 49.5418V51.5267C31.1956 51.5945 31.1822 51.6617 31.1561 51.7245C31.1297 51.787 31.0916 51.8438 31.043 51.8917C30.9947 51.9397 30.9373 51.9775 30.8742 52.0032C30.811 52.029 30.7435 52.0421 30.6753 52.0419C30.5969 52.0442 30.5192 52.0276 30.4487 51.9936Z" fill="#4D61FC"/>
<path d="M31.1634 53.0699C31.1657 53.1536 31.143 53.2362 31.0979 53.3071C31.0531 53.3779 30.9881 53.434 30.9111 53.4681C30.8341 53.5021 30.7485 53.5127 30.6657 53.4984C30.5827 53.4842 30.5057 53.4455 30.4446 53.3878C30.3836 53.33 30.3413 53.2555 30.3228 53.1739C30.3045 53.092 30.311 53.0067 30.3413 52.9285C30.3718 52.8505 30.4248 52.7831 30.4937 52.7348C30.5628 52.6867 30.6444 52.66 30.7286 52.6582C30.8412 52.6557 30.9502 52.6978 31.0316 52.7748C31.113 52.8519 31.1604 52.9581 31.1634 53.0699Z" fill="#4D61FC"/>
<path d="M119.131 154.424L119.79 155.441C120.651 156.787 121.955 157.795 123.479 158.293L131.788 161.218C132.537 161.448 132.447 162.543 131.661 162.543H130.62C130.553 162.635 130.465 162.709 130.363 162.76C130.261 162.811 130.149 162.837 130.035 162.835C129.799 162.825 129.574 162.734 129.397 162.58C129.378 162.561 129.36 162.561 129.341 162.543H129.195C129.177 162.561 129.14 162.561 129.121 162.598C129.053 162.677 128.969 162.74 128.875 162.784C128.78 162.828 128.677 162.851 128.573 162.854C128.354 162.84 128.144 162.76 127.972 162.624C127.954 162.607 127.933 162.595 127.911 162.587C127.888 162.579 127.864 162.575 127.84 162.577C127.815 162.579 127.792 162.586 127.771 162.597C127.749 162.608 127.73 162.623 127.715 162.642C127.662 162.706 127.595 162.757 127.52 162.792C127.444 162.826 127.362 162.843 127.278 162.842C127.094 162.834 126.915 162.77 126.767 162.66C126.732 162.638 126.69 162.627 126.649 162.63C126.607 162.633 126.568 162.649 126.536 162.676C126.427 162.779 126.283 162.838 126.134 162.842C126.033 162.841 125.934 162.814 125.847 162.762C125.761 162.711 125.69 162.638 125.641 162.55H125.567L115.288 162.398C114.303 162.38 113.572 162.072 113.151 161.308L113.114 155.921L119.131 154.424Z" fill="#FC9D9D"/>
<path opacity="0.15" d="M132.007 161.308C131.988 161.29 131.952 161.271 131.935 161.255C131.893 161.233 131.85 161.215 131.806 161.2L131.641 161.145H131.623C131.596 161.158 131.571 161.177 131.551 161.2C131.485 161.28 131.401 161.345 131.307 161.389C131.212 161.433 131.108 161.454 131.003 161.453C130.783 161.453 130.569 161.376 130.4 161.237C130.362 161.208 130.316 161.194 130.269 161.198C130.222 161.201 130.178 161.221 130.145 161.255C130.092 161.319 130.024 161.369 129.948 161.403C129.872 161.438 129.789 161.454 129.706 161.453C129.521 161.446 129.343 161.382 129.195 161.271C129.159 161.25 129.118 161.24 129.076 161.243C129.035 161.247 128.995 161.263 128.964 161.29C128.902 161.351 128.826 161.397 128.743 161.425C128.66 161.452 128.571 161.46 128.485 161.448C128.398 161.436 128.315 161.403 128.243 161.354C128.171 161.304 128.111 161.239 128.069 161.163H127.997L122.919 161.083L123.987 158.474C123.37 159.468 122.579 160.344 121.652 161.062L117.704 161C116.719 160.981 115.988 160.673 115.567 159.91C115.316 159.466 115.225 158.95 115.309 158.448C115.393 157.946 115.647 157.488 116.03 157.15L119.122 154.415L114.541 155.65L113.153 155.88V161.317C113.574 162.081 114.309 162.389 115.29 162.407L125.571 162.571H125.645C125.694 162.659 125.765 162.732 125.852 162.783C125.938 162.835 126.037 162.862 126.138 162.863C126.288 162.858 126.431 162.799 126.54 162.697C126.571 162.669 126.611 162.653 126.653 162.65C126.695 162.647 126.737 162.658 126.771 162.681C126.921 162.791 127.099 162.854 127.285 162.863C127.368 162.864 127.451 162.847 127.526 162.812C127.602 162.778 127.669 162.727 127.722 162.663C127.737 162.644 127.756 162.629 127.777 162.617C127.798 162.606 127.822 162.6 127.846 162.598C127.87 162.596 127.894 162.599 127.917 162.607C127.94 162.615 127.961 162.628 127.979 162.644C128.15 162.781 128.36 162.862 128.58 162.874C128.684 162.872 128.787 162.848 128.881 162.805C128.976 162.76 129.06 162.697 129.128 162.619C129.146 162.582 129.183 162.582 129.202 162.564H129.347C129.366 162.582 129.384 162.582 129.403 162.601C129.581 162.755 129.806 162.845 130.041 162.856C130.155 162.857 130.268 162.832 130.37 162.781C130.472 162.73 130.56 162.656 130.626 162.564H131.667C132.372 162.55 132.518 161.671 132.007 161.308Z" fill="black"/>
<path d="M132.226 163.325H113.38C113.313 163.325 113.246 163.312 113.184 163.286C113.122 163.261 113.066 163.223 113.018 163.176C112.971 163.129 112.933 163.073 112.907 163.011C112.882 162.95 112.869 162.883 112.869 162.817C112.869 162.75 112.882 162.684 112.907 162.622C112.933 162.56 112.971 162.505 113.018 162.457C113.066 162.41 113.122 162.373 113.184 162.347C113.246 162.322 113.313 162.308 113.38 162.308H132.719V162.817C132.72 162.949 132.669 163.076 132.577 163.171C132.485 163.266 132.359 163.321 132.226 163.325Z" fill="#4D61FC"/>
<path d="M132.719 162.32C132.7 161.797 132.522 161.291 132.209 160.87C131.897 160.449 131.464 160.131 130.966 159.958L124.723 157.796C124.661 157.772 124.594 157.761 124.528 157.765C124.461 157.769 124.396 157.787 124.337 157.818C124.278 157.849 124.227 157.892 124.187 157.945C124.146 157.997 124.118 158.058 124.103 158.122C123.828 159.031 123.152 160.975 121.818 162.32H113.38C113.313 162.32 113.246 162.333 113.184 162.358C113.122 162.384 113.065 162.421 113.018 162.468C112.97 162.516 112.933 162.572 112.907 162.634C112.882 162.695 112.868 162.761 112.869 162.828C112.867 162.896 112.879 162.962 112.904 163.025C112.93 163.087 112.967 163.144 113.015 163.191C113.063 163.239 113.12 163.276 113.182 163.301C113.245 163.326 113.312 163.338 113.38 163.337H132.227C132.357 163.337 132.483 163.285 132.575 163.193C132.667 163.101 132.719 162.977 132.719 162.847V162.32Z" fill="#4D61FC"/>
<path d="M132.719 162.32C132.7 161.797 132.522 161.291 132.209 160.87C131.897 160.449 131.464 160.131 130.966 159.958L124.723 157.796C124.661 157.772 124.594 157.761 124.528 157.765C124.461 157.769 124.396 157.787 124.337 157.818C124.278 157.849 124.227 157.892 124.187 157.945C124.146 157.997 124.118 158.058 124.103 158.122C123.828 159.031 123.152 160.975 121.818 162.32H113.38C113.313 162.32 113.246 162.333 113.184 162.358C113.122 162.384 113.065 162.421 113.018 162.468C112.97 162.516 112.933 162.572 112.907 162.634C112.882 162.695 112.868 162.761 112.869 162.828C112.867 162.896 112.879 162.962 112.904 163.025C112.93 163.087 112.967 163.144 113.015 163.191C113.063 163.239 113.12 163.276 113.182 163.301C113.245 163.326 113.312 163.338 113.38 163.337H132.227C132.357 163.337 132.483 163.285 132.575 163.193C132.667 163.101 132.719 162.977 132.719 162.847V162.32Z" fill="#21252B"/>
<path opacity="0.4" d="M132.719 162.32C132.705 161.909 132.593 161.506 132.392 161.147C132.191 160.787 131.907 160.479 131.563 160.25C132.458 160.887 132.294 161.522 131.015 161.467C124.422 161.158 123.564 161.158 122.796 161.087C122.804 161.08 122.809 161.071 122.812 161.062C122.815 161.052 122.816 161.042 122.815 161.032C122.526 161.496 122.189 161.929 121.809 162.322H113.391C113.324 162.322 113.258 162.335 113.196 162.361C113.133 162.386 113.077 162.423 113.03 162.47C112.982 162.518 112.944 162.574 112.919 162.636C112.893 162.697 112.88 162.764 112.88 162.831C112.879 162.898 112.891 162.965 112.916 163.027C112.941 163.089 112.979 163.146 113.027 163.194C113.074 163.241 113.131 163.279 113.194 163.304C113.257 163.328 113.324 163.341 113.391 163.339H132.238C132.369 163.339 132.494 163.287 132.587 163.195C132.679 163.104 132.731 162.979 132.731 162.849L132.719 162.32Z" fill="black"/>
<path opacity="0.4" d="M132.719 162.145H121.964L121.816 162.308H132.719V162.145Z" fill="black"/>
<path d="M121.016 156.11L112.496 156.161L103.478 120.593H70.2517V106.998H109.224C110.403 106.999 111.555 107.348 112.533 108.002C113.512 108.655 114.273 109.582 114.721 110.667L121.016 156.11Z" fill="#3F4249"/>
<path opacity="0.2" d="M114.772 156.34L112.265 156.161L103.478 120.593H70.2517V106.998H102.504C103.683 106.999 104.834 107.348 105.813 108.002C106.792 108.655 107.553 109.582 108.001 110.667L114.772 156.34Z" fill="black"/>
<path d="M98.7816 154.424L99.4406 155.441C100.302 156.787 101.605 157.795 103.129 158.293L111.438 161.218C112.187 161.448 112.097 162.543 111.311 162.543H110.27C110.203 162.635 110.115 162.709 110.013 162.76C109.911 162.811 109.799 162.837 109.685 162.835C109.449 162.825 109.224 162.734 109.047 162.58C109.028 162.561 109.01 162.561 108.991 162.543H108.846C108.827 162.561 108.79 162.561 108.772 162.598C108.703 162.677 108.619 162.74 108.525 162.784C108.43 162.828 108.328 162.851 108.224 162.854C108.004 162.84 107.794 162.76 107.622 162.624C107.604 162.607 107.584 162.595 107.561 162.587C107.538 162.579 107.514 162.575 107.49 162.577C107.466 162.579 107.442 162.586 107.421 162.597C107.4 162.608 107.381 162.623 107.366 162.642C107.312 162.706 107.246 162.757 107.17 162.792C107.094 162.826 107.012 162.843 106.929 162.842C106.744 162.834 106.566 162.77 106.417 162.66C106.382 162.638 106.341 162.627 106.299 162.63C106.257 162.633 106.218 162.649 106.186 162.676C106.077 162.779 105.934 162.838 105.784 162.842C105.683 162.841 105.584 162.814 105.498 162.762C105.411 162.711 105.34 162.638 105.291 162.55H105.217L94.9382 162.398C93.953 162.38 93.2223 162.072 92.8014 161.308L92.7644 155.921L98.7816 154.424Z" fill="#FC9D9D"/>
<path opacity="0.15" d="M111.657 161.308C111.638 161.29 111.601 161.271 111.585 161.255C111.543 161.233 111.5 161.215 111.456 161.2L111.291 161.145H111.273C111.246 161.158 111.221 161.177 111.201 161.2C111.135 161.28 111.051 161.345 110.957 161.389C110.861 161.433 110.758 161.454 110.653 161.453C110.433 161.453 110.219 161.376 110.05 161.237C110.012 161.208 109.966 161.194 109.919 161.198C109.872 161.201 109.828 161.221 109.795 161.255C109.742 161.319 109.674 161.369 109.598 161.403C109.522 161.438 109.439 161.454 109.356 161.453C109.171 161.446 108.993 161.382 108.845 161.271C108.809 161.25 108.768 161.24 108.726 161.243C108.685 161.247 108.645 161.263 108.614 161.29C108.552 161.351 108.476 161.397 108.393 161.425C108.31 161.452 108.221 161.46 108.135 161.448C108.048 161.436 107.965 161.403 107.893 161.354C107.821 161.304 107.761 161.239 107.719 161.163H107.647L102.569 161.083L103.637 158.474C103.02 159.468 102.229 160.344 101.302 161.062L97.3542 161C96.369 160.981 95.6383 160.673 95.2174 159.91C94.9658 159.466 94.8747 158.95 94.9589 158.448C95.043 157.946 95.2974 157.488 95.6799 157.15L98.7717 154.415L94.1907 155.65L92.8032 155.88V161.317C93.224 162.081 93.9594 162.389 94.9399 162.407L105.221 162.571H105.295C105.344 162.659 105.415 162.732 105.502 162.783C105.588 162.835 105.687 162.862 105.788 162.863C105.938 162.858 106.081 162.799 106.19 162.697C106.221 162.669 106.261 162.653 106.303 162.65C106.345 162.647 106.387 162.658 106.421 162.681C106.571 162.791 106.749 162.854 106.935 162.863C107.018 162.864 107.101 162.847 107.176 162.812C107.252 162.778 107.319 162.727 107.372 162.663C107.387 162.644 107.406 162.629 107.427 162.617C107.448 162.606 107.472 162.6 107.496 162.598C107.52 162.596 107.544 162.599 107.567 162.607C107.59 162.615 107.611 162.628 107.629 162.644C107.8 162.781 108.01 162.862 108.23 162.874C108.334 162.872 108.437 162.848 108.531 162.805C108.626 162.76 108.709 162.697 108.778 162.619C108.796 162.582 108.833 162.582 108.852 162.564H108.997C109.016 162.582 109.034 162.582 109.053 162.601C109.23 162.755 109.455 162.845 109.691 162.856C109.805 162.857 109.918 162.832 110.02 162.781C110.121 162.73 110.21 162.656 110.276 162.564H111.317C112.022 162.55 112.168 161.671 111.657 161.308Z" fill="black"/>
<path d="M101.128 155.88L91.8296 155.931L85.1349 120.584H64.6669C62.5746 120.582 60.569 119.753 59.0903 118.281C57.6117 116.809 56.7813 114.813 56.7813 112.732V106.998H91.1174C92.2963 106.999 93.4486 107.348 94.4277 108.001C95.4068 108.654 96.1686 109.582 96.6165 110.667L101.128 155.88Z" fill="#3F4249"/>
<path opacity="0.2" d="M56.7813 112.578V106.998L59.0545 107.111L61.1751 112.014C61.4634 112.682 61.9424 113.252 62.5529 113.651C63.1634 114.051 63.8782 114.264 64.6091 114.264H85.4217C87.4544 114.264 88.8072 114.625 89.8941 115.683C90.7867 116.576 91.3225 117.761 91.4018 119.018L94.1907 155.65L91.5984 155.701L85.3546 120.593L64.9445 120.669C63.8738 120.672 62.813 120.466 61.823 120.061C60.8328 119.656 59.933 119.06 59.1745 118.309C58.4163 117.557 57.8145 116.664 57.4038 115.68C56.9931 114.697 56.7815 113.643 56.7813 112.578Z" fill="black"/>
<path d="M111.876 163.325H93.0295C92.9624 163.325 92.8958 163.312 92.8339 163.286C92.7719 163.261 92.7157 163.223 92.6681 163.176C92.6207 163.129 92.583 163.073 92.5573 163.011C92.5316 162.95 92.5184 162.883 92.5184 162.817C92.5184 162.75 92.5316 162.684 92.5573 162.622C92.583 162.56 92.6207 162.505 92.6681 162.457C92.7157 162.41 92.7719 162.373 92.8339 162.347C92.8958 162.322 92.9624 162.308 93.0295 162.308H112.369V162.817C112.37 162.949 112.319 163.076 112.227 163.171C112.135 163.266 112.009 163.321 111.876 163.325Z" fill="#4D61FC"/>
<path d="M112.37 162.32C112.35 161.797 112.173 161.291 111.86 160.87C111.547 160.449 111.114 160.131 110.617 159.958L104.373 157.796C104.311 157.772 104.244 157.761 104.178 157.765C104.111 157.769 104.046 157.787 103.988 157.818C103.929 157.849 103.877 157.892 103.837 157.945C103.796 157.997 103.768 158.058 103.753 158.122C103.478 159.031 102.803 160.975 101.468 162.32H93.0301C92.9628 162.32 92.8962 162.333 92.834 162.358C92.772 162.384 92.7153 162.421 92.6679 162.468C92.6205 162.516 92.5828 162.572 92.5572 162.634C92.5317 162.695 92.5185 162.761 92.519 162.828C92.5174 162.896 92.5294 162.962 92.5546 163.025C92.5798 163.087 92.6173 163.144 92.6652 163.191C92.7128 163.239 92.7699 163.276 92.8326 163.301C92.8953 163.326 92.9625 163.338 93.0301 163.337H111.877C112.008 163.337 112.133 163.285 112.225 163.193C112.318 163.101 112.37 162.977 112.37 162.847V162.32Z" fill="#4D61FC"/>
<path d="M112.37 162.32C112.35 161.797 112.173 161.291 111.86 160.87C111.547 160.449 111.114 160.131 110.617 159.958L104.373 157.796C104.311 157.772 104.244 157.761 104.178 157.765C104.111 157.769 104.046 157.787 103.988 157.818C103.929 157.849 103.877 157.892 103.837 157.945C103.796 157.997 103.768 158.058 103.753 158.122C103.478 159.031 102.803 160.975 101.468 162.32H93.0301C92.9628 162.32 92.8962 162.333 92.834 162.358C92.772 162.384 92.7153 162.421 92.6679 162.468C92.6205 162.516 92.5828 162.572 92.5572 162.634C92.5317 162.695 92.5185 162.761 92.519 162.828C92.5174 162.896 92.5294 162.962 92.5546 163.025C92.5798 163.087 92.6173 163.144 92.6652 163.191C92.7128 163.239 92.7699 163.276 92.8326 163.301C92.8953 163.326 92.9625 163.338 93.0301 163.337H111.877C112.008 163.337 112.133 163.285 112.225 163.193C112.318 163.101 112.37 162.977 112.37 162.847V162.32Z" fill="#21252B"/>
<path opacity="0.4" d="M112.369 162.32C112.355 161.909 112.243 161.506 112.042 161.147C111.841 160.787 111.557 160.479 111.213 160.25C112.108 160.887 111.944 161.522 110.665 161.467C104.072 161.158 103.214 161.158 102.446 161.087C102.453 161.08 102.459 161.071 102.462 161.062C102.465 161.052 102.466 161.042 102.465 161.032C102.176 161.496 101.839 161.929 101.459 162.322H93.0413C92.9743 162.322 92.9077 162.335 92.8455 162.361C92.7833 162.386 92.7268 162.423 92.6794 162.47C92.6318 162.518 92.5943 162.574 92.5687 162.636C92.543 162.697 92.53 162.764 92.5303 162.831C92.5289 162.898 92.5409 162.965 92.5661 163.027C92.5911 163.089 92.6288 163.146 92.6764 163.194C92.7243 163.241 92.7812 163.279 92.8441 163.304C92.9067 163.328 92.9738 163.341 93.0413 163.339H111.888C112.019 163.339 112.144 163.287 112.237 163.195C112.329 163.104 112.381 162.979 112.381 162.849L112.369 162.32Z" fill="black"/>
<path opacity="0.4" d="M112.369 162.145H101.614L101.465 162.308H112.369V162.145Z" fill="black"/>
<path d="M88.2315 102.29L85.2252 81.9671C85.0398 80.7088 84.4794 79.5347 83.6169 78.5958C82.7541 77.6572 81.6286 76.9968 80.3852 76.7001L70.6149 74.4001L60.7706 74.4922L51.6709 76.6449C50.1134 77.0155 48.7523 77.9532 47.8562 79.2734C46.9601 80.5933 46.5943 82.1997 46.8309 83.7749L47.89 90.714L49.6798 94.5642C49.7723 94.7827 53.026 94.7022 53.0815 94.9207L55.8565 109.181C56.5063 110.473 56.8925 110.685 57.6302 110.696C58.2705 110.701 58.9104 110.66 59.545 110.575C66.1356 108.275 75.0063 106.924 81.9762 106.881V103.44L88.2315 102.29Z" fill="#4D61FC"/>
<path d="M83.2108 81.804C83.1449 81.8049 83.0808 81.7822 83.0301 81.7398C82.9797 81.6978 82.9462 81.6389 82.9356 81.574L82.8084 80.7022C82.8 80.665 82.7996 80.6263 82.807 80.5888C82.8146 80.5513 82.8296 80.5159 82.8516 80.4844C82.8736 80.4531 82.902 80.4267 82.9346 80.4069C82.9675 80.3869 83.004 80.374 83.0422 80.3689C83.0803 80.3638 83.119 80.3666 83.156 80.3772C83.1927 80.3875 83.2272 80.4057 83.2566 80.4301C83.2862 80.4545 83.3102 80.4849 83.3276 80.5189C83.3447 80.5532 83.3546 80.5904 83.3565 80.6286L83.4837 81.5004C83.4894 81.5358 83.4883 81.5722 83.4797 81.6069C83.4712 81.6419 83.4557 81.6747 83.4339 81.7035C83.4124 81.7322 83.3851 81.7564 83.3539 81.7744C83.3227 81.7925 83.2882 81.8043 83.2524 81.8086L83.2108 81.804Z" fill="#B8BFFF"/>
<path d="M72.6358 91.7583C72.5667 91.7578 72.5003 91.7316 72.4497 91.6849C72.399 91.638 72.368 91.5738 72.3629 91.5053L72.2704 90.6152C72.2656 90.5781 72.2684 90.5404 72.2788 90.5045C72.2889 90.4686 72.3068 90.4351 72.3306 90.4063C72.3544 90.3773 72.3838 90.3536 72.4173 90.3364C72.4506 90.3194 72.4871 90.3093 72.5248 90.3067C72.5623 90.3042 72.5997 90.3093 72.6354 90.3219C72.6707 90.3343 72.7031 90.3539 72.7306 90.3794C72.7581 90.4047 72.7801 90.4355 72.7952 90.4698C72.8104 90.5041 72.8183 90.5411 72.8185 90.5784L72.911 91.4685C72.9156 91.5048 72.9124 91.5416 72.9015 91.5763C72.8907 91.6113 72.8726 91.6435 72.8483 91.6709C72.8241 91.6985 72.7942 91.7203 72.7607 91.7353C72.7272 91.7504 72.6911 91.7583 72.6543 91.7583H72.6358Z" fill="#B8BFFF"/>
<path d="M57.8983 81.5508C57.8287 81.5499 57.7621 81.5232 57.7112 81.4761C57.6604 81.4289 57.6289 81.3645 57.6231 81.2955L57.533 80.4053C57.5325 80.3356 57.5589 80.2685 57.6067 80.2176C57.6544 80.1666 57.7198 80.1355 57.7896 80.1309C57.8595 80.1261 57.9284 80.1482 57.9827 80.1923C58.0368 80.2365 58.072 80.2995 58.081 80.3685L58.1712 81.2587C58.176 81.295 58.1732 81.3318 58.1626 81.3668C58.1522 81.4018 58.1344 81.4342 58.1103 81.4618C58.0863 81.4896 58.0565 81.5117 58.0232 81.5271C57.9899 81.5423 57.9536 81.5506 57.9168 81.5508C57.9168 81.5324 57.8983 81.5508 57.8983 81.5508Z" fill="#B8BFFF"/>
<path d="M64.0887 93.757C64.0293 93.7581 63.9712 93.7385 63.9245 93.7017C63.8713 93.6544 63.838 93.5888 63.8311 93.518C63.8244 93.4474 63.8445 93.3765 63.8875 93.32L64.4541 92.63C64.501 92.5773 64.5667 92.5449 64.637 92.5394C64.7075 92.5341 64.7774 92.5559 64.832 92.6005C64.8865 92.6454 64.9214 92.7093 64.9295 92.779C64.9376 92.8489 64.918 92.9191 64.875 92.975L64.3084 93.665C64.2471 93.7183 64.1701 93.7505 64.0887 93.757Z" fill="#B8BFFF"/>
<path d="M76.8008 77.9353C76.7331 77.9353 76.6679 77.9098 76.6181 77.864C76.565 77.8166 76.5314 77.7511 76.5247 77.6802C76.5178 77.6096 76.5379 77.5388 76.5811 77.4822L77.1107 76.8451C77.1576 76.7924 77.223 76.76 77.2936 76.7544C77.3641 76.7491 77.4339 76.771 77.4885 76.8156C77.5428 76.8605 77.578 76.9244 77.5858 76.9941C77.5939 77.064 77.5745 77.1342 77.5315 77.1901L77.002 77.8272C76.9791 77.8594 76.949 77.8859 76.9141 77.9045C76.8792 77.9234 76.8404 77.9339 76.8008 77.9353Z" fill="#B8BFFF"/>
<path d="M64.2002 85.6195C64.1549 85.6163 64.1107 85.6032 64.0707 85.5813C64.0307 85.5595 63.996 85.5293 63.969 85.493L63.5296 84.7846C63.4907 84.7218 63.4785 84.6462 63.4956 84.5744C63.5127 84.5024 63.5578 84.4403 63.6209 84.4017C63.6841 84.363 63.7601 84.3508 63.8323 84.3679C63.9047 84.3849 63.9671 84.4297 64.006 84.4925L64.443 85.2009C64.4789 85.2642 64.4895 85.3387 64.4728 85.4093C64.456 85.4799 64.4132 85.542 64.3528 85.5827C64.3038 85.6018 64.2525 85.6142 64.2002 85.6195Z" fill="#B8BFFF"/>
<path d="M78.5194 96.5905C78.4512 96.5905 78.3857 96.5641 78.3367 96.5169C78.2833 96.4695 78.25 96.404 78.243 96.3331C78.2363 96.2625 78.2564 96.1917 78.2997 96.1351L78.8293 95.5004C78.8772 95.4479 78.9431 95.415 79.0141 95.4081C79.0851 95.4015 79.1561 95.4212 79.2132 95.4636C79.2668 95.5107 79.3006 95.5763 79.3076 95.6471C79.3143 95.7182 79.2939 95.789 79.2502 95.8453L78.7206 96.4824C78.7023 96.5187 78.6732 96.5486 78.6371 96.5682C78.601 96.5875 78.5601 96.5953 78.5194 96.5905Z" fill="#B8BFFF"/>
<path d="M76.8005 86.0198C76.7744 86.0225 76.7483 86.0161 76.7265 86.0014L75.8316 85.73C75.7643 85.7058 75.7093 85.6571 75.6774 85.5934C75.6455 85.5299 75.6394 85.4565 75.6607 85.3887C75.6818 85.3208 75.7285 85.2636 75.7909 85.2291C75.8533 85.1946 75.9267 85.1854 75.9958 85.2033L76.8907 85.477C76.961 85.4988 77.0195 85.5471 77.0538 85.612C77.088 85.6766 77.0951 85.7521 77.0734 85.822C77.0568 85.8806 77.0209 85.9319 76.9714 85.9678C76.9219 86.0037 76.8618 86.0221 76.8005 86.0198Z" fill="#B8BFFF"/>
<path d="M83.7034 92.4851L83.6479 92.4299L83.1183 91.6502C83.0975 91.6205 83.0829 91.5869 83.0752 91.5515C83.0678 91.5159 83.0674 91.4793 83.0743 91.4439C83.0813 91.4082 83.0951 91.3744 83.1155 91.3443C83.1358 91.3142 83.162 91.2884 83.1923 91.2684C83.2221 91.247 83.2559 91.2321 83.2915 91.224C83.3273 91.2162 83.3643 91.2157 83.4002 91.2226C83.4363 91.2295 83.4705 91.2438 83.5008 91.2643C83.5309 91.2847 83.5568 91.3112 83.5762 91.342L84.1058 92.1217C84.1416 92.1762 84.1569 92.2415 84.1486 92.3061C84.1403 92.3708 84.109 92.4304 84.0605 92.4741C84.0121 92.518 83.9495 92.5431 83.884 92.5451C83.8186 92.5472 83.7545 92.5258 83.7034 92.4851Z" fill="#B8BFFF"/>
<path d="M70.9387 81.0955C70.9126 81.0982 70.8864 81.0918 70.8647 81.0771L69.9628 80.8057C69.8958 80.7815 69.8405 80.7328 69.8086 80.669C69.7767 80.6056 69.7707 80.5322 69.7919 80.4644C69.813 80.3965 69.8597 80.3392 69.9221 80.3047C69.9846 80.2702 70.0579 80.261 70.127 80.279L71.022 80.5504C71.0916 80.5731 71.1494 80.6219 71.1834 80.6861C71.2176 80.7505 71.2252 80.8254 71.2046 80.8954C71.185 80.951 71.1491 80.9996 71.102 81.035C71.0546 81.0706 70.9979 81.0915 70.9387 81.0955Z" fill="#B8BFFF"/>
<path d="M70.1704 99.1689C70.1445 99.1717 70.1181 99.1652 70.0964 99.1505L69.2014 98.8791C69.1314 98.8572 69.0726 98.8083 69.0386 98.7434C69.0046 98.6785 68.9979 98.6028 69.0199 98.5329C69.0421 98.463 69.0911 98.4048 69.1563 98.371C69.2218 98.3372 69.2979 98.3305 69.3679 98.3524L70.2629 98.6238C70.3325 98.6466 70.3903 98.6953 70.4245 98.7595C70.4585 98.8239 70.4662 98.8989 70.4456 98.9688C70.4245 99.0254 70.3871 99.0744 70.3383 99.1098C70.2893 99.1455 70.231 99.1659 70.1704 99.1689Z" fill="#B8BFFF"/>
<path opacity="0.2" d="M58.4651 98.534L57.0129 84.4212C57.0055 84.3828 57.0138 84.343 57.0358 84.3106C57.058 84.2784 57.0922 84.2561 57.1308 84.2487C57.1694 84.2414 57.2095 84.2496 57.2418 84.2717C57.2744 84.2936 57.2969 84.3276 57.3043 84.366L61.7974 99.0239L58.4651 98.534Z" fill="black"/>
<path opacity="0.2" d="M78.7177 104.201L78.7355 104.183L78.7711 104.218L78.7177 104.201Z" fill="black"/>
<path d="M85.2927 105.05C85.2042 105.159 85.0765 105.229 84.9369 105.247C84.7969 105.264 84.6559 105.226 84.5435 105.142L81.306 102.78L85.413 104.65C85.4216 104.721 85.4153 104.794 85.3947 104.862C85.3739 104.931 85.3392 104.995 85.2927 105.05Z" fill="#4D61FC"/>
<path opacity="0.6" d="M69.0933 94.6999C69.1657 94.6999 69.2362 94.6785 69.2964 94.6388C69.3565 94.5987 69.4032 94.5419 69.431 94.4757C69.4585 94.4092 69.4659 94.3361 69.4518 94.2657C69.4377 94.1951 69.4028 94.1304 69.3516 94.0796C69.3005 94.0288 69.2355 93.9941 69.1645 93.98C69.0938 93.966 69.0202 93.9734 68.9536 94.0007C68.8868 94.0283 68.8297 94.0748 68.7894 94.1346C68.7494 94.1944 68.7279 94.2648 68.7279 94.3365C68.7279 94.3844 68.7374 94.4315 68.7557 94.4757C68.7742 94.5196 68.801 94.5599 68.835 94.5934C68.869 94.6273 68.9092 94.6539 68.9536 94.6723C68.9978 94.6905 69.0454 94.6999 69.0933 94.6999Z" fill="black"/>
<path opacity="0.6" d="M84.3256 88.1795C84.3979 88.1795 84.4685 88.1581 84.5286 88.1183C84.5887 88.0782 84.6354 88.0214 84.6632 87.9552C84.6909 87.8887 84.6981 87.8156 84.684 87.7452C84.6699 87.6746 84.635 87.61 84.5839 87.5591C84.533 87.5083 84.4678 87.4736 84.3968 87.4595C84.326 87.4457 84.2525 87.4529 84.1859 87.4802C84.1191 87.5078 84.0619 87.5543 84.0219 87.6141C83.9817 87.6739 83.9602 87.7443 83.9602 87.8161C83.9602 87.9124 83.9988 88.0049 84.0673 88.073C84.1357 88.1413 84.2287 88.1795 84.3256 88.1795Z" fill="black"/>
<path opacity="0.6" d="M77.2748 81.2242C77.3472 81.2242 77.4177 81.2028 77.4779 81.163C77.538 81.123 77.5847 81.0662 77.6125 81C77.64 80.9335 77.6474 80.8604 77.6333 80.79C77.6192 80.7194 77.5842 80.6548 77.5331 80.604C77.482 80.5531 77.417 80.5184 77.346 80.5044C77.2753 80.4904 77.2017 80.4977 77.1349 80.5251C77.0683 80.5527 77.0112 80.5991 76.971 80.6589C76.9309 80.7187 76.9094 80.7891 76.9094 80.8608C76.9094 80.9572 76.948 81.0496 77.0165 81.1177C77.085 81.186 77.1779 81.2242 77.2748 81.2242Z" fill="black"/>
<path opacity="0.6" d="M69.5671 86.2015C69.6393 86.2015 69.7101 86.1801 69.7702 86.1403C69.8303 86.1002 69.877 86.0434 69.9048 85.9772C69.9323 85.9107 69.9397 85.8375 69.9256 85.7671C69.9115 85.6965 69.8766 85.6318 69.8255 85.581C69.7744 85.5302 69.7094 85.4954 69.6384 85.4814C69.5676 85.4673 69.4941 85.4747 69.4272 85.5021C69.3606 85.5297 69.3035 85.5762 69.2633 85.636C69.2233 85.6958 69.2018 85.7662 69.2018 85.838C69.2018 85.8856 69.2113 85.933 69.2295 85.9772C69.248 86.0211 69.2748 86.0614 69.3088 86.0949C69.3426 86.1288 69.3831 86.1555 69.4272 86.1739C69.4716 86.192 69.519 86.2015 69.5671 86.2015Z" fill="black"/>
<path opacity="0.6" d="M78.792 99.3874C78.8641 99.3874 78.9349 99.366 78.9948 99.3262C79.0549 99.2862 79.1018 99.2294 79.1294 99.1631C79.1571 99.0967 79.1643 99.0235 79.1502 98.9531C79.1361 98.8825 79.1014 98.8179 79.0503 98.7671C78.9992 98.7162 78.934 98.6815 78.8632 98.6675C78.7922 98.6534 78.7189 98.6608 78.6521 98.6882C78.5853 98.7158 78.5284 98.7622 78.4882 98.822C78.4479 98.8818 78.4266 98.9522 78.4266 99.024C78.4266 99.1203 78.465 99.2128 78.5335 99.2809C78.6022 99.3492 78.6951 99.3874 78.792 99.3874Z" fill="black"/>
<path opacity="0.6" d="M85.9606 98.6973C86.0328 98.6973 86.1036 98.676 86.1634 98.6362C86.2236 98.5961 86.2705 98.5393 86.298 98.4731C86.3258 98.4066 86.3329 98.3335 86.3188 98.2631C86.3047 98.1925 86.27 98.1278 86.2189 98.077C86.1678 98.0262 86.1026 97.9914 86.0319 97.9774C85.9609 97.9634 85.8876 97.9707 85.8207 97.9981C85.7539 98.0257 85.697 98.0722 85.6568 98.132C85.6166 98.1918 85.5953 98.2622 85.5953 98.3339C85.5953 98.3818 85.6048 98.4289 85.623 98.4731C85.6413 98.517 85.6684 98.5573 85.7021 98.5908C85.7361 98.6247 85.7763 98.6513 85.8207 98.6697C85.8651 98.6879 85.9125 98.6973 85.9606 98.6973Z" fill="black"/>
<path opacity="0.6" d="M77.439 91.3051C77.5114 91.3051 77.5819 91.2837 77.642 91.2439C77.7022 91.2039 77.7489 91.1471 77.7766 91.0809C77.8042 91.0144 77.8116 90.9412 77.7975 90.8709C77.7833 90.8003 77.7484 90.7356 77.6973 90.6848C77.6462 90.634 77.5812 90.5992 77.5102 90.5852C77.4395 90.5712 77.3659 90.5785 77.2991 90.6059C77.2325 90.6335 77.1754 90.68 77.1351 90.7398C77.0951 90.7996 77.0736 90.8699 77.0736 90.9417C77.0736 90.9895 77.0831 91.0367 77.1014 91.0809C77.1199 91.1248 77.1467 91.165 77.1807 91.1986C77.2144 91.2324 77.2549 91.2591 77.2991 91.2775C77.3435 91.2957 77.3911 91.3051 77.439 91.3051Z" fill="black"/>
<path opacity="0.6" d="M63.1225 79.1335C63.1947 79.1335 63.2654 79.1121 63.3255 79.0724C63.3854 79.0323 63.4324 78.9755 63.4601 78.9093C63.4876 78.8428 63.4948 78.7697 63.4807 78.6993C63.4668 78.6287 63.4319 78.564 63.3808 78.5132C63.3297 78.4624 63.2647 78.4277 63.1937 78.4136C63.123 78.3996 63.0495 78.407 62.9826 78.4343C62.9158 78.4619 62.8589 78.5084 62.8187 78.5682C62.7785 78.628 62.7572 78.6984 62.7572 78.7701C62.7572 78.818 62.7667 78.8651 62.7849 78.9093C62.8032 78.9532 62.8303 78.9935 62.8642 79.027C62.898 79.0608 62.9382 79.0875 62.9826 79.1059C63.027 79.1241 63.0744 79.1335 63.1225 79.1335Z" fill="black"/>
<path opacity="0.6" d="M61.1125 88.3796C61.1849 88.3796 61.2554 88.3582 61.3155 88.3184C61.3757 88.2784 61.4226 88.2216 61.4501 88.1553C61.4779 88.0889 61.485 88.0157 61.4709 87.9453C61.4568 87.8747 61.4221 87.8101 61.371 87.7593C61.3199 87.7084 61.2547 87.6737 61.184 87.6597C61.113 87.6459 61.0394 87.653 60.9728 87.6804C60.906 87.708 60.8489 87.7544 60.8089 87.8142C60.7686 87.874 60.7471 87.9444 60.7471 88.0162C60.7471 88.064 60.7566 88.1112 60.7751 88.1553C60.7934 88.1993 60.8202 88.2395 60.8542 88.2731C60.8882 88.3069 60.9284 88.3336 60.9728 88.352C61.017 88.3702 61.0646 88.3796 61.1125 88.3796Z" fill="black"/>
<path d="M49.9826 82.947C49.9231 82.9481 49.8651 82.9286 49.8184 82.8918C49.7652 82.8444 49.7319 82.7789 49.725 82.708C49.7183 82.6374 49.7384 82.5666 49.7814 82.51L50.348 81.82C50.3704 81.791 50.3984 81.7668 50.43 81.7489C50.462 81.731 50.4973 81.7195 50.5336 81.7153C50.5702 81.7112 50.607 81.7144 50.6421 81.7247C50.6773 81.7351 50.7101 81.7523 50.7383 81.7756C50.7665 81.7988 50.7899 81.8273 50.8068 81.8598C50.8236 81.892 50.8338 81.9274 50.8368 81.9637C50.8396 82.0001 50.8352 82.0366 50.8234 82.0711C50.8118 82.1059 50.7933 82.1376 50.7688 82.165L50.2023 82.855C50.141 82.9083 50.064 82.9405 49.9826 82.947Z" fill="#B8BFFF"/>
<path d="M86.3812 89.1799L80.1375 89.8699L81.525 104.13L88.1988 102.391L86.3812 89.1799Z" fill="#FC9D9D"/>
<path d="M50.2136 88.927C50.1542 88.9281 50.0962 88.9085 50.0495 88.8717C49.9963 88.8243 49.963 88.7588 49.956 88.6879C49.9493 88.6173 49.9695 88.5465 50.0125 88.4899L50.579 87.7998C50.6014 87.7708 50.6294 87.7466 50.6611 87.7287C50.693 87.7108 50.7284 87.6993 50.7647 87.6951C50.8012 87.691 50.838 87.6942 50.8731 87.7045C50.9083 87.7149 50.9411 87.7322 50.9693 87.7554C50.9975 87.7786 51.0209 87.8071 51.0378 87.8396C51.0546 87.8718 51.0648 87.9072 51.0678 87.9436C51.0706 87.9799 51.0662 88.0165 51.0544 88.051C51.0428 88.0857 51.0243 88.1175 50.9998 88.1448L50.4333 88.8349C50.372 88.8883 50.295 88.9205 50.2136 88.927Z" fill="#B8BFFF"/>
<path opacity="0.6" d="M53.7127 78.2596C53.7851 78.2596 53.8556 78.2382 53.9157 78.1984C53.9759 78.1584 54.0228 78.1016 54.0503 78.0353C54.0781 77.9689 54.0853 77.8957 54.0711 77.8254C54.057 77.7547 54.0223 77.6901 53.9712 77.6393C53.9201 77.5884 53.8549 77.5537 53.7841 77.5397C53.7132 77.5259 53.6396 77.533 53.573 77.5604C53.5062 77.588 53.449 77.6344 53.409 77.6942C53.3688 77.754 53.3473 77.8244 53.3473 77.8962C53.3473 77.9926 53.3859 78.085 53.4544 78.1531C53.5228 78.2214 53.6158 78.2596 53.7127 78.2596Z" fill="black"/>
<path opacity="0.6" d="M53.7127 84.6995C53.7851 84.6995 53.8556 84.6781 53.9157 84.6383C53.9759 84.5983 54.0228 84.5415 54.0503 84.4753C54.0781 84.4088 54.0853 84.3357 54.0711 84.2653C54.057 84.1947 54.0223 84.13 53.9712 84.0792C53.9201 84.0284 53.8549 83.9937 53.7841 83.9796C53.7132 83.9658 53.6396 83.973 53.573 84.0003C53.5062 84.0279 53.449 84.0744 53.409 84.1342C53.3688 84.194 53.3473 84.2644 53.3473 84.3361C53.3473 84.4325 53.3859 84.525 53.4544 84.593C53.5228 84.6613 53.6158 84.6995 53.7127 84.6995Z" fill="black"/>
<path opacity="0.6" d="M61.478 98.0624C61.5502 98.0624 61.6207 98.041 61.6808 98.0012C61.7409 97.9612 61.7879 97.9044 61.8154 97.8382C61.8431 97.7717 61.8503 97.6986 61.8362 97.6282C61.8221 97.5576 61.7874 97.4929 61.7363 97.4421C61.6852 97.3913 61.62 97.3566 61.5492 97.3425C61.4782 97.3285 61.4049 97.3359 61.3381 97.3632C61.2713 97.3908 61.2142 97.4373 61.1742 97.4971C61.1339 97.5569 61.1124 97.6273 61.1124 97.699C61.1124 97.7954 61.151 97.8879 61.2195 97.9559C61.2882 98.0242 61.3809 98.0624 61.478 98.0624Z" fill="black"/>
<path opacity="0.2" d="M79.576 84.35L81.3127 101.37L82.8274 102.86L84.2149 101.94L81.1832 85.592C80.8734 84.258 79.576 84.1476 79.576 84.35Z" fill="black"/>
<path opacity="0.6" d="M60.7475 74.4852C60.7475 74.4852 60.5648 75.2281 61.1499 75.5915C61.8066 75.9733 64.3458 77.6615 67.9255 76.592C68.7164 76.3503 69.4622 75.9821 70.134 75.5018C70.2575 75.4149 70.3622 75.3043 70.4415 75.1761C70.5211 75.048 70.5738 74.9054 70.5965 74.7566V74.4116L71.6001 74.6416C71.5969 74.9027 71.5421 75.1607 71.4385 75.4006C71.3349 75.6405 71.1848 75.8579 70.9965 76.04C70.7052 76.3298 66.3715 79.6533 60.8608 76.5851C60.504 76.428 60.2073 76.1615 60.0133 75.8247C59.8195 75.488 59.7388 75.0984 59.7832 74.7129L60.7475 74.4852Z" fill="black"/>
<path d="M74.5879 100.878L77.1825 101.223L82.7163 100.733C83.1964 100.742 83.6543 100.937 83.9928 101.276L87.4084 104.309C87.5141 104.402 87.5793 104.533 87.5904 104.673C87.6015 104.813 87.5573 104.952 87.4674 105.061C87.3776 105.169 87.2488 105.239 87.1085 105.255C86.9681 105.271 86.8268 105.232 86.7146 105.146L83.4772 102.784L85.5792 105.255C85.6343 105.319 85.6729 105.396 85.6918 105.479C85.7108 105.561 85.7094 105.647 85.6879 105.729C85.6664 105.811 85.6252 105.886 85.5681 105.949C85.5108 106.012 85.4393 106.06 85.3595 106.089C85.267 106.123 85.1669 106.131 85.0702 106.112C84.9736 106.092 84.8841 106.047 84.8115 105.981L81.9995 103.238L84.1362 105.328C84.2197 105.417 84.2673 105.533 84.2701 105.654C84.2729 105.775 84.2306 105.894 84.151 105.986C84.0717 106.078 83.9607 106.137 83.8397 106.153C83.7188 106.169 83.5962 106.14 83.4957 106.071L80.5079 103.9L82.536 105.388C82.5908 105.427 82.6356 105.479 82.6664 105.539C82.6972 105.599 82.7133 105.666 82.7133 105.733C82.7133 105.8 82.6972 105.867 82.6664 105.927C82.6356 105.987 82.5908 106.039 82.536 106.078C82.4763 106.122 82.4062 106.15 82.3327 106.16C82.2589 106.17 82.1842 106.16 82.1151 106.133L79.3933 105.006C79.2629 104.951 79.1222 104.924 78.9807 104.927C78.8392 104.931 78.7 104.964 78.5723 105.025L77.5317 105.533C76.6879 105.947 75.7599 106.163 74.8192 106.163H73.1218C70.6821 106.163 74.5879 100.878 74.5879 100.878Z" fill="#FC9D9D"/>
<path opacity="0.15" d="M58.4829 98.8238L57.5696 98.7525C57.5078 98.7472 57.4482 98.727 57.3959 98.6936C57.3439 98.6603 57.3006 98.615 57.2701 98.5612C57.2396 98.5076 57.2227 98.4473 57.2209 98.3857C57.219 98.324 57.2324 98.2628 57.2597 98.2074L58.2263 96.2639L58.4829 98.8238Z" fill="black"/>
<path opacity="0.15" d="M82.5355 105.473C82.5254 105.475 82.5152 105.474 82.5057 105.47C82.496 105.467 82.4872 105.462 82.48 105.455L80.6162 104.093C80.5968 104.078 80.5843 104.056 80.5813 104.032C80.5783 104.008 80.585 103.984 80.6001 103.964C80.607 103.955 80.616 103.947 80.6262 103.941C80.6366 103.934 80.6479 103.93 80.6597 103.929C80.6715 103.927 80.6835 103.928 80.6951 103.931C80.7067 103.934 80.7175 103.939 80.7272 103.946L82.5887 105.31C82.6257 105.347 82.6442 105.4 82.6072 105.436C82.5876 105.456 82.5626 105.469 82.5355 105.473Z" fill="black"/>
<path opacity="0.15" d="M84.1249 105.418C84.1064 105.418 84.0694 105.418 84.0694 105.4L82.0599 103.44C82.043 103.423 82.0335 103.4 82.0335 103.377C82.0335 103.353 82.043 103.33 82.0599 103.313C82.0682 103.305 82.0784 103.298 82.0895 103.293C82.1006 103.289 82.1126 103.286 82.1246 103.286C82.1367 103.286 82.1487 103.289 82.1598 103.293C82.1709 103.298 82.1808 103.305 82.1894 103.313L84.1966 105.275C84.2051 105.284 84.2121 105.293 84.2167 105.304C84.2213 105.315 84.2236 105.327 84.2236 105.339C84.2236 105.35 84.2213 105.362 84.2167 105.373C84.2121 105.384 84.2051 105.394 84.1966 105.402C84.1753 105.416 84.1499 105.421 84.1249 105.418Z" fill="black"/>
<path opacity="0.15" d="M79.9964 104.673C80.6162 104.983 81.6591 105.51 82.0245 105.708C82.5356 106 82.6813 105.618 82.6813 105.618C82.7021 105.702 82.6977 105.791 82.6685 105.872C82.6394 105.954 82.5867 106.026 82.5171 106.078C82.4574 106.122 82.3876 106.15 82.3138 106.16C82.2402 106.17 82.1653 106.16 82.0962 106.133L79.3743 105.006C79.2442 104.951 79.1036 104.924 78.962 104.927C78.8205 104.931 78.6813 104.964 78.5534 105.025L79.083 104.716C79.221 104.638 79.3757 104.594 79.5346 104.586C79.6933 104.578 79.8514 104.608 79.9964 104.673Z" fill="black"/>
<path d="M74.1715 101.094L58.4835 98.8054L57.4591 88.9154L47.6703 89.4099L49.6613 102.035C49.842 103.183 50.4289 104.229 51.3162 104.985C52.2035 105.741 53.3329 106.157 54.5014 106.159H72.3447L74.1715 101.094Z" fill="#4D61FC"/>
<path d="M76.3083 101.094L58.4835 98.8238L57.4591 88.9338L47.6703 89.4329L49.6613 102.06C49.842 103.208 50.4289 104.254 51.3162 105.01C52.2035 105.766 53.3329 106.182 54.5014 106.184H74.5369L76.3083 101.094Z" fill="#FC9D9D"/>
<path d="M57.6742 90.7784L56.7816 83.89L47.6703 89.4146L47.994 91.7099L57.6742 90.7784Z" fill="#4D61FC"/>
<path opacity="0.15" d="M74.8467 105.255L74.553 106.145H54.5198C53.3509 106.146 52.2198 105.731 51.3318 104.974C50.4438 104.218 49.8579 103.17 49.6798 102.021L46.8123 83.7657C46.5746 82.1902 46.9399 80.5834 47.8363 79.2632C48.7326 77.9428 50.0944 77.0054 51.6523 76.6357L53.3497 76.2355C52.07 76.8002 51.0123 77.7673 50.3391 78.9882C49.6661 80.209 49.415 81.6161 49.6243 82.9929L52.2744 99.8127C52.4552 100.96 53.0417 102.006 53.9285 102.762C54.8156 103.517 55.9443 103.933 57.1121 103.934L74.8467 105.255Z" fill="black"/>
<g opacity="0.2">
<path opacity="0.2" d="M74.7196 100.749C74.7143 100.78 74.6983 100.807 74.6747 100.827C74.6511 100.847 74.6213 100.859 74.5901 100.859H74.5716L58.4651 98.5341L58.4281 98.2443L74.6155 100.586C74.65 100.595 74.6798 100.617 74.699 100.648C74.7182 100.678 74.7256 100.714 74.7196 100.749Z" fill="black"/>
</g>
<path d="M59.1608 109.455C59.1012 109.456 59.0429 109.436 58.9966 109.399C58.943 109.353 58.9092 109.287 58.9025 109.217C58.8956 109.146 58.9159 109.076 58.9596 109.02L59.5262 108.33C59.5729 108.277 59.6386 108.245 59.7091 108.239C59.7794 108.234 59.8492 108.256 59.9038 108.3C59.9584 108.345 59.9933 108.409 60.0014 108.479C60.0095 108.549 59.9898 108.619 59.947 108.675L59.3805 109.365C59.3183 109.417 59.2415 109.448 59.1608 109.455Z" fill="#B8BFFF"/>
<path opacity="0.6" d="M63.1568 107.667C63.2292 107.668 63.3 107.647 63.3606 107.607C63.421 107.568 63.4681 107.511 63.4961 107.445C63.5241 107.378 63.5318 107.305 63.5179 107.235C63.504 107.164 63.4693 107.099 63.4184 107.048C63.3673 106.997 63.3023 106.962 63.2313 106.948C63.1603 106.933 63.0868 106.941 63.0199 106.968C62.9528 106.996 62.8957 107.042 62.8555 107.102C62.8152 107.162 62.7937 107.232 62.7937 107.304C62.7935 107.352 62.8025 107.399 62.8208 107.443C62.8388 107.487 62.8654 107.527 62.8992 107.561C62.9329 107.595 62.9732 107.621 63.0174 107.64C63.0615 107.658 63.109 107.667 63.1568 107.667Z" fill="black"/>
<path opacity="0.15" d="M74.5367 106.163H74.7911C75.736 106.164 76.6679 105.946 77.5129 105.526L78.7547 104.946C78.4633 104.983 77.6956 105.273 76.618 105.273C76.1971 105.273 75.5126 105.273 74.8189 105.273" fill="black"/>
<path d="M71.4128 63.6776C71.4128 63.6776 63.0485 57.5733 62.2275 64.2227L61.9963 65.9661L60.7544 74.4761V74.4945L60.7359 74.6762C60.7181 74.7947 60.7251 74.9154 60.7565 75.0311C60.788 75.1466 60.8432 75.2545 60.9186 75.3478V75.38L60.9371 75.3984C60.9968 75.478 61.0713 75.5452 61.1568 75.5962C61.6771 75.9364 62.234 76.2172 62.8172 76.4334C64.0639 76.9061 65.4112 77.054 66.7314 76.8633C68.0516 76.6724 69.3008 76.1492 70.3606 75.3432C70.5278 75.139 70.6106 74.8791 70.5919 74.6164L70.4462 70.1843C70.5967 69.6875 70.6943 69.1764 70.7376 68.6594C71.0104 66.0374 71.4128 63.6776 71.4128 63.6776Z" fill="#FC9D9D"/>
<path d="M52.3482 89.1408C52.2785 89.1399 52.2119 89.1132 52.1611 89.066C52.1102 89.0189 52.0787 88.9545 52.0729 88.8855L51.9827 87.9954C51.9823 87.9257 52.0086 87.8586 52.0565 87.8078C52.1042 87.7567 52.1696 87.7257 52.2395 87.7211C52.3093 87.7162 52.3782 87.7383 52.4326 87.7825C52.4867 87.8266 52.5219 87.8896 52.5309 87.9586L52.6211 88.8487C52.6259 88.885 52.6232 88.9218 52.6125 88.9568C52.6021 88.9917 52.5843 89.0242 52.5603 89.0518C52.5362 89.0796 52.5064 89.1017 52.4731 89.1171C52.4398 89.1323 52.4034 89.1405 52.3667 89.1408C52.3667 89.1224 52.3482 89.1408 52.3482 89.1408Z" fill="#B8BFFF"/>
<path d="M72.3629 64.149C72.9521 64.149 73.5279 63.9751 74.0179 63.6497C74.5077 63.324 74.8895 62.8612 75.1149 62.3198C75.3402 61.7784 75.3991 61.1825 75.284 60.6079C75.1688 60.0332 74.8848 59.5053 74.4681 59.0911C74.0514 58.6769 73.5205 58.3949 72.9426 58.2808C72.3647 58.1667 71.7655 58.2259 71.2214 58.4503C70.6773 58.675 70.2123 59.055 69.8853 59.5426C69.5583 60.03 69.3839 60.6029 69.3844 61.1889C69.3844 61.5778 69.4614 61.9629 69.6113 62.3221C69.7609 62.6816 69.9803 63.008 70.2569 63.2828C70.5335 63.5577 70.8618 63.7757 71.2233 63.9243C71.5845 64.0729 71.9718 64.1492 72.3629 64.149Z" fill="#21252B"/>
<path d="M72.738 59.0499C72.738 59.0499 74.8933 72.2542 68.113 72.636C62.2485 72.981 62.2855 63.9535 62.2855 63.9535L63.0116 58.1299L72.738 59.0499Z" fill="#FC9D9D"/>
<path d="M72.3081 59.825H66.3534C66.176 59.825 66.0001 59.8597 65.8361 59.9276C65.6721 59.9952 65.5232 60.0943 65.3976 60.2192C65.2723 60.3441 65.1729 60.4925 65.1051 60.6558C65.0374 60.8191 65.0027 60.9939 65.0029 61.1705C65.0034 61.3469 64.9684 61.5217 64.9007 61.6848C64.8329 61.8481 64.7335 61.9962 64.6082 62.1209C64.4826 62.2458 64.3337 62.3447 64.1697 62.412C64.0058 62.4794 63.83 62.5139 63.6524 62.5137C63.6045 62.5137 63.5569 62.5231 63.5127 62.5413C63.4683 62.5597 63.4281 62.5864 63.3941 62.6202C63.3601 62.654 63.3333 62.694 63.315 62.7379C63.2965 62.7821 63.287 62.8295 63.287 62.8771V64.1858C63.287 64.2265 63.2789 64.2667 63.2632 64.3042C63.2475 64.3417 63.2246 64.376 63.1954 64.4045C63.1665 64.4333 63.1321 64.4558 63.0942 64.4712C63.0562 64.4866 63.0158 64.4942 62.9748 64.494C62.9034 64.494 62.8345 64.468 62.7808 64.4211C62.7272 64.3742 62.6925 64.3093 62.6835 64.2387L62.5008 62.9875L62.2695 62.5505L60.8103 63.3141C60.8103 63.3141 58.8008 59.6801 60.1166 56.6119C60.8635 54.8478 62.7089 54.3579 63.5483 54.3119C63.6848 54.3009 63.8171 54.2613 63.9366 54.1953C64.0564 54.1296 64.1605 54.0392 64.2421 53.9301C64.626 53.3666 65.5394 52.4213 67.4033 52.6398C67.9303 52.6796 68.4381 52.8524 68.8791 53.1417C69.3201 53.431 69.6797 53.8276 69.9239 54.2935C70.0324 54.4803 70.2023 54.6238 70.4051 54.6997C70.6082 54.7756 70.8311 54.7791 71.0362 54.7098C71.4471 54.5553 71.8909 54.5077 72.3254 54.5714C72.76 54.6349 73.1711 54.8076 73.5198 55.0732C75.4138 56.375 74.3893 59.6617 72.3081 59.825Z" fill="#21252B"/>
<path opacity="0.15" d="M61.9152 66.4099C61.9152 66.4099 62.4632 66.5019 62.7754 66.2834L61.7325 67.6635L61.9152 66.4099Z" fill="black"/>
<path d="M72.3262 60.0987L71.6325 60.1171C71.5985 60.1158 71.5661 60.1017 71.5416 60.078C71.5173 60.0543 71.5025 60.0224 71.5002 59.9886C71.4979 59.9548 71.5083 59.9212 71.5293 59.8943C71.5504 59.8676 71.5804 59.8494 71.6142 59.8435L72.3079 59.825C72.3944 59.8239 72.4807 59.8124 72.5646 59.7905C72.8509 59.7165 73.1268 59.6068 73.3855 59.464C73.4006 59.4515 73.4184 59.4428 73.4376 59.438C73.4565 59.4334 73.4764 59.4329 73.4956 59.4366C73.515 59.4403 73.5333 59.4481 73.549 59.4596C73.565 59.4713 73.5782 59.486 73.5877 59.5033C73.5971 59.5203 73.6027 59.5392 73.6038 59.5587C73.6052 59.5783 73.6022 59.5978 73.595 59.616C73.5879 59.6342 73.5768 59.6507 73.5624 59.664C73.5483 59.6776 73.5312 59.6877 73.5125 59.6939C73.2334 59.8531 72.9318 59.9693 72.6178 60.0389C72.526 60.0796 72.4266 60.1001 72.3262 60.0987Z" fill="#FC9D9D"/>
<path opacity="0.15" d="M70.5917 73.8666L70.5177 71.7598C69.9164 72.3049 68.2352 73.0133 66.4638 72.4498C65.5689 72.1602 64.7886 71.5967 64.2346 70.8397C64.2133 70.8133 64.1835 70.7951 64.1499 70.7884C64.1166 70.7818 64.0819 70.7868 64.0519 70.8029C64.0255 70.8241 64.0072 70.8542 64.001 70.8873C63.9945 70.9207 64.0003 70.9552 64.0172 70.9846C64.7357 71.9507 65.7902 72.6158 66.9749 72.85C67.4779 73.2532 68.0574 73.5512 68.679 73.7258C69.3003 73.9006 69.9511 73.9485 70.5917 73.8666Z" fill="black"/>
<path opacity="0.3" d="M68.8387 70.2648H68.0155C67.9671 70.2648 67.9206 70.2457 67.8862 70.2116C67.852 70.1776 67.8328 70.1314 67.8328 70.0831C67.8328 70.035 67.852 69.9888 67.8862 69.9545C67.9206 69.9205 67.9671 69.9014 68.0155 69.9014H68.8202C68.8688 69.9014 68.915 69.9205 68.9495 69.9545C68.9837 69.9888 69.0029 70.035 69.0029 70.0831C68.9941 70.1252 68.9742 70.164 68.9453 70.1958C68.9164 70.2277 68.8796 70.2514 68.8387 70.2648Z" fill="black"/>
<path opacity="0.3" d="M67.8563 68.7099C69.0635 68.6202 69.556 69.3034 69.7202 69.6438C69.7293 69.6732 69.7276 69.7049 69.7154 69.7332C69.7034 69.7617 69.6816 69.7847 69.6541 69.7988C69.6263 69.8128 69.5947 69.8167 69.5646 69.8098C69.5343 69.8029 69.5077 69.7857 69.489 69.7611C69.3248 69.4368 68.7952 68.7099 67.3128 69.0711C67.2772 69.0791 67.24 69.0727 67.2092 69.0531C67.1783 69.0338 67.1565 69.003 67.1487 68.9675C67.1406 68.9321 67.147 68.8951 67.1667 68.8645C67.1861 68.8339 67.2171 68.8123 67.2527 68.8042C67.4502 68.7525 67.6523 68.721 67.8563 68.7099Z" fill="black"/>
<path d="M67.4675 65.6555C67.5722 65.6555 67.6746 65.6247 67.7616 65.5667C67.8488 65.5088 67.9165 65.4267 67.9567 65.3303C67.9967 65.2342 68.0071 65.1281 67.9868 65.026C67.9665 64.9239 67.916 64.83 67.8418 64.7565C67.7678 64.6826 67.6735 64.6325 67.5708 64.6123C67.4679 64.592 67.3615 64.6024 67.2649 64.6422C67.168 64.6822 67.0852 64.7496 67.0272 64.8363C66.9689 64.9227 66.9379 65.0246 66.9379 65.1288C66.9377 65.198 66.9511 65.2666 66.9777 65.3307C67.0041 65.3947 67.0431 65.4529 67.0924 65.5019C67.1417 65.5508 67.2001 65.5897 67.2644 65.6159C67.3287 65.6424 67.3979 65.6557 67.4675 65.6555Z" fill="#21252B"/>
<path d="M67.7242 65.3657C67.7528 65.3657 67.7804 65.3542 67.8007 65.334C67.821 65.3137 67.8325 65.2864 67.8325 65.2576C67.8325 65.2286 67.8212 65.201 67.801 65.1803C67.7807 65.1596 67.753 65.1479 67.7242 65.1472C67.6949 65.1479 67.6672 65.1596 67.6465 65.1801C67.626 65.2008 67.614 65.2284 67.6135 65.2576C67.614 65.2866 67.626 65.314 67.6467 65.3342C67.6675 65.3544 67.6951 65.3657 67.7242 65.3657Z" fill="#B8BFFF"/>
<path d="M71.704 65.9844C71.8087 65.9844 71.9112 65.9535 71.9981 65.8956C72.0853 65.8376 72.1533 65.7555 72.1933 65.6592C72.2333 65.563 72.2439 65.4573 72.2233 65.3549C72.203 65.2528 72.1526 65.159 72.0786 65.0854C72.0044 65.0118 71.91 64.9614 71.8073 64.9412C71.7047 64.9209 71.5981 64.9313 71.5014 64.9711C71.4045 65.0111 71.322 65.0785 71.2637 65.1652C71.2057 65.2517 71.1744 65.3535 71.1744 65.4577C71.1744 65.5973 71.2302 65.7314 71.3296 65.8301C71.4288 65.9289 71.5636 65.9844 71.704 65.9844Z" fill="#21252B"/>
<path d="M71.9605 65.6739C71.9819 65.6739 72.0029 65.6675 72.0206 65.6557C72.0384 65.6438 72.0524 65.627 72.0605 65.6072C72.0688 65.5874 72.0709 65.5656 72.0667 65.5447C72.0626 65.5237 72.0522 65.5044 72.037 65.4895C72.022 65.4743 72.0027 65.464 71.9817 65.4598C71.9605 65.4557 71.9388 65.4578 71.919 65.466C71.8992 65.4741 71.8824 65.4881 71.8704 65.5058C71.8586 65.5235 71.8522 65.5444 71.8522 65.5658C71.8522 65.5946 71.8635 65.6219 71.884 65.6422C71.9043 65.6624 71.9317 65.6739 71.9605 65.6739Z" fill="#B8BFFF"/>
<path opacity="0.3" d="M69.6601 68.02H68.9294C68.8859 68.02 68.8441 68.0027 68.8133 67.9721C68.7825 67.9416 68.7652 67.8999 68.7652 67.8567C68.7652 67.8134 68.7825 67.7718 68.8133 67.7412C68.8441 67.7106 68.8859 67.6934 68.9294 67.6934H69.6601C69.7473 67.6934 69.8308 67.6589 69.8923 67.5977C69.954 67.5365 69.9885 67.4535 69.9885 67.3668C69.9885 67.2801 69.954 67.197 69.8923 67.1359C69.8308 67.0747 69.7473 67.0402 69.6601 67.0402C69.6167 67.0402 69.5748 67.0229 69.544 66.9923C69.5133 66.9617 69.4959 66.9201 69.4959 66.8769C69.4959 66.8336 69.5133 66.792 69.544 66.7614C69.5748 66.7308 69.6167 66.7136 69.6601 66.7136C69.8345 66.7136 70.0015 66.7823 70.1245 66.9049C70.2477 67.0273 70.3169 67.1936 70.3169 67.3668C70.3169 67.54 70.2477 67.7063 70.1245 67.8286C70.0015 67.9512 69.8345 68.02 69.6601 68.02Z" fill="black"/>
<path d="M73.348 64.1675L71.0101 64.0042L70.7002 63.9858L68.6559 63.8409H68.6375L66.0058 63.65C65.905 63.6419 65.8035 63.6539 65.7073 63.6851C65.6111 63.7164 65.522 63.7666 65.4457 63.8326C65.3692 63.8986 65.3067 63.9791 65.2621 64.0692C65.2172 64.1596 65.1911 64.2579 65.1849 64.3584L65.1479 64.9564C65.1162 65.5056 65.303 66.0452 65.668 66.4587C66.0329 66.8723 66.5467 67.1262 67.0985 67.1662C67.6502 67.206 68.1955 67.0284 68.6166 66.6717C69.038 66.3152 69.3011 65.808 69.3497 65.26L69.3844 64.6597C69.3983 64.4961 69.3532 64.3331 69.2572 64.1997L70.0805 64.2526C69.9655 64.3804 69.895 64.5417 69.8793 64.7126L69.8423 65.3129C69.8036 65.8667 69.9877 66.4132 70.3543 66.832C70.7208 67.2508 71.2395 67.5078 71.7963 67.5462C72.3532 67.5846 72.9026 67.4015 73.3238 67.0369C73.7449 66.6724 74.0032 66.1565 74.0418 65.6027L74.0788 65.0024C74.0864 64.797 74.015 64.5964 73.8792 64.4414C73.7435 64.2864 73.5536 64.1884 73.348 64.1675ZM69.056 64.6574L69.0213 65.2577C68.9848 65.7278 68.7626 66.1645 68.4032 66.4723C68.0438 66.78 67.5767 66.9337 67.1038 66.9001C66.6309 66.8663 66.1906 66.6478 65.8791 66.2922C65.5676 65.9366 65.4103 65.4729 65.4416 65.0024L65.4762 64.4044C65.4792 64.3432 65.4943 64.2832 65.5209 64.2277C65.5475 64.1725 65.5852 64.1228 65.6312 64.0821C65.6772 64.0414 65.7311 64.0104 65.7896 63.9906C65.8479 63.9708 65.9096 63.963 65.9711 63.9674L68.6004 64.1491H68.619C68.7436 64.1612 68.8588 64.2211 68.9402 64.3158C69.0218 64.4106 69.0632 64.5329 69.056 64.6574ZM73.7134 65.5774C73.6979 65.8122 73.6357 66.0415 73.5307 66.2522C73.4257 66.4631 73.2798 66.651 73.1015 66.8056C72.9232 66.9601 72.716 67.0781 72.4917 67.1526C72.2674 67.2272 72.0304 67.2571 71.7945 67.24C71.5586 67.2232 71.3283 67.1602 71.1169 67.0546C70.9056 66.9491 70.7173 66.8028 70.5631 66.6245C70.4086 66.4463 70.2914 66.2395 70.2176 66.016C70.1438 65.7924 70.1154 65.5567 70.1336 65.3221L70.1707 64.7241C70.1737 64.6631 70.1887 64.6031 70.2153 64.5481C70.2416 64.4929 70.2789 64.4435 70.3247 64.4027C70.3707 64.362 70.4241 64.331 70.4824 64.311C70.5404 64.2912 70.6019 64.2829 70.6632 64.2871L70.9754 64.3055L73.311 64.4688C73.3723 64.4717 73.4327 64.4867 73.4879 64.5131C73.5434 64.5394 73.5932 64.5764 73.6341 64.6219C73.675 64.6677 73.7062 64.7208 73.7264 64.7788C73.7463 64.8365 73.7546 64.8977 73.7504 64.9587L73.7134 65.5774Z" fill="#21252B"/>
<path d="M62.5004 62.96C62.4562 62.7911 62.3755 62.6338 62.2636 62.4995C62.1517 62.3649 62.0115 62.2566 61.8529 62.1821C61.6943 62.1076 61.5213 62.0684 61.3458 62.0678C61.1702 62.0671 60.9968 62.1046 60.8377 62.1779C59.3415 62.7046 59.3785 66.0282 61.8437 66.3916C63.141 66.5917 62.9213 65.8281 62.7687 64.8115L62.5004 62.96Z" fill="#FC9D9D"/>
<path opacity="0.3" d="M60.713 63.0221C60.8191 62.951 60.9389 62.9032 61.0649 62.8813C61.1907 62.8594 61.3198 62.8643 61.4437 62.8955C61.5605 62.9376 61.6678 63.0027 61.7587 63.0869C61.8496 63.1711 61.9227 63.2725 61.9733 63.3855C62.1086 63.6689 62.1712 63.9808 62.156 64.294V64.5862C62.1548 64.6064 62.1495 64.6262 62.1407 64.6443C62.1317 64.6627 62.1194 64.6791 62.1042 64.6924C62.0889 64.706 62.0711 64.7161 62.0519 64.7228C62.0325 64.7294 62.0121 64.7322 61.9918 64.7311C61.9714 64.7299 61.9515 64.7246 61.9333 64.7159C61.915 64.7069 61.8986 64.6945 61.885 64.6793C61.8715 64.6643 61.8611 64.6466 61.8544 64.6273C61.8477 64.6082 61.845 64.588 61.8461 64.5677V64.2756C61.854 64.0143 61.8043 63.7544 61.7004 63.5143C61.6685 63.4368 61.6213 63.3664 61.5619 63.3073C61.5022 63.2479 61.4315 63.201 61.3535 63.1693C61.1808 63.1419 61.0041 63.1805 60.8587 63.2774C60.842 63.287 60.8233 63.2935 60.8041 63.296C60.7847 63.2985 60.7652 63.2972 60.7465 63.2921C60.7275 63.2868 60.7102 63.2781 60.6949 63.2661C60.6797 63.2539 60.6669 63.2392 60.6575 63.2222C60.641 63.1877 60.6376 63.1486 60.6478 63.1118C60.6579 63.0752 60.6811 63.0432 60.713 63.0221Z" fill="black"/>
<path opacity="0.2" d="M64.1813 106.2L65.5688 108.96L58.5827 110.678C58.5827 110.678 55.3937 111.95 55.3452 106.078L64.1813 106.2Z" fill="black"/>
<path opacity="0.6" d="M57.5305 89.5502L47.8735 90.5208L47.9938 91.7099L57.6739 90.7784L57.5305 89.5502Z" fill="black"/>
<path opacity="0.6" d="M86.3814 89.18L86.1155 88.0162L80.0105 88.5981L80.1377 89.87L86.3814 89.18Z" fill="black"/>
<path d="M71.7805 106.041H89.7878C89.8597 106.043 89.928 106.072 89.9789 106.123C90.0297 106.173 90.0588 106.241 90.0607 106.313V106.773C90.0588 106.844 90.0297 106.912 89.9789 106.963C89.928 107.013 89.8597 107.042 89.7878 107.044H71.7805C71.7084 107.043 71.6392 107.014 71.5881 106.963C71.5368 106.913 71.5072 106.844 71.5053 106.773V106.313C71.5051 106.277 71.512 106.241 71.5257 106.208C71.5393 106.175 71.5597 106.145 71.5853 106.119C71.611 106.094 71.6415 106.074 71.6751 106.061C71.7086 106.047 71.7444 106.041 71.7805 106.041Z" fill="#21252B"/>
<path opacity="0.6" d="M71.7805 106.041H89.7878C89.8597 106.043 89.928 106.072 89.9789 106.123C90.0297 106.173 90.0588 106.241 90.0607 106.313V106.773C90.0588 106.844 90.0297 106.912 89.9789 106.963C89.928 107.013 89.8597 107.042 89.7878 107.044H71.7805C71.7084 107.043 71.6392 107.014 71.5881 106.963C71.5368 106.913 71.5072 106.844 71.5053 106.773V106.313C71.5051 106.277 71.512 106.241 71.5257 106.208C71.5393 106.175 71.5597 106.145 71.5853 106.119C71.611 106.094 71.6415 106.074 71.6751 106.061C71.7086 106.047 71.7444 106.041 71.7805 106.041Z" fill="black"/>
<path d="M83.923 106.041H115.317C115.39 106.043 115.458 106.072 115.509 106.122C115.56 106.173 115.59 106.241 115.593 106.313V106.773C115.59 106.844 115.56 106.912 115.509 106.963C115.458 107.013 115.39 107.042 115.317 107.044H83.923C83.8513 107.042 83.7828 107.013 83.7322 106.963C83.6813 106.912 83.6519 106.844 83.6501 106.773V106.313C83.6549 106.242 83.6855 106.176 83.7354 106.126C83.7856 106.076 83.8522 106.046 83.923 106.041Z" fill="#21252B"/>
<g opacity="0.6">
<path opacity="0.6" d="M114.915 106.223H82.9564C82.943 106.225 82.9296 106.224 82.9167 106.221C82.9039 106.217 82.8919 106.211 82.8817 106.202C82.8716 106.194 82.8635 106.183 82.8577 106.171C82.8521 106.159 82.8494 106.146 82.8494 106.132C82.8494 106.119 82.8521 106.106 82.8577 106.093C82.8635 106.082 82.8716 106.071 82.8817 106.062C82.8919 106.053 82.9039 106.047 82.9167 106.044C82.9296 106.04 82.943 106.039 82.9564 106.041H114.915C114.927 106.041 114.939 106.042 114.951 106.047C114.962 106.051 114.972 106.058 114.981 106.066C114.99 106.074 114.997 106.085 115.001 106.096C115.006 106.107 115.008 106.119 115.008 106.131C115.006 106.155 114.996 106.177 114.979 106.194C114.962 106.211 114.939 106.221 114.915 106.223Z" fill="black"/>
</g>
<path d="M83.8516 106.041H88.5806C88.7585 106.041 88.9305 105.979 89.0674 105.866C89.2043 105.753 89.297 105.596 89.3299 105.423L93.2935 84.6973C93.3146 84.5883 93.3106 84.4758 93.2826 84.3681C93.2544 84.2607 93.2026 84.1607 93.1309 84.0756C93.0593 83.9905 92.9695 83.9222 92.868 83.8757C92.7665 83.8293 92.656 83.8058 92.5443 83.8072H87.8152C87.6374 83.8074 87.4653 83.8693 87.3284 83.9822C87.1917 84.0951 87.0988 84.252 87.0659 84.4259L83.1023 105.151C83.0831 105.26 83.088 105.372 83.1169 105.479C83.1456 105.585 83.1976 105.685 83.2688 105.769C83.3403 105.854 83.4293 105.923 83.5299 105.97C83.6307 106.016 83.7403 106.041 83.8516 106.041Z" fill="#21252B"/>
<path opacity="0.6" d="M83.8516 106.041H88.5806C88.7585 106.041 88.9305 105.979 89.0674 105.866C89.2043 105.753 89.297 105.596 89.3299 105.423L93.2935 84.6973C93.3146 84.5883 93.3106 84.4758 93.2826 84.3681C93.2544 84.2607 93.2026 84.1607 93.1309 84.0756C93.0593 83.9905 92.9695 83.9222 92.868 83.8757C92.7665 83.8293 92.656 83.8058 92.5443 83.8072H87.8152C87.6374 83.8074 87.4653 83.8693 87.3284 83.9822C87.1917 84.0951 87.0988 84.252 87.0659 84.4259L83.1023 105.151C83.0831 105.26 83.088 105.372 83.1169 105.479C83.1456 105.585 83.1976 105.685 83.2688 105.769C83.3403 105.854 83.4293 105.923 83.5299 105.97C83.6307 106.016 83.7403 106.041 83.8516 106.041Z" fill="black"/>
<path d="M84.5315 106.041H114.899C115.077 106.041 115.249 105.979 115.385 105.866C115.521 105.753 115.614 105.596 115.646 105.423L119.61 84.6974C119.631 84.5882 119.628 84.4757 119.6 84.3681C119.572 84.2604 119.52 84.1601 119.448 84.0748C119.377 83.9897 119.287 83.9214 119.185 83.875C119.083 83.8287 118.972 83.8057 118.861 83.8073H88.509C88.3312 83.8076 88.1589 83.8694 88.0222 83.9824C87.8853 84.0953 87.7926 84.2521 87.7598 84.426L83.7961 105.151C83.7732 105.259 83.7751 105.371 83.8014 105.479C83.828 105.586 83.8784 105.686 83.949 105.772C84.0195 105.857 84.1085 105.926 84.2094 105.972C84.3102 106.019 84.4203 106.043 84.5315 106.041Z" fill="#21252B"/>
<path opacity="0.6" d="M101.875 94.3434C101.693 94.7597 101.894 95.1231 102.312 95.1231H102.386C102.149 95.3959 101.858 95.6171 101.531 95.7735C101.204 95.9297 100.848 96.0176 100.485 96.0316C99.5904 96.0132 99.1719 95.2887 99.5743 94.3986C99.9766 93.5085 101.017 92.8162 101.91 92.8346C102.476 92.853 102.86 93.1451 102.953 93.5982C102.723 93.618 102.503 93.6971 102.314 93.828C102.125 93.9586 101.974 94.1364 101.875 94.3434Z" fill="black"/>
<g opacity="0.2">
<path opacity="0.2" d="M63.0114 35.8545L69.0447 32.0112L63.0715 28.1886L63.0114 35.8545Z" fill="black"/>
</g>
<g opacity="0.2">
<path opacity="0.2" d="M81.5673 26.8822H73.5637V34.8425H81.5673V26.8822Z" fill="black"/>
</g>
</g>
<defs>
<filter id="filter0_d" x="0.0681152" y="0.321716" width="267.335" height="171.838" filterUnits="userSpaceOnUse" color-interpolation-filters="sRGB">
<feFlood flood-opacity="0" result="BackgroundImageFix"/>
<feColorMatrix in="SourceAlpha" type="matrix" values="0 0 0 0 0 0 0 0 0 0 0 0 0 0 0 0 0 0 127 0" result="hardAlpha"/>
<feOffset dy="4"/>
<feGaussianBlur stdDeviation="2"/>
<feColorMatrix type="matrix" values="0 0 0 0 0 0 0 0 0 0 0 0 0 0 0 0 0 0 0.25 0"/>
<feBlend mode="normal" in2="BackgroundImageFix" result="effect1_dropShadow"/>
<feBlend mode="normal" in="SourceGraphic" in2="effect1_dropShadow" result="shape"/>
</filter>
</defs>
</svg>
