<svg width="226" height="290" viewBox="0 0 226 290" fill="none" xmlns="http://www.w3.org/2000/svg">
<path opacity="0.07" d="M203.99 138.385C212.32 131.221 217.446 117.891 217.446 99.9026C217.446 62.9624 195.852 20.4973 169.26 5.39998C142.636 -9.72944 121.426 8.00185 121.682 45.2311C121.811 62.9303 126.873 81.9143 135.043 98.425C141.354 111.145 145.487 125.343 146.865 138.545C147.409 144.199 150.773 150.045 154.65 152.293L184.382 169.479C188.291 171.759 191.623 169.704 192.231 164.725C193.577 153.129 197.646 143.877 203.99 138.385Z" fill="url(#paint0_linear)"/>
<path opacity="0.07" d="M191.655 199.416V191.514C191.655 187.274 189.22 182.488 186.176 180.657L152.792 161.32C149.748 159.553 147.313 161.545 147.313 165.785V173.687C147.313 180.047 150.645 187.114 155.002 190.583L184.029 207.382C188.323 209.021 191.655 205.712 191.655 199.416Z" fill="url(#paint1_linear)"/>
<path opacity="0.4" d="M187.938 151.169C196.268 144.006 201.394 130.675 201.394 112.687C201.394 75.7469 179.8 33.2818 153.208 18.1845C126.552 3.05508 105.375 20.7864 105.631 58.0157C105.759 75.7148 110.821 94.6989 118.991 111.21C125.303 123.93 129.436 138.128 130.813 151.33C131.358 156.983 134.722 162.829 138.599 165.078L168.331 182.263C172.239 184.544 175.571 182.488 176.18 177.509C177.558 165.913 181.627 156.63 187.938 151.169Z" fill="url(#paint2_linear)"/>
<path opacity="0.4" d="M175.635 212.201V204.299C175.635 200.059 173.2 195.273 170.157 193.442L136.773 174.104C133.729 172.338 131.294 174.329 131.294 178.569V186.471C131.294 192.831 134.626 199.898 138.983 203.367L168.01 220.167C172.303 221.805 175.635 218.497 175.635 212.201Z" fill="url(#paint3_linear)"/>
<path opacity="0.3" d="M105.503 214.963L10.1563 159.778L10.1883 209.599L97.1089 259.902L105.535 272.397L105.503 214.963Z" fill="url(#paint4_linear)"/>
<path d="M0 179.212V165.688L36.0113 186.503V200.027L0 179.212Z" fill="#F2994A"/>
<path opacity="0.15" d="M80.9935 212.907L60.1044 200.83V205.198L80.9935 217.276V212.907Z" fill="white"/>
<path opacity="0.15" d="M80.9935 221.677L40.721 198.388V202.757L80.9935 226.045V221.677Z" fill="white"/>
<path opacity="0.15" d="M80.9935 230.414L32.1987 202.179V206.547L80.9935 234.782V230.414Z" fill="white"/>
<path d="M86.1516 220.456C86.1516 224.568 88.5865 229.29 91.5661 231.024C94.5457 232.759 96.9807 230.832 96.9807 226.72C96.9807 222.608 94.5457 217.886 91.5661 216.152C88.5545 214.417 86.1516 216.345 86.1516 220.456Z" fill="#F2994A"/>
<path opacity="0.3" d="M112.936 184.994L208.251 240.179L208.283 290L121.362 239.697L112.968 242.46L112.936 184.994Z" fill="url(#paint5_linear)"/>
<path d="M180.537 248.948V235.425L216.517 256.24V269.763L180.537 248.948Z" fill="#F2C94C"/>
<path opacity="0.15" d="M137.445 211.333L158.335 223.411V227.78L137.445 215.702V211.333Z" fill="white"/>
<path opacity="0.15" d="M137.445 220.071L175.155 241.881V246.25L137.445 224.471V220.071Z" fill="white"/>
<path opacity="0.15" d="M137.445 228.84L186.24 257.075V261.444L137.445 233.208V228.84Z" fill="white"/>
<path d="M132.287 212.907C132.287 217.019 129.852 218.946 126.873 217.212C123.893 215.477 121.458 210.755 121.458 206.644C121.458 202.532 123.893 200.605 126.873 202.339C129.884 204.074 132.287 208.796 132.287 212.907Z" fill="#F2C94C"/>
<path opacity="0.15" d="M219.304 180.818L221.707 186.15L201.458 190.872L222.508 220.263L220.105 222.801L194.25 186.664L219.304 180.818Z" fill="white"/>
<path d="M226 186.792C226 190.936 223.565 192.896 220.585 191.193C217.606 189.458 215.171 184.704 215.171 180.529C215.171 176.385 217.606 174.425 220.585 176.128C223.565 177.862 226 182.649 226 186.792Z" fill="#F2994A"/>
<path d="M226 223.604C226 227.748 223.565 229.707 220.585 228.005C217.606 226.27 215.171 221.516 215.171 217.34C215.171 213.197 217.606 211.237 220.585 212.94C223.565 214.706 226 219.46 226 223.604Z" fill="#F2994A"/>
<path d="M202.9 191.354C202.9 195.497 200.465 197.457 197.486 195.754C194.506 194.02 192.071 189.266 192.071 185.09C192.071 180.946 194.506 178.987 197.486 180.689C200.465 182.424 202.9 187.21 202.9 191.354Z" fill="#F2C94C"/>
<path opacity="0.3" d="M51.8383 81.3361L105.535 112.398V212.137L51.8383 181.075V81.3361Z" fill="url(#paint6_linear)"/>
<path opacity="0.15" d="M57.1247 140.537L100.249 165.496V169.864L57.1247 144.905V140.537Z" fill="white"/>
<path opacity="0.15" d="M60.1364 150.816L97.205 172.273V176.642L60.1364 155.184V150.816Z" fill="white"/>
<path d="M75.8032 168.643L38.4463 147.025V158.172L75.8032 179.79V168.643Z" fill="#F2C94C"/>
<path d="M84.806 120.557C84.806 125.375 82.0187 127.656 78.5905 125.664C75.1624 123.641 72.3751 118.116 72.3751 113.265C72.3751 108.447 75.1624 106.166 78.5905 108.158C82.0187 110.182 84.806 115.739 84.806 120.557Z" fill="#F2C94C"/>
<path d="M78.5586 129.551C73.0159 126.307 68.4344 129.358 67.6334 136.329C67.5053 137.549 68.4024 139.156 69.5237 139.798L87.5935 150.398C88.7148 151.041 89.6119 150.527 89.4837 149.145C88.7148 141.179 84.1013 132.795 78.5586 129.551Z" fill="#F2C94C"/>
<path opacity="0.2" d="M130.717 284.025C111.334 259.034 125.367 249.976 130.717 264.624C136.068 256.208 150.101 281.456 130.717 284.025Z" fill="url(#paint7_linear)"/>
<defs>
<linearGradient id="paint0_linear" x1="207.151" y1="47.0035" x2="108.867" y2="136.258" gradientUnits="userSpaceOnUse">
<stop stop-color="white"/>
<stop offset="1" stop-color="white" stop-opacity="0"/>
</linearGradient>
<linearGradient id="paint1_linear" x1="257.892" y1="102.862" x2="159.609" y2="192.117" gradientUnits="userSpaceOnUse">
<stop stop-color="white"/>
<stop offset="1" stop-color="white" stop-opacity="0"/>
</linearGradient>
<linearGradient id="paint2_linear" x1="191.125" y1="59.7816" x2="92.8419" y2="149.036" gradientUnits="userSpaceOnUse">
<stop stop-color="white"/>
<stop offset="1" stop-color="white" stop-opacity="0"/>
</linearGradient>
<linearGradient id="paint3_linear" x1="241.867" y1="115.64" x2="143.584" y2="204.895" gradientUnits="userSpaceOnUse">
<stop stop-color="white"/>
<stop offset="1" stop-color="white" stop-opacity="0"/>
</linearGradient>
<linearGradient id="paint4_linear" x1="84.7128" y1="195.008" x2="35.3884" y2="233.528" gradientUnits="userSpaceOnUse">
<stop stop-color="white"/>
<stop offset="1" stop-color="white" stop-opacity="0"/>
</linearGradient>
<linearGradient id="paint5_linear" x1="153.878" y1="186.616" x2="166.266" y2="286.839" gradientUnits="userSpaceOnUse">
<stop stop-color="white"/>
<stop offset="1" stop-color="white" stop-opacity="0"/>
</linearGradient>
<linearGradient id="paint6_linear" x1="111.276" y1="90.1267" x2="63.4275" y2="172.81" gradientUnits="userSpaceOnUse">
<stop stop-color="white"/>
<stop offset="1" stop-color="white" stop-opacity="0"/>
</linearGradient>
<linearGradient id="paint7_linear" x1="134.81" y1="265.587" x2="120.436" y2="277.972" gradientUnits="userSpaceOnUse">
<stop stop-color="white"/>
<stop offset="1" stop-color="white" stop-opacity="0"/>
</linearGradient>
</defs>
</svg>
