<svg width="254" height="297" viewBox="0 0 254 297" fill="none" xmlns="http://www.w3.org/2000/svg">
<path opacity="0.2" d="M84.2951 118.25L26.1006 84.6931V114.978L84.2951 148.535V118.25Z" fill="url(#paint0_linear)"/>
<path d="M37.9135 101.68C37.9135 104.187 36.4499 105.335 34.603 104.291C32.791 103.247 31.2926 100.358 31.2926 97.8513C31.2926 95.3449 32.7561 94.1962 34.603 95.2405C36.4499 96.2848 37.9135 99.174 37.9135 101.68Z" fill="#F2C94C"/>
<path opacity="0.15" d="M40.98 99.6614L62.2018 111.88V116.614L40.98 104.43V99.6614Z" fill="white"/>
<path opacity="0.15" d="M41.015 109.826L78.3013 131.304V136.038L41.015 114.56V109.826Z" fill="white"/>
<path opacity="0.07" d="M130.014 20.4684L195.248 58.0981V198.453L130.014 160.858V20.4684Z" fill="url(#paint1_linear)"/>
<path opacity="0.3" d="M114.925 33.1392L180.159 70.769V211.123L114.925 173.528V33.1392Z" fill="url(#paint2_linear)"/>
<path opacity="0.15" d="M121.233 111.358L173.643 141.573V146.307L121.233 116.092V111.358Z" fill="white"/>
<path opacity="0.15" d="M124.892 122.88L169.949 148.883V153.617L124.892 127.614V122.88Z" fill="white"/>
<path d="M97.8854 141.329V125.665L136.391 147.873V163.538L97.8854 141.329Z" fill="#F2994A"/>
<path opacity="0.2" d="M232.221 137.987C229.224 133.218 225.077 132.592 224.903 132.557C224.485 132.487 224.241 132.87 224.241 133.427V146.028C224.241 150.31 222.777 153.06 219.885 154.244C219.606 154.348 219.432 154.661 219.432 155.079C219.432 161.136 219.536 187.139 219.571 195.25C219.571 196.608 220.512 198.209 221.662 198.87C227.865 202.456 245.672 212.725 245.672 212.725C250.411 215.475 253.442 213.769 253.965 208.13L254 183.171C254 179.377 253.338 175.478 251.247 172.24C250.062 170.396 248.668 168.968 247.205 168.133L235.043 161.136V149.44C235.078 144.845 234.102 141.016 232.221 137.987Z" fill="url(#paint3_linear)"/>
<path d="M203.158 144.323L216.748 152.155V196.573L203.158 188.741V144.323Z" fill="#F2C94C"/>
<path opacity="0.3" d="M103.705 59.8038L0 0L0.034847 53.9905L94.5748 108.503L103.74 122.044L103.705 59.8038Z" fill="url(#paint4_linear)"/>
<path opacity="0.15" d="M77.0469 57.5411L54.3266 44.4525V49.1867L77.0469 62.2753V57.5411Z" fill="white"/>
<path opacity="0.15" d="M77.0466 67.0443L20.7687 34.6013V39.3354L77.0466 71.7785V67.0443Z" fill="white"/>
<path opacity="0.15" d="M77.0467 76.5474L9.1647 37.386V42.1202L77.0467 81.2816V76.5474Z" fill="white"/>
<path d="M82.6222 65.7215C82.6222 70.1772 85.2705 75.2943 88.5113 77.1741C91.7521 79.0538 94.4004 76.9652 94.4004 72.5095C94.4004 68.0538 91.7521 62.9367 88.5113 61.057C85.2705 59.1772 82.6222 61.2658 82.6222 65.7215Z" fill="#F2994A"/>
<path opacity="0.3" d="M148.414 183.206L252.118 243.009L252.153 297L157.578 242.487L148.448 245.481L148.414 183.206Z" fill="url(#paint5_linear)"/>
<path opacity="0.15" d="M175.072 211.75L197.792 224.839V229.573L175.072 216.484V211.75Z" fill="white"/>
<path opacity="0.15" d="M175.072 221.218L216.087 244.854V249.589L175.072 225.953V221.218Z" fill="white"/>
<path opacity="0.15" d="M175.072 230.721L228.144 261.32V266.054L175.072 235.456V230.721Z" fill="white"/>
<path d="M169.496 213.456C169.496 217.911 166.847 220 163.607 218.12C160.366 216.24 157.717 211.123 157.717 206.668C157.717 202.212 160.366 200.123 163.607 202.003C166.847 203.883 169.461 209 169.496 213.456Z" fill="#F2C94C"/>
<path opacity="0.2" d="M112.521 173.946C114.612 175.13 116.284 178.054 116.284 180.456V191.073L123.323 195.111C125.414 196.294 127.087 199.218 127.087 201.62C127.087 204.022 125.414 204.997 123.323 203.813L116.284 199.775V210.392C116.284 212.794 114.612 213.769 112.521 212.585C110.43 211.402 108.757 208.478 108.757 206.076V195.459L101.718 191.421C99.6275 190.237 97.9548 187.313 97.9548 184.911C97.9548 182.51 99.6275 181.535 101.718 182.718L108.757 186.756V176.139C108.723 173.737 110.43 172.728 112.521 173.946Z" fill="url(#paint6_linear)"/>
<path opacity="0.05" d="M147.403 106.171C117.504 67.3228 139.144 53.2595 147.403 76.0253C155.697 62.9367 177.302 102.168 147.403 106.171Z" fill="url(#paint7_linear)"/>
<path opacity="0.3" d="M140.434 113.133C110.535 74.2848 132.175 60.2215 140.434 82.9874C148.727 69.8988 170.332 109.13 140.434 113.133Z" fill="white"/>
<defs>
<linearGradient id="paint0_linear" x1="61.7461" y1="105.268" x2="48.6416" y2="127.995" gradientUnits="userSpaceOnUse">
<stop stop-color="white"/>
<stop offset="1" stop-color="white" stop-opacity="0"/>
</linearGradient>
<linearGradient id="paint1_linear" x1="200.519" y1="43.9073" x2="134.832" y2="157.83" gradientUnits="userSpaceOnUse">
<stop stop-color="white"/>
<stop offset="1" stop-color="white" stop-opacity="0"/>
</linearGradient>
<linearGradient id="paint2_linear" x1="185.44" y1="56.5785" x2="119.754" y2="170.501" gradientUnits="userSpaceOnUse">
<stop stop-color="white"/>
<stop offset="1" stop-color="white" stop-opacity="0"/>
</linearGradient>
<linearGradient id="paint3_linear" x1="223.847" y1="168.294" x2="267.5" y2="185.019" gradientUnits="userSpaceOnUse">
<stop stop-color="white"/>
<stop offset="1" stop-color="white" stop-opacity="0"/>
</linearGradient>
<linearGradient id="paint4_linear" x1="81.0811" y1="38.1666" x2="27.5818" y2="80.0997" gradientUnits="userSpaceOnUse">
<stop stop-color="white"/>
<stop offset="1" stop-color="white" stop-opacity="0"/>
</linearGradient>
<linearGradient id="paint5_linear" x1="192.947" y1="184.968" x2="206.325" y2="293.59" gradientUnits="userSpaceOnUse">
<stop stop-color="white"/>
<stop offset="1" stop-color="white" stop-opacity="0"/>
</linearGradient>
<linearGradient id="paint6_linear" x1="119.786" y1="187.514" x2="101.556" y2="201.916" gradientUnits="userSpaceOnUse">
<stop stop-color="white"/>
<stop offset="1" stop-color="white" stop-opacity="0"/>
</linearGradient>
<linearGradient id="paint7_linear" x1="153.793" y1="77.594" x2="131.476" y2="96.6965" gradientUnits="userSpaceOnUse">
<stop stop-color="white"/>
<stop offset="1" stop-color="white" stop-opacity="0"/>
</linearGradient>
</defs>
</svg>
