<svg width="360" height="640" viewBox="0 0 360 640" fill="none" xmlns="http://www.w3.org/2000/svg">
<g id="intro last">
<rect width="360" height="640" fill="#000C7B"/>
<g id="Illustration">
<path id="Vector" opacity="0.07" d="M270.99 248.385C279.32 241.221 284.446 227.891 284.446 209.903C284.446 172.962 262.852 130.497 236.26 115.4C209.636 100.271 188.426 118.002 188.682 155.231C188.811 172.93 193.873 191.914 202.043 208.425C208.354 221.145 212.487 235.343 213.865 248.545C214.409 254.199 217.773 260.045 221.65 262.293L251.382 279.479C255.291 281.759 258.623 279.704 259.231 274.725C260.577 263.129 264.646 253.877 270.99 248.385Z" fill="url(#paint0_linear)"/>
<path id="Vector_2" opacity="0.07" d="M258.655 309.416V301.514C258.655 297.274 256.22 292.488 253.176 290.657L219.792 271.32C216.748 269.553 214.313 271.545 214.313 275.785V283.687C214.313 290.047 217.645 297.114 222.002 300.583L251.029 317.382C255.323 319.021 258.655 315.712 258.655 309.416Z" fill="url(#paint1_linear)"/>
<path id="Vector_3" opacity="0.4" d="M254.938 261.169C263.268 254.006 268.394 240.675 268.394 222.687C268.394 185.747 246.8 143.282 220.208 128.184C193.552 113.055 172.375 130.786 172.631 168.016C172.759 185.715 177.821 204.699 185.991 221.21C192.303 233.93 196.436 248.128 197.813 261.33C198.358 266.983 201.722 272.829 205.599 275.078L235.331 292.263C239.239 294.544 242.571 292.488 243.18 287.509C244.558 275.913 248.627 266.63 254.938 261.169Z" fill="url(#paint2_linear)"/>
<path id="Vector_4" opacity="0.4" d="M242.635 322.201V314.299C242.635 310.059 240.2 305.273 237.157 303.442L203.773 284.104C200.729 282.338 198.294 284.329 198.294 288.569V296.471C198.294 302.831 201.626 309.898 205.983 313.367L235.01 330.167C239.303 331.805 242.635 328.497 242.635 322.201Z" fill="url(#paint3_linear)"/>
<path id="Vector_5" opacity="0.3" d="M172.503 324.963L77.1563 269.778L77.1883 319.599L164.109 369.902L172.535 382.397L172.503 324.963Z" fill="url(#paint4_linear)"/>
<path id="Vector_6" d="M67 289.212V275.688L103.011 296.503V310.027L67 289.212Z" fill="#F2994A"/>
<path id="Vector_7" opacity="0.15" d="M147.994 322.907L127.104 310.83V315.198L147.994 327.276V322.907Z" fill="white"/>
<path id="Vector_8" opacity="0.15" d="M147.994 331.677L107.721 308.388V312.757L147.994 336.045V331.677Z" fill="white"/>
<path id="Vector_9" opacity="0.15" d="M147.993 340.414L99.1987 312.179V316.547L147.993 344.782V340.414Z" fill="white"/>
<path id="Vector_10" d="M153.152 330.456C153.152 334.568 155.587 339.29 158.566 341.024C161.546 342.759 163.981 340.832 163.981 336.72C163.981 332.608 161.546 327.886 158.566 326.152C155.555 324.417 153.152 326.345 153.152 330.456Z" fill="#F2994A"/>
<path id="Vector_11" opacity="0.3" d="M179.936 294.994L275.251 350.179L275.283 400L188.362 349.697L179.968 352.46L179.936 294.994Z" fill="url(#paint5_linear)"/>
<path id="Vector_12" d="M247.537 358.948V345.425L283.517 366.24V379.763L247.537 358.948Z" fill="#F2C94C"/>
<path id="Vector_13" opacity="0.15" d="M204.445 321.333L225.335 333.411V337.78L204.445 325.702V321.333Z" fill="white"/>
<path id="Vector_14" opacity="0.15" d="M204.445 330.071L242.155 351.881V356.25L204.445 334.471V330.071Z" fill="white"/>
<path id="Vector_15" opacity="0.15" d="M204.445 338.84L253.24 367.075V371.444L204.445 343.208V338.84Z" fill="white"/>
<path id="Vector_16" d="M199.287 322.907C199.287 327.019 196.852 328.946 193.873 327.212C190.893 325.477 188.458 320.755 188.458 316.644C188.458 312.532 190.893 310.605 193.873 312.339C196.884 314.074 199.287 318.796 199.287 322.907Z" fill="#F2C94C"/>
<path id="Vector_17" opacity="0.15" d="M286.304 290.818L288.707 296.15L268.458 300.872L289.508 330.263L287.105 332.801L261.25 296.664L286.304 290.818Z" fill="white"/>
<path id="Vector_18" d="M293 296.792C293 300.936 290.565 302.896 287.585 301.193C284.606 299.458 282.171 294.704 282.171 290.529C282.171 286.385 284.606 284.425 287.585 286.128C290.565 287.862 293 292.649 293 296.792Z" fill="#F2994A"/>
<path id="Vector_19" d="M293 333.604C293 337.748 290.565 339.707 287.585 338.005C284.606 336.27 282.171 331.516 282.171 327.34C282.171 323.197 284.606 321.237 287.585 322.94C290.565 324.706 293 329.46 293 333.604Z" fill="#F2994A"/>
<path id="Vector_20" d="M269.9 301.354C269.9 305.497 267.465 307.457 264.486 305.754C261.506 304.02 259.071 299.266 259.071 295.09C259.071 290.946 261.506 288.987 264.486 290.689C267.465 292.424 269.9 297.21 269.9 301.354Z" fill="#F2C94C"/>
<path id="Vector_21" opacity="0.3" d="M118.838 191.336L172.535 222.398V322.137L118.838 291.075V191.336Z" fill="url(#paint6_linear)"/>
<path id="Vector_22" opacity="0.15" d="M124.125 250.537L167.249 275.496V279.864L124.125 254.905V250.537Z" fill="white"/>
<path id="Vector_23" opacity="0.15" d="M127.136 260.816L164.205 282.273V286.642L127.136 265.184V260.816Z" fill="white"/>
<path id="Vector_24" d="M142.803 278.643L105.446 257.025V268.172L142.803 289.79V278.643Z" fill="#F2C94C"/>
<path id="Vector_25" d="M151.806 230.557C151.806 235.375 149.019 237.656 145.591 235.664C142.162 233.641 139.375 228.116 139.375 223.265C139.375 218.447 142.162 216.166 145.591 218.158C149.019 220.182 151.806 225.739 151.806 230.557Z" fill="#F2C94C"/>
<path id="Vector_26" d="M145.559 239.551C140.016 236.307 135.434 239.358 134.633 246.329C134.505 247.549 135.402 249.156 136.524 249.798L154.593 260.398C155.715 261.041 156.612 260.527 156.484 259.145C155.715 251.179 151.101 242.795 145.559 239.551Z" fill="#F2C94C"/>
<path id="Vector_27" opacity="0.2" d="M197.717 394.025C178.334 369.034 192.367 359.976 197.717 374.624C203.068 366.208 217.101 391.456 197.717 394.025Z" fill="url(#paint7_linear)"/>
</g>
<path id="Easily Get Inspired" d="M56.1716 456V436.4H68.9676V439.284H59.7556V444.66H68.1276V447.46H59.7556V453.116H68.9676V456H56.1716ZM77.0631 456.336C75.8684 456.336 74.8884 456.149 74.1231 455.776C73.3577 455.384 72.7884 454.871 72.4151 454.236C72.0417 453.601 71.8551 452.901 71.8551 452.136C71.8551 450.848 72.3591 449.803 73.3671 449C74.3751 448.197 75.8871 447.796 77.9031 447.796H81.4311V447.46C81.4311 446.508 81.1604 445.808 80.6191 445.36C80.0777 444.912 79.4057 444.688 78.6031 444.688C77.8751 444.688 77.2404 444.865 76.6991 445.22C76.1577 445.556 75.8217 446.06 75.6911 446.732H72.1911C72.2844 445.724 72.6204 444.847 73.1991 444.1C73.7964 443.353 74.5617 442.784 75.4951 442.392C76.4284 441.981 77.4737 441.776 78.6311 441.776C80.6097 441.776 82.1684 442.271 83.3071 443.26C84.4457 444.249 85.0151 445.649 85.0151 447.46V456H81.9631L81.6271 453.76C81.2164 454.507 80.6377 455.123 79.8911 455.608C79.1631 456.093 78.2204 456.336 77.0631 456.336ZM77.8751 453.536C78.9017 453.536 79.6951 453.2 80.2551 452.528C80.8337 451.856 81.1977 451.025 81.3471 450.036H78.2951C77.3431 450.036 76.6617 450.213 76.2511 450.568C75.8404 450.904 75.6351 451.324 75.6351 451.828C75.6351 452.369 75.8404 452.789 76.2511 453.088C76.6617 453.387 77.2031 453.536 77.8751 453.536ZM94.1752 456.336C92.9432 456.336 91.8606 456.14 90.9272 455.748C89.9939 455.337 89.2472 454.777 88.6872 454.068C88.1272 453.359 87.7912 452.537 87.6792 451.604H91.2912C91.4032 452.145 91.7019 452.612 92.1872 453.004C92.6912 453.377 93.3352 453.564 94.1192 453.564C94.9032 453.564 95.4726 453.405 95.8272 453.088C96.2006 452.771 96.3872 452.407 96.3872 451.996C96.3872 451.399 96.1259 450.997 95.6032 450.792C95.0806 450.568 94.3526 450.353 93.4192 450.148C92.8219 450.017 92.2152 449.859 91.5992 449.672C90.9832 449.485 90.4139 449.252 89.8912 448.972C89.3872 448.673 88.9766 448.3 88.6592 447.852C88.3419 447.385 88.1832 446.816 88.1832 446.144C88.1832 444.912 88.6686 443.876 89.6392 443.036C90.6286 442.196 92.0099 441.776 93.7832 441.776C95.4259 441.776 96.7326 442.159 97.7032 442.924C98.6926 443.689 99.2806 444.744 99.4672 446.088H96.0792C95.8739 445.061 95.0992 444.548 93.7552 444.548C93.0832 444.548 92.5606 444.679 92.1872 444.94C91.8326 445.201 91.6552 445.528 91.6552 445.92C91.6552 446.331 91.9259 446.657 92.4672 446.9C93.0086 447.143 93.7272 447.367 94.6232 447.572C95.5939 447.796 96.4806 448.048 97.2832 448.328C98.1046 448.589 98.7579 448.991 99.2432 449.532C99.7286 450.055 99.9712 450.811 99.9712 451.8C99.9899 452.659 99.7659 453.433 99.2992 454.124C98.8326 454.815 98.1606 455.356 97.2832 455.748C96.4059 456.14 95.3699 456.336 94.1752 456.336ZM105.078 439.956C104.425 439.956 103.884 439.76 103.454 439.368C103.044 438.976 102.838 438.481 102.838 437.884C102.838 437.287 103.044 436.801 103.454 436.428C103.884 436.036 104.425 435.84 105.078 435.84C105.732 435.84 106.264 436.036 106.674 436.428C107.104 436.801 107.318 437.287 107.318 437.884C107.318 438.481 107.104 438.976 106.674 439.368C106.264 439.76 105.732 439.956 105.078 439.956ZM103.286 456V442.112H106.87V456H103.286ZM110.611 456V435.84H114.195V456H110.611ZM119.593 462.16L122.813 455.076H121.973L116.569 442.112H120.461L124.353 451.884L128.413 442.112H132.221L123.401 462.16H119.593ZM149.888 456.336C148.04 456.336 146.425 455.916 145.044 455.076C143.663 454.236 142.589 453.069 141.824 451.576C141.059 450.064 140.676 448.309 140.676 446.312C140.676 444.296 141.068 442.523 141.852 440.992C142.655 439.443 143.784 438.239 145.24 437.38C146.715 436.503 148.46 436.064 150.476 436.064C152.772 436.064 154.676 436.615 156.188 437.716C157.7 438.817 158.68 440.339 159.128 442.28H155.124C154.825 441.365 154.284 440.656 153.5 440.152C152.716 439.629 151.708 439.368 150.476 439.368C148.516 439.368 147.004 439.993 145.94 441.244C144.876 442.476 144.344 444.175 144.344 446.34C144.344 448.505 144.867 450.185 145.912 451.38C146.976 452.556 148.413 453.144 150.224 453.144C151.997 453.144 153.332 452.668 154.228 451.716C155.143 450.745 155.693 449.476 155.88 447.908H150.924V445.22H159.492V456H156.188L155.908 453.424C155.273 454.357 154.48 455.076 153.528 455.58C152.576 456.084 151.363 456.336 149.888 456.336ZM169.64 456.336C168.24 456.336 166.999 456.037 165.916 455.44C164.834 454.843 163.984 454.003 163.368 452.92C162.752 451.837 162.444 450.587 162.444 449.168C162.444 447.731 162.743 446.452 163.34 445.332C163.956 444.212 164.796 443.344 165.86 442.728C166.943 442.093 168.212 441.776 169.668 441.776C171.031 441.776 172.235 442.075 173.28 442.672C174.326 443.269 175.138 444.091 175.716 445.136C176.314 446.163 176.612 447.311 176.612 448.58C176.612 448.785 176.603 449 176.584 449.224C176.584 449.448 176.575 449.681 176.556 449.924H166C166.075 451.007 166.448 451.856 167.12 452.472C167.811 453.088 168.642 453.396 169.612 453.396C170.34 453.396 170.947 453.237 171.432 452.92C171.936 452.584 172.31 452.155 172.552 451.632H176.192C175.931 452.509 175.492 453.312 174.876 454.04C174.279 454.749 173.532 455.309 172.636 455.72C171.759 456.131 170.76 456.336 169.64 456.336ZM169.668 444.688C168.791 444.688 168.016 444.94 167.344 445.444C166.672 445.929 166.243 446.676 166.056 447.684H172.972C172.916 446.769 172.58 446.041 171.964 445.5C171.348 444.959 170.583 444.688 169.668 444.688ZM185.569 456C184.113 456 182.946 455.645 182.069 454.936C181.191 454.227 180.753 452.967 180.753 451.156V445.108H178.373V442.112H180.753L181.173 438.388H184.337V442.112H188.089V445.108H184.337V451.184C184.337 451.856 184.477 452.323 184.757 452.584C185.055 452.827 185.559 452.948 186.269 452.948H188.005V456H185.569ZM197.922 456V436.4H201.506V456H197.922ZM205.22 456V442.112H208.384L208.664 444.464C209.094 443.643 209.71 442.989 210.512 442.504C211.334 442.019 212.295 441.776 213.396 441.776C215.114 441.776 216.448 442.317 217.4 443.4C218.352 444.483 218.828 446.069 218.828 448.16V456H215.244V448.496C215.244 447.301 215.002 446.387 214.516 445.752C214.031 445.117 213.275 444.8 212.248 444.8C211.24 444.8 210.41 445.155 209.756 445.864C209.122 446.573 208.804 447.563 208.804 448.832V456H205.22ZM227.996 456.336C226.764 456.336 225.681 456.14 224.748 455.748C223.814 455.337 223.068 454.777 222.508 454.068C221.948 453.359 221.612 452.537 221.5 451.604H225.112C225.224 452.145 225.522 452.612 226.008 453.004C226.512 453.377 227.156 453.564 227.94 453.564C228.724 453.564 229.293 453.405 229.648 453.088C230.021 452.771 230.208 452.407 230.208 451.996C230.208 451.399 229.946 450.997 229.424 450.792C228.901 450.568 228.173 450.353 227.24 450.148C226.642 450.017 226.036 449.859 225.42 449.672C224.804 449.485 224.234 449.252 223.712 448.972C223.208 448.673 222.797 448.3 222.48 447.852C222.162 447.385 222.004 446.816 222.004 446.144C222.004 444.912 222.489 443.876 223.46 443.036C224.449 442.196 225.83 441.776 227.604 441.776C229.246 441.776 230.553 442.159 231.524 442.924C232.513 443.689 233.101 444.744 233.288 446.088H229.9C229.694 445.061 228.92 444.548 227.576 444.548C226.904 444.548 226.381 444.679 226.008 444.94C225.653 445.201 225.476 445.528 225.476 445.92C225.476 446.331 225.746 446.657 226.288 446.9C226.829 447.143 227.548 447.367 228.444 447.572C229.414 447.796 230.301 448.048 231.104 448.328C231.925 448.589 232.578 448.991 233.064 449.532C233.549 450.055 233.792 450.811 233.792 451.8C233.81 452.659 233.586 453.433 233.12 454.124C232.653 454.815 231.981 455.356 231.104 455.748C230.226 456.14 229.19 456.336 227.996 456.336ZM236.966 462.16V442.112H240.158L240.55 444.1C240.998 443.484 241.586 442.943 242.314 442.476C243.061 442.009 244.022 441.776 245.198 441.776C246.505 441.776 247.672 442.093 248.698 442.728C249.725 443.363 250.537 444.231 251.134 445.332C251.732 446.433 252.03 447.684 252.03 449.084C252.03 450.484 251.732 451.735 251.134 452.836C250.537 453.919 249.725 454.777 248.698 455.412C247.672 456.028 246.505 456.336 245.198 456.336C244.153 456.336 243.238 456.14 242.454 455.748C241.67 455.356 241.036 454.805 240.55 454.096V462.16H236.966ZM244.442 453.2C245.581 453.2 246.524 452.817 247.27 452.052C248.017 451.287 248.39 450.297 248.39 449.084C248.39 447.871 248.017 446.872 247.27 446.088C246.524 445.304 245.581 444.912 244.442 444.912C243.285 444.912 242.333 445.304 241.586 446.088C240.858 446.853 240.494 447.843 240.494 449.056C240.494 450.269 240.858 451.268 241.586 452.052C242.333 452.817 243.285 453.2 244.442 453.2ZM257.164 439.956C256.511 439.956 255.969 439.76 255.54 439.368C255.129 438.976 254.924 438.481 254.924 437.884C254.924 437.287 255.129 436.801 255.54 436.428C255.969 436.036 256.511 435.84 257.164 435.84C257.817 435.84 258.349 436.036 258.76 436.428C259.189 436.801 259.404 437.287 259.404 437.884C259.404 438.481 259.189 438.976 258.76 439.368C258.349 439.76 257.817 439.956 257.164 439.956ZM255.372 456V442.112H258.956V456H255.372ZM262.697 456V442.112H265.889L266.225 444.716C266.729 443.82 267.41 443.111 268.269 442.588C269.146 442.047 270.173 441.776 271.349 441.776V445.556H270.341C269.557 445.556 268.857 445.677 268.241 445.92C267.625 446.163 267.14 446.583 266.785 447.18C266.449 447.777 266.281 448.608 266.281 449.672V456H262.697ZM280.3 456.336C278.9 456.336 277.659 456.037 276.576 455.44C275.494 454.843 274.644 454.003 274.028 452.92C273.412 451.837 273.104 450.587 273.104 449.168C273.104 447.731 273.403 446.452 274 445.332C274.616 444.212 275.456 443.344 276.52 442.728C277.603 442.093 278.872 441.776 280.328 441.776C281.691 441.776 282.895 442.075 283.94 442.672C284.986 443.269 285.798 444.091 286.376 445.136C286.974 446.163 287.272 447.311 287.272 448.58C287.272 448.785 287.263 449 287.244 449.224C287.244 449.448 287.235 449.681 287.216 449.924H276.66C276.735 451.007 277.108 451.856 277.78 452.472C278.471 453.088 279.302 453.396 280.272 453.396C281 453.396 281.607 453.237 282.092 452.92C282.596 452.584 282.97 452.155 283.212 451.632H286.852C286.591 452.509 286.152 453.312 285.536 454.04C284.939 454.749 284.192 455.309 283.296 455.72C282.419 456.131 281.42 456.336 280.3 456.336ZM280.328 444.688C279.451 444.688 278.676 444.94 278.004 445.444C277.332 445.929 276.903 446.676 276.716 447.684H283.632C283.576 446.769 283.24 446.041 282.624 445.5C282.008 444.959 281.243 444.688 280.328 444.688ZM296.671 456.336C295.364 456.336 294.197 456.019 293.171 455.384C292.144 454.749 291.332 453.881 290.735 452.78C290.137 451.679 289.839 450.428 289.839 449.028C289.839 447.628 290.137 446.387 290.735 445.304C291.332 444.203 292.144 443.344 293.171 442.728C294.197 442.093 295.364 441.776 296.671 441.776C297.716 441.776 298.631 441.972 299.415 442.364C300.199 442.756 300.833 443.307 301.319 444.016V435.84H304.903V456H301.711L301.319 454.012C300.871 454.628 300.273 455.169 299.527 455.636C298.799 456.103 297.847 456.336 296.671 456.336ZM297.427 453.2C298.584 453.2 299.527 452.817 300.255 452.052C301.001 451.268 301.375 450.269 301.375 449.056C301.375 447.843 301.001 446.853 300.255 446.088C299.527 445.304 298.584 444.912 297.427 444.912C296.288 444.912 295.345 445.295 294.599 446.06C293.852 446.825 293.479 447.815 293.479 449.028C293.479 450.241 293.852 451.24 294.599 452.024C295.345 452.808 296.288 453.2 297.427 453.2Z" fill="#B8BFFF"/>
<path id="Ullamcorper eget nulla facilisi etiam dignissim diam quis. Aliquet nec ullamcorper sit amet." d="M69.8016 487.168C69.1296 487.168 68.5183 487.037 67.9676 486.776C67.4263 486.505 66.9923 486.09 66.6656 485.53C66.339 484.97 66.1756 484.256 66.1756 483.388V477.2H67.3516V483.402C67.3516 484.354 67.5803 485.045 68.0376 485.474C68.495 485.903 69.0923 486.118 69.8296 486.118C70.567 486.118 71.1596 485.903 71.6076 485.474C72.0556 485.045 72.2796 484.354 72.2796 483.402V477.2H73.4556V483.388C73.4556 484.256 73.2923 484.97 72.9656 485.53C72.639 486.09 72.2003 486.505 71.6496 486.776C71.099 487.037 70.483 487.168 69.8016 487.168ZM75.3771 487V476.92H76.5531V487H75.3771ZM78.4806 487V476.92H79.6566V487H78.4806ZM83.8942 487.168C83.3155 487.168 82.8348 487.07 82.4522 486.874C82.0695 486.678 81.7848 486.417 81.5982 486.09C81.4115 485.763 81.3182 485.409 81.3182 485.026C81.3182 484.317 81.5888 483.771 82.1302 483.388C82.6715 483.005 83.4088 482.814 84.3422 482.814H86.2182V482.73C86.2182 482.123 86.0595 481.666 85.7422 481.358C85.4248 481.041 85.0002 480.882 84.4682 480.882C84.0108 480.882 83.6142 480.999 83.2782 481.232C82.9515 481.456 82.7462 481.787 82.6622 482.226H81.4582C81.5048 481.722 81.6728 481.297 81.9622 480.952C82.2608 480.607 82.6295 480.345 83.0682 480.168C83.5068 479.981 83.9735 479.888 84.4682 479.888C85.4388 479.888 86.1668 480.149 86.6522 480.672C87.1468 481.185 87.3942 481.871 87.3942 482.73V487H86.3442L86.2742 485.754C86.0782 486.146 85.7888 486.482 85.4062 486.762C85.0328 487.033 84.5288 487.168 83.8942 487.168ZM84.0762 486.174C84.5242 486.174 84.9068 486.057 85.2242 485.824C85.5508 485.591 85.7982 485.287 85.9662 484.914C86.1342 484.541 86.2182 484.149 86.2182 483.738V483.724H84.4402C83.7495 483.724 83.2595 483.845 82.9702 484.088C82.6902 484.321 82.5502 484.615 82.5502 484.97C82.5502 485.334 82.6808 485.628 82.9422 485.852C83.2128 486.067 83.5908 486.174 84.0762 486.174ZM89.1584 487V480.056H90.2224L90.3064 481.064C90.5304 480.691 90.829 480.401 91.2024 480.196C91.5757 479.991 91.9957 479.888 92.4624 479.888C93.013 479.888 93.4844 480 93.8764 480.224C94.2777 480.448 94.5857 480.789 94.8004 481.246C95.043 480.826 95.3744 480.495 95.7944 480.252C96.2237 480.009 96.6857 479.888 97.1804 479.888C98.011 479.888 98.6737 480.14 99.1684 480.644C99.663 481.139 99.9104 481.904 99.9104 482.94V487H98.7484V483.066C98.7484 482.347 98.6037 481.806 98.3144 481.442C98.0251 481.078 97.6097 480.896 97.0684 480.896C96.5084 480.896 96.0417 481.115 95.6684 481.554C95.3044 481.983 95.1224 482.599 95.1224 483.402V487H93.9464V483.066C93.9464 482.347 93.8017 481.806 93.5124 481.442C93.223 481.078 92.8077 480.896 92.2664 480.896C91.7157 480.896 91.2537 481.115 90.8804 481.554C90.5164 481.983 90.3344 482.599 90.3344 483.402V487H89.1584ZM104.874 487.168C104.211 487.168 103.614 487.019 103.082 486.72C102.559 486.412 102.144 485.987 101.836 485.446C101.537 484.895 101.388 484.256 101.388 483.528C101.388 482.8 101.537 482.165 101.836 481.624C102.144 481.073 102.559 480.649 103.082 480.35C103.614 480.042 104.211 479.888 104.874 479.888C105.695 479.888 106.386 480.103 106.946 480.532C107.515 480.961 107.874 481.535 108.024 482.254H106.82C106.726 481.825 106.498 481.493 106.134 481.26C105.77 481.017 105.345 480.896 104.86 480.896C104.468 480.896 104.099 480.994 103.754 481.19C103.408 481.386 103.128 481.68 102.914 482.072C102.699 482.464 102.592 482.949 102.592 483.528C102.592 484.107 102.699 484.592 102.914 484.984C103.128 485.376 103.408 485.675 103.754 485.88C104.099 486.076 104.468 486.174 104.86 486.174C105.345 486.174 105.77 486.057 106.134 485.824C106.498 485.581 106.726 485.241 106.82 484.802H108.024C107.884 485.502 107.529 486.071 106.96 486.51C106.39 486.949 105.695 487.168 104.874 487.168ZM112.83 487.168C112.177 487.168 111.589 487.019 111.066 486.72C110.544 486.421 110.128 486.001 109.82 485.46C109.522 484.909 109.372 484.265 109.372 483.528C109.372 482.791 109.526 482.151 109.834 481.61C110.142 481.059 110.558 480.635 111.08 480.336C111.612 480.037 112.205 479.888 112.858 479.888C113.512 479.888 114.1 480.037 114.622 480.336C115.145 480.635 115.556 481.059 115.854 481.61C116.162 482.151 116.316 482.791 116.316 483.528C116.316 484.265 116.162 484.909 115.854 485.46C115.546 486.001 115.126 486.421 114.594 486.72C114.072 487.019 113.484 487.168 112.83 487.168ZM112.83 486.16C113.232 486.16 113.605 486.062 113.95 485.866C114.296 485.67 114.576 485.376 114.79 484.984C115.005 484.592 115.112 484.107 115.112 483.528C115.112 482.949 115.005 482.464 114.79 482.072C114.585 481.68 114.31 481.386 113.964 481.19C113.619 480.994 113.25 480.896 112.858 480.896C112.457 480.896 112.084 480.994 111.738 481.19C111.393 481.386 111.113 481.68 110.898 482.072C110.684 482.464 110.576 482.949 110.576 483.528C110.576 484.107 110.684 484.592 110.898 484.984C111.113 485.376 111.388 485.67 111.724 485.866C112.07 486.062 112.438 486.16 112.83 486.16ZM117.951 487V480.056H119.015L119.113 481.386C119.328 480.929 119.655 480.565 120.093 480.294C120.532 480.023 121.073 479.888 121.717 479.888V481.12H121.395C120.985 481.12 120.607 481.195 120.261 481.344C119.916 481.484 119.641 481.727 119.435 482.072C119.23 482.417 119.127 482.893 119.127 483.5V487H117.951ZM123.037 490.08V480.056H124.101L124.213 481.204C124.437 480.868 124.755 480.565 125.165 480.294C125.585 480.023 126.117 479.888 126.761 479.888C127.452 479.888 128.054 480.047 128.567 480.364C129.081 480.681 129.477 481.115 129.757 481.666C130.047 482.217 130.191 482.842 130.191 483.542C130.191 484.242 130.047 484.867 129.757 485.418C129.477 485.959 129.076 486.389 128.553 486.706C128.04 487.014 127.438 487.168 126.747 487.168C126.178 487.168 125.669 487.051 125.221 486.818C124.783 486.585 124.447 486.258 124.213 485.838V490.08H123.037ZM126.621 486.146C127.088 486.146 127.499 486.039 127.853 485.824C128.208 485.6 128.488 485.292 128.693 484.9C128.899 484.508 129.001 484.051 129.001 483.528C129.001 483.005 128.899 482.548 128.693 482.156C128.488 481.764 128.208 481.461 127.853 481.246C127.499 481.022 127.088 480.91 126.621 480.91C126.155 480.91 125.744 481.022 125.389 481.246C125.035 481.461 124.755 481.764 124.549 482.156C124.344 482.548 124.241 483.005 124.241 483.528C124.241 484.051 124.344 484.508 124.549 484.9C124.755 485.292 125.035 485.6 125.389 485.824C125.744 486.039 126.155 486.146 126.621 486.146ZM134.95 487.168C134.288 487.168 133.7 487.019 133.186 486.72C132.673 486.412 132.267 485.987 131.968 485.446C131.679 484.905 131.534 484.265 131.534 483.528C131.534 482.8 131.679 482.165 131.968 481.624C132.258 481.073 132.659 480.649 133.172 480.35C133.695 480.042 134.297 479.888 134.978 479.888C135.65 479.888 136.229 480.042 136.714 480.35C137.209 480.649 137.587 481.045 137.848 481.54C138.11 482.035 138.24 482.567 138.24 483.136C138.24 483.239 138.236 483.341 138.226 483.444C138.226 483.547 138.226 483.663 138.226 483.794H132.696C132.724 484.326 132.846 484.769 133.06 485.124C133.284 485.469 133.56 485.731 133.886 485.908C134.222 486.085 134.577 486.174 134.95 486.174C135.436 486.174 135.842 486.062 136.168 485.838C136.495 485.614 136.733 485.311 136.882 484.928H138.044C137.858 485.572 137.498 486.109 136.966 486.538C136.444 486.958 135.772 487.168 134.95 487.168ZM134.95 480.882C134.39 480.882 133.891 481.055 133.452 481.4C133.023 481.736 132.776 482.231 132.71 482.884H137.078C137.05 482.259 136.836 481.769 136.434 481.414C136.033 481.059 135.538 480.882 134.95 480.882ZM139.799 487V480.056H140.863L140.961 481.386C141.176 480.929 141.502 480.565 141.941 480.294C142.38 480.023 142.921 479.888 143.565 479.888V481.12H143.243C142.832 481.12 142.454 481.195 142.109 481.344C141.764 481.484 141.488 481.727 141.283 482.072C141.078 482.417 140.975 482.893 140.975 483.5V487H139.799ZM151.712 487.168C151.049 487.168 150.461 487.019 149.948 486.72C149.435 486.412 149.029 485.987 148.73 485.446C148.441 484.905 148.296 484.265 148.296 483.528C148.296 482.8 148.441 482.165 148.73 481.624C149.019 481.073 149.421 480.649 149.934 480.35C150.457 480.042 151.059 479.888 151.74 479.888C152.412 479.888 152.991 480.042 153.476 480.35C153.971 480.649 154.349 481.045 154.61 481.54C154.871 482.035 155.002 482.567 155.002 483.136C155.002 483.239 154.997 483.341 154.988 483.444C154.988 483.547 154.988 483.663 154.988 483.794H149.458C149.486 484.326 149.607 484.769 149.822 485.124C150.046 485.469 150.321 485.731 150.648 485.908C150.984 486.085 151.339 486.174 151.712 486.174C152.197 486.174 152.603 486.062 152.93 485.838C153.257 485.614 153.495 485.311 153.644 484.928H154.806C154.619 485.572 154.26 486.109 153.728 486.538C153.205 486.958 152.533 487.168 151.712 487.168ZM151.712 480.882C151.152 480.882 150.653 481.055 150.214 481.4C149.785 481.736 149.537 482.231 149.472 482.884H153.84C153.812 482.259 153.597 481.769 153.196 481.414C152.795 481.059 152.3 480.882 151.712 480.882ZM159.264 484.816C158.872 484.816 158.512 484.765 158.186 484.662L157.486 485.32C157.588 485.395 157.714 485.46 157.864 485.516C158.022 485.563 158.246 485.609 158.536 485.656C158.825 485.693 159.231 485.735 159.754 485.782C160.687 485.847 161.354 486.062 161.756 486.426C162.157 486.79 162.358 487.266 162.358 487.854C162.358 488.255 162.246 488.638 162.022 489.002C161.807 489.366 161.471 489.665 161.014 489.898C160.566 490.131 159.987 490.248 159.278 490.248C158.652 490.248 158.097 490.164 157.612 489.996C157.126 489.837 156.748 489.59 156.478 489.254C156.207 488.927 156.072 488.512 156.072 488.008C156.072 487.747 156.142 487.462 156.282 487.154C156.422 486.855 156.683 486.571 157.066 486.3C156.86 486.216 156.683 486.127 156.534 486.034C156.394 485.931 156.263 485.819 156.142 485.698V485.376L157.332 484.2C156.781 483.733 156.506 483.117 156.506 482.352C156.506 481.895 156.613 481.479 156.828 481.106C157.042 480.733 157.355 480.439 157.766 480.224C158.176 480 158.676 479.888 159.264 479.888C159.665 479.888 160.029 479.944 160.356 480.056H162.918V480.938L161.616 480.994C161.886 481.386 162.022 481.839 162.022 482.352C162.022 482.809 161.91 483.225 161.686 483.598C161.471 483.971 161.158 484.27 160.748 484.494C160.346 484.709 159.852 484.816 159.264 484.816ZM159.264 483.85C159.758 483.85 160.15 483.724 160.44 483.472C160.738 483.211 160.888 482.837 160.888 482.352C160.888 481.876 160.738 481.512 160.44 481.26C160.15 480.999 159.758 480.868 159.264 480.868C158.76 480.868 158.358 480.999 158.06 481.26C157.77 481.512 157.626 481.876 157.626 482.352C157.626 482.837 157.77 483.211 158.06 483.472C158.358 483.724 158.76 483.85 159.264 483.85ZM157.22 487.896C157.22 488.363 157.416 488.708 157.808 488.932C158.2 489.165 158.69 489.282 159.278 489.282C159.856 489.282 160.318 489.156 160.664 488.904C161.018 488.652 161.196 488.316 161.196 487.896C161.196 487.597 161.074 487.336 160.832 487.112C160.589 486.897 160.141 486.771 159.488 486.734C158.974 486.697 158.531 486.65 158.158 486.594C157.775 486.799 157.523 487.019 157.402 487.252C157.28 487.495 157.22 487.709 157.22 487.896ZM167.093 487.168C166.43 487.168 165.842 487.019 165.329 486.72C164.816 486.412 164.41 485.987 164.111 485.446C163.822 484.905 163.677 484.265 163.677 483.528C163.677 482.8 163.822 482.165 164.111 481.624C164.4 481.073 164.802 480.649 165.315 480.35C165.838 480.042 166.44 479.888 167.121 479.888C167.793 479.888 168.372 480.042 168.857 480.35C169.352 480.649 169.73 481.045 169.991 481.54C170.252 482.035 170.383 482.567 170.383 483.136C170.383 483.239 170.378 483.341 170.369 483.444C170.369 483.547 170.369 483.663 170.369 483.794H164.839C164.867 484.326 164.988 484.769 165.203 485.124C165.427 485.469 165.702 485.731 166.029 485.908C166.365 486.085 166.72 486.174 167.093 486.174C167.578 486.174 167.984 486.062 168.311 485.838C168.638 485.614 168.876 485.311 169.025 484.928H170.187C170 485.572 169.641 486.109 169.109 486.538C168.586 486.958 167.914 487.168 167.093 487.168ZM167.093 480.882C166.533 480.882 166.034 481.055 165.595 481.4C165.166 481.736 164.918 482.231 164.853 482.884H169.221C169.193 482.259 168.978 481.769 168.577 481.414C168.176 481.059 167.681 480.882 167.093 480.882ZM174.453 487C173.818 487 173.319 486.846 172.955 486.538C172.591 486.23 172.409 485.675 172.409 484.872V481.05H171.205V480.056H172.409L172.563 478.39H173.585V480.056H175.629V481.05H173.585V484.872C173.585 485.311 173.674 485.609 173.851 485.768C174.028 485.917 174.341 485.992 174.789 485.992H175.517V487H174.453ZM180.828 487V480.056H181.892L181.962 481.302C182.186 480.863 182.508 480.518 182.928 480.266C183.348 480.014 183.824 479.888 184.356 479.888C185.178 479.888 185.831 480.14 186.316 480.644C186.811 481.139 187.058 481.904 187.058 482.94V487H185.882V483.066C185.882 481.619 185.285 480.896 184.09 480.896C183.493 480.896 182.994 481.115 182.592 481.554C182.2 481.983 182.004 482.599 182.004 483.402V487H180.828ZM191.374 487.168C190.553 487.168 189.899 486.921 189.414 486.426C188.929 485.922 188.686 485.152 188.686 484.116V480.056H189.862V483.99C189.862 485.437 190.455 486.16 191.64 486.16C192.247 486.16 192.746 485.945 193.138 485.516C193.539 485.077 193.74 484.457 193.74 483.654V480.056H194.916V487H193.852L193.768 485.754C193.553 486.193 193.231 486.538 192.802 486.79C192.382 487.042 191.906 487.168 191.374 487.168ZM196.852 487V476.92H198.028V487H196.852ZM199.955 487V476.92H201.131V487H199.955ZM205.369 487.168C204.79 487.168 204.309 487.07 203.927 486.874C203.544 486.678 203.259 486.417 203.073 486.09C202.886 485.763 202.793 485.409 202.793 485.026C202.793 484.317 203.063 483.771 203.605 483.388C204.146 483.005 204.883 482.814 205.817 482.814H207.693V482.73C207.693 482.123 207.534 481.666 207.217 481.358C206.899 481.041 206.475 480.882 205.943 480.882C205.485 480.882 205.089 480.999 204.753 481.232C204.426 481.456 204.221 481.787 204.137 482.226H202.933C202.979 481.722 203.147 481.297 203.437 480.952C203.735 480.607 204.104 480.345 204.543 480.168C204.981 479.981 205.448 479.888 205.943 479.888C206.913 479.888 207.641 480.149 208.127 480.672C208.621 481.185 208.869 481.871 208.869 482.73V487H207.819L207.749 485.754C207.553 486.146 207.263 486.482 206.881 486.762C206.507 487.033 206.003 487.168 205.369 487.168ZM205.551 486.174C205.999 486.174 206.381 486.057 206.699 485.824C207.025 485.591 207.273 485.287 207.441 484.914C207.609 484.541 207.693 484.149 207.693 483.738V483.724H205.915C205.224 483.724 204.734 483.845 204.445 484.088C204.165 484.321 204.025 484.615 204.025 484.97C204.025 485.334 204.155 485.628 204.417 485.852C204.687 486.067 205.065 486.174 205.551 486.174ZM214.716 487V481.05H213.666V480.056H214.716V478.852C214.716 478.18 214.884 477.69 215.22 477.382C215.556 477.074 216.046 476.92 216.69 476.92H217.39V477.928H216.872C216.517 477.928 216.265 478.003 216.116 478.152C215.967 478.292 215.892 478.535 215.892 478.88V480.056H217.6V481.05H215.892V487H214.716ZM221.037 487.168C220.458 487.168 219.977 487.07 219.595 486.874C219.212 486.678 218.927 486.417 218.741 486.09C218.554 485.763 218.461 485.409 218.461 485.026C218.461 484.317 218.731 483.771 219.273 483.388C219.814 483.005 220.551 482.814 221.485 482.814H223.361V482.73C223.361 482.123 223.202 481.666 222.885 481.358C222.567 481.041 222.143 480.882 221.611 480.882C221.153 480.882 220.757 480.999 220.421 481.232C220.094 481.456 219.889 481.787 219.805 482.226H218.601C218.647 481.722 218.815 481.297 219.105 480.952C219.403 480.607 219.772 480.345 220.211 480.168C220.649 479.981 221.116 479.888 221.611 479.888C222.581 479.888 223.309 480.149 223.795 480.672C224.289 481.185 224.537 481.871 224.537 482.73V487H223.487L223.417 485.754C223.221 486.146 222.931 486.482 222.549 486.762C222.175 487.033 221.671 487.168 221.037 487.168ZM221.219 486.174C221.667 486.174 222.049 486.057 222.367 485.824C222.693 485.591 222.941 485.287 223.109 484.914C223.277 484.541 223.361 484.149 223.361 483.738V483.724H221.583C220.892 483.724 220.402 483.845 220.113 484.088C219.833 484.321 219.693 484.615 219.693 484.97C219.693 485.334 219.823 485.628 220.085 485.852C220.355 486.067 220.733 486.174 221.219 486.174ZM229.493 487.168C228.83 487.168 228.233 487.019 227.701 486.72C227.178 486.412 226.763 485.987 226.455 485.446C226.156 484.895 226.007 484.256 226.007 483.528C226.007 482.8 226.156 482.165 226.455 481.624C226.763 481.073 227.178 480.649 227.701 480.35C228.233 480.042 228.83 479.888 229.493 479.888C230.314 479.888 231.005 480.103 231.565 480.532C232.134 480.961 232.494 481.535 232.643 482.254H231.439C231.346 481.825 231.117 481.493 230.753 481.26C230.389 481.017 229.964 480.896 229.479 480.896C229.087 480.896 228.718 480.994 228.373 481.19C228.028 481.386 227.748 481.68 227.533 482.072C227.318 482.464 227.211 482.949 227.211 483.528C227.211 484.107 227.318 484.592 227.533 484.984C227.748 485.376 228.028 485.675 228.373 485.88C228.718 486.076 229.087 486.174 229.479 486.174C229.964 486.174 230.389 486.057 230.753 485.824C231.117 485.581 231.346 485.241 231.439 484.802H232.643C232.503 485.502 232.148 486.071 231.579 486.51C231.01 486.949 230.314 487.168 229.493 487.168ZM234.999 478.516C234.766 478.516 234.57 478.441 234.411 478.292C234.262 478.133 234.187 477.937 234.187 477.704C234.187 477.48 234.262 477.293 234.411 477.144C234.57 476.995 234.766 476.92 234.999 476.92C235.223 476.92 235.415 476.995 235.573 477.144C235.732 477.293 235.811 477.48 235.811 477.704C235.811 477.937 235.732 478.133 235.573 478.292C235.415 478.441 235.223 478.516 234.999 478.516ZM234.411 487V480.056H235.587V487H234.411ZM237.635 487V476.92H238.811V487H237.635ZM241.452 478.516C241.219 478.516 241.023 478.441 240.864 478.292C240.715 478.133 240.64 477.937 240.64 477.704C240.64 477.48 240.715 477.293 240.864 477.144C241.023 476.995 241.219 476.92 241.452 476.92C241.676 476.92 241.868 476.995 242.026 477.144C242.185 477.293 242.264 477.48 242.264 477.704C242.264 477.937 242.185 478.133 242.026 478.292C241.868 478.441 241.676 478.516 241.452 478.516ZM240.864 487V480.056H242.04V487H240.864ZM246.748 487.168C245.917 487.168 245.227 486.958 244.676 486.538C244.125 486.118 243.803 485.549 243.71 484.83H244.914C244.989 485.194 245.18 485.511 245.488 485.782C245.805 486.043 246.23 486.174 246.762 486.174C247.257 486.174 247.621 486.071 247.854 485.866C248.087 485.651 248.204 485.399 248.204 485.11C248.204 484.69 248.05 484.41 247.742 484.27C247.443 484.13 247.019 484.004 246.468 483.892C246.095 483.817 245.721 483.71 245.348 483.57C244.975 483.43 244.662 483.234 244.41 482.982C244.158 482.721 244.032 482.38 244.032 481.96C244.032 481.353 244.256 480.859 244.704 480.476C245.161 480.084 245.777 479.888 246.552 479.888C247.289 479.888 247.891 480.075 248.358 480.448C248.834 480.812 249.109 481.335 249.184 482.016H248.022C247.975 481.661 247.821 481.386 247.56 481.19C247.308 480.985 246.967 480.882 246.538 480.882C246.118 480.882 245.791 480.971 245.558 481.148C245.334 481.325 245.222 481.559 245.222 481.848C245.222 482.128 245.367 482.347 245.656 482.506C245.955 482.665 246.356 482.8 246.86 482.912C247.289 483.005 247.695 483.122 248.078 483.262C248.47 483.393 248.787 483.593 249.03 483.864C249.282 484.125 249.408 484.508 249.408 485.012C249.417 485.637 249.179 486.155 248.694 486.566C248.218 486.967 247.569 487.168 246.748 487.168ZM251.802 478.516C251.569 478.516 251.373 478.441 251.214 478.292C251.065 478.133 250.99 477.937 250.99 477.704C250.99 477.48 251.065 477.293 251.214 477.144C251.373 476.995 251.569 476.92 251.802 476.92C252.026 476.92 252.217 476.995 252.376 477.144C252.535 477.293 252.614 477.48 252.614 477.704C252.614 477.937 252.535 478.133 252.376 478.292C252.217 478.441 252.026 478.516 251.802 478.516ZM251.214 487V480.056H252.39V487H251.214ZM261.265 487.168C260.602 487.168 260.014 487.019 259.501 486.72C258.987 486.412 258.581 485.987 258.283 485.446C257.993 484.905 257.849 484.265 257.849 483.528C257.849 482.8 257.993 482.165 258.283 481.624C258.572 481.073 258.973 480.649 259.487 480.35C260.009 480.042 260.611 479.888 261.293 479.888C261.965 479.888 262.543 480.042 263.029 480.35C263.523 480.649 263.901 481.045 264.163 481.54C264.424 482.035 264.555 482.567 264.555 483.136C264.555 483.239 264.55 483.341 264.541 483.444C264.541 483.547 264.541 483.663 264.541 483.794H259.011C259.039 484.326 259.16 484.769 259.375 485.124C259.599 485.469 259.874 485.731 260.201 485.908C260.537 486.085 260.891 486.174 261.265 486.174C261.75 486.174 262.156 486.062 262.483 485.838C262.809 485.614 263.047 485.311 263.197 484.928H264.359C264.172 485.572 263.813 486.109 263.281 486.538C262.758 486.958 262.086 487.168 261.265 487.168ZM261.265 480.882C260.705 480.882 260.205 481.055 259.767 481.4C259.337 481.736 259.09 482.231 259.025 482.884H263.393C263.365 482.259 263.15 481.769 262.749 481.414C262.347 481.059 261.853 480.882 261.265 480.882ZM268.625 487C267.99 487 267.491 486.846 267.127 486.538C266.763 486.23 266.581 485.675 266.581 484.872V481.05H265.377V480.056H266.581L266.735 478.39H267.757V480.056H269.801V481.05H267.757V484.872C267.757 485.311 267.846 485.609 268.023 485.768C268.2 485.917 268.513 485.992 268.961 485.992H269.689V487H268.625ZM272.009 478.516C271.776 478.516 271.58 478.441 271.421 478.292C271.272 478.133 271.197 477.937 271.197 477.704C271.197 477.48 271.272 477.293 271.421 477.144C271.58 476.995 271.776 476.92 272.009 476.92C272.233 476.92 272.424 476.995 272.583 477.144C272.742 477.293 272.821 477.48 272.821 477.704C272.821 477.937 272.742 478.133 272.583 478.292C272.424 478.441 272.233 478.516 272.009 478.516ZM271.421 487V480.056H272.597V487H271.421ZM276.955 487.168C276.376 487.168 275.895 487.07 275.513 486.874C275.13 486.678 274.845 486.417 274.659 486.09C274.472 485.763 274.379 485.409 274.379 485.026C274.379 484.317 274.649 483.771 275.191 483.388C275.732 483.005 276.469 482.814 277.403 482.814H279.279V482.73C279.279 482.123 279.12 481.666 278.803 481.358C278.485 481.041 278.061 480.882 277.529 480.882C277.071 480.882 276.675 480.999 276.339 481.232C276.012 481.456 275.807 481.787 275.723 482.226H274.519C274.565 481.722 274.733 481.297 275.023 480.952C275.321 480.607 275.69 480.345 276.129 480.168C276.567 479.981 277.034 479.888 277.529 479.888C278.499 479.888 279.227 480.149 279.713 480.672C280.207 481.185 280.455 481.871 280.455 482.73V487H279.405L279.335 485.754C279.139 486.146 278.849 486.482 278.467 486.762C278.093 487.033 277.589 487.168 276.955 487.168ZM277.137 486.174C277.585 486.174 277.967 486.057 278.285 485.824C278.611 485.591 278.859 485.287 279.027 484.914C279.195 484.541 279.279 484.149 279.279 483.738V483.724H277.501C276.81 483.724 276.32 483.845 276.031 484.088C275.751 484.321 275.611 484.615 275.611 484.97C275.611 485.334 275.741 485.628 276.003 485.852C276.273 486.067 276.651 486.174 277.137 486.174ZM282.219 487V480.056H283.283L283.367 481.064C283.591 480.691 283.89 480.401 284.263 480.196C284.636 479.991 285.056 479.888 285.523 479.888C286.074 479.888 286.545 480 286.937 480.224C287.338 480.448 287.646 480.789 287.861 481.246C288.104 480.826 288.435 480.495 288.855 480.252C289.284 480.009 289.746 479.888 290.241 479.888C291.072 479.888 291.734 480.14 292.229 480.644C292.724 481.139 292.971 481.904 292.971 482.94V487H291.809V483.066C291.809 482.347 291.664 481.806 291.375 481.442C291.086 481.078 290.67 480.896 290.129 480.896C289.569 480.896 289.102 481.115 288.729 481.554C288.365 481.983 288.183 482.599 288.183 483.402V487H287.007V483.066C287.007 482.347 286.862 481.806 286.573 481.442C286.284 481.078 285.868 480.896 285.327 480.896C284.776 480.896 284.314 481.115 283.941 481.554C283.577 481.983 283.395 482.599 283.395 483.402V487H282.219ZM79.7576 505.168C79.0669 505.168 78.4603 505.009 77.9376 504.692C77.4243 504.375 77.0229 503.941 76.7336 503.39C76.4536 502.839 76.3136 502.214 76.3136 501.514C76.3136 500.814 76.4583 500.193 76.7476 499.652C77.0369 499.101 77.4383 498.672 77.9516 498.364C78.4649 498.047 79.0716 497.888 79.7716 497.888C80.3409 497.888 80.8449 498.005 81.2836 498.238C81.7223 498.471 82.0629 498.798 82.3056 499.218V494.92H83.4816V505H82.4176L82.3056 503.852C82.0816 504.188 81.7596 504.491 81.3396 504.762C80.9196 505.033 80.3923 505.168 79.7576 505.168ZM79.8836 504.146C80.3503 504.146 80.7609 504.039 81.1156 503.824C81.4796 503.6 81.7596 503.292 81.9556 502.9C82.1609 502.508 82.2636 502.051 82.2636 501.528C82.2636 501.005 82.1609 500.548 81.9556 500.156C81.7596 499.764 81.4796 499.461 81.1156 499.246C80.7609 499.022 80.3503 498.91 79.8836 498.91C79.4263 498.91 79.0156 499.022 78.6516 499.246C78.2969 499.461 78.0169 499.764 77.8116 500.156C77.6156 500.548 77.5176 501.005 77.5176 501.528C77.5176 502.051 77.6156 502.508 77.8116 502.9C78.0169 503.292 78.2969 503.6 78.6516 503.824C79.0156 504.039 79.4263 504.146 79.8836 504.146ZM86.1126 496.516C85.8793 496.516 85.6833 496.441 85.5246 496.292C85.3753 496.133 85.3006 495.937 85.3006 495.704C85.3006 495.48 85.3753 495.293 85.5246 495.144C85.6833 494.995 85.8793 494.92 86.1126 494.92C86.3366 494.92 86.528 494.995 86.6866 495.144C86.8453 495.293 86.9246 495.48 86.9246 495.704C86.9246 495.937 86.8453 496.133 86.6866 496.292C86.528 496.441 86.3366 496.516 86.1126 496.516ZM85.5246 505V498.056H86.7006V505H85.5246ZM91.4922 502.816C91.1002 502.816 90.7409 502.765 90.4142 502.662L89.7142 503.32C89.8169 503.395 89.9429 503.46 90.0922 503.516C90.2509 503.563 90.4749 503.609 90.7642 503.656C91.0536 503.693 91.4596 503.735 91.9822 503.782C92.9156 503.847 93.5829 504.062 93.9842 504.426C94.3856 504.79 94.5862 505.266 94.5862 505.854C94.5862 506.255 94.4742 506.638 94.2502 507.002C94.0356 507.366 93.6996 507.665 93.2422 507.898C92.7942 508.131 92.2156 508.248 91.5062 508.248C90.8809 508.248 90.3256 508.164 89.8402 507.996C89.3549 507.837 88.9769 507.59 88.7062 507.254C88.4356 506.927 88.3002 506.512 88.3002 506.008C88.3002 505.747 88.3702 505.462 88.5102 505.154C88.6502 504.855 88.9116 504.571 89.2942 504.3C89.0889 504.216 88.9116 504.127 88.7622 504.034C88.6222 503.931 88.4916 503.819 88.3702 503.698V503.376L89.5602 502.2C89.0096 501.733 88.7342 501.117 88.7342 500.352C88.7342 499.895 88.8416 499.479 89.0562 499.106C89.2709 498.733 89.5836 498.439 89.9942 498.224C90.4049 498 90.9042 497.888 91.4922 497.888C91.8936 497.888 92.2576 497.944 92.5842 498.056H95.1462V498.938L93.8442 498.994C94.1149 499.386 94.2502 499.839 94.2502 500.352C94.2502 500.809 94.1382 501.225 93.9142 501.598C93.6996 501.971 93.3869 502.27 92.9762 502.494C92.5749 502.709 92.0802 502.816 91.4922 502.816ZM91.4922 501.85C91.9869 501.85 92.3789 501.724 92.6682 501.472C92.9669 501.211 93.1162 500.837 93.1162 500.352C93.1162 499.876 92.9669 499.512 92.6682 499.26C92.3789 498.999 91.9869 498.868 91.4922 498.868C90.9882 498.868 90.5869 498.999 90.2882 499.26C89.9989 499.512 89.8542 499.876 89.8542 500.352C89.8542 500.837 89.9989 501.211 90.2882 501.472C90.5869 501.724 90.9882 501.85 91.4922 501.85ZM89.4482 505.896C89.4482 506.363 89.6442 506.708 90.0362 506.932C90.4282 507.165 90.9182 507.282 91.5062 507.282C92.0849 507.282 92.5469 507.156 92.8922 506.904C93.2469 506.652 93.4242 506.316 93.4242 505.896C93.4242 505.597 93.3029 505.336 93.0602 505.112C92.8176 504.897 92.3696 504.771 91.7162 504.734C91.2029 504.697 90.7596 504.65 90.3862 504.594C90.0036 504.799 89.7516 505.019 89.6302 505.252C89.5089 505.495 89.4482 505.709 89.4482 505.896ZM96.4728 505V498.056H97.5368L97.6068 499.302C97.8308 498.863 98.1528 498.518 98.5728 498.266C98.9928 498.014 99.4688 497.888 100.001 497.888C100.822 497.888 101.476 498.14 101.961 498.644C102.456 499.139 102.703 499.904 102.703 500.94V505H101.527V501.066C101.527 499.619 100.93 498.896 99.7348 498.896C99.1375 498.896 98.6382 499.115 98.2368 499.554C97.8448 499.983 97.6488 500.599 97.6488 501.402V505H96.4728ZM105.199 496.516C104.965 496.516 104.769 496.441 104.611 496.292C104.461 496.133 104.387 495.937 104.387 495.704C104.387 495.48 104.461 495.293 104.611 495.144C104.769 494.995 104.965 494.92 105.199 494.92C105.423 494.92 105.614 494.995 105.773 495.144C105.931 495.293 106.011 495.48 106.011 495.704C106.011 495.937 105.931 496.133 105.773 496.292C105.614 496.441 105.423 496.516 105.199 496.516ZM104.611 505V498.056H105.787V505H104.611ZM110.494 505.168C109.663 505.168 108.973 504.958 108.422 504.538C107.871 504.118 107.549 503.549 107.456 502.83H108.66C108.735 503.194 108.926 503.511 109.234 503.782C109.551 504.043 109.976 504.174 110.508 504.174C111.003 504.174 111.367 504.071 111.6 503.866C111.833 503.651 111.95 503.399 111.95 503.11C111.95 502.69 111.796 502.41 111.488 502.27C111.189 502.13 110.765 502.004 110.214 501.892C109.841 501.817 109.467 501.71 109.094 501.57C108.721 501.43 108.408 501.234 108.156 500.982C107.904 500.721 107.778 500.38 107.778 499.96C107.778 499.353 108.002 498.859 108.45 498.476C108.907 498.084 109.523 497.888 110.298 497.888C111.035 497.888 111.637 498.075 112.104 498.448C112.58 498.812 112.855 499.335 112.93 500.016H111.768C111.721 499.661 111.567 499.386 111.306 499.19C111.054 498.985 110.713 498.882 110.284 498.882C109.864 498.882 109.537 498.971 109.304 499.148C109.08 499.325 108.968 499.559 108.968 499.848C108.968 500.128 109.113 500.347 109.402 500.506C109.701 500.665 110.102 500.8 110.606 500.912C111.035 501.005 111.441 501.122 111.824 501.262C112.216 501.393 112.533 501.593 112.776 501.864C113.028 502.125 113.154 502.508 113.154 503.012C113.163 503.637 112.925 504.155 112.44 504.566C111.964 504.967 111.315 505.168 110.494 505.168ZM117.494 505.168C116.663 505.168 115.973 504.958 115.422 504.538C114.871 504.118 114.549 503.549 114.456 502.83H115.66C115.735 503.194 115.926 503.511 116.234 503.782C116.551 504.043 116.976 504.174 117.508 504.174C118.003 504.174 118.367 504.071 118.6 503.866C118.833 503.651 118.95 503.399 118.95 503.11C118.95 502.69 118.796 502.41 118.488 502.27C118.189 502.13 117.765 502.004 117.214 501.892C116.841 501.817 116.467 501.71 116.094 501.57C115.721 501.43 115.408 501.234 115.156 500.982C114.904 500.721 114.778 500.38 114.778 499.96C114.778 499.353 115.002 498.859 115.45 498.476C115.907 498.084 116.523 497.888 117.298 497.888C118.035 497.888 118.637 498.075 119.104 498.448C119.58 498.812 119.855 499.335 119.93 500.016H118.768C118.721 499.661 118.567 499.386 118.306 499.19C118.054 498.985 117.713 498.882 117.284 498.882C116.864 498.882 116.537 498.971 116.304 499.148C116.08 499.325 115.968 499.559 115.968 499.848C115.968 500.128 116.113 500.347 116.402 500.506C116.701 500.665 117.102 500.8 117.606 500.912C118.035 501.005 118.441 501.122 118.824 501.262C119.216 501.393 119.533 501.593 119.776 501.864C120.028 502.125 120.154 502.508 120.154 503.012C120.163 503.637 119.925 504.155 119.44 504.566C118.964 504.967 118.315 505.168 117.494 505.168ZM122.548 496.516C122.315 496.516 122.119 496.441 121.96 496.292C121.811 496.133 121.736 495.937 121.736 495.704C121.736 495.48 121.811 495.293 121.96 495.144C122.119 494.995 122.315 494.92 122.548 494.92C122.772 494.92 122.963 494.995 123.122 495.144C123.281 495.293 123.36 495.48 123.36 495.704C123.36 495.937 123.281 496.133 123.122 496.292C122.963 496.441 122.772 496.516 122.548 496.516ZM121.96 505V498.056H123.136V505H121.96ZM125.184 505V498.056H126.248L126.332 499.064C126.556 498.691 126.854 498.401 127.228 498.196C127.601 497.991 128.021 497.888 128.488 497.888C129.038 497.888 129.51 498 129.902 498.224C130.303 498.448 130.611 498.789 130.826 499.246C131.068 498.826 131.4 498.495 131.82 498.252C132.249 498.009 132.711 497.888 133.206 497.888C134.036 497.888 134.699 498.14 135.194 498.644C135.688 499.139 135.936 499.904 135.936 500.94V505H134.774V501.066C134.774 500.347 134.629 499.806 134.34 499.442C134.05 499.078 133.635 498.896 133.094 498.896C132.534 498.896 132.067 499.115 131.694 499.554C131.33 499.983 131.148 500.599 131.148 501.402V505H129.972V501.066C129.972 500.347 129.827 499.806 129.538 499.442C129.248 499.078 128.833 498.896 128.292 498.896C127.741 498.896 127.279 499.115 126.906 499.554C126.542 499.983 126.36 500.599 126.36 501.402V505H125.184ZM144.562 505.168C143.872 505.168 143.265 505.009 142.742 504.692C142.229 504.375 141.828 503.941 141.538 503.39C141.258 502.839 141.118 502.214 141.118 501.514C141.118 500.814 141.263 500.193 141.552 499.652C141.842 499.101 142.243 498.672 142.756 498.364C143.27 498.047 143.876 497.888 144.576 497.888C145.146 497.888 145.65 498.005 146.088 498.238C146.527 498.471 146.868 498.798 147.11 499.218V494.92H148.286V505H147.222L147.11 503.852C146.886 504.188 146.564 504.491 146.144 504.762C145.724 505.033 145.197 505.168 144.562 505.168ZM144.688 504.146C145.155 504.146 145.566 504.039 145.92 503.824C146.284 503.6 146.564 503.292 146.76 502.9C146.966 502.508 147.068 502.051 147.068 501.528C147.068 501.005 146.966 500.548 146.76 500.156C146.564 499.764 146.284 499.461 145.92 499.246C145.566 499.022 145.155 498.91 144.688 498.91C144.231 498.91 143.82 499.022 143.456 499.246C143.102 499.461 142.822 499.764 142.616 500.156C142.42 500.548 142.322 501.005 142.322 501.528C142.322 502.051 142.42 502.508 142.616 502.9C142.822 503.292 143.102 503.6 143.456 503.824C143.82 504.039 144.231 504.146 144.688 504.146ZM150.917 496.516C150.684 496.516 150.488 496.441 150.329 496.292C150.18 496.133 150.105 495.937 150.105 495.704C150.105 495.48 150.18 495.293 150.329 495.144C150.488 494.995 150.684 494.92 150.917 494.92C151.141 494.92 151.333 494.995 151.491 495.144C151.65 495.293 151.729 495.48 151.729 495.704C151.729 495.937 151.65 496.133 151.491 496.292C151.333 496.441 151.141 496.516 150.917 496.516ZM150.329 505V498.056H151.505V505H150.329ZM155.863 505.168C155.284 505.168 154.804 505.07 154.421 504.874C154.038 504.678 153.754 504.417 153.567 504.09C153.38 503.763 153.287 503.409 153.287 503.026C153.287 502.317 153.558 501.771 154.099 501.388C154.64 501.005 155.378 500.814 156.311 500.814H158.187V500.73C158.187 500.123 158.028 499.666 157.711 499.358C157.394 499.041 156.969 498.882 156.437 498.882C155.98 498.882 155.583 498.999 155.247 499.232C154.92 499.456 154.715 499.787 154.631 500.226H153.427C153.474 499.722 153.642 499.297 153.931 498.952C154.23 498.607 154.598 498.345 155.037 498.168C155.476 497.981 155.942 497.888 156.437 497.888C157.408 497.888 158.136 498.149 158.621 498.672C159.116 499.185 159.363 499.871 159.363 500.73V505H158.313L158.243 503.754C158.047 504.146 157.758 504.482 157.375 504.762C157.002 505.033 156.498 505.168 155.863 505.168ZM156.045 504.174C156.493 504.174 156.876 504.057 157.193 503.824C157.52 503.591 157.767 503.287 157.935 502.914C158.103 502.541 158.187 502.149 158.187 501.738V501.724H156.409C155.718 501.724 155.228 501.845 154.939 502.088C154.659 502.321 154.519 502.615 154.519 502.97C154.519 503.334 154.65 503.628 154.911 503.852C155.182 504.067 155.56 504.174 156.045 504.174ZM161.127 505V498.056H162.191L162.275 499.064C162.499 498.691 162.798 498.401 163.171 498.196C163.544 497.991 163.964 497.888 164.431 497.888C164.982 497.888 165.453 498 165.845 498.224C166.246 498.448 166.554 498.789 166.769 499.246C167.012 498.826 167.343 498.495 167.763 498.252C168.192 498.009 168.654 497.888 169.149 497.888C169.98 497.888 170.642 498.14 171.137 498.644C171.632 499.139 171.879 499.904 171.879 500.94V505H170.717V501.066C170.717 500.347 170.572 499.806 170.283 499.442C169.994 499.078 169.578 498.896 169.037 498.896C168.477 498.896 168.01 499.115 167.637 499.554C167.273 499.983 167.091 500.599 167.091 501.402V505H165.915V501.066C165.915 500.347 165.77 499.806 165.481 499.442C165.192 499.078 164.776 498.896 164.235 498.896C163.684 498.896 163.222 499.115 162.849 499.554C162.485 499.983 162.303 500.599 162.303 501.402V505H161.127ZM183.054 508.08V503.852C182.83 504.188 182.508 504.491 182.088 504.762C181.668 505.033 181.14 505.168 180.506 505.168C179.815 505.168 179.208 505.009 178.686 504.692C178.172 504.375 177.771 503.941 177.482 503.39C177.202 502.839 177.062 502.214 177.062 501.514C177.062 500.814 177.206 500.193 177.496 499.652C177.785 499.101 178.186 498.672 178.7 498.364C179.213 498.047 179.82 497.888 180.52 497.888C181.089 497.888 181.593 498.005 182.032 498.238C182.47 498.471 182.811 498.798 183.054 499.218L183.166 498.056H184.23V508.08H183.054ZM180.632 504.146C181.098 504.146 181.509 504.039 181.864 503.824C182.228 503.6 182.508 503.292 182.704 502.9C182.909 502.508 183.012 502.051 183.012 501.528C183.012 501.005 182.909 500.548 182.704 500.156C182.508 499.764 182.228 499.461 181.864 499.246C181.509 499.022 181.098 498.91 180.632 498.91C180.174 498.91 179.764 499.022 179.4 499.246C179.045 499.461 178.765 499.764 178.56 500.156C178.364 500.548 178.266 501.005 178.266 501.528C178.266 502.051 178.364 502.508 178.56 502.9C178.765 503.292 179.045 503.6 179.4 503.824C179.764 504.039 180.174 504.146 180.632 504.146ZM188.681 505.168C187.859 505.168 187.206 504.921 186.721 504.426C186.235 503.922 185.993 503.152 185.993 502.116V498.056H187.169V501.99C187.169 503.437 187.761 504.16 188.947 504.16C189.553 504.16 190.053 503.945 190.445 503.516C190.846 503.077 191.047 502.457 191.047 501.654V498.056H192.223V505H191.159L191.075 503.754C190.86 504.193 190.538 504.538 190.109 504.79C189.689 505.042 189.213 505.168 188.681 505.168ZM194.872 496.516C194.639 496.516 194.443 496.441 194.284 496.292C194.135 496.133 194.06 495.937 194.06 495.704C194.06 495.48 194.135 495.293 194.284 495.144C194.443 494.995 194.639 494.92 194.872 494.92C195.096 494.92 195.288 494.995 195.446 495.144C195.605 495.293 195.684 495.48 195.684 495.704C195.684 495.937 195.605 496.133 195.446 496.292C195.288 496.441 195.096 496.516 194.872 496.516ZM194.284 505V498.056H195.46V505H194.284ZM200.168 505.168C199.337 505.168 198.647 504.958 198.096 504.538C197.545 504.118 197.223 503.549 197.13 502.83H198.334C198.409 503.194 198.6 503.511 198.908 503.782C199.225 504.043 199.65 504.174 200.182 504.174C200.677 504.174 201.041 504.071 201.274 503.866C201.507 503.651 201.624 503.399 201.624 503.11C201.624 502.69 201.47 502.41 201.162 502.27C200.863 502.13 200.439 502.004 199.888 501.892C199.515 501.817 199.141 501.71 198.768 501.57C198.395 501.43 198.082 501.234 197.83 500.982C197.578 500.721 197.452 500.38 197.452 499.96C197.452 499.353 197.676 498.859 198.124 498.476C198.581 498.084 199.197 497.888 199.972 497.888C200.709 497.888 201.311 498.075 201.778 498.448C202.254 498.812 202.529 499.335 202.604 500.016H201.442C201.395 499.661 201.241 499.386 200.98 499.19C200.728 498.985 200.387 498.882 199.958 498.882C199.538 498.882 199.211 498.971 198.978 499.148C198.754 499.325 198.642 499.559 198.642 499.848C198.642 500.128 198.787 500.347 199.076 500.506C199.375 500.665 199.776 500.8 200.28 500.912C200.709 501.005 201.115 501.122 201.498 501.262C201.89 501.393 202.207 501.593 202.45 501.864C202.702 502.125 202.828 502.508 202.828 503.012C202.837 503.637 202.599 504.155 202.114 504.566C201.638 504.967 200.989 505.168 200.168 505.168ZM204.914 505.07C204.681 505.07 204.485 504.995 204.326 504.846C204.177 504.687 204.102 504.496 204.102 504.272C204.102 504.048 204.177 503.861 204.326 503.712C204.485 503.553 204.681 503.474 204.914 503.474C205.138 503.474 205.325 503.553 205.474 503.712C205.633 503.861 205.712 504.048 205.712 504.272C205.712 504.496 205.633 504.687 205.474 504.846C205.325 504.995 205.138 505.07 204.914 505.07ZM210.401 505L214.013 495.2H215.259L218.857 505H217.611L216.715 502.48H212.543L211.633 505H210.401ZM212.893 501.528H216.365L214.629 496.684L212.893 501.528ZM220.244 505V494.92H221.42V505H220.244ZM224.062 496.516C223.829 496.516 223.633 496.441 223.474 496.292C223.325 496.133 223.25 495.937 223.25 495.704C223.25 495.48 223.325 495.293 223.474 495.144C223.633 494.995 223.829 494.92 224.062 494.92C224.286 494.92 224.477 494.995 224.636 495.144C224.795 495.293 224.874 495.48 224.874 495.704C224.874 495.937 224.795 496.133 224.636 496.292C224.477 496.441 224.286 496.516 224.062 496.516ZM223.474 505V498.056H224.65V505H223.474ZM232.395 508.08V503.852C232.171 504.188 231.849 504.491 231.429 504.762C231.009 505.033 230.482 505.168 229.847 505.168C229.157 505.168 228.55 505.009 228.027 504.692C227.514 504.375 227.113 503.941 226.823 503.39C226.543 502.839 226.403 502.214 226.403 501.514C226.403 500.814 226.548 500.193 226.837 499.652C227.127 499.101 227.528 498.672 228.041 498.364C228.555 498.047 229.161 497.888 229.861 497.888C230.431 497.888 230.935 498.005 231.373 498.238C231.812 498.471 232.153 498.798 232.395 499.218L232.507 498.056H233.571V508.08H232.395ZM229.973 504.146C230.44 504.146 230.851 504.039 231.205 503.824C231.569 503.6 231.849 503.292 232.045 502.9C232.251 502.508 232.353 502.051 232.353 501.528C232.353 501.005 232.251 500.548 232.045 500.156C231.849 499.764 231.569 499.461 231.205 499.246C230.851 499.022 230.44 498.91 229.973 498.91C229.516 498.91 229.105 499.022 228.741 499.246C228.387 499.461 228.107 499.764 227.901 500.156C227.705 500.548 227.607 501.005 227.607 501.528C227.607 502.051 227.705 502.508 227.901 502.9C228.107 503.292 228.387 503.6 228.741 503.824C229.105 504.039 229.516 504.146 229.973 504.146ZM238.022 505.168C237.201 505.168 236.548 504.921 236.062 504.426C235.577 503.922 235.334 503.152 235.334 502.116V498.056H236.51V501.99C236.51 503.437 237.103 504.16 238.288 504.16C238.895 504.16 239.394 503.945 239.786 503.516C240.188 503.077 240.388 502.457 240.388 501.654V498.056H241.564V505H240.5L240.416 503.754C240.202 504.193 239.88 504.538 239.45 504.79C239.03 505.042 238.554 505.168 238.022 505.168ZM246.622 505.168C245.96 505.168 245.372 505.019 244.858 504.72C244.345 504.412 243.939 503.987 243.64 503.446C243.351 502.905 243.206 502.265 243.206 501.528C243.206 500.8 243.351 500.165 243.64 499.624C243.93 499.073 244.331 498.649 244.844 498.35C245.367 498.042 245.969 497.888 246.65 497.888C247.322 497.888 247.901 498.042 248.386 498.35C248.881 498.649 249.259 499.045 249.52 499.54C249.782 500.035 249.912 500.567 249.912 501.136C249.912 501.239 249.908 501.341 249.898 501.444C249.898 501.547 249.898 501.663 249.898 501.794H244.368C244.396 502.326 244.518 502.769 244.732 503.124C244.956 503.469 245.232 503.731 245.558 503.908C245.894 504.085 246.249 504.174 246.622 504.174C247.108 504.174 247.514 504.062 247.84 503.838C248.167 503.614 248.405 503.311 248.554 502.928H249.716C249.53 503.572 249.17 504.109 248.638 504.538C248.116 504.958 247.444 505.168 246.622 505.168ZM246.622 498.882C246.062 498.882 245.563 499.055 245.124 499.4C244.695 499.736 244.448 500.231 244.382 500.884H248.75C248.722 500.259 248.508 499.769 248.106 499.414C247.705 499.059 247.21 498.882 246.622 498.882ZM253.982 505C253.348 505 252.848 504.846 252.484 504.538C252.12 504.23 251.938 503.675 251.938 502.872V499.05H250.734V498.056H251.938L252.092 496.39H253.114V498.056H255.158V499.05H253.114V502.872C253.114 503.311 253.203 503.609 253.38 503.768C253.558 503.917 253.87 503.992 254.318 503.992H255.046V505H253.982ZM260.358 505V498.056H261.422L261.492 499.302C261.716 498.863 262.038 498.518 262.458 498.266C262.878 498.014 263.354 497.888 263.886 497.888C264.707 497.888 265.36 498.14 265.846 498.644C266.34 499.139 266.588 499.904 266.588 500.94V505H265.412V501.066C265.412 499.619 264.814 498.896 263.62 498.896C263.022 498.896 262.523 499.115 262.122 499.554C261.73 499.983 261.534 500.599 261.534 501.402V505H260.358ZM271.491 505.168C270.829 505.168 270.241 505.019 269.727 504.72C269.214 504.412 268.808 503.987 268.509 503.446C268.22 502.905 268.075 502.265 268.075 501.528C268.075 500.8 268.22 500.165 268.509 499.624C268.799 499.073 269.2 498.649 269.713 498.35C270.236 498.042 270.838 497.888 271.519 497.888C272.191 497.888 272.77 498.042 273.255 498.35C273.75 498.649 274.128 499.045 274.389 499.54C274.651 500.035 274.781 500.567 274.781 501.136C274.781 501.239 274.777 501.341 274.767 501.444C274.767 501.547 274.767 501.663 274.767 501.794H269.237C269.265 502.326 269.387 502.769 269.601 503.124C269.825 503.469 270.101 503.731 270.427 503.908C270.763 504.085 271.118 504.174 271.491 504.174C271.977 504.174 272.383 504.062 272.709 503.838C273.036 503.614 273.274 503.311 273.423 502.928H274.585C274.399 503.572 274.039 504.109 273.507 504.538C272.985 504.958 272.313 505.168 271.491 505.168ZM271.491 498.882C270.931 498.882 270.432 499.055 269.993 499.4C269.564 499.736 269.317 500.231 269.251 500.884H273.619C273.591 500.259 273.377 499.769 272.975 499.414C272.574 499.059 272.079 498.882 271.491 498.882ZM279.532 505.168C278.869 505.168 278.272 505.019 277.74 504.72C277.217 504.412 276.802 503.987 276.494 503.446C276.195 502.895 276.046 502.256 276.046 501.528C276.046 500.8 276.195 500.165 276.494 499.624C276.802 499.073 277.217 498.649 277.74 498.35C278.272 498.042 278.869 497.888 279.532 497.888C280.353 497.888 281.044 498.103 281.604 498.532C282.173 498.961 282.533 499.535 282.682 500.254H281.478C281.385 499.825 281.156 499.493 280.792 499.26C280.428 499.017 280.003 498.896 279.518 498.896C279.126 498.896 278.757 498.994 278.412 499.19C278.067 499.386 277.787 499.68 277.572 500.072C277.357 500.464 277.25 500.949 277.25 501.528C277.25 502.107 277.357 502.592 277.572 502.984C277.787 503.376 278.067 503.675 278.412 503.88C278.757 504.076 279.126 504.174 279.518 504.174C280.003 504.174 280.428 504.057 280.792 503.824C281.156 503.581 281.385 503.241 281.478 502.802H282.682C282.542 503.502 282.187 504.071 281.618 504.51C281.049 504.949 280.353 505.168 279.532 505.168ZM114.661 523.168C113.84 523.168 113.186 522.921 112.701 522.426C112.216 521.922 111.973 521.152 111.973 520.116V516.056H113.149V519.99C113.149 521.437 113.742 522.16 114.927 522.16C115.534 522.16 116.033 521.945 116.425 521.516C116.826 521.077 117.027 520.457 117.027 519.654V516.056H118.203V523H117.139L117.055 521.754C116.84 522.193 116.518 522.538 116.089 522.79C115.669 523.042 115.193 523.168 114.661 523.168ZM120.139 523V512.92H121.315V523H120.139ZM123.242 523V512.92H124.418V523H123.242ZM128.656 523.168C128.077 523.168 127.597 523.07 127.214 522.874C126.831 522.678 126.547 522.417 126.36 522.09C126.173 521.763 126.08 521.409 126.08 521.026C126.08 520.317 126.351 519.771 126.892 519.388C127.433 519.005 128.171 518.814 129.104 518.814H130.98V518.73C130.98 518.123 130.821 517.666 130.504 517.358C130.187 517.041 129.762 516.882 129.23 516.882C128.773 516.882 128.376 516.999 128.04 517.232C127.713 517.456 127.508 517.787 127.424 518.226H126.22C126.267 517.722 126.435 517.297 126.724 516.952C127.023 516.607 127.391 516.345 127.83 516.168C128.269 515.981 128.735 515.888 129.23 515.888C130.201 515.888 130.929 516.149 131.414 516.672C131.909 517.185 132.156 517.871 132.156 518.73V523H131.106L131.036 521.754C130.84 522.146 130.551 522.482 130.168 522.762C129.795 523.033 129.291 523.168 128.656 523.168ZM128.838 522.174C129.286 522.174 129.669 522.057 129.986 521.824C130.313 521.591 130.56 521.287 130.728 520.914C130.896 520.541 130.98 520.149 130.98 519.738V519.724H129.202C128.511 519.724 128.021 519.845 127.732 520.088C127.452 520.321 127.312 520.615 127.312 520.97C127.312 521.334 127.443 521.628 127.704 521.852C127.975 522.067 128.353 522.174 128.838 522.174ZM133.92 523V516.056H134.984L135.068 517.064C135.292 516.691 135.591 516.401 135.964 516.196C136.337 515.991 136.757 515.888 137.224 515.888C137.775 515.888 138.246 516 138.638 516.224C139.039 516.448 139.347 516.789 139.562 517.246C139.805 516.826 140.136 516.495 140.556 516.252C140.985 516.009 141.447 515.888 141.942 515.888C142.773 515.888 143.435 516.14 143.93 516.644C144.425 517.139 144.672 517.904 144.672 518.94V523H143.51V519.066C143.51 518.347 143.365 517.806 143.076 517.442C142.787 517.078 142.371 516.896 141.83 516.896C141.27 516.896 140.803 517.115 140.43 517.554C140.066 517.983 139.884 518.599 139.884 519.402V523H138.708V519.066C138.708 518.347 138.563 517.806 138.274 517.442C137.985 517.078 137.569 516.896 137.028 516.896C136.477 516.896 136.015 517.115 135.642 517.554C135.278 517.983 135.096 518.599 135.096 519.402V523H133.92ZM149.636 523.168C148.973 523.168 148.376 523.019 147.844 522.72C147.321 522.412 146.906 521.987 146.598 521.446C146.299 520.895 146.15 520.256 146.15 519.528C146.15 518.8 146.299 518.165 146.598 517.624C146.906 517.073 147.321 516.649 147.844 516.35C148.376 516.042 148.973 515.888 149.636 515.888C150.457 515.888 151.148 516.103 151.708 516.532C152.277 516.961 152.636 517.535 152.786 518.254H151.582C151.488 517.825 151.26 517.493 150.896 517.26C150.532 517.017 150.107 516.896 149.622 516.896C149.23 516.896 148.861 516.994 148.516 517.19C148.17 517.386 147.89 517.68 147.676 518.072C147.461 518.464 147.354 518.949 147.354 519.528C147.354 520.107 147.461 520.592 147.676 520.984C147.89 521.376 148.17 521.675 148.516 521.88C148.861 522.076 149.23 522.174 149.622 522.174C150.107 522.174 150.532 522.057 150.896 521.824C151.26 521.581 151.488 521.241 151.582 520.802H152.786C152.646 521.502 152.291 522.071 151.722 522.51C151.152 522.949 150.457 523.168 149.636 523.168ZM157.592 523.168C156.939 523.168 156.351 523.019 155.828 522.72C155.305 522.421 154.89 522.001 154.582 521.46C154.283 520.909 154.134 520.265 154.134 519.528C154.134 518.791 154.288 518.151 154.596 517.61C154.904 517.059 155.319 516.635 155.842 516.336C156.374 516.037 156.967 515.888 157.62 515.888C158.273 515.888 158.861 516.037 159.384 516.336C159.907 516.635 160.317 517.059 160.616 517.61C160.924 518.151 161.078 518.791 161.078 519.528C161.078 520.265 160.924 520.909 160.616 521.46C160.308 522.001 159.888 522.421 159.356 522.72C158.833 523.019 158.245 523.168 157.592 523.168ZM157.592 522.16C157.993 522.16 158.367 522.062 158.712 521.866C159.057 521.67 159.337 521.376 159.552 520.984C159.767 520.592 159.874 520.107 159.874 519.528C159.874 518.949 159.767 518.464 159.552 518.072C159.347 517.68 159.071 517.386 158.726 517.19C158.381 516.994 158.012 516.896 157.62 516.896C157.219 516.896 156.845 516.994 156.5 517.19C156.155 517.386 155.875 517.68 155.66 518.072C155.445 518.464 155.338 518.949 155.338 519.528C155.338 520.107 155.445 520.592 155.66 520.984C155.875 521.376 156.15 521.67 156.486 521.866C156.831 522.062 157.2 522.16 157.592 522.16ZM162.713 523V516.056H163.777L163.875 517.386C164.09 516.929 164.416 516.565 164.855 516.294C165.294 516.023 165.835 515.888 166.479 515.888V517.12H166.157C165.746 517.12 165.368 517.195 165.023 517.344C164.678 517.484 164.402 517.727 164.197 518.072C163.992 518.417 163.889 518.893 163.889 519.5V523H162.713ZM167.799 526.08V516.056H168.863L168.975 517.204C169.199 516.868 169.516 516.565 169.927 516.294C170.347 516.023 170.879 515.888 171.523 515.888C172.214 515.888 172.816 516.047 173.329 516.364C173.842 516.681 174.239 517.115 174.519 517.666C174.808 518.217 174.953 518.842 174.953 519.542C174.953 520.242 174.808 520.867 174.519 521.418C174.239 521.959 173.838 522.389 173.315 522.706C172.802 523.014 172.2 523.168 171.509 523.168C170.94 523.168 170.431 523.051 169.983 522.818C169.544 522.585 169.208 522.258 168.975 521.838V526.08H167.799ZM171.383 522.146C171.85 522.146 172.26 522.039 172.615 521.824C172.97 521.6 173.25 521.292 173.455 520.9C173.66 520.508 173.763 520.051 173.763 519.528C173.763 519.005 173.66 518.548 173.455 518.156C173.25 517.764 172.97 517.461 172.615 517.246C172.26 517.022 171.85 516.91 171.383 516.91C170.916 516.91 170.506 517.022 170.151 517.246C169.796 517.461 169.516 517.764 169.311 518.156C169.106 518.548 169.003 519.005 169.003 519.528C169.003 520.051 169.106 520.508 169.311 520.9C169.516 521.292 169.796 521.6 170.151 521.824C170.506 522.039 170.916 522.146 171.383 522.146ZM179.712 523.168C179.049 523.168 178.461 523.019 177.948 522.72C177.435 522.412 177.029 521.987 176.73 521.446C176.441 520.905 176.296 520.265 176.296 519.528C176.296 518.8 176.441 518.165 176.73 517.624C177.019 517.073 177.421 516.649 177.934 516.35C178.457 516.042 179.059 515.888 179.74 515.888C180.412 515.888 180.991 516.042 181.476 516.35C181.971 516.649 182.349 517.045 182.61 517.54C182.871 518.035 183.002 518.567 183.002 519.136C183.002 519.239 182.997 519.341 182.988 519.444C182.988 519.547 182.988 519.663 182.988 519.794H177.458C177.486 520.326 177.607 520.769 177.822 521.124C178.046 521.469 178.321 521.731 178.648 521.908C178.984 522.085 179.339 522.174 179.712 522.174C180.197 522.174 180.603 522.062 180.93 521.838C181.257 521.614 181.495 521.311 181.644 520.928H182.806C182.619 521.572 182.26 522.109 181.728 522.538C181.205 522.958 180.533 523.168 179.712 523.168ZM179.712 516.882C179.152 516.882 178.653 517.055 178.214 517.4C177.785 517.736 177.537 518.231 177.472 518.884H181.84C181.812 518.259 181.597 517.769 181.196 517.414C180.795 517.059 180.3 516.882 179.712 516.882ZM184.561 523V516.056H185.625L185.723 517.386C185.937 516.929 186.264 516.565 186.703 516.294C187.141 516.023 187.683 515.888 188.327 515.888V517.12H188.005C187.594 517.12 187.216 517.195 186.871 517.344C186.525 517.484 186.25 517.727 186.045 518.072C185.839 518.417 185.737 518.893 185.737 519.5V523H184.561ZM196.012 523.168C195.181 523.168 194.49 522.958 193.94 522.538C193.389 522.118 193.067 521.549 192.974 520.83H194.178C194.252 521.194 194.444 521.511 194.752 521.782C195.069 522.043 195.494 522.174 196.026 522.174C196.52 522.174 196.884 522.071 197.118 521.866C197.351 521.651 197.468 521.399 197.468 521.11C197.468 520.69 197.314 520.41 197.006 520.27C196.707 520.13 196.282 520.004 195.732 519.892C195.358 519.817 194.985 519.71 194.612 519.57C194.238 519.43 193.926 519.234 193.674 518.982C193.422 518.721 193.296 518.38 193.296 517.96C193.296 517.353 193.52 516.859 193.968 516.476C194.425 516.084 195.041 515.888 195.816 515.888C196.553 515.888 197.155 516.075 197.622 516.448C198.098 516.812 198.373 517.335 198.448 518.016H197.286C197.239 517.661 197.085 517.386 196.824 517.19C196.572 516.985 196.231 516.882 195.802 516.882C195.382 516.882 195.055 516.971 194.822 517.148C194.598 517.325 194.486 517.559 194.486 517.848C194.486 518.128 194.63 518.347 194.92 518.506C195.218 518.665 195.62 518.8 196.124 518.912C196.553 519.005 196.959 519.122 197.342 519.262C197.734 519.393 198.051 519.593 198.294 519.864C198.546 520.125 198.672 520.508 198.672 521.012C198.681 521.637 198.443 522.155 197.958 522.566C197.482 522.967 196.833 523.168 196.012 523.168ZM201.066 514.516C200.832 514.516 200.636 514.441 200.478 514.292C200.328 514.133 200.254 513.937 200.254 513.704C200.254 513.48 200.328 513.293 200.478 513.144C200.636 512.995 200.832 512.92 201.066 512.92C201.29 512.92 201.481 512.995 201.64 513.144C201.798 513.293 201.878 513.48 201.878 513.704C201.878 513.937 201.798 514.133 201.64 514.292C201.481 514.441 201.29 514.516 201.066 514.516ZM200.478 523V516.056H201.654V523H200.478ZM206.445 523C205.811 523 205.311 522.846 204.947 522.538C204.583 522.23 204.401 521.675 204.401 520.872V517.05H203.197V516.056H204.401L204.555 514.39H205.577V516.056H207.621V517.05H205.577V520.872C205.577 521.311 205.666 521.609 205.843 521.768C206.021 521.917 206.333 521.992 206.781 521.992H207.509V523H206.445ZM215.13 523.168C214.552 523.168 214.071 523.07 213.688 522.874C213.306 522.678 213.021 522.417 212.834 522.09C212.648 521.763 212.554 521.409 212.554 521.026C212.554 520.317 212.825 519.771 213.366 519.388C213.908 519.005 214.645 518.814 215.578 518.814H217.454V518.73C217.454 518.123 217.296 517.666 216.978 517.358C216.661 517.041 216.236 516.882 215.704 516.882C215.247 516.882 214.85 516.999 214.514 517.232C214.188 517.456 213.982 517.787 213.898 518.226H212.694C212.741 517.722 212.909 517.297 213.198 516.952C213.497 516.607 213.866 516.345 214.304 516.168C214.743 515.981 215.21 515.888 215.704 515.888C216.675 515.888 217.403 516.149 217.888 516.672C218.383 517.185 218.63 517.871 218.63 518.73V523H217.58L217.51 521.754C217.314 522.146 217.025 522.482 216.642 522.762C216.269 523.033 215.765 523.168 215.13 523.168ZM215.312 522.174C215.76 522.174 216.143 522.057 216.46 521.824C216.787 521.591 217.034 521.287 217.202 520.914C217.37 520.541 217.454 520.149 217.454 519.738V519.724H215.676C214.986 519.724 214.496 519.845 214.206 520.088C213.926 520.321 213.786 520.615 213.786 520.97C213.786 521.334 213.917 521.628 214.178 521.852C214.449 522.067 214.827 522.174 215.312 522.174ZM220.395 523V516.056H221.459L221.543 517.064C221.767 516.691 222.065 516.401 222.439 516.196C222.812 515.991 223.232 515.888 223.699 515.888C224.249 515.888 224.721 516 225.113 516.224C225.514 516.448 225.822 516.789 226.037 517.246C226.279 516.826 226.611 516.495 227.031 516.252C227.46 516.009 227.922 515.888 228.417 515.888C229.247 515.888 229.91 516.14 230.405 516.644C230.899 517.139 231.147 517.904 231.147 518.94V523H229.985V519.066C229.985 518.347 229.84 517.806 229.551 517.442C229.261 517.078 228.846 516.896 228.305 516.896C227.745 516.896 227.278 517.115 226.905 517.554C226.541 517.983 226.359 518.599 226.359 519.402V523H225.183V519.066C225.183 518.347 225.038 517.806 224.749 517.442C224.459 517.078 224.044 516.896 223.503 516.896C222.952 516.896 222.49 517.115 222.117 517.554C221.753 517.983 221.571 518.599 221.571 519.402V523H220.395ZM236.04 523.168C235.377 523.168 234.789 523.019 234.276 522.72C233.763 522.412 233.357 521.987 233.058 521.446C232.769 520.905 232.624 520.265 232.624 519.528C232.624 518.8 232.769 518.165 233.058 517.624C233.347 517.073 233.749 516.649 234.262 516.35C234.785 516.042 235.387 515.888 236.068 515.888C236.74 515.888 237.319 516.042 237.804 516.35C238.299 516.649 238.677 517.045 238.938 517.54C239.199 518.035 239.33 518.567 239.33 519.136C239.33 519.239 239.325 519.341 239.316 519.444C239.316 519.547 239.316 519.663 239.316 519.794H233.786C233.814 520.326 233.935 520.769 234.15 521.124C234.374 521.469 234.649 521.731 234.976 521.908C235.312 522.085 235.667 522.174 236.04 522.174C236.525 522.174 236.931 522.062 237.258 521.838C237.585 521.614 237.823 521.311 237.972 520.928H239.134C238.947 521.572 238.588 522.109 238.056 522.538C237.533 522.958 236.861 523.168 236.04 523.168ZM236.04 516.882C235.48 516.882 234.981 517.055 234.542 517.4C234.113 517.736 233.865 518.231 233.8 518.884H238.168C238.14 518.259 237.925 517.769 237.524 517.414C237.123 517.059 236.628 516.882 236.04 516.882ZM243.4 523C242.766 523 242.266 522.846 241.902 522.538C241.538 522.23 241.356 521.675 241.356 520.872V517.05H240.152V516.056H241.356L241.51 514.39H242.532V516.056H244.576V517.05H242.532V520.872C242.532 521.311 242.621 521.609 242.798 521.768C242.976 521.917 243.288 521.992 243.736 521.992H244.464V523H243.4ZM246.476 523.07C246.243 523.07 246.047 522.995 245.888 522.846C245.739 522.687 245.664 522.496 245.664 522.272C245.664 522.048 245.739 521.861 245.888 521.712C246.047 521.553 246.243 521.474 246.476 521.474C246.7 521.474 246.887 521.553 247.036 521.712C247.195 521.861 247.274 522.048 247.274 522.272C247.274 522.496 247.195 522.687 247.036 522.846C246.887 522.995 246.7 523.07 246.476 523.07Z" fill="#B8BFFF"/>
<g id="Frame 3">
<circle id="Ellipse 1" cx="155" cy="606" r="4" fill="#4D5EFF"/>
<circle id="Ellipse 2" cx="172" cy="606" r="4" fill="#4D5EFF"/>
<circle id="Ellipse 4" cx="189" cy="606" r="4" fill="#4D5EFF"/>
<circle id="Ellipse 3" cx="206" cy="606" r="3.5" fill="white" stroke="white"/>
</g>
<g id="akar-icons:chevron-left">
<g id="Group">
<path id="Vector_28" d="M38.375 599.5L33.375 604.5L38.375 609.5" stroke="#B8BFFF" stroke-width="2.6" stroke-linecap="round" stroke-linejoin="round"/>
</g>
</g>
<g id="akar-icons:arrow-right">
<g id="Group_2">
<path id="Vector_29" d="M315 605H331" stroke="#B8BFFF" stroke-width="2.6" stroke-linecap="round" stroke-linejoin="round"/>
<path id="Vector_30" d="M324 598L331 605L324 612" stroke="#B8BFFF" stroke-width="2.6" stroke-linecap="round" stroke-linejoin="round"/>
</g>
</g>
<g id="Frame">
<path id="Vector_31" d="M43.419 36.371C43.04 36.7523 42.7498 37.2125 42.569 37.7187C42.3882 38.225 42.3213 38.7649 42.373 39.3L42.355 39.282C42.4082 39.9119 42.3232 40.5457 42.1061 41.1394C41.889 41.733 41.545 42.2721 41.0981 42.7191C40.6511 43.166 40.112 43.5101 39.5183 43.7271C38.9247 43.9442 38.2908 44.0292 37.661 43.976L37.679 43.994C36.9256 43.9239 36.1689 44.0878 35.512 44.4635C34.8552 44.8392 34.3302 45.4083 34.0087 46.0933C33.6872 46.7783 33.5847 47.5457 33.7153 48.2911C33.846 49.0364 34.2033 49.7233 34.7386 50.2581C35.2739 50.7929 35.9611 51.1496 36.7065 51.2795C37.452 51.4095 38.2193 51.3063 38.904 50.9842C39.5887 50.662 40.1573 50.1366 40.5324 49.4794C40.9075 48.8222 41.0708 48.0654 41 47.312L41.019 47.33C40.9658 46.7002 41.0507 46.0663 41.2678 45.4726C41.4849 44.879 41.829 44.3399 42.2759 43.8929C42.7229 43.446 43.262 43.1019 43.8556 42.8849C44.4493 42.6678 45.0831 42.5828 45.713 42.636L45.694 42.618C46.3094 42.6733 46.9289 42.5724 47.495 42.3246C48.061 42.0768 48.5554 41.6901 48.9322 41.2004C49.309 40.7107 49.5562 40.1337 49.6506 39.5231C49.7451 38.9124 49.6839 38.2878 49.4727 37.707C49.2615 37.1263 48.9071 36.6083 48.4424 36.201C47.9777 35.7937 47.4177 35.5103 46.8143 35.3771C46.2109 35.2439 45.5836 35.2651 44.9906 35.4388C44.3976 35.6126 43.8581 35.9332 43.422 36.371H43.419Z" fill="#B8BFFF"/>
<path id="Vector_32" d="M36.042 41.636L36.023 41.618C36.5583 41.6719 37.0989 41.6062 37.6058 41.4256C38.1126 41.245 38.573 40.9541 38.9536 40.5738C39.3341 40.1935 39.6255 39.7333 39.8064 39.2266C39.9874 38.7199 40.0535 38.1794 40 37.644L40.019 37.662C39.9658 37.0321 40.0508 36.3983 40.2678 35.8046C40.4849 35.211 40.829 34.6719 41.2759 34.2249C41.7229 33.778 42.262 33.4339 42.8556 33.2169C43.4493 32.9998 44.0831 32.9148 44.713 32.968L44.694 32.95C45.4475 33.0208 46.2044 32.8574 46.8616 32.4821C47.5189 32.1068 48.0443 31.538 48.3663 30.8531C48.6883 30.1682 48.7912 29.4007 48.661 28.6552C48.5308 27.9097 48.1738 27.2225 47.6386 26.6874C47.1035 26.1522 46.4163 25.7952 45.6708 25.665C44.9253 25.5347 44.1578 25.6377 43.4729 25.9597C42.788 26.2817 42.2192 26.8071 41.8439 27.4643C41.4686 28.1215 41.3052 28.8785 41.376 29.632L41.358 29.613C41.4113 30.2429 41.3265 30.8768 41.1095 31.4705C40.8925 32.0643 40.5484 32.6035 40.1015 33.0505C39.6545 33.4974 39.1153 33.8415 38.5216 34.0585C37.9278 34.2755 37.2939 34.3603 36.664 34.307L36.682 34.326C36.1467 34.2721 35.606 34.3378 35.0992 34.5184C34.5924 34.6989 34.132 34.9899 33.7514 35.3702C33.3708 35.7505 33.0795 36.2107 32.8985 36.7174C32.7176 37.2241 32.6515 37.7646 32.705 38.3L32.687 38.282C32.74 38.9118 32.6549 39.5456 32.4378 40.1392C32.2206 40.7327 31.8766 41.2718 31.4297 41.7187C30.9828 42.1656 30.4437 42.5096 29.8502 42.7268C29.2566 42.9439 28.6228 43.029 27.993 42.976L28.011 42.994C27.2575 42.9232 26.5006 43.0866 25.8433 43.4619C25.1861 43.8372 24.6607 44.406 24.3387 45.0909C24.0167 45.7758 23.9137 46.5433 24.044 47.2888C24.1742 48.0343 24.5312 48.7215 25.0664 49.2566C25.6015 49.7918 26.2887 50.1488 27.0342 50.279C27.7797 50.4092 28.5472 50.3063 29.2321 49.9843C29.917 49.6623 30.4858 49.1369 30.8611 48.4797C31.2364 47.8224 31.3998 47.0655 31.329 46.312L31.348 46.33C31.2948 45.7001 31.3798 45.0663 31.5969 44.4726C31.8139 43.879 32.158 43.3399 32.6049 42.8929C33.0519 42.446 33.591 42.1019 34.1846 41.8849C34.7783 41.6678 35.4121 41.5828 36.042 41.636Z" fill="#B8BFFF"/>
<path id="Vector_33" d="M29.34 39.629C29.719 39.2478 30.0092 38.7876 30.1898 38.2813C30.3705 37.775 30.4371 37.235 30.385 36.7L30.404 36.718C30.3508 36.088 30.4357 35.4539 30.653 34.8601C30.8702 34.2663 31.2144 33.7271 31.6616 33.2801C32.1088 32.8331 32.6481 32.4891 33.242 32.2722C33.8359 32.0552 34.47 31.9705 35.1 32.024L35.081 32.006C35.8342 32.0766 36.5909 31.9131 37.2478 31.5378C37.9047 31.1626 38.4298 30.5939 38.7517 29.9092C39.0735 29.2246 39.1763 28.4573 39.0461 27.7121C38.9159 26.9669 38.5589 26.2799 38.024 25.745C37.4891 25.2101 36.8021 24.8531 36.0569 24.7229C35.3117 24.5927 34.5444 24.6955 33.8598 25.0173C33.1751 25.3392 32.6064 25.8643 32.2312 26.5212C31.8559 27.1781 31.6924 27.9348 31.763 28.688L31.745 28.67C31.7982 29.2999 31.7132 29.9337 31.4961 30.5274C31.279 31.121 30.935 31.6601 30.4881 32.1071C30.0411 32.554 29.502 32.8981 28.9083 33.1151C28.3147 33.3322 27.6808 33.4172 27.051 33.364L27.069 33.382C26.4536 33.3268 25.8342 33.4279 25.2682 33.6758C24.7022 33.9237 24.2079 34.3105 23.8312 34.8003C23.4545 35.29 23.2075 35.867 23.1132 36.4776C23.0188 37.0883 23.0801 37.7129 23.2914 38.2935C23.5026 38.8742 23.8571 39.3921 24.3218 39.7993C24.7865 40.2066 25.3465 40.4899 25.9499 40.6231C26.5533 40.7562 27.1805 40.7349 27.7735 40.5612C28.3664 40.3874 28.9059 40.0668 29.342 39.629H29.34Z" fill="#B8BFFF"/>
<path id="Vector_34" d="M60.317 29.655H63.287V44.108H60.317V29.655Z" fill="#B8BFFF"/>
<path id="Vector_35" d="M64.969 39.159C64.9649 38.1204 65.2691 37.1038 65.8431 36.2382C66.4171 35.3726 67.2351 34.6968 68.1935 34.2965C69.1519 33.8961 70.2075 33.7892 71.2267 33.9893C72.2459 34.1894 73.1828 34.6874 73.9187 35.4204C74.6546 36.1533 75.1564 37.0882 75.3606 38.1066C75.5648 39.125 75.4621 40.1811 75.0656 41.1411C74.6691 42.101 73.9966 42.9218 73.1333 43.4992C72.2699 44.0767 71.2547 44.385 70.216 44.385C69.5266 44.3929 68.8425 44.2632 68.2037 44.0036C67.5649 43.744 66.9843 43.3597 66.4958 42.8732C66.0072 42.3866 65.6206 41.8075 65.3585 41.1698C65.0963 40.5321 64.9639 39.8485 64.969 39.159ZM72.493 39.159C72.4806 38.7113 72.3365 38.2772 72.0788 37.9109C71.821 37.5447 71.461 37.2625 71.0438 37.0998C70.6265 36.937 70.1706 36.9008 69.7329 36.9958C69.2952 37.0908 68.8952 37.3126 68.5829 37.6337C68.2707 37.9547 68.0599 38.3607 67.9772 38.8009C67.8944 39.241 67.9431 39.6958 68.1174 40.1084C68.2917 40.521 68.5837 40.873 68.9569 41.1205C69.3302 41.368 69.7682 41.5 70.216 41.5C70.5227 41.5082 70.8278 41.4527 71.1121 41.3371C71.3963 41.2215 71.6535 41.0483 71.8674 40.8284C72.0813 40.6084 72.2474 40.3465 72.355 40.0592C72.4627 39.7719 72.5097 39.4654 72.493 39.159Z" fill="#B8BFFF"/>
<path id="Vector_36" d="M87.3 34.209V43.609C87.3 46.935 84.706 48.341 82.073 48.341C81.146 48.4104 80.2177 48.2231 79.39 47.7998C78.5624 47.3764 77.8673 46.7333 77.381 45.941L79.915 44.476C80.1194 44.889 80.4451 45.2297 80.8484 45.4526C81.2518 45.6754 81.7136 45.7698 82.172 45.723C82.465 45.7636 82.7634 45.7378 83.0451 45.6475C83.3267 45.5572 83.5845 45.4047 83.7993 45.2014C84.0141 44.998 84.1804 44.749 84.286 44.4726C84.3915 44.1963 84.4335 43.8998 84.409 43.605V42.7C84.0612 43.1255 83.6186 43.4636 83.1165 43.6871C82.6144 43.9106 82.067 44.0133 81.518 43.987C80.2118 43.9458 78.9729 43.398 78.0635 42.4594C77.1541 41.5209 76.6456 40.2653 76.6456 38.9585C76.6456 37.6517 77.1541 36.3961 78.0635 35.4576C78.9729 34.519 80.2118 33.9712 81.518 33.93C82.067 33.9037 82.6144 34.0064 83.1165 34.2299C83.6186 34.4534 84.0612 34.7915 84.409 35.217V34.207L87.3 34.209ZM84.41 38.96C84.43 38.4814 84.3062 38.0077 84.0547 37.6C83.8032 37.1922 83.4354 36.8691 82.9987 36.6722C82.562 36.4752 82.0764 36.4135 81.6043 36.4949C81.1322 36.5763 80.6953 36.7971 80.3497 37.129C80.0042 37.4608 79.7659 37.8884 79.6654 38.3568C79.565 38.8252 79.607 39.313 79.7862 39.7573C79.9653 40.2016 80.2733 40.5822 80.6705 40.85C81.0677 41.1178 81.536 41.2606 82.015 41.26C82.3271 41.2818 82.6402 41.238 82.9343 41.1314C83.2284 41.0248 83.4969 40.8577 83.7225 40.6411C83.9481 40.4244 84.1259 40.1629 84.2443 39.8733C84.3627 39.5838 84.4192 39.2727 84.41 38.96Z" fill="#B8BFFF"/>
<path id="Vector_37" d="M88.982 39.159C88.9779 38.1204 89.282 37.1038 89.8561 36.2382C90.4301 35.3726 91.2481 34.6968 92.2065 34.2965C93.1649 33.8961 94.2205 33.7892 95.2397 33.9893C96.2589 34.1894 97.1958 34.6874 97.9317 35.4204C98.6676 36.1533 99.1694 37.0882 99.3736 38.1066C99.5778 39.125 99.4751 40.1811 99.0786 41.1411C98.6821 42.101 98.0096 42.9218 97.1463 43.4992C96.2829 44.0767 95.2677 44.385 94.229 44.385C93.5396 44.3929 92.8554 44.2632 92.2167 44.0036C91.5779 43.744 90.9973 43.3597 90.5088 42.8732C90.0202 42.3866 89.6336 41.8075 89.3715 41.1698C89.1093 40.5321 88.9769 39.8485 88.982 39.159ZM96.506 39.159C96.4936 38.7113 96.3495 38.2772 96.0918 37.9109C95.834 37.5447 95.474 37.2625 95.0568 37.0998C94.6395 36.937 94.1835 36.9008 93.7459 36.9958C93.3082 37.0908 92.9082 37.3126 92.5959 37.6337C92.2837 37.9547 92.0729 38.3607 91.9901 38.8009C91.9073 39.241 91.9561 39.6958 92.1304 40.1084C92.3047 40.521 92.5967 40.873 92.9699 41.1205C93.3432 41.368 93.7811 41.5 94.229 41.5C94.5357 41.5082 94.8408 41.4527 95.125 41.3371C95.4093 41.2215 95.6665 41.0483 95.8804 40.8284C96.0943 40.6084 96.2604 40.3465 96.368 40.0592C96.4757 39.7719 96.5227 39.4654 96.506 39.159Z" fill="#B8BFFF"/>
<path id="Vector_38" d="M100.861 31.556C100.861 31.2035 100.965 30.859 101.161 30.566C101.357 30.2729 101.635 30.0445 101.961 29.9096C102.287 29.7748 102.645 29.7395 102.991 29.8082C103.336 29.877 103.654 30.0467 103.903 30.2959C104.152 30.5451 104.322 30.8627 104.391 31.2083C104.459 31.554 104.424 31.9123 104.289 32.2379C104.154 32.5635 103.926 32.8419 103.633 33.0377C103.34 33.2335 102.995 33.338 102.643 33.338C102.172 33.3333 101.721 33.1441 101.388 32.8109C101.055 32.4777 100.866 32.0271 100.861 31.556ZM101.161 34.209H104.132V44.109H101.157L101.161 34.209Z" fill="#B8BFFF"/>
<path id="Vector_39" d="M116.956 39.159C116.99 39.8133 116.895 40.4679 116.675 41.0852C116.456 41.7025 116.116 42.2703 115.677 42.756C115.237 43.2416 114.705 43.6356 114.113 43.9152C113.52 44.1947 112.878 44.3544 112.224 44.385C111.674 44.415 111.123 44.3222 110.613 44.1133C110.103 43.9043 109.646 43.5845 109.275 43.177V48.068H106.305V34.209H109.275V35.139C109.646 34.7318 110.104 34.4122 110.614 34.2035C111.124 33.9947 111.674 33.902 112.224 33.932C112.879 33.9625 113.521 34.1221 114.113 34.4017C114.706 34.6813 115.238 35.0753 115.677 35.5611C116.117 36.0469 116.457 36.6149 116.676 37.2324C116.895 37.8498 116.991 38.5046 116.956 39.159ZM113.986 39.159C113.974 38.6957 113.826 38.2461 113.56 37.8664C113.295 37.4868 112.923 37.194 112.491 37.0248C112.06 36.8555 111.588 36.8172 111.135 36.9148C110.682 37.0123 110.268 37.2413 109.944 37.5731C109.62 37.905 109.402 38.3248 109.316 38.7803C109.23 39.2357 109.28 39.7063 109.46 40.1334C109.64 40.5605 109.942 40.9249 110.328 41.1812C110.714 41.4374 111.167 41.5741 111.631 41.574C111.949 41.5882 112.267 41.5349 112.563 41.4177C112.859 41.3006 113.127 41.1221 113.349 40.8941C113.572 40.666 113.743 40.3936 113.853 40.0946C113.963 39.7956 114.008 39.4767 113.986 39.159Z" fill="#B8BFFF"/>
<path id="Vector_40" d="M126.121 41.138C126.121 43.415 124.142 44.385 122.004 44.385C121.14 44.4632 120.273 44.2806 119.514 43.8605C118.755 43.4405 118.14 42.8025 117.747 42.029L120.32 40.564C120.424 40.9215 120.648 41.2326 120.953 41.4451C121.259 41.6577 121.629 41.759 122 41.732C122.712 41.732 123.069 41.514 123.069 41.119C123.069 40.029 118.198 40.604 118.198 37.179C118.198 35.02 120.02 33.932 122.079 33.932C122.853 33.9075 123.619 34.0911 124.298 34.4636C124.977 34.8362 125.544 35.384 125.939 36.05L123.405 37.416C123.294 37.1567 123.109 36.9358 122.873 36.7809C122.637 36.626 122.361 36.544 122.079 36.545C121.564 36.545 121.247 36.745 121.247 37.099C121.251 38.228 126.121 37.475 126.121 41.138Z" fill="#B8BFFF"/>
<path id="Vector_41" d="M136.97 34.209V44.109H134V43.178C133.657 43.5888 133.222 43.9125 132.73 44.1225C132.238 44.3325 131.704 44.4228 131.17 44.386C129.17 44.386 127.47 42.961 127.47 40.286V34.209H130.44V39.851C130.415 40.0868 130.442 40.3252 130.519 40.5495C130.595 40.7739 130.72 40.9789 130.884 41.1502C131.048 41.3215 131.247 41.455 131.468 41.5415C131.688 41.628 131.925 41.6654 132.162 41.651C133.251 41.651 134.003 41.018 134.003 39.612V34.212L136.97 34.209Z" fill="#B8BFFF"/>
<path id="Vector_42" d="M154 38.03V44.108H151.03V38.287C151.03 37.297 150.555 36.664 149.605 36.664C148.615 36.664 148.06 37.357 148.06 38.525V44.108H145.091V38.287C145.091 37.297 144.616 36.664 143.665 36.664C142.675 36.664 142.121 37.357 142.121 38.525V44.108H139.151V34.208H142.121V35.118C142.429 34.7143 142.833 34.3941 143.296 34.1868C143.76 33.9794 144.268 33.8915 144.774 33.931C145.282 33.9061 145.788 34.0134 146.243 34.2423C146.697 34.4711 147.084 34.8139 147.367 35.237C147.696 34.7943 148.132 34.4423 148.634 34.2139C149.136 33.9855 149.688 33.8882 150.238 33.931C152.511 33.932 154 35.555 154 38.03Z" fill="#B8BFFF"/>
<path id="Vector_43" d="M156.512 34.148C157.729 34.148 158.716 33.1612 158.716 31.944C158.716 30.7268 157.729 29.74 156.512 29.74C155.295 29.74 154.308 30.7268 154.308 31.944C154.308 33.1612 155.295 34.148 156.512 34.148Z" fill="#B8BFFF"/>
</g>
</g>
<defs>
<linearGradient id="paint0_linear" x1="274.151" y1="157.003" x2="175.867" y2="246.258" gradientUnits="userSpaceOnUse">
<stop stop-color="white"/>
<stop offset="1" stop-color="white" stop-opacity="0"/>
</linearGradient>
<linearGradient id="paint1_linear" x1="324.892" y1="212.862" x2="226.609" y2="302.117" gradientUnits="userSpaceOnUse">
<stop stop-color="white"/>
<stop offset="1" stop-color="white" stop-opacity="0"/>
</linearGradient>
<linearGradient id="paint2_linear" x1="258.125" y1="169.782" x2="159.842" y2="259.036" gradientUnits="userSpaceOnUse">
<stop stop-color="white"/>
<stop offset="1" stop-color="white" stop-opacity="0"/>
</linearGradient>
<linearGradient id="paint3_linear" x1="308.867" y1="225.64" x2="210.584" y2="314.895" gradientUnits="userSpaceOnUse">
<stop stop-color="white"/>
<stop offset="1" stop-color="white" stop-opacity="0"/>
</linearGradient>
<linearGradient id="paint4_linear" x1="151.713" y1="305.008" x2="102.388" y2="343.528" gradientUnits="userSpaceOnUse">
<stop stop-color="white"/>
<stop offset="1" stop-color="white" stop-opacity="0"/>
</linearGradient>
<linearGradient id="paint5_linear" x1="220.878" y1="296.616" x2="233.266" y2="396.839" gradientUnits="userSpaceOnUse">
<stop stop-color="white"/>
<stop offset="1" stop-color="white" stop-opacity="0"/>
</linearGradient>
<linearGradient id="paint6_linear" x1="178.276" y1="200.127" x2="130.428" y2="282.81" gradientUnits="userSpaceOnUse">
<stop stop-color="white"/>
<stop offset="1" stop-color="white" stop-opacity="0"/>
</linearGradient>
<linearGradient id="paint7_linear" x1="201.81" y1="375.587" x2="187.436" y2="387.972" gradientUnits="userSpaceOnUse">
<stop stop-color="white"/>
<stop offset="1" stop-color="white" stop-opacity="0"/>
</linearGradient>
</defs>
</svg>
