<svg width="360" height="640" viewBox="0 0 360 640" fill="none" xmlns="http://www.w3.org/2000/svg">
<g id="login">
<rect width="360" height="640" fill="#000C7B"/>
<g id="Frame">
<path id="Vector" d="M101.312 122.285C100.681 122.921 100.198 123.688 99.897 124.531C99.5961 125.375 99.4848 126.275 99.5708 127.167L99.5409 127.137C99.6294 128.187 99.4879 129.243 99.1266 130.232C98.7653 131.222 98.1928 132.12 97.449 132.865C96.7051 133.61 95.8079 134.184 94.8198 134.545C93.8319 134.907 92.7769 135.049 91.7287 134.96L91.7587 134.99C90.5048 134.873 89.2454 135.146 88.1521 135.773C87.059 136.399 86.1853 137.347 85.6502 138.489C85.1152 139.631 84.9446 140.91 85.1619 142.152C85.3794 143.394 85.9741 144.539 86.865 145.43C87.7559 146.322 88.8996 146.916 90.1401 147.133C91.3809 147.349 92.6579 147.177 93.7974 146.64C94.9369 146.103 95.8833 145.228 96.5075 144.132C97.1318 143.037 97.4036 141.776 97.2857 140.52L97.3174 140.55C97.2288 139.5 97.3701 138.444 97.7314 137.454C98.0928 136.465 98.6654 135.567 99.4092 134.822C100.153 134.077 101.05 133.503 102.038 133.142C103.026 132.78 104.081 132.638 105.13 132.727L105.098 132.697C106.122 132.789 107.153 132.621 108.095 132.208C109.037 131.795 109.86 131.15 110.487 130.334C111.114 129.518 111.526 128.556 111.683 127.539C111.84 126.521 111.738 125.48 111.387 124.512C111.035 123.544 110.445 122.681 109.672 122.002C108.899 121.323 107.967 120.851 106.962 120.629C105.958 120.407 104.914 120.442 103.927 120.731C102.94 121.021 102.042 121.555 101.317 122.285H101.312Z" fill="#B8BFFF"/>
<path id="Vector_2" d="M89.0342 131.06L89.0026 131.03C89.8935 131.12 90.7932 131.01 91.6368 130.709C92.4803 130.408 93.2465 129.924 93.8799 129.29C94.5132 128.656 94.9982 127.889 95.2992 127.044C95.6005 126.2 95.7105 125.299 95.6214 124.407L95.6531 124.437C95.5645 123.387 95.706 122.331 96.0671 121.341C96.4284 120.352 97.0011 119.453 97.7449 118.708C98.4888 117.963 99.3861 117.39 100.374 117.028C101.362 116.666 102.417 116.525 103.465 116.613L103.434 116.583C104.688 116.701 105.947 116.429 107.041 115.804C108.135 115.178 109.009 114.23 109.545 113.089C110.081 111.947 110.253 110.668 110.036 109.425C109.819 108.183 109.225 107.038 108.334 106.146C107.444 105.254 106.3 104.659 105.059 104.442C103.819 104.225 102.541 104.396 101.401 104.933C100.261 105.469 99.3148 106.345 98.6902 107.441C98.0656 108.536 97.7937 109.798 97.9115 111.053L97.8815 111.022C97.9702 112.071 97.8291 113.128 97.468 114.118C97.1068 115.107 96.5341 116.006 95.7904 116.751C95.0464 117.496 94.149 118.069 93.161 118.431C92.1727 118.793 91.1177 118.934 90.0694 118.845L90.0993 118.877C89.2084 118.787 88.3086 118.896 87.4651 119.197C86.6216 119.498 85.8554 119.983 85.222 120.617C84.5886 121.251 84.1037 122.018 83.8025 122.862C83.5014 123.707 83.3914 124.608 83.4805 125.5L83.4505 125.47C83.5387 126.52 83.3971 127.576 83.0358 128.565C82.6743 129.555 82.1018 130.453 81.358 131.198C80.6142 131.943 79.7171 132.516 78.7292 132.878C77.7414 133.24 76.6865 133.382 75.6384 133.293L75.6683 133.323C74.4143 133.205 73.1545 133.478 72.0607 134.103C70.9669 134.729 70.0924 135.677 69.5565 136.818C69.0206 137.96 68.8493 139.239 69.066 140.481C69.2828 141.724 69.877 142.869 70.7676 143.761C71.6582 144.653 72.8019 145.248 74.0426 145.465C75.2834 145.682 76.5608 145.511 77.7006 144.974C78.8404 144.437 79.7872 143.562 80.4117 142.466C81.0363 141.371 81.3082 140.109 81.1904 138.853L81.222 138.883C81.1335 137.833 81.275 136.777 81.6363 135.788C81.9974 134.798 82.5701 133.9 83.3139 133.155C84.0578 132.41 84.955 131.837 85.9429 131.475C86.931 131.113 87.9859 130.971 89.0342 131.06Z" fill="#B8BFFF"/>
<path id="Vector_3" d="M77.8801 127.715C78.5109 127.08 78.9938 126.313 79.2945 125.469C79.5951 124.625 79.706 123.725 79.6193 122.833L79.6509 122.863C79.5623 121.813 79.7037 120.756 80.0652 119.767C80.4267 118.777 80.9996 117.878 81.7439 117.133C82.4882 116.389 83.3857 115.815 84.3741 115.454C85.3626 115.092 86.4179 114.951 87.4664 115.04L87.4348 115.01C88.6883 115.128 89.9477 114.855 91.0409 114.23C92.1342 113.604 93.0081 112.656 93.5439 111.515C94.0794 110.374 94.2505 109.096 94.0338 107.853C93.8171 106.611 93.223 105.467 92.3328 104.575C91.4425 103.683 90.2992 103.089 89.0589 102.872C87.8187 102.654 86.5417 102.826 85.4023 103.362C84.2628 103.899 83.3163 104.774 82.6919 105.869C82.0673 106.964 81.7952 108.225 81.9127 109.48L81.8827 109.45C81.9712 110.5 81.8298 111.556 81.4685 112.546C81.1071 113.535 80.5347 114.434 79.7908 115.178C79.0469 115.923 78.1497 116.497 77.1617 116.858C76.1737 117.22 75.1188 117.362 74.0705 117.273L74.1005 117.303C73.0762 117.211 72.0454 117.38 71.1034 117.793C70.1615 118.206 69.3389 118.851 68.7119 119.667C68.085 120.483 67.6739 121.445 67.5169 122.463C67.3598 123.48 67.4618 124.521 67.8134 125.489C68.165 126.457 68.7549 127.32 69.5284 127.999C70.3018 128.678 71.2338 129.15 72.238 129.372C73.2422 129.594 74.2861 129.558 75.2729 129.269C76.2598 128.979 77.1577 128.445 77.8834 127.715H77.8801Z" fill="#B8BFFF"/>
<path id="Vector_4" d="M129.435 111.092H134.378V135.18H129.435V111.092Z" fill="#B8BFFF"/>
<path id="Vector_5" d="M137.177 126.932C137.17 125.201 137.676 123.506 138.632 122.064C139.587 120.621 140.948 119.495 142.543 118.828C144.139 118.16 145.895 117.982 147.592 118.316C149.288 118.649 150.847 119.479 152.072 120.701C153.297 121.922 154.132 123.48 154.472 125.178C154.811 126.875 154.64 128.635 153.981 130.235C153.321 131.835 152.201 133.203 150.765 134.165C149.328 135.128 147.638 135.642 145.909 135.642C144.762 135.655 143.624 135.439 142.56 135.006C141.497 134.573 140.531 133.933 139.718 133.122C138.905 132.311 138.261 131.346 137.825 130.283C137.389 129.22 137.169 128.081 137.177 126.932ZM149.699 126.932C149.678 126.186 149.439 125.462 149.01 124.852C148.581 124.241 147.982 123.771 147.287 123.5C146.593 123.228 145.834 123.168 145.105 123.326C144.377 123.485 143.711 123.854 143.192 124.39C142.672 124.925 142.321 125.601 142.183 126.335C142.046 127.068 142.127 127.826 142.417 128.514C142.707 129.202 143.193 129.788 143.814 130.201C144.435 130.613 145.164 130.833 145.909 130.833C146.42 130.847 146.928 130.755 147.401 130.562C147.874 130.369 148.302 130.081 148.658 129.714C149.014 129.347 149.29 128.911 149.469 128.432C149.649 127.953 149.727 127.442 149.699 126.932Z" fill="#B8BFFF"/>
<path id="Vector_6" d="M174.342 118.682V134.348C174.342 139.892 170.025 142.235 165.643 142.235C164.1 142.351 162.555 142.038 161.178 141.333C159.8 140.627 158.643 139.555 157.834 138.235L162.051 135.793C162.392 136.482 162.934 137.049 163.605 137.421C164.276 137.792 165.045 137.95 165.808 137.872C166.295 137.939 166.792 137.896 167.261 137.746C167.729 137.595 168.158 137.341 168.516 137.002C168.873 136.663 169.15 136.248 169.326 135.788C169.502 135.327 169.571 134.833 169.531 134.342V132.833C168.952 133.542 168.215 134.106 167.38 134.478C166.544 134.851 165.633 135.022 164.719 134.978C162.545 134.91 160.483 133.997 158.97 132.432C157.456 130.868 156.61 128.775 156.61 126.597C156.61 124.419 157.456 122.327 158.97 120.763C160.483 119.198 162.545 118.285 164.719 118.217C165.633 118.173 166.544 118.344 167.38 118.716C168.215 119.089 168.952 119.652 169.531 120.362V118.678L174.342 118.682ZM169.532 126.6C169.566 125.802 169.36 125.013 168.941 124.333C168.522 123.654 167.91 123.115 167.184 122.787C166.457 122.459 165.649 122.356 164.863 122.491C164.077 122.627 163.35 122.995 162.775 123.548C162.2 124.101 161.803 124.814 161.636 125.595C161.469 126.375 161.539 127.188 161.837 127.929C162.135 128.669 162.648 129.304 163.309 129.75C163.97 130.196 164.749 130.434 165.546 130.433C166.066 130.47 166.587 130.397 167.076 130.219C167.566 130.041 168.013 129.763 168.388 129.402C168.764 129.041 169.06 128.605 169.257 128.122C169.454 127.64 169.548 127.121 169.532 126.6Z" fill="#B8BFFF"/>
<path id="Vector_7" d="M177.141 126.932C177.135 125.201 177.641 123.506 178.596 122.064C179.552 120.621 180.913 119.495 182.508 118.828C184.103 118.16 185.86 117.982 187.556 118.316C189.252 118.649 190.812 119.479 192.036 120.701C193.261 121.922 194.096 123.48 194.436 125.178C194.776 126.875 194.605 128.635 193.945 130.235C193.285 131.835 192.166 133.203 190.729 134.165C189.292 135.128 187.603 135.642 185.874 135.642C184.727 135.655 183.588 135.439 182.525 135.006C181.462 134.573 180.495 133.933 179.682 133.122C178.869 132.311 178.226 131.346 177.79 130.283C177.353 129.22 177.133 128.081 177.141 126.932ZM189.664 126.932C189.643 126.186 189.403 125.462 188.974 124.852C188.545 124.241 187.946 123.771 187.252 123.5C186.557 123.228 185.798 123.168 185.07 123.326C184.342 123.485 183.676 123.854 183.156 124.39C182.636 124.925 182.286 125.601 182.148 126.335C182.01 127.068 182.091 127.826 182.381 128.514C182.671 129.202 183.157 129.788 183.778 130.201C184.4 130.613 185.129 130.833 185.874 130.833C186.384 130.847 186.892 130.755 187.365 130.562C187.838 130.369 188.266 130.081 188.622 129.714C188.978 129.347 189.255 128.911 189.434 128.432C189.613 127.953 189.691 127.442 189.664 126.932Z" fill="#B8BFFF"/>
<path id="Vector_8" d="M196.911 114.26C196.911 113.673 197.085 113.098 197.411 112.61C197.737 112.122 198.2 111.741 198.742 111.516C199.284 111.291 199.881 111.232 200.456 111.347C201.031 111.462 201.56 111.745 201.974 112.16C202.389 112.575 202.672 113.104 202.786 113.681C202.9 114.257 202.842 114.854 202.617 115.397C202.393 115.939 202.013 116.403 201.525 116.729C201.037 117.056 200.464 117.23 199.877 117.23C199.093 117.222 198.343 116.907 197.789 116.351C197.234 115.796 196.919 115.045 196.911 114.26ZM197.411 118.682H202.355V135.182H197.404L197.411 118.682Z" fill="#B8BFFF"/>
<path id="Vector_9" d="M223.698 126.932C223.755 128.022 223.597 129.113 223.231 130.142C222.866 131.171 222.301 132.117 221.569 132.927C220.837 133.736 219.953 134.393 218.967 134.859C217.98 135.325 216.912 135.591 215.823 135.642C214.907 135.692 213.991 135.537 213.142 135.189C212.293 134.841 211.533 134.308 210.915 133.628V141.78H205.972V118.682H210.915V120.232C211.533 119.553 212.294 119.02 213.143 118.673C213.992 118.325 214.907 118.17 215.823 118.22C216.912 118.271 217.981 118.537 218.967 119.003C219.954 119.469 220.838 120.126 221.57 120.935C222.302 121.745 222.867 122.692 223.232 123.721C223.597 124.75 223.756 125.841 223.698 126.932ZM218.755 126.932C218.736 126.16 218.49 125.41 218.047 124.777C217.605 124.145 216.986 123.657 216.268 123.375C215.55 123.093 214.764 123.029 214.01 123.191C213.256 123.354 212.567 123.736 212.028 124.289C211.49 124.842 211.126 125.541 210.983 126.301C210.839 127.06 210.923 127.844 211.223 128.556C211.522 129.268 212.025 129.875 212.668 130.302C213.31 130.729 214.065 130.957 214.836 130.957C215.365 130.98 215.894 130.892 216.387 130.696C216.88 130.501 217.326 130.204 217.696 129.824C218.066 129.443 218.352 128.989 218.534 128.491C218.717 127.993 218.792 127.461 218.755 126.932Z" fill="#B8BFFF"/>
<path id="Vector_10" d="M238.951 130.23C238.951 134.025 235.658 135.642 232.1 135.642C230.662 135.772 229.218 135.468 227.955 134.768C226.692 134.068 225.668 133.004 225.015 131.715L229.297 129.273C229.47 129.869 229.842 130.388 230.351 130.742C230.86 131.096 231.475 131.265 232.093 131.22C233.278 131.22 233.872 130.857 233.872 130.198C233.872 128.382 225.765 129.34 225.765 123.632C225.765 120.033 228.798 118.22 232.224 118.22C233.512 118.179 234.787 118.485 235.917 119.106C237.047 119.727 237.991 120.64 238.648 121.75L234.431 124.027C234.246 123.595 233.939 123.226 233.546 122.968C233.153 122.71 232.694 122.573 232.224 122.575C231.367 122.575 230.84 122.908 230.84 123.498C230.846 125.38 238.951 124.125 238.951 130.23Z" fill="#B8BFFF"/>
<path id="Vector_11" d="M257.007 118.682V135.182H252.064V133.63C251.493 134.315 250.769 134.854 249.951 135.204C249.132 135.554 248.243 135.705 247.354 135.643C244.026 135.643 241.196 133.268 241.196 128.81V118.682H246.139V128.085C246.098 128.478 246.143 128.875 246.271 129.249C246.397 129.623 246.605 129.965 246.878 130.25C247.151 130.536 247.482 130.758 247.85 130.903C248.216 131.047 248.611 131.109 249.005 131.085C250.818 131.085 252.069 130.03 252.069 127.687V118.687L257.007 118.682Z" fill="#B8BFFF"/>
<path id="Vector_12" d="M285.35 125.05V135.18H280.407V125.478C280.407 123.828 279.617 122.773 278.035 122.773C276.388 122.773 275.464 123.928 275.464 125.875V135.18H270.523V125.478C270.523 123.828 269.732 122.773 268.15 122.773C266.502 122.773 265.58 123.928 265.58 125.875V135.18H260.637V118.68H265.58V120.197C266.093 119.524 266.765 118.99 267.535 118.645C268.308 118.299 269.153 118.152 269.995 118.218C270.841 118.177 271.683 118.356 272.44 118.737C273.196 119.118 273.84 119.69 274.311 120.395C274.858 119.657 275.584 119.07 276.419 118.69C277.255 118.309 278.174 118.147 279.089 118.218C282.872 118.22 285.35 120.925 285.35 125.05Z" fill="#B8BFFF"/>
<path id="Vector_13" d="M289.531 118.58C291.556 118.58 293.199 116.935 293.199 114.907C293.199 112.878 291.556 111.233 289.531 111.233C287.505 111.233 285.863 112.878 285.863 114.907C285.863 116.935 287.505 118.58 289.531 118.58Z" fill="#B8BFFF"/>
</g>
<path id="USERNAME / EMAIL" d="M38.38 261.12C37.8667 261.12 37.4033 261.02 36.99 260.82C36.5767 260.613 36.2467 260.303 36 259.89C35.76 259.477 35.64 258.953 35.64 258.32V254H36.92V258.33C36.92 258.877 37.05 259.283 37.31 259.55C37.5767 259.817 37.9433 259.95 38.41 259.95C38.87 259.95 39.2333 259.817 39.5 259.55C39.7667 259.283 39.9 258.877 39.9 258.33V254H41.18V258.32C41.18 258.953 41.0533 259.477 40.8 259.89C40.5467 260.303 40.2067 260.613 39.78 260.82C39.36 261.02 38.8933 261.12 38.38 261.12ZM44.8766 261.12C44.3633 261.12 43.91 261.033 43.5166 260.86C43.1233 260.68 42.8133 260.427 42.5866 260.1C42.36 259.767 42.2433 259.363 42.2366 258.89H43.5866C43.6 259.217 43.7166 259.493 43.9366 259.72C44.1633 259.94 44.4733 260.05 44.8666 260.05C45.2066 260.05 45.4766 259.97 45.6766 259.81C45.8766 259.643 45.9766 259.423 45.9766 259.15C45.9766 258.863 45.8866 258.64 45.7066 258.48C45.5333 258.32 45.3 258.19 45.0066 258.09C44.7133 257.99 44.4 257.883 44.0666 257.77C43.5266 257.583 43.1133 257.343 42.8266 257.05C42.5466 256.757 42.4066 256.367 42.4066 255.88C42.4 255.467 42.4966 255.113 42.6966 254.82C42.9033 254.52 43.1833 254.29 43.5366 254.13C43.89 253.963 44.2966 253.88 44.7566 253.88C45.2233 253.88 45.6333 253.963 45.9866 254.13C46.3466 254.297 46.6266 254.53 46.8266 254.83C47.0333 255.13 47.1433 255.487 47.1566 255.9H45.7866C45.78 255.653 45.6833 255.437 45.4966 255.25C45.3166 255.057 45.0633 254.96 44.7366 254.96C44.4566 254.953 44.22 255.023 44.0266 255.17C43.84 255.31 43.7466 255.517 43.7466 255.79C43.7466 256.023 43.82 256.21 43.9666 256.35C44.1133 256.483 44.3133 256.597 44.5666 256.69C44.82 256.783 45.11 256.883 45.4366 256.99C45.7833 257.11 46.1 257.25 46.3866 257.41C46.6733 257.57 46.9033 257.783 47.0766 258.05C47.25 258.31 47.3366 258.647 47.3366 259.06C47.3366 259.427 47.2433 259.767 47.0566 260.08C46.87 260.393 46.5933 260.647 46.2266 260.84C45.86 261.027 45.41 261.12 44.8766 261.12ZM48.4534 261V254H53.0234V255.03H49.7334V256.95H52.7234V257.95H49.7334V259.97H53.0234V261H48.4534ZM54.2347 261V254H56.8047C57.3647 254 57.8247 254.097 58.1847 254.29C58.5514 254.477 58.8247 254.733 59.0047 255.06C59.1847 255.38 59.2747 255.737 59.2747 256.13C59.2747 256.557 59.1614 256.947 58.9347 257.3C58.7147 257.653 58.368 257.91 57.8947 258.07L59.3447 261H57.8747L56.5747 258.24H55.5147V261H54.2347ZM55.5147 257.3H56.7247C57.1514 257.3 57.4647 257.197 57.6647 256.99C57.8647 256.783 57.9647 256.51 57.9647 256.17C57.9647 255.837 57.8647 255.57 57.6647 255.37C57.4714 255.17 57.1547 255.07 56.7147 255.07H55.5147V257.3ZM60.4652 261V254H61.7452L65.0352 258.93V254H66.3152V261H65.0352L61.7452 256.08V261H60.4652ZM67.2222 261L69.7822 254H71.2222L73.7822 261H72.4222L71.8622 259.38H69.1322L68.5622 261H67.2222ZM69.4822 258.38H71.5122L70.4922 255.47L69.4822 258.38ZM74.6839 261V254H76.2039L78.4339 258.44L80.6339 254H82.1539V261H80.8739V256.17L78.9239 260H77.9139L75.9639 256.17V261H74.6839ZM83.512 261V254H88.082V255.03H84.792V256.95H87.782V257.95H84.792V259.97H88.082V261H83.512ZM91.2261 262.11L93.7261 253.23H94.9761L92.4661 262.11H91.2261ZM98.2679 261V254H102.838V255.03H99.5479V256.95H102.538V257.95H99.5479V259.97H102.838V261H98.2679ZM104.049 261V254H105.569L107.799 258.44L109.999 254H111.519V261H110.239V256.17L108.289 260H107.279L105.329 256.17V261H104.049ZM112.427 261L114.987 254H116.427L118.987 261H117.627L117.067 259.38H114.337L113.767 261H112.427ZM114.687 258.38H116.717L115.697 255.47L114.687 258.38ZM119.889 261V254H121.169V261H119.889ZM122.526 261V254H123.806V260H126.906V261H122.526Z" fill="#B8BFFF"/>
<line id="Line 1" x1="35" y1="293.5" x2="326" y2="293.5" stroke="#ADB5FF"/>
<path id="melvinchia623600@gmail.com" d="M36.3735 284V277.056H37.6895L37.8155 278.036C38.0395 277.681 38.3335 277.401 38.6975 277.196C39.0709 276.991 39.5002 276.888 39.9855 276.888C41.0869 276.888 41.8522 277.322 42.2815 278.19C42.5335 277.789 42.8695 277.471 43.2895 277.238C43.7189 277.005 44.1809 276.888 44.6755 276.888C45.5435 276.888 46.2249 277.149 46.7195 277.672C47.2142 278.195 47.4615 278.974 47.4615 280.01V284H45.9775V280.164C45.9775 278.82 45.4642 278.148 44.4375 278.148C43.9149 278.148 43.4855 278.344 43.1495 278.736C42.8229 279.128 42.6595 279.688 42.6595 280.416V284H41.1755V280.164C41.1755 278.82 40.6575 278.148 39.6215 278.148C39.1082 278.148 38.6835 278.344 38.3475 278.736C38.0209 279.128 37.8575 279.688 37.8575 280.416V284H36.3735ZM52.4458 284.168C51.7644 284.168 51.1578 284.019 50.6258 283.72C50.1031 283.412 49.6924 282.987 49.3938 282.446C49.0951 281.905 48.9458 281.275 48.9458 280.556C48.9458 279.828 49.0904 279.189 49.3798 278.638C49.6784 278.087 50.0891 277.658 50.6118 277.35C51.1438 277.042 51.7598 276.888 52.4598 276.888C53.1411 276.888 53.7338 277.042 54.2378 277.35C54.7418 277.649 55.1338 278.05 55.4138 278.554C55.6938 279.058 55.8338 279.613 55.8338 280.22C55.8338 280.313 55.8291 280.416 55.8198 280.528C55.8198 280.631 55.8151 280.747 55.8058 280.878H50.4018C50.4484 281.55 50.6678 282.063 51.0598 282.418C51.4611 282.763 51.9231 282.936 52.4458 282.936C52.8658 282.936 53.2158 282.843 53.4958 282.656C53.7851 282.46 53.9998 282.199 54.1398 281.872H55.6238C55.4371 282.525 55.0638 283.071 54.5038 283.51C53.9531 283.949 53.2671 284.168 52.4458 284.168ZM52.4458 278.106C51.9511 278.106 51.5124 278.255 51.1298 278.554C50.7471 278.843 50.5138 279.282 50.4298 279.87H54.3498C54.3218 279.329 54.1304 278.899 53.7758 278.582C53.4211 278.265 52.9778 278.106 52.4458 278.106ZM57.3735 284V273.92H58.8575V284H57.3735ZM62.6828 284L60.0788 277.056H61.6328L63.5648 282.586L65.4968 277.056H67.0368L64.4468 284H62.6828ZM69.0964 275.74C68.8164 275.74 68.583 275.656 68.3964 275.488C68.219 275.311 68.1304 275.091 68.1304 274.83C68.1304 274.569 68.219 274.354 68.3964 274.186C68.583 274.009 68.8164 273.92 69.0964 273.92C69.3764 273.92 69.605 274.009 69.7824 274.186C69.969 274.354 70.0624 274.569 70.0624 274.83C70.0624 275.091 69.969 275.311 69.7824 275.488C69.605 275.656 69.3764 275.74 69.0964 275.74ZM68.3544 284V277.056H69.8384V284H68.3544ZM71.7974 284V277.056H73.1134L73.2254 278.274C73.44 277.845 73.7527 277.509 74.1634 277.266C74.5834 277.014 75.064 276.888 75.6054 276.888C76.4454 276.888 77.1034 277.149 77.5794 277.672C78.0647 278.195 78.3074 278.974 78.3074 280.01V284H76.8374V280.164C76.8374 278.82 76.2867 278.148 75.1854 278.148C74.6347 278.148 74.1774 278.344 73.8134 278.736C73.4587 279.128 73.2814 279.688 73.2814 280.416V284H71.7974ZM83.3452 284.168C82.6639 284.168 82.0525 284.014 81.5112 283.706C80.9792 283.398 80.5592 282.973 80.2512 282.432C79.9525 281.881 79.8032 281.247 79.8032 280.528C79.8032 279.809 79.9525 279.179 80.2512 278.638C80.5592 278.087 80.9792 277.658 81.5112 277.35C82.0525 277.042 82.6639 276.888 83.3452 276.888C84.2039 276.888 84.9225 277.112 85.5012 277.56C86.0892 278.008 86.4672 278.615 86.6352 279.38H85.0812C84.9879 278.997 84.7825 278.699 84.4652 278.484C84.1479 278.269 83.7745 278.162 83.3452 278.162C82.9812 278.162 82.6452 278.255 82.3372 278.442C82.0292 278.619 81.7819 278.885 81.5952 279.24C81.4085 279.585 81.3152 280.015 81.3152 280.528C81.3152 281.041 81.4085 281.475 81.5952 281.83C81.7819 282.175 82.0292 282.441 82.3372 282.628C82.6452 282.815 82.9812 282.908 83.3452 282.908C83.7745 282.908 84.1479 282.801 84.4652 282.586C84.7825 282.371 84.9879 282.068 85.0812 281.676H86.6352C86.4765 282.423 86.1032 283.025 85.5152 283.482C84.9272 283.939 84.2039 284.168 83.3452 284.168ZM88.2446 284V273.92H89.7286V278.176C89.962 277.775 90.284 277.462 90.6946 277.238C91.1146 277.005 91.5766 276.888 92.0806 276.888C92.9113 276.888 93.5646 277.149 94.0406 277.672C94.5166 278.195 94.7546 278.974 94.7546 280.01V284H93.2846V280.164C93.2846 278.82 92.748 278.148 91.6746 278.148C91.1146 278.148 90.648 278.344 90.2746 278.736C89.9106 279.128 89.7286 279.688 89.7286 280.416V284H88.2446ZM97.3425 275.74C97.0625 275.74 96.8291 275.656 96.6425 275.488C96.4651 275.311 96.3765 275.091 96.3765 274.83C96.3765 274.569 96.4651 274.354 96.6425 274.186C96.8291 274.009 97.0625 273.92 97.3425 273.92C97.6225 273.92 97.8511 274.009 98.0285 274.186C98.2151 274.354 98.3085 274.569 98.3085 274.83C98.3085 275.091 98.2151 275.311 98.0285 275.488C97.8511 275.656 97.6225 275.74 97.3425 275.74ZM96.6005 284V277.056H98.0845V284H96.6005ZM102.395 284.168C101.807 284.168 101.322 284.07 100.939 283.874C100.557 283.678 100.272 283.421 100.085 283.104C99.8988 282.777 99.8055 282.423 99.8055 282.04C99.8055 281.368 100.067 280.836 100.589 280.444C101.112 280.052 101.859 279.856 102.829 279.856H104.649V279.73C104.649 279.189 104.5 278.783 104.201 278.512C103.912 278.241 103.534 278.106 103.067 278.106C102.657 278.106 102.297 278.209 101.989 278.414C101.691 278.61 101.509 278.904 101.443 279.296H99.9595C100.006 278.792 100.174 278.363 100.463 278.008C100.762 277.644 101.135 277.369 101.583 277.182C102.041 276.986 102.54 276.888 103.081 276.888C104.052 276.888 104.803 277.145 105.335 277.658C105.867 278.162 106.133 278.853 106.133 279.73V284H104.845L104.719 282.81C104.523 283.193 104.239 283.515 103.865 283.776C103.492 284.037 103.002 284.168 102.395 284.168ZM102.689 282.964C103.091 282.964 103.427 282.871 103.697 282.684C103.977 282.488 104.192 282.231 104.341 281.914C104.5 281.597 104.598 281.247 104.635 280.864H102.983C102.395 280.864 101.975 280.967 101.723 281.172C101.481 281.377 101.359 281.634 101.359 281.942C101.359 282.259 101.476 282.511 101.709 282.698C101.952 282.875 102.279 282.964 102.689 282.964ZM111.518 284.168C110.799 284.168 110.192 284.033 109.698 283.762C109.203 283.491 108.802 283.132 108.494 282.684C108.195 282.236 107.98 281.732 107.85 281.172C107.719 280.612 107.654 280.038 107.654 279.45C107.654 278.367 107.803 277.42 108.102 276.608C108.41 275.796 108.848 275.166 109.418 274.718C109.987 274.261 110.678 274.032 111.49 274.032C112.134 274.032 112.684 274.158 113.142 274.41C113.599 274.662 113.954 274.998 114.206 275.418C114.467 275.838 114.626 276.295 114.682 276.79H113.296C113.212 276.305 113.011 275.931 112.694 275.67C112.376 275.409 111.97 275.278 111.476 275.278C110.794 275.278 110.23 275.6 109.782 276.244C109.343 276.879 109.11 277.859 109.082 279.184C109.306 278.773 109.651 278.423 110.118 278.134C110.594 277.845 111.14 277.7 111.756 277.7C112.306 277.7 112.82 277.831 113.296 278.092C113.781 278.353 114.173 278.722 114.472 279.198C114.78 279.665 114.934 280.22 114.934 280.864C114.934 281.433 114.794 281.97 114.514 282.474C114.234 282.978 113.837 283.389 113.324 283.706C112.82 284.014 112.218 284.168 111.518 284.168ZM111.434 282.88C111.826 282.88 112.176 282.796 112.484 282.628C112.792 282.46 113.034 282.231 113.212 281.942C113.389 281.643 113.478 281.307 113.478 280.934C113.478 280.337 113.282 279.861 112.89 279.506C112.507 279.151 112.017 278.974 111.42 278.974C111.028 278.974 110.673 279.063 110.356 279.24C110.048 279.417 109.805 279.655 109.628 279.954C109.45 280.243 109.362 280.565 109.362 280.92C109.362 281.303 109.45 281.643 109.628 281.942C109.814 282.231 110.062 282.46 110.37 282.628C110.687 282.796 111.042 282.88 111.434 282.88ZM116.31 284V282.936C116.944 282.432 117.551 281.923 118.13 281.41C118.708 280.897 119.222 280.393 119.67 279.898C120.127 279.394 120.486 278.904 120.748 278.428C121.009 277.943 121.14 277.476 121.14 277.028C121.14 276.729 121.088 276.449 120.986 276.188C120.883 275.917 120.715 275.703 120.482 275.544C120.248 275.376 119.936 275.292 119.544 275.292C118.956 275.292 118.512 275.479 118.214 275.852C117.924 276.225 117.784 276.673 117.794 277.196H116.352C116.361 276.505 116.506 275.927 116.786 275.46C117.075 274.993 117.458 274.639 117.934 274.396C118.419 274.153 118.965 274.032 119.572 274.032C120.496 274.032 121.233 274.293 121.784 274.816C122.344 275.329 122.624 276.048 122.624 276.972C122.624 277.523 122.488 278.069 122.218 278.61C121.956 279.151 121.611 279.674 121.182 280.178C120.762 280.673 120.309 281.139 119.824 281.578C119.338 282.017 118.876 282.413 118.438 282.768H122.918V284H116.31ZM127.653 284.168C127.019 284.168 126.44 284.056 125.917 283.832C125.404 283.599 124.993 283.249 124.685 282.782C124.377 282.315 124.214 281.732 124.195 281.032H125.665C125.684 281.555 125.861 281.998 126.197 282.362C126.543 282.717 127.028 282.894 127.653 282.894C128.251 282.894 128.708 282.731 129.025 282.404C129.343 282.068 129.501 281.653 129.501 281.158C129.501 280.561 129.287 280.117 128.857 279.828C128.437 279.539 127.919 279.394 127.303 279.394H126.575V278.162H127.317C127.868 278.162 128.311 278.031 128.647 277.77C128.993 277.509 129.165 277.14 129.165 276.664C129.165 276.263 129.03 275.936 128.759 275.684C128.498 275.432 128.125 275.306 127.639 275.306C127.135 275.306 126.739 275.455 126.449 275.754C126.16 276.043 126.001 276.407 125.973 276.846H124.503C124.522 276.277 124.662 275.782 124.923 275.362C125.194 274.942 125.563 274.615 126.029 274.382C126.496 274.149 127.033 274.032 127.639 274.032C128.293 274.032 128.839 274.149 129.277 274.382C129.725 274.606 130.061 274.914 130.285 275.306C130.519 275.689 130.635 276.109 130.635 276.566C130.635 277.089 130.491 277.546 130.201 277.938C129.912 278.33 129.525 278.591 129.039 278.722C129.599 278.843 130.061 279.119 130.425 279.548C130.789 279.968 130.971 280.514 130.971 281.186C130.971 281.727 130.845 282.227 130.593 282.684C130.341 283.132 129.968 283.491 129.473 283.762C128.979 284.033 128.372 284.168 127.653 284.168ZM136.401 284.168C135.682 284.168 135.075 284.033 134.581 283.762C134.086 283.491 133.685 283.132 133.377 282.684C133.078 282.236 132.863 281.732 132.733 281.172C132.602 280.612 132.537 280.038 132.537 279.45C132.537 278.367 132.686 277.42 132.985 276.608C133.293 275.796 133.731 275.166 134.301 274.718C134.87 274.261 135.561 274.032 136.373 274.032C137.017 274.032 137.567 274.158 138.025 274.41C138.482 274.662 138.837 274.998 139.089 275.418C139.35 275.838 139.509 276.295 139.565 276.79H138.179C138.095 276.305 137.894 275.931 137.577 275.67C137.259 275.409 136.853 275.278 136.359 275.278C135.677 275.278 135.113 275.6 134.665 276.244C134.226 276.879 133.993 277.859 133.965 279.184C134.189 278.773 134.534 278.423 135.001 278.134C135.477 277.845 136.023 277.7 136.639 277.7C137.189 277.7 137.703 277.831 138.179 278.092C138.664 278.353 139.056 278.722 139.355 279.198C139.663 279.665 139.817 280.22 139.817 280.864C139.817 281.433 139.677 281.97 139.397 282.474C139.117 282.978 138.72 283.389 138.207 283.706C137.703 284.014 137.101 284.168 136.401 284.168ZM136.317 282.88C136.709 282.88 137.059 282.796 137.367 282.628C137.675 282.46 137.917 282.231 138.095 281.942C138.272 281.643 138.361 281.307 138.361 280.934C138.361 280.337 138.165 279.861 137.773 279.506C137.39 279.151 136.9 278.974 136.303 278.974C135.911 278.974 135.556 279.063 135.239 279.24C134.931 279.417 134.688 279.655 134.511 279.954C134.333 280.243 134.245 280.565 134.245 280.92C134.245 281.303 134.333 281.643 134.511 281.942C134.697 282.231 134.945 282.46 135.253 282.628C135.57 282.796 135.925 282.88 136.317 282.88ZM145.568 284.168C144.682 284.168 143.916 283.958 143.272 283.538C142.638 283.109 142.148 282.516 141.802 281.76C141.466 280.995 141.298 280.108 141.298 279.1C141.298 278.092 141.466 277.21 141.802 276.454C142.148 275.689 142.638 275.096 143.272 274.676C143.916 274.247 144.682 274.032 145.568 274.032C146.455 274.032 147.216 274.247 147.85 274.676C148.485 275.096 148.97 275.689 149.306 276.454C149.652 277.21 149.824 278.092 149.824 279.1C149.824 280.108 149.652 280.995 149.306 281.76C148.97 282.516 148.485 283.109 147.85 283.538C147.216 283.958 146.455 284.168 145.568 284.168ZM145.568 282.838C146.1 282.838 146.572 282.689 146.982 282.39C147.402 282.091 147.729 281.662 147.962 281.102C148.196 280.542 148.312 279.875 148.312 279.1C148.312 278.325 148.196 277.658 147.962 277.098C147.729 276.538 147.402 276.109 146.982 275.81C146.572 275.511 146.1 275.362 145.568 275.362C145.027 275.362 144.551 275.511 144.14 275.81C143.73 276.109 143.408 276.538 143.174 277.098C142.941 277.658 142.824 278.325 142.824 279.1C142.824 279.875 142.941 280.542 143.174 281.102C143.408 281.662 143.73 282.091 144.14 282.39C144.551 282.689 145.027 282.838 145.568 282.838ZM155.398 284.168C154.512 284.168 153.746 283.958 153.102 283.538C152.468 283.109 151.978 282.516 151.632 281.76C151.296 280.995 151.128 280.108 151.128 279.1C151.128 278.092 151.296 277.21 151.632 276.454C151.978 275.689 152.468 275.096 153.102 274.676C153.746 274.247 154.512 274.032 155.398 274.032C156.285 274.032 157.046 274.247 157.68 274.676C158.315 275.096 158.8 275.689 159.136 276.454C159.482 277.21 159.654 278.092 159.654 279.1C159.654 280.108 159.482 280.995 159.136 281.76C158.8 282.516 158.315 283.109 157.68 283.538C157.046 283.958 156.285 284.168 155.398 284.168ZM155.398 282.838C155.93 282.838 156.402 282.689 156.812 282.39C157.232 282.091 157.559 281.662 157.792 281.102C158.026 280.542 158.142 279.875 158.142 279.1C158.142 278.325 158.026 277.658 157.792 277.098C157.559 276.538 157.232 276.109 156.812 275.81C156.402 275.511 155.93 275.362 155.398 275.362C154.857 275.362 154.381 275.511 153.97 275.81C153.56 276.109 153.238 276.538 153.004 277.098C152.771 277.658 152.654 278.325 152.654 279.1C152.654 279.875 152.771 280.542 153.004 281.102C153.238 281.662 153.56 282.091 153.97 282.39C154.381 282.689 154.857 282.838 155.398 282.838ZM166.432 286.884C165.415 286.884 164.524 286.688 163.758 286.296C163.002 285.904 162.41 285.349 161.98 284.63C161.56 283.921 161.35 283.081 161.35 282.11C161.35 281.093 161.528 280.15 161.882 279.282C162.237 278.414 162.736 277.653 163.38 277C164.024 276.347 164.78 275.843 165.648 275.488C166.516 275.124 167.468 274.942 168.504 274.942C169.568 274.942 170.488 275.143 171.262 275.544C172.037 275.945 172.634 276.505 173.054 277.224C173.484 277.943 173.698 278.769 173.698 279.702C173.698 280.253 173.628 280.789 173.488 281.312C173.348 281.835 173.143 282.306 172.872 282.726C172.611 283.137 172.284 283.468 171.892 283.72C171.51 283.963 171.066 284.084 170.562 284.084C170.086 284.084 169.713 283.972 169.442 283.748C169.181 283.515 169.022 283.202 168.966 282.81C168.686 283.211 168.327 283.524 167.888 283.748C167.459 283.972 166.997 284.084 166.502 284.084C165.802 284.084 165.252 283.874 164.85 283.454C164.458 283.025 164.262 282.446 164.262 281.718C164.262 281.205 164.342 280.715 164.5 280.248C164.659 279.772 164.888 279.352 165.186 278.988C165.485 278.615 165.835 278.321 166.236 278.106C166.647 277.891 167.1 277.784 167.594 277.784C168.5 277.784 169.092 278.143 169.372 278.862L169.54 277.938H170.772L170.1 281.802C170.035 282.185 170.049 282.497 170.142 282.74C170.236 282.973 170.446 283.09 170.772 283.09C171.062 283.09 171.314 282.987 171.528 282.782C171.752 282.577 171.934 282.311 172.074 281.984C172.224 281.657 172.336 281.303 172.41 280.92C172.485 280.528 172.522 280.145 172.522 279.772C172.522 278.587 172.154 277.658 171.416 276.986C170.679 276.305 169.652 275.964 168.336 275.964C167.506 275.964 166.736 276.123 166.026 276.44C165.317 276.748 164.701 277.177 164.178 277.728C163.656 278.269 163.25 278.904 162.96 279.632C162.671 280.36 162.526 281.144 162.526 281.984C162.526 283.207 162.895 284.154 163.632 284.826C164.37 285.507 165.378 285.848 166.656 285.848C167.067 285.848 167.473 285.806 167.874 285.722C168.285 285.638 168.668 285.517 169.022 285.358L169.26 286.338C168.402 286.702 167.459 286.884 166.432 286.884ZM166.964 282.978C167.328 282.978 167.664 282.88 167.972 282.684C168.28 282.479 168.532 282.203 168.728 281.858C168.924 281.503 169.041 281.102 169.078 280.654C169.125 280.169 169.032 279.753 168.798 279.408C168.565 279.063 168.196 278.89 167.692 278.89C167.263 278.89 166.89 279.016 166.572 279.268C166.255 279.52 166.012 279.842 165.844 280.234C165.676 280.626 165.592 281.041 165.592 281.48C165.592 281.928 165.704 282.292 165.928 282.572C166.162 282.843 166.507 282.978 166.964 282.978ZM178.518 281.872C178.154 281.872 177.818 281.83 177.51 281.746L176.908 282.334C177.011 282.399 177.137 282.455 177.286 282.502C177.436 282.549 177.646 282.591 177.916 282.628C178.187 282.665 178.556 282.703 179.022 282.74C179.946 282.824 180.614 283.048 181.024 283.412C181.435 283.767 181.64 284.243 181.64 284.84C181.64 285.251 181.528 285.638 181.304 286.002C181.09 286.375 180.749 286.674 180.282 286.898C179.825 287.131 179.237 287.248 178.518 287.248C177.548 287.248 176.759 287.061 176.152 286.688C175.555 286.324 175.256 285.769 175.256 285.022C175.256 284.733 175.331 284.443 175.48 284.154C175.639 283.874 175.886 283.608 176.222 283.356C176.026 283.272 175.854 283.183 175.704 283.09C175.564 282.987 175.438 282.885 175.326 282.782V282.446L176.53 281.214C175.989 280.747 175.718 280.136 175.718 279.38C175.718 278.923 175.826 278.507 176.04 278.134C176.264 277.751 176.586 277.448 177.006 277.224C177.426 277 177.93 276.888 178.518 276.888C178.91 276.888 179.274 276.944 179.61 277.056H182.2V278.036L180.968 278.106C181.192 278.489 181.304 278.913 181.304 279.38C181.304 279.847 181.192 280.267 180.968 280.64C180.754 281.013 180.436 281.312 180.016 281.536C179.606 281.76 179.106 281.872 178.518 281.872ZM178.518 280.71C178.948 280.71 179.293 280.598 179.554 280.374C179.825 280.141 179.96 279.814 179.96 279.394C179.96 278.965 179.825 278.638 179.554 278.414C179.293 278.19 178.948 278.078 178.518 278.078C178.08 278.078 177.725 278.19 177.454 278.414C177.193 278.638 177.062 278.965 177.062 279.394C177.062 279.814 177.193 280.141 177.454 280.374C177.725 280.598 178.08 280.71 178.518 280.71ZM176.656 284.882C176.656 285.283 176.834 285.582 177.188 285.778C177.543 285.983 177.986 286.086 178.518 286.086C179.032 286.086 179.447 285.974 179.764 285.75C180.082 285.535 180.24 285.246 180.24 284.882C180.24 284.611 180.133 284.378 179.918 284.182C179.704 283.995 179.298 283.879 178.7 283.832C178.252 283.804 177.856 283.762 177.51 283.706C177.184 283.883 176.96 284.075 176.838 284.28C176.717 284.485 176.656 284.686 176.656 284.882ZM183.524 284V277.056H184.84L184.966 278.036C185.19 277.681 185.484 277.401 185.848 277.196C186.221 276.991 186.651 276.888 187.136 276.888C188.237 276.888 189.003 277.322 189.432 278.19C189.684 277.789 190.02 277.471 190.44 277.238C190.869 277.005 191.331 276.888 191.826 276.888C192.694 276.888 193.375 277.149 193.87 277.672C194.365 278.195 194.612 278.974 194.612 280.01V284H193.128V280.164C193.128 278.82 192.615 278.148 191.588 278.148C191.065 278.148 190.636 278.344 190.3 278.736C189.973 279.128 189.81 279.688 189.81 280.416V284H188.326V280.164C188.326 278.82 187.808 278.148 186.772 278.148C186.259 278.148 185.834 278.344 185.498 278.736C185.171 279.128 185.008 279.688 185.008 280.416V284H183.524ZM198.7 284.168C198.112 284.168 197.627 284.07 197.244 283.874C196.861 283.678 196.577 283.421 196.39 283.104C196.203 282.777 196.11 282.423 196.11 282.04C196.11 281.368 196.371 280.836 196.894 280.444C197.417 280.052 198.163 279.856 199.134 279.856H200.954V279.73C200.954 279.189 200.805 278.783 200.506 278.512C200.217 278.241 199.839 278.106 199.372 278.106C198.961 278.106 198.602 278.209 198.294 278.414C197.995 278.61 197.813 278.904 197.748 279.296H196.264C196.311 278.792 196.479 278.363 196.768 278.008C197.067 277.644 197.44 277.369 197.888 277.182C198.345 276.986 198.845 276.888 199.386 276.888C200.357 276.888 201.108 277.145 201.64 277.658C202.172 278.162 202.438 278.853 202.438 279.73V284H201.15L201.024 282.81C200.828 283.193 200.543 283.515 200.17 283.776C199.797 284.037 199.307 284.168 198.7 284.168ZM198.994 282.964C199.395 282.964 199.731 282.871 200.002 282.684C200.282 282.488 200.497 282.231 200.646 281.914C200.805 281.597 200.903 281.247 200.94 280.864H199.288C198.7 280.864 198.28 280.967 198.028 281.172C197.785 281.377 197.664 281.634 197.664 281.942C197.664 282.259 197.781 282.511 198.014 282.698C198.257 282.875 198.583 282.964 198.994 282.964ZM205.008 275.74C204.728 275.74 204.495 275.656 204.308 275.488C204.131 275.311 204.042 275.091 204.042 274.83C204.042 274.569 204.131 274.354 204.308 274.186C204.495 274.009 204.728 273.92 205.008 273.92C205.288 273.92 205.517 274.009 205.694 274.186C205.881 274.354 205.974 274.569 205.974 274.83C205.974 275.091 205.881 275.311 205.694 275.488C205.517 275.656 205.288 275.74 205.008 275.74ZM204.266 284V277.056H205.75V284H204.266ZM207.709 284V273.92H209.193V284H207.709ZM211.661 284.084C211.381 284.084 211.147 283.995 210.961 283.818C210.783 283.631 210.695 283.412 210.695 283.16C210.695 282.899 210.783 282.679 210.961 282.502C211.147 282.315 211.381 282.222 211.661 282.222C211.941 282.222 212.169 282.315 212.347 282.502C212.524 282.679 212.613 282.899 212.613 283.16C212.613 283.412 212.524 283.631 212.347 283.818C212.169 283.995 211.941 284.084 211.661 284.084ZM217.398 284.168C216.717 284.168 216.105 284.014 215.564 283.706C215.032 283.398 214.612 282.973 214.304 282.432C214.005 281.881 213.856 281.247 213.856 280.528C213.856 279.809 214.005 279.179 214.304 278.638C214.612 278.087 215.032 277.658 215.564 277.35C216.105 277.042 216.717 276.888 217.398 276.888C218.257 276.888 218.975 277.112 219.554 277.56C220.142 278.008 220.52 278.615 220.688 279.38H219.134C219.041 278.997 218.835 278.699 218.518 278.484C218.201 278.269 217.827 278.162 217.398 278.162C217.034 278.162 216.698 278.255 216.39 278.442C216.082 278.619 215.835 278.885 215.648 279.24C215.461 279.585 215.368 280.015 215.368 280.528C215.368 281.041 215.461 281.475 215.648 281.83C215.835 282.175 216.082 282.441 216.39 282.628C216.698 282.815 217.034 282.908 217.398 282.908C217.827 282.908 218.201 282.801 218.518 282.586C218.835 282.371 219.041 282.068 219.134 281.676H220.688C220.529 282.423 220.156 283.025 219.568 283.482C218.98 283.939 218.257 284.168 217.398 284.168ZM225.545 284.168C224.883 284.168 224.285 284.019 223.753 283.72C223.231 283.412 222.815 282.987 222.507 282.446C222.199 281.895 222.045 281.256 222.045 280.528C222.045 279.8 222.199 279.165 222.507 278.624C222.825 278.073 223.249 277.649 223.781 277.35C224.313 277.042 224.906 276.888 225.559 276.888C226.222 276.888 226.815 277.042 227.337 277.35C227.869 277.649 228.289 278.073 228.597 278.624C228.915 279.165 229.073 279.8 229.073 280.528C229.073 281.256 228.915 281.895 228.597 282.446C228.289 282.987 227.869 283.412 227.337 283.72C226.805 284.019 226.208 284.168 225.545 284.168ZM225.545 282.894C225.9 282.894 226.227 282.805 226.525 282.628C226.833 282.451 227.081 282.189 227.267 281.844C227.454 281.489 227.547 281.051 227.547 280.528C227.547 280.005 227.454 279.571 227.267 279.226C227.09 278.871 226.847 278.605 226.539 278.428C226.241 278.251 225.914 278.162 225.559 278.162C225.205 278.162 224.873 278.251 224.565 278.428C224.267 278.605 224.024 278.871 223.837 279.226C223.651 279.571 223.557 280.005 223.557 280.528C223.557 281.051 223.651 281.489 223.837 281.844C224.024 282.189 224.267 282.451 224.565 282.628C224.864 282.805 225.191 282.894 225.545 282.894ZM230.678 284V277.056H231.994L232.12 278.036C232.344 277.681 232.638 277.401 233.002 277.196C233.376 276.991 233.805 276.888 234.29 276.888C235.392 276.888 236.157 277.322 236.586 278.19C236.838 277.789 237.174 277.471 237.594 277.238C238.024 277.005 238.486 276.888 238.98 276.888C239.848 276.888 240.53 277.149 241.024 277.672C241.519 278.195 241.766 278.974 241.766 280.01V284H240.282V280.164C240.282 278.82 239.769 278.148 238.742 278.148C238.22 278.148 237.79 278.344 237.454 278.736C237.128 279.128 236.964 279.688 236.964 280.416V284H235.48V280.164C235.48 278.82 234.962 278.148 233.926 278.148C233.413 278.148 232.988 278.344 232.652 278.736C232.326 279.128 232.162 279.688 232.162 280.416V284H230.678Z" fill="#B8BFFF"/>
<path id="PASSWORD" d="M36.0677 334V327H38.6577C39.2177 327 39.681 327.093 40.0477 327.28C40.4144 327.467 40.6877 327.723 40.8677 328.05C41.0477 328.377 41.1377 328.743 41.1377 329.15C41.1377 329.537 41.051 329.893 40.8777 330.22C40.7044 330.54 40.4344 330.8 40.0677 331C39.701 331.193 39.231 331.29 38.6577 331.29H37.3477V334H36.0677ZM37.3477 330.25H38.5777C39.0244 330.25 39.3444 330.153 39.5377 329.96C39.7377 329.76 39.8377 329.49 39.8377 329.15C39.8377 328.803 39.7377 328.533 39.5377 328.34C39.3444 328.14 39.0244 328.04 38.5777 328.04H37.3477V330.25ZM40.94 334L43.5 327H44.94L47.5 334H46.14L45.58 332.38H42.85L42.28 334H40.94ZM43.2 331.38H45.23L44.21 328.47L43.2 331.38ZM50.7917 334.12C50.2783 334.12 49.825 334.033 49.4317 333.86C49.0383 333.68 48.7283 333.427 48.5017 333.1C48.275 332.767 48.1583 332.363 48.1517 331.89H49.5017C49.515 332.217 49.6317 332.493 49.8517 332.72C50.0783 332.94 50.3883 333.05 50.7817 333.05C51.1217 333.05 51.3917 332.97 51.5917 332.81C51.7917 332.643 51.8917 332.423 51.8917 332.15C51.8917 331.863 51.8017 331.64 51.6217 331.48C51.4483 331.32 51.215 331.19 50.9217 331.09C50.6283 330.99 50.315 330.883 49.9817 330.77C49.4417 330.583 49.0283 330.343 48.7417 330.05C48.4617 329.757 48.3217 329.367 48.3217 328.88C48.315 328.467 48.4117 328.113 48.6117 327.82C48.8183 327.52 49.0983 327.29 49.4517 327.13C49.805 326.963 50.2117 326.88 50.6717 326.88C51.1383 326.88 51.5483 326.963 51.9017 327.13C52.2617 327.297 52.5417 327.53 52.7417 327.83C52.9483 328.13 53.0583 328.487 53.0717 328.9H51.7017C51.695 328.653 51.5983 328.437 51.4117 328.25C51.2317 328.057 50.9783 327.96 50.6517 327.96C50.3717 327.953 50.135 328.023 49.9417 328.17C49.755 328.31 49.6617 328.517 49.6617 328.79C49.6617 329.023 49.735 329.21 49.8817 329.35C50.0283 329.483 50.2283 329.597 50.4817 329.69C50.735 329.783 51.025 329.883 51.3517 329.99C51.6983 330.11 52.015 330.25 52.3017 330.41C52.5883 330.57 52.8183 330.783 52.9917 331.05C53.165 331.31 53.2517 331.647 53.2517 332.06C53.2517 332.427 53.1583 332.767 52.9717 333.08C52.785 333.393 52.5083 333.647 52.1417 333.84C51.775 334.027 51.325 334.12 50.7917 334.12ZM56.7585 334.12C56.2451 334.12 55.7918 334.033 55.3985 333.86C55.0051 333.68 54.6951 333.427 54.4685 333.1C54.2418 332.767 54.1251 332.363 54.1185 331.89H55.4685C55.4818 332.217 55.5985 332.493 55.8185 332.72C56.0451 332.94 56.3551 333.05 56.7485 333.05C57.0885 333.05 57.3585 332.97 57.5585 332.81C57.7585 332.643 57.8585 332.423 57.8585 332.15C57.8585 331.863 57.7685 331.64 57.5885 331.48C57.4151 331.32 57.1818 331.19 56.8885 331.09C56.5951 330.99 56.2818 330.883 55.9485 330.77C55.4085 330.583 54.9951 330.343 54.7085 330.05C54.4285 329.757 54.2885 329.367 54.2885 328.88C54.2818 328.467 54.3785 328.113 54.5785 327.82C54.7851 327.52 55.0651 327.29 55.4185 327.13C55.7718 326.963 56.1785 326.88 56.6385 326.88C57.1051 326.88 57.5151 326.963 57.8685 327.13C58.2285 327.297 58.5085 327.53 58.7085 327.83C58.9151 328.13 59.0251 328.487 59.0385 328.9H57.6685C57.6618 328.653 57.5651 328.437 57.3785 328.25C57.1985 328.057 56.9451 327.96 56.6185 327.96C56.3385 327.953 56.1018 328.023 55.9085 328.17C55.7218 328.31 55.6285 328.517 55.6285 328.79C55.6285 329.023 55.7018 329.21 55.8485 329.35C55.9951 329.483 56.1951 329.597 56.4485 329.69C56.7018 329.783 56.9918 329.883 57.3185 329.99C57.6651 330.11 57.9818 330.25 58.2685 330.41C58.5551 330.57 58.7851 330.783 58.9585 331.05C59.1318 331.31 59.2185 331.647 59.2185 332.06C59.2185 332.427 59.1251 332.767 58.9385 333.08C58.7518 333.393 58.4751 333.647 58.1085 333.84C57.7418 334.027 57.2918 334.12 56.7585 334.12ZM61.6674 334L59.8174 327H61.1874L62.4474 332.57L63.9274 327H65.3374L66.7774 332.57L68.0374 327H69.4174L67.5174 334H65.9974L64.6074 328.81L63.1774 334H61.6674ZM73.3223 334.12C72.6223 334.12 72.009 333.967 71.4823 333.66C70.9623 333.353 70.5523 332.93 70.2523 332.39C69.959 331.843 69.8123 331.213 69.8123 330.5C69.8123 329.787 69.959 329.16 70.2523 328.62C70.5523 328.073 70.9623 327.647 71.4823 327.34C72.009 327.033 72.6223 326.88 73.3223 326.88C74.0156 326.88 74.6256 327.033 75.1523 327.34C75.679 327.647 76.089 328.073 76.3823 328.62C76.6756 329.16 76.8223 329.787 76.8223 330.5C76.8223 331.213 76.6756 331.843 76.3823 332.39C76.089 332.93 75.679 333.353 75.1523 333.66C74.6256 333.967 74.0156 334.12 73.3223 334.12ZM73.3223 332.97C73.989 332.97 74.519 332.75 74.9123 332.31C75.3123 331.87 75.5123 331.267 75.5123 330.5C75.5123 329.733 75.3123 329.13 74.9123 328.69C74.519 328.25 73.989 328.03 73.3223 328.03C72.6556 328.03 72.1223 328.25 71.7223 328.69C71.3223 329.13 71.1223 329.733 71.1223 330.5C71.1223 331.267 71.3223 331.87 71.7223 332.31C72.1223 332.75 72.6556 332.97 73.3223 332.97ZM77.9525 334V327H80.5225C81.0825 327 81.5425 327.097 81.9025 327.29C82.2691 327.477 82.5425 327.733 82.7225 328.06C82.9025 328.38 82.9925 328.737 82.9925 329.13C82.9925 329.557 82.8791 329.947 82.6525 330.3C82.4325 330.653 82.0858 330.91 81.6125 331.07L83.0625 334H81.5925L80.2925 331.24H79.2325V334H77.9525ZM79.2325 330.3H80.4425C80.8691 330.3 81.1825 330.197 81.3825 329.99C81.5825 329.783 81.6825 329.51 81.6825 329.17C81.6825 328.837 81.5825 328.57 81.3825 328.37C81.1891 328.17 80.8725 328.07 80.4325 328.07H79.2325V330.3ZM84.1829 334V327H86.5729C87.3929 327 88.0663 327.147 88.5929 327.44C89.1263 327.727 89.5196 328.133 89.7729 328.66C90.0329 329.18 90.1629 329.793 90.1629 330.5C90.1629 331.207 90.0329 331.823 89.7729 332.35C89.5196 332.87 89.1263 333.277 88.5929 333.57C88.0663 333.857 87.3929 334 86.5729 334H84.1829ZM85.4629 332.9H86.5129C87.0996 332.9 87.5629 332.807 87.9029 332.62C88.2429 332.427 88.4863 332.153 88.6329 331.8C88.7796 331.44 88.8529 331.007 88.8529 330.5C88.8529 330 88.7796 329.57 88.6329 329.21C88.4863 328.85 88.2429 328.573 87.9029 328.38C87.5629 328.187 87.0996 328.09 86.5129 328.09H85.4629V332.9Z" fill="#B8BFFF"/>
<line id="Line 2" x1="35" y1="363.5" x2="326" y2="363.5" stroke="#ADB5FF"/>
<path id="&#226;&#128;&#162;&#226;&#128;&#162;&#226;&#128;&#162;&#226;&#128;&#162;&#226;&#128;&#162;&#226;&#128;&#162;&#226;&#128;&#162;&#226;&#128;&#162;&#226;&#128;&#162;&#226;&#128;&#162;&#226;&#128;&#162;&#226;&#128;&#162;&#226;&#128;&#162;&#226;&#128;&#162;&#226;&#128;&#162;" d="M38.0362 353.116C37.7096 353.116 37.4109 353.037 37.1402 352.878C36.8696 352.719 36.6502 352.509 36.4822 352.248C36.3236 351.977 36.2442 351.674 36.2442 351.338C36.2442 351.002 36.3236 350.699 36.4822 350.428C36.6502 350.157 36.8696 349.943 37.1402 349.784C37.4109 349.625 37.7096 349.546 38.0362 349.546C38.3722 349.546 38.6756 349.625 38.9462 349.784C39.2169 349.943 39.4316 350.157 39.5902 350.428C39.7489 350.699 39.8282 351.002 39.8282 351.338C39.8282 351.674 39.7489 351.977 39.5902 352.248C39.4316 352.509 39.2169 352.719 38.9462 352.878C38.6756 353.037 38.3722 353.116 38.0362 353.116ZM44.7442 353.116C44.4175 353.116 44.1189 353.037 43.8482 352.878C43.5775 352.719 43.3582 352.509 43.1902 352.248C43.0315 351.977 42.9522 351.674 42.9522 351.338C42.9522 351.002 43.0315 350.699 43.1902 350.428C43.3582 350.157 43.5775 349.943 43.8482 349.784C44.1189 349.625 44.4175 349.546 44.7442 349.546C45.0802 349.546 45.3835 349.625 45.6542 349.784C45.9249 349.943 46.1395 350.157 46.2982 350.428C46.4569 350.699 46.5362 351.002 46.5362 351.338C46.5362 351.674 46.4569 351.977 46.2982 352.248C46.1395 352.509 45.9249 352.719 45.6542 352.878C45.3835 353.037 45.0802 353.116 44.7442 353.116ZM51.4522 353.116C51.1255 353.116 50.8268 353.037 50.5562 352.878C50.2855 352.719 50.0662 352.509 49.8982 352.248C49.7395 351.977 49.6602 351.674 49.6602 351.338C49.6602 351.002 49.7395 350.699 49.8982 350.428C50.0662 350.157 50.2855 349.943 50.5562 349.784C50.8268 349.625 51.1255 349.546 51.4522 349.546C51.7882 349.546 52.0915 349.625 52.3622 349.784C52.6328 349.943 52.8475 350.157 53.0062 350.428C53.1648 350.699 53.2442 351.002 53.2442 351.338C53.2442 351.674 53.1648 351.977 53.0062 352.248C52.8475 352.509 52.6328 352.719 52.3622 352.878C52.0915 353.037 51.7882 353.116 51.4522 353.116ZM58.1601 353.116C57.8335 353.116 57.5348 353.037 57.2641 352.878C56.9935 352.719 56.7741 352.509 56.6061 352.248C56.4475 351.977 56.3681 351.674 56.3681 351.338C56.3681 351.002 56.4475 350.699 56.6061 350.428C56.7741 350.157 56.9935 349.943 57.2641 349.784C57.5348 349.625 57.8335 349.546 58.1601 349.546C58.4961 349.546 58.7995 349.625 59.0701 349.784C59.3408 349.943 59.5555 350.157 59.7141 350.428C59.8728 350.699 59.9521 351.002 59.9521 351.338C59.9521 351.674 59.8728 351.977 59.7141 352.248C59.5555 352.509 59.3408 352.719 59.0701 352.878C58.7995 353.037 58.4961 353.116 58.1601 353.116ZM64.8681 353.116C64.5414 353.116 64.2428 353.037 63.9721 352.878C63.7014 352.719 63.4821 352.509 63.3141 352.248C63.1554 351.977 63.0761 351.674 63.0761 351.338C63.0761 351.002 63.1554 350.699 63.3141 350.428C63.4821 350.157 63.7014 349.943 63.9721 349.784C64.2428 349.625 64.5414 349.546 64.8681 349.546C65.2041 349.546 65.5074 349.625 65.7781 349.784C66.0488 349.943 66.2634 350.157 66.4221 350.428C66.5808 350.699 66.6601 351.002 66.6601 351.338C66.6601 351.674 66.5808 351.977 66.4221 352.248C66.2634 352.509 66.0488 352.719 65.7781 352.878C65.5074 353.037 65.2041 353.116 64.8681 353.116ZM71.5761 353.116C71.2494 353.116 70.9507 353.037 70.6801 352.878C70.4094 352.719 70.1901 352.509 70.0221 352.248C69.8634 351.977 69.7841 351.674 69.7841 351.338C69.7841 351.002 69.8634 350.699 70.0221 350.428C70.1901 350.157 70.4094 349.943 70.6801 349.784C70.9507 349.625 71.2494 349.546 71.5761 349.546C71.9121 349.546 72.2154 349.625 72.4861 349.784C72.7567 349.943 72.9714 350.157 73.1301 350.428C73.2887 350.699 73.3681 351.002 73.3681 351.338C73.3681 351.674 73.2887 351.977 73.1301 352.248C72.9714 352.509 72.7567 352.719 72.4861 352.878C72.2154 353.037 71.9121 353.116 71.5761 353.116ZM78.284 353.116C77.9574 353.116 77.6587 353.037 77.388 352.878C77.1174 352.719 76.898 352.509 76.73 352.248C76.5714 351.977 76.492 351.674 76.492 351.338C76.492 351.002 76.5714 350.699 76.73 350.428C76.898 350.157 77.1174 349.943 77.388 349.784C77.6587 349.625 77.9574 349.546 78.284 349.546C78.62 349.546 78.9234 349.625 79.194 349.784C79.4647 349.943 79.6794 350.157 79.838 350.428C79.9967 350.699 80.076 351.002 80.076 351.338C80.076 351.674 79.9967 351.977 79.838 352.248C79.6794 352.509 79.4647 352.719 79.194 352.878C78.9234 353.037 78.62 353.116 78.284 353.116ZM84.992 353.116C84.6653 353.116 84.3667 353.037 84.096 352.878C83.8253 352.719 83.606 352.509 83.438 352.248C83.2793 351.977 83.2 351.674 83.2 351.338C83.2 351.002 83.2793 350.699 83.438 350.428C83.606 350.157 83.8253 349.943 84.096 349.784C84.3667 349.625 84.6653 349.546 84.992 349.546C85.328 349.546 85.6313 349.625 85.902 349.784C86.1727 349.943 86.3873 350.157 86.546 350.428C86.7047 350.699 86.784 351.002 86.784 351.338C86.784 351.674 86.7047 351.977 86.546 352.248C86.3873 352.509 86.1727 352.719 85.902 352.878C85.6313 353.037 85.328 353.116 84.992 353.116ZM91.7 353.116C91.3733 353.116 91.0747 353.037 90.804 352.878C90.5333 352.719 90.314 352.509 90.146 352.248C89.9873 351.977 89.908 351.674 89.908 351.338C89.908 351.002 89.9873 350.699 90.146 350.428C90.314 350.157 90.5333 349.943 90.804 349.784C91.0747 349.625 91.3733 349.546 91.7 349.546C92.036 349.546 92.3393 349.625 92.61 349.784C92.8807 349.943 93.0953 350.157 93.254 350.428C93.4127 350.699 93.492 351.002 93.492 351.338C93.492 351.674 93.4127 351.977 93.254 352.248C93.0953 352.509 92.8807 352.719 92.61 352.878C92.3393 353.037 92.036 353.116 91.7 353.116ZM98.408 353.116C98.0813 353.116 97.7826 353.037 97.512 352.878C97.2413 352.719 97.022 352.509 96.854 352.248C96.6953 351.977 96.616 351.674 96.616 351.338C96.616 351.002 96.6953 350.699 96.854 350.428C97.022 350.157 97.2413 349.943 97.512 349.784C97.7826 349.625 98.0813 349.546 98.408 349.546C98.744 349.546 99.0473 349.625 99.318 349.784C99.5886 349.943 99.8033 350.157 99.962 350.428C100.121 350.699 100.2 351.002 100.2 351.338C100.2 351.674 100.121 351.977 99.962 352.248C99.8033 352.509 99.5886 352.719 99.318 352.878C99.0473 353.037 98.744 353.116 98.408 353.116ZM105.116 353.116C104.789 353.116 104.491 353.037 104.22 352.878C103.949 352.719 103.73 352.509 103.562 352.248C103.403 351.977 103.324 351.674 103.324 351.338C103.324 351.002 103.403 350.699 103.562 350.428C103.73 350.157 103.949 349.943 104.22 349.784C104.491 349.625 104.789 349.546 105.116 349.546C105.452 349.546 105.755 349.625 106.026 349.784C106.297 349.943 106.511 350.157 106.67 350.428C106.829 350.699 106.908 351.002 106.908 351.338C106.908 351.674 106.829 351.977 106.67 352.248C106.511 352.509 106.297 352.719 106.026 352.878C105.755 353.037 105.452 353.116 105.116 353.116ZM111.824 353.116C111.497 353.116 111.199 353.037 110.928 352.878C110.657 352.719 110.438 352.509 110.27 352.248C110.111 351.977 110.032 351.674 110.032 351.338C110.032 351.002 110.111 350.699 110.27 350.428C110.438 350.157 110.657 349.943 110.928 349.784C111.199 349.625 111.497 349.546 111.824 349.546C112.16 349.546 112.463 349.625 112.734 349.784C113.005 349.943 113.219 350.157 113.378 350.428C113.537 350.699 113.616 351.002 113.616 351.338C113.616 351.674 113.537 351.977 113.378 352.248C113.219 352.509 113.005 352.719 112.734 352.878C112.463 353.037 112.16 353.116 111.824 353.116ZM118.532 353.116C118.205 353.116 117.907 353.037 117.636 352.878C117.365 352.719 117.146 352.509 116.978 352.248C116.819 351.977 116.74 351.674 116.74 351.338C116.74 351.002 116.819 350.699 116.978 350.428C117.146 350.157 117.365 349.943 117.636 349.784C117.907 349.625 118.205 349.546 118.532 349.546C118.868 349.546 119.171 349.625 119.442 349.784C119.713 349.943 119.927 350.157 120.086 350.428C120.245 350.699 120.324 351.002 120.324 351.338C120.324 351.674 120.245 351.977 120.086 352.248C119.927 352.509 119.713 352.719 119.442 352.878C119.171 353.037 118.868 353.116 118.532 353.116ZM125.24 353.116C124.913 353.116 124.614 353.037 124.344 352.878C124.073 352.719 123.854 352.509 123.686 352.248C123.527 351.977 123.448 351.674 123.448 351.338C123.448 351.002 123.527 350.699 123.686 350.428C123.854 350.157 124.073 349.943 124.344 349.784C124.614 349.625 124.913 349.546 125.24 349.546C125.576 349.546 125.879 349.625 126.15 349.784C126.42 349.943 126.635 350.157 126.794 350.428C126.952 350.699 127.032 351.002 127.032 351.338C127.032 351.674 126.952 351.977 126.794 352.248C126.635 352.509 126.42 352.719 126.15 352.878C125.879 353.037 125.576 353.116 125.24 353.116ZM131.948 353.116C131.621 353.116 131.322 353.037 131.052 352.878C130.781 352.719 130.562 352.509 130.394 352.248C130.235 351.977 130.156 351.674 130.156 351.338C130.156 351.002 130.235 350.699 130.394 350.428C130.562 350.157 130.781 349.943 131.052 349.784C131.322 349.625 131.621 349.546 131.948 349.546C132.284 349.546 132.587 349.625 132.858 349.784C133.128 349.943 133.343 350.157 133.502 350.428C133.66 350.699 133.74 351.002 133.74 351.338C133.74 351.674 133.66 351.977 133.502 352.248C133.343 352.509 133.128 352.719 132.858 352.878C132.587 353.037 132.284 353.116 131.948 353.116Z" fill="#B8BFFF"/>
<g id="carbon:view">
<path id="Vector_14" d="M325.47 351.83C324.882 350.309 323.861 348.993 322.533 348.046C321.206 347.099 319.63 346.561 318 346.5C316.37 346.561 314.794 347.099 313.467 348.046C312.139 348.993 311.118 350.309 310.53 351.83C310.49 351.94 310.49 352.06 310.53 352.17C311.118 353.691 312.139 355.007 313.467 355.954C314.794 356.901 316.37 357.439 318 357.5C319.63 357.439 321.206 356.901 322.533 355.954C323.861 355.007 324.882 353.691 325.47 352.17C325.51 352.06 325.51 351.94 325.47 351.83ZM318 356.5C315.35 356.5 312.55 354.535 311.535 352C312.55 349.465 315.35 347.5 318 347.5C320.65 347.5 323.45 349.465 324.465 352C323.45 354.535 320.65 356.5 318 356.5Z" fill="#B8BFFF"/>
<path id="Vector_15" d="M318 349C317.407 349 316.827 349.176 316.333 349.506C315.84 349.835 315.455 350.304 315.228 350.852C315.001 351.4 314.942 352.003 315.058 352.585C315.173 353.167 315.459 353.702 315.879 354.121C316.298 354.541 316.833 354.827 317.415 354.942C317.997 355.058 318.6 354.999 319.148 354.772C319.696 354.545 320.165 354.16 320.494 353.667C320.824 353.173 321 352.593 321 352C321 351.204 320.684 350.441 320.121 349.879C319.559 349.316 318.796 349 318 349ZM318 354C317.604 354 317.218 353.883 316.889 353.663C316.56 353.443 316.304 353.131 316.152 352.765C316.001 352.4 315.961 351.998 316.038 351.61C316.116 351.222 316.306 350.865 316.586 350.586C316.865 350.306 317.222 350.116 317.61 350.038C317.998 349.961 318.4 350.001 318.765 350.152C319.131 350.304 319.443 350.56 319.663 350.889C319.883 351.218 320 351.604 320 352C320 352.53 319.789 353.039 319.414 353.414C319.039 353.789 318.53 354 318 354Z" fill="#B8BFFF"/>
</g>
<path id="Forgot Password ?" d="M239.694 392V385H244.214V386.03H240.974V387.99H243.594V389H240.974V392H239.694ZM247.288 392.12C246.808 392.12 246.374 392.01 245.988 391.79C245.608 391.57 245.304 391.267 245.078 390.88C244.858 390.487 244.748 390.033 244.748 389.52C244.748 389.007 244.861 388.557 245.088 388.17C245.314 387.777 245.618 387.47 245.998 387.25C246.384 387.03 246.818 386.92 247.298 386.92C247.771 386.92 248.198 387.03 248.578 387.25C248.964 387.47 249.268 387.777 249.488 388.17C249.714 388.557 249.828 389.007 249.828 389.52C249.828 390.033 249.714 390.487 249.488 390.88C249.268 391.267 248.964 391.57 248.578 391.79C248.191 392.01 247.761 392.12 247.288 392.12ZM247.288 391.01C247.621 391.01 247.911 390.887 248.158 390.64C248.404 390.387 248.528 390.013 248.528 389.52C248.528 389.027 248.404 388.657 248.158 388.41C247.911 388.157 247.624 388.03 247.298 388.03C246.958 388.03 246.664 388.157 246.418 388.41C246.178 388.657 246.058 389.027 246.058 389.52C246.058 390.013 246.178 390.387 246.418 390.64C246.664 390.887 246.954 391.01 247.288 391.01ZM250.972 392V387.04H252.112L252.232 387.97C252.412 387.65 252.656 387.397 252.962 387.21C253.276 387.017 253.642 386.92 254.062 386.92V388.27H253.702C253.422 388.27 253.172 388.313 252.952 388.4C252.732 388.487 252.559 388.637 252.432 388.85C252.312 389.063 252.252 389.36 252.252 389.74V392H250.972ZM256.92 390.52C256.68 390.52 256.457 390.493 256.25 390.44L255.88 390.81C255.993 390.87 256.147 390.92 256.34 390.96C256.533 391 256.847 391.04 257.28 391.08C257.94 391.14 258.42 391.297 258.72 391.55C259.02 391.803 259.17 392.153 259.17 392.6C259.17 392.893 259.09 393.17 258.93 393.43C258.77 393.697 258.523 393.91 258.19 394.07C257.857 394.237 257.43 394.32 256.91 394.32C256.203 394.32 255.633 394.187 255.2 393.92C254.767 393.66 254.55 393.267 254.55 392.74C254.55 392.293 254.767 391.907 255.2 391.58C255.067 391.52 254.95 391.457 254.85 391.39C254.757 391.323 254.673 391.253 254.6 391.18V390.95L255.47 390.03C255.083 389.69 254.89 389.253 254.89 388.72C254.89 388.387 254.97 388.083 255.13 387.81C255.297 387.537 255.53 387.32 255.83 387.16C256.13 387 256.493 386.92 256.92 386.92C257.2 386.92 257.46 386.96 257.7 387.04H259.58V387.82L258.73 387.88C258.863 388.133 258.93 388.413 258.93 388.72C258.93 389.053 258.85 389.357 258.69 389.63C258.53 389.903 258.297 390.12 257.99 390.28C257.69 390.44 257.333 390.52 256.92 390.52ZM256.92 389.54C257.18 389.54 257.393 389.47 257.56 389.33C257.733 389.19 257.82 388.99 257.82 388.73C257.82 388.47 257.733 388.27 257.56 388.13C257.393 387.99 257.18 387.92 256.92 387.92C256.647 387.92 256.427 387.99 256.26 388.13C256.093 388.27 256.01 388.47 256.01 388.73C256.01 388.99 256.093 389.19 256.26 389.33C256.427 389.47 256.647 389.54 256.92 389.54ZM255.72 392.61C255.72 392.857 255.833 393.04 256.06 393.16C256.293 393.287 256.577 393.35 256.91 393.35C257.23 393.35 257.49 393.283 257.69 393.15C257.89 393.023 257.99 392.85 257.99 392.63C257.99 392.45 257.923 392.3 257.79 392.18C257.663 392.06 257.407 391.987 257.02 391.96C256.747 391.94 256.493 391.91 256.26 391.87C256.067 391.977 255.927 392.093 255.84 392.22C255.76 392.347 255.72 392.477 255.72 392.61ZM262.698 392.12C262.218 392.12 261.785 392.01 261.398 391.79C261.018 391.57 260.715 391.267 260.488 390.88C260.268 390.487 260.158 390.033 260.158 389.52C260.158 389.007 260.271 388.557 260.498 388.17C260.725 387.777 261.028 387.47 261.408 387.25C261.795 387.03 262.228 386.92 262.708 386.92C263.181 386.92 263.608 387.03 263.988 387.25C264.375 387.47 264.678 387.777 264.898 388.17C265.125 388.557 265.238 389.007 265.238 389.52C265.238 390.033 265.125 390.487 264.898 390.88C264.678 391.267 264.375 391.57 263.988 391.79C263.601 392.01 263.171 392.12 262.698 392.12ZM262.698 391.01C263.031 391.01 263.321 390.887 263.568 390.64C263.815 390.387 263.938 390.013 263.938 389.52C263.938 389.027 263.815 388.657 263.568 388.41C263.321 388.157 263.035 388.03 262.708 388.03C262.368 388.03 262.075 388.157 261.828 388.41C261.588 388.657 261.468 389.027 261.468 389.52C261.468 390.013 261.588 390.387 261.828 390.64C262.075 390.887 262.365 391.01 262.698 391.01ZM268.397 392C267.877 392 267.46 391.873 267.147 391.62C266.834 391.367 266.677 390.917 266.677 390.27V388.11H265.827V387.04H266.677L266.827 385.71H267.957V387.04H269.297V388.11H267.957V390.28C267.957 390.52 268.007 390.687 268.107 390.78C268.214 390.867 268.394 390.91 268.647 390.91H269.267V392H268.397ZM272.809 392V385H275.399C275.959 385 276.422 385.093 276.789 385.28C277.156 385.467 277.429 385.723 277.609 386.05C277.789 386.377 277.879 386.743 277.879 387.15C277.879 387.537 277.792 387.893 277.619 388.22C277.446 388.54 277.176 388.8 276.809 389C276.442 389.193 275.972 389.29 275.399 389.29H274.089V392H272.809ZM274.089 388.25H275.319C275.766 388.25 276.086 388.153 276.279 387.96C276.479 387.76 276.579 387.49 276.579 387.15C276.579 386.803 276.479 386.533 276.279 386.34C276.086 386.14 275.766 386.04 275.319 386.04H274.089V388.25ZM280.251 392.12C279.824 392.12 279.474 392.053 279.201 391.92C278.927 391.78 278.724 391.597 278.591 391.37C278.457 391.143 278.391 390.893 278.391 390.62C278.391 390.16 278.571 389.787 278.931 389.5C279.291 389.213 279.831 389.07 280.551 389.07H281.811V388.95C281.811 388.61 281.714 388.36 281.521 388.2C281.327 388.04 281.087 387.96 280.801 387.96C280.541 387.96 280.314 388.023 280.121 388.15C279.927 388.27 279.807 388.45 279.761 388.69H278.511C278.544 388.33 278.664 388.017 278.871 387.75C279.084 387.483 279.357 387.28 279.691 387.14C280.024 386.993 280.397 386.92 280.811 386.92C281.517 386.92 282.074 387.097 282.481 387.45C282.887 387.803 283.091 388.303 283.091 388.95V392H282.001L281.881 391.2C281.734 391.467 281.527 391.687 281.261 391.86C281.001 392.033 280.664 392.12 280.251 392.12ZM280.541 391.12C280.907 391.12 281.191 391 281.391 390.76C281.597 390.52 281.727 390.223 281.781 389.87H280.691C280.351 389.87 280.107 389.933 279.961 390.06C279.814 390.18 279.741 390.33 279.741 390.51C279.741 390.703 279.814 390.853 279.961 390.96C280.107 391.067 280.301 391.12 280.541 391.12ZM286.362 392.12C285.922 392.12 285.535 392.05 285.202 391.91C284.869 391.763 284.602 391.563 284.402 391.31C284.202 391.057 284.082 390.763 284.042 390.43H285.332C285.372 390.623 285.479 390.79 285.652 390.93C285.832 391.063 286.062 391.13 286.342 391.13C286.622 391.13 286.825 391.073 286.952 390.96C287.085 390.847 287.152 390.717 287.152 390.57C287.152 390.357 287.059 390.213 286.872 390.14C286.685 390.06 286.425 389.983 286.092 389.91C285.879 389.863 285.662 389.807 285.442 389.74C285.222 389.673 285.019 389.59 284.832 389.49C284.652 389.383 284.505 389.25 284.392 389.09C284.279 388.923 284.222 388.72 284.222 388.48C284.222 388.04 284.395 387.67 284.742 387.37C285.095 387.07 285.589 386.92 286.222 386.92C286.809 386.92 287.275 387.057 287.622 387.33C287.975 387.603 288.185 387.98 288.252 388.46H287.042C286.969 388.093 286.692 387.91 286.212 387.91C285.972 387.91 285.785 387.957 285.652 388.05C285.525 388.143 285.462 388.26 285.462 388.4C285.462 388.547 285.559 388.663 285.752 388.75C285.945 388.837 286.202 388.917 286.522 388.99C286.869 389.07 287.185 389.16 287.472 389.26C287.765 389.353 287.999 389.497 288.172 389.69C288.345 389.877 288.432 390.147 288.432 390.5C288.439 390.807 288.359 391.083 288.192 391.33C288.025 391.577 287.785 391.77 287.472 391.91C287.159 392.05 286.789 392.12 286.362 392.12ZM291.616 392.12C291.176 392.12 290.789 392.05 290.456 391.91C290.123 391.763 289.856 391.563 289.656 391.31C289.456 391.057 289.336 390.763 289.296 390.43H290.586C290.626 390.623 290.733 390.79 290.906 390.93C291.086 391.063 291.316 391.13 291.596 391.13C291.876 391.13 292.079 391.073 292.206 390.96C292.339 390.847 292.406 390.717 292.406 390.57C292.406 390.357 292.313 390.213 292.126 390.14C291.939 390.06 291.679 389.983 291.346 389.91C291.133 389.863 290.916 389.807 290.696 389.74C290.476 389.673 290.273 389.59 290.086 389.49C289.906 389.383 289.759 389.25 289.646 389.09C289.533 388.923 289.476 388.72 289.476 388.48C289.476 388.04 289.649 387.67 289.996 387.37C290.349 387.07 290.843 386.92 291.476 386.92C292.063 386.92 292.529 387.057 292.876 387.33C293.229 387.603 293.439 387.98 293.506 388.46H292.296C292.223 388.093 291.946 387.91 291.466 387.91C291.226 387.91 291.039 387.957 290.906 388.05C290.779 388.143 290.716 388.26 290.716 388.4C290.716 388.547 290.813 388.663 291.006 388.75C291.199 388.837 291.456 388.917 291.776 388.99C292.123 389.07 292.439 389.16 292.726 389.26C293.019 389.353 293.253 389.497 293.426 389.69C293.599 389.877 293.686 390.147 293.686 390.5C293.693 390.807 293.613 391.083 293.446 391.33C293.279 391.577 293.039 391.77 292.726 391.91C292.413 392.05 292.043 392.12 291.616 392.12ZM295.643 392L294.193 387.04H295.463L296.323 390.61L297.323 387.04H298.743L299.743 390.61L300.613 387.04H301.883L300.423 392H299.093L298.033 388.29L296.973 392H295.643ZM304.895 392.12C304.415 392.12 303.982 392.01 303.595 391.79C303.215 391.57 302.912 391.267 302.685 390.88C302.465 390.487 302.355 390.033 302.355 389.52C302.355 389.007 302.469 388.557 302.695 388.17C302.922 387.777 303.225 387.47 303.605 387.25C303.992 387.03 304.425 386.92 304.905 386.92C305.379 386.92 305.805 387.03 306.185 387.25C306.572 387.47 306.875 387.777 307.095 388.17C307.322 388.557 307.435 389.007 307.435 389.52C307.435 390.033 307.322 390.487 307.095 390.88C306.875 391.267 306.572 391.57 306.185 391.79C305.799 392.01 305.369 392.12 304.895 392.12ZM304.895 391.01C305.229 391.01 305.519 390.887 305.765 390.64C306.012 390.387 306.135 390.013 306.135 389.52C306.135 389.027 306.012 388.657 305.765 388.41C305.519 388.157 305.232 388.03 304.905 388.03C304.565 388.03 304.272 388.157 304.025 388.41C303.785 388.657 303.665 389.027 303.665 389.52C303.665 390.013 303.785 390.387 304.025 390.64C304.272 390.887 304.562 391.01 304.895 391.01ZM308.58 392V387.04H309.72L309.84 387.97C310.02 387.65 310.263 387.397 310.57 387.21C310.883 387.017 311.25 386.92 311.67 386.92V388.27H311.31C311.03 388.27 310.78 388.313 310.56 388.4C310.34 388.487 310.166 388.637 310.04 388.85C309.92 389.063 309.86 389.36 309.86 389.74V392H308.58ZM314.737 392.12C314.27 392.12 313.853 392.007 313.487 391.78C313.12 391.553 312.83 391.243 312.617 390.85C312.403 390.457 312.297 390.01 312.297 389.51C312.297 389.01 312.403 388.567 312.617 388.18C312.83 387.787 313.12 387.48 313.487 387.26C313.853 387.033 314.27 386.92 314.737 386.92C315.11 386.92 315.437 386.99 315.717 387.13C315.997 387.27 316.223 387.467 316.397 387.72V384.8H317.677V392H316.537L316.397 391.29C316.237 391.51 316.023 391.703 315.757 391.87C315.497 392.037 315.157 392.12 314.737 392.12ZM315.007 391C315.42 391 315.757 390.863 316.017 390.59C316.283 390.31 316.417 389.953 316.417 389.52C316.417 389.087 316.283 388.733 316.017 388.46C315.757 388.18 315.42 388.04 315.007 388.04C314.6 388.04 314.263 388.177 313.997 388.45C313.73 388.723 313.597 389.077 313.597 389.51C313.597 389.943 313.73 390.3 313.997 390.58C314.263 390.86 314.6 391 315.007 391ZM322.083 389.82L322.043 388.17H322.503C322.843 388.17 323.153 388.14 323.433 388.08C323.713 388.02 323.936 387.903 324.103 387.73C324.27 387.557 324.353 387.303 324.353 386.97C324.353 386.65 324.256 386.4 324.063 386.22C323.87 386.033 323.613 385.94 323.293 385.94C322.96 385.94 322.7 386.033 322.513 386.22C322.326 386.4 322.233 386.647 322.233 386.96H321.023C321.016 386.56 321.103 386.203 321.283 385.89C321.463 385.577 321.723 385.33 322.063 385.15C322.41 384.97 322.823 384.88 323.303 384.88C323.75 384.88 324.143 384.963 324.483 385.13C324.83 385.297 325.1 385.537 325.293 385.85C325.493 386.157 325.593 386.533 325.593 386.98C325.593 387.44 325.49 387.82 325.283 388.12C325.083 388.42 324.806 388.643 324.453 388.79C324.106 388.937 323.703 389.013 323.243 389.02L323.213 389.82H322.083ZM322.653 392.07C322.42 392.07 322.226 391.997 322.073 391.85C321.926 391.703 321.853 391.527 321.853 391.32C321.853 391.107 321.926 390.927 322.073 390.78C322.226 390.633 322.42 390.56 322.653 390.56C322.886 390.56 323.076 390.633 323.223 390.78C323.37 390.927 323.443 391.107 323.443 391.32C323.443 391.527 323.37 391.703 323.223 391.85C323.076 391.997 322.886 392.07 322.653 392.07Z" fill="#B8BFFF"/>
<path id="OR CONNECT WITH" d="M137.319 488.12C136.619 488.12 136.006 487.967 135.479 487.66C134.959 487.353 134.549 486.93 134.249 486.39C133.956 485.843 133.809 485.213 133.809 484.5C133.809 483.787 133.956 483.16 134.249 482.62C134.549 482.073 134.959 481.647 135.479 481.34C136.006 481.033 136.619 480.88 137.319 480.88C138.013 480.88 138.623 481.033 139.149 481.34C139.676 481.647 140.086 482.073 140.379 482.62C140.673 483.16 140.819 483.787 140.819 484.5C140.819 485.213 140.673 485.843 140.379 486.39C140.086 486.93 139.676 487.353 139.149 487.66C138.623 487.967 138.013 488.12 137.319 488.12ZM137.319 486.97C137.986 486.97 138.516 486.75 138.909 486.31C139.309 485.87 139.509 485.267 139.509 484.5C139.509 483.733 139.309 483.13 138.909 482.69C138.516 482.25 137.986 482.03 137.319 482.03C136.653 482.03 136.119 482.25 135.719 482.69C135.319 483.13 135.119 483.733 135.119 484.5C135.119 485.267 135.319 485.87 135.719 486.31C136.119 486.75 136.653 486.97 137.319 486.97ZM141.95 488V481H144.52C145.08 481 145.54 481.097 145.9 481.29C146.266 481.477 146.54 481.733 146.72 482.06C146.9 482.38 146.99 482.737 146.99 483.13C146.99 483.557 146.876 483.947 146.65 484.3C146.43 484.653 146.083 484.91 145.61 485.07L147.06 488H145.59L144.29 485.24H143.23V488H141.95ZM143.23 484.3H144.44C144.866 484.3 145.18 484.197 145.38 483.99C145.58 483.783 145.68 483.51 145.68 483.17C145.68 482.837 145.58 482.57 145.38 482.37C145.186 482.17 144.87 482.07 144.43 482.07H143.23V484.3ZM153.733 488.12C153.026 488.12 152.419 487.97 151.913 487.67C151.406 487.363 151.016 486.94 150.743 486.4C150.469 485.853 150.333 485.223 150.333 484.51C150.333 483.797 150.469 483.167 150.743 482.62C151.016 482.073 151.406 481.647 151.913 481.34C152.419 481.033 153.026 480.88 153.733 480.88C154.573 480.88 155.259 481.09 155.793 481.51C156.333 481.923 156.669 482.507 156.803 483.26H155.393C155.306 482.88 155.119 482.583 154.833 482.37C154.553 482.15 154.179 482.04 153.713 482.04C153.066 482.04 152.559 482.26 152.193 482.7C151.826 483.14 151.643 483.743 151.643 484.51C151.643 485.277 151.826 485.88 152.193 486.32C152.559 486.753 153.066 486.97 153.713 486.97C154.179 486.97 154.553 486.87 154.833 486.67C155.119 486.463 155.306 486.18 155.393 485.82H156.803C156.669 486.54 156.333 487.103 155.793 487.51C155.259 487.917 154.573 488.12 153.733 488.12ZM161.216 488.12C160.516 488.12 159.903 487.967 159.376 487.66C158.856 487.353 158.446 486.93 158.146 486.39C157.853 485.843 157.706 485.213 157.706 484.5C157.706 483.787 157.853 483.16 158.146 482.62C158.446 482.073 158.856 481.647 159.376 481.34C159.903 481.033 160.516 480.88 161.216 480.88C161.909 480.88 162.519 481.033 163.046 481.34C163.573 481.647 163.983 482.073 164.276 482.62C164.569 483.16 164.716 483.787 164.716 484.5C164.716 485.213 164.569 485.843 164.276 486.39C163.983 486.93 163.573 487.353 163.046 487.66C162.519 487.967 161.909 488.12 161.216 488.12ZM161.216 486.97C161.883 486.97 162.413 486.75 162.806 486.31C163.206 485.87 163.406 485.267 163.406 484.5C163.406 483.733 163.206 483.13 162.806 482.69C162.413 482.25 161.883 482.03 161.216 482.03C160.549 482.03 160.016 482.25 159.616 482.69C159.216 483.13 159.016 483.733 159.016 484.5C159.016 485.267 159.216 485.87 159.616 486.31C160.016 486.75 160.549 486.97 161.216 486.97ZM165.846 488V481H167.126L170.416 485.93V481H171.696V488H170.416L167.126 483.08V488H165.846ZM173.053 488V481H174.333L177.623 485.93V481H178.903V488H177.623L174.333 483.08V488H173.053ZM180.26 488V481H184.83V482.03H181.54V483.95H184.53V484.95H181.54V486.97H184.83V488H180.26ZM189.211 488.12C188.505 488.12 187.898 487.97 187.391 487.67C186.885 487.363 186.495 486.94 186.221 486.4C185.948 485.853 185.811 485.223 185.811 484.51C185.811 483.797 185.948 483.167 186.221 482.62C186.495 482.073 186.885 481.647 187.391 481.34C187.898 481.033 188.505 480.88 189.211 480.88C190.051 480.88 190.738 481.09 191.271 481.51C191.811 481.923 192.148 482.507 192.281 483.26H190.871C190.785 482.88 190.598 482.583 190.311 482.37C190.031 482.15 189.658 482.04 189.191 482.04C188.545 482.04 188.038 482.26 187.671 482.7C187.305 483.14 187.121 483.743 187.121 484.51C187.121 485.277 187.305 485.88 187.671 486.32C188.038 486.753 188.545 486.97 189.191 486.97C189.658 486.97 190.031 486.87 190.311 486.67C190.598 486.463 190.785 486.18 190.871 485.82H192.281C192.148 486.54 191.811 487.103 191.271 487.51C190.738 487.917 190.051 488.12 189.211 488.12ZM194.956 488V482.03H192.916V481H198.286V482.03H196.236V488H194.956ZM203.038 488L201.188 481H202.558L203.818 486.57L205.298 481H206.708L208.148 486.57L209.408 481H210.788L208.888 488H207.368L205.978 482.81L204.548 488H203.038ZM211.715 488V481H212.995V488H211.715ZM215.982 488V482.03H213.942V481H219.312V482.03H217.262V488H215.982ZM220.26 488V481H221.54V483.91H224.68V481H225.96V488H224.68V484.95H221.54V488H220.26Z" fill="#B8BFFF"/>
<g id="Rectangle 2" filter="url(#filter0_d)">
<rect x="35" y="512" width="291" height="37" rx="18.5" fill="#FF4F4F"/>
</g>
<g id="Group 6">
<g id="Rectangle 1" filter="url(#filter1_d)">
<rect x="35" y="417" width="291" height="37" rx="18.5" fill="#B8BFFF"/>
</g>
<path id="LOGIN" d="M158.249 441V430.5H160.169V439.5H164.819V441H158.249ZM170.479 441.18C169.429 441.18 168.509 440.95 167.719 440.49C166.939 440.03 166.324 439.395 165.874 438.585C165.434 437.765 165.214 436.82 165.214 435.75C165.214 434.68 165.434 433.74 165.874 432.93C166.324 432.11 166.939 431.47 167.719 431.01C168.509 430.55 169.429 430.32 170.479 430.32C171.519 430.32 172.434 430.55 173.224 431.01C174.014 431.47 174.629 432.11 175.069 432.93C175.509 433.74 175.729 434.68 175.729 435.75C175.729 436.82 175.509 437.765 175.069 438.585C174.629 439.395 174.014 440.03 173.224 440.49C172.434 440.95 171.519 441.18 170.479 441.18ZM170.479 439.455C171.479 439.455 172.274 439.125 172.864 438.465C173.464 437.805 173.764 436.9 173.764 435.75C173.764 434.6 173.464 433.695 172.864 433.035C172.274 432.375 171.479 432.045 170.479 432.045C169.479 432.045 168.679 432.375 168.079 433.035C167.479 433.695 167.179 434.6 167.179 435.75C167.179 436.9 167.479 437.805 168.079 438.465C168.679 439.125 169.479 439.455 170.479 439.455ZM182.014 441.18C181.024 441.18 180.159 440.955 179.419 440.505C178.679 440.055 178.104 439.43 177.694 438.63C177.284 437.82 177.079 436.88 177.079 435.81C177.079 434.73 177.289 433.78 177.709 432.96C178.139 432.13 178.744 431.485 179.524 431.025C180.314 430.555 181.249 430.32 182.329 430.32C183.559 430.32 184.579 430.615 185.389 431.205C186.199 431.795 186.724 432.61 186.964 433.65H184.819C184.659 433.16 184.369 432.78 183.949 432.51C183.529 432.23 182.989 432.09 182.329 432.09C181.279 432.09 180.469 432.425 179.899 433.095C179.329 433.755 179.044 434.665 179.044 435.825C179.044 436.985 179.324 437.885 179.884 438.525C180.454 439.155 181.224 439.47 182.194 439.47C183.144 439.47 183.859 439.215 184.339 438.705C184.829 438.185 185.124 437.505 185.224 436.665H182.569V435.225H187.159V441H185.389L185.239 439.62C184.899 440.12 184.474 440.505 183.964 440.775C183.454 441.045 182.804 441.18 182.014 441.18ZM189.025 441V430.5H190.945V441H189.025ZM192.98 441V430.5H194.9L199.835 437.895V430.5H201.755V441H199.835L194.9 433.62V441H192.98Z" fill="#000C7B"/>
</g>
<line id="Line 3" x1="34" y1="484.5" x2="125" y2="484.5" stroke="#ADB5FF"/>
<line id="Line 4" x1="235" y1="484.5" x2="326" y2="484.5" stroke="#ADB5FF"/>
<g id="Group 4">
<g id="Rectangle 3" filter="url(#filter2_d)">
<rect x="35" y="512" width="291" height="37" rx="18.5" fill="#FF4F4F"/>
</g>
<path id="Google" d="M163.754 535.18C162.764 535.18 161.899 534.955 161.159 534.505C160.419 534.055 159.844 533.43 159.434 532.63C159.024 531.82 158.819 530.88 158.819 529.81C158.819 528.73 159.029 527.78 159.449 526.96C159.879 526.13 160.484 525.485 161.264 525.025C162.054 524.555 162.989 524.32 164.069 524.32C165.299 524.32 166.319 524.615 167.129 525.205C167.939 525.795 168.464 526.61 168.704 527.65H166.559C166.399 527.16 166.109 526.78 165.689 526.51C165.269 526.23 164.729 526.09 164.069 526.09C163.019 526.09 162.209 526.425 161.639 527.095C161.069 527.755 160.784 528.665 160.784 529.825C160.784 530.985 161.064 531.885 161.624 532.525C162.194 533.155 162.964 533.47 163.934 533.47C164.884 533.47 165.599 533.215 166.079 532.705C166.569 532.185 166.864 531.505 166.964 530.665H164.309V529.225H168.899V535H167.129L166.979 533.62C166.639 534.12 166.214 534.505 165.704 534.775C165.194 535.045 164.544 535.18 163.754 535.18ZM174.29 535.18C173.57 535.18 172.92 535.015 172.34 534.685C171.77 534.355 171.315 533.9 170.975 533.32C170.645 532.73 170.48 532.05 170.48 531.28C170.48 530.51 170.65 529.835 170.99 529.255C171.33 528.665 171.785 528.205 172.355 527.875C172.935 527.545 173.585 527.38 174.305 527.38C175.015 527.38 175.655 527.545 176.225 527.875C176.805 528.205 177.26 528.665 177.59 529.255C177.93 529.835 178.1 530.51 178.1 531.28C178.1 532.05 177.93 532.73 177.59 533.32C177.26 533.9 176.805 534.355 176.225 534.685C175.645 535.015 175 535.18 174.29 535.18ZM174.29 533.515C174.79 533.515 175.225 533.33 175.595 532.96C175.965 532.58 176.15 532.02 176.15 531.28C176.15 530.54 175.965 529.985 175.595 529.615C175.225 529.235 174.795 529.045 174.305 529.045C173.795 529.045 173.355 529.235 172.985 529.615C172.625 529.985 172.445 530.54 172.445 531.28C172.445 532.02 172.625 532.58 172.985 532.96C173.355 533.33 173.79 533.515 174.29 533.515ZM183.387 535.18C182.667 535.18 182.017 535.015 181.437 534.685C180.867 534.355 180.412 533.9 180.072 533.32C179.742 532.73 179.577 532.05 179.577 531.28C179.577 530.51 179.747 529.835 180.087 529.255C180.427 528.665 180.882 528.205 181.452 527.875C182.032 527.545 182.682 527.38 183.402 527.38C184.112 527.38 184.752 527.545 185.322 527.875C185.902 528.205 186.357 528.665 186.687 529.255C187.027 529.835 187.197 530.51 187.197 531.28C187.197 532.05 187.027 532.73 186.687 533.32C186.357 533.9 185.902 534.355 185.322 534.685C184.742 535.015 184.097 535.18 183.387 535.18ZM183.387 533.515C183.887 533.515 184.322 533.33 184.692 532.96C185.062 532.58 185.247 532.02 185.247 531.28C185.247 530.54 185.062 529.985 184.692 529.615C184.322 529.235 183.892 529.045 183.402 529.045C182.892 529.045 182.452 529.235 182.082 529.615C181.722 529.985 181.542 530.54 181.542 531.28C181.542 532.02 181.722 532.58 182.082 532.96C182.452 533.33 182.887 533.515 183.387 533.515ZM191.595 532.78C191.235 532.78 190.9 532.74 190.59 532.66L190.035 533.215C190.205 533.305 190.435 533.38 190.725 533.44C191.015 533.5 191.485 533.56 192.135 533.62C193.125 533.71 193.845 533.945 194.295 534.325C194.745 534.705 194.97 535.23 194.97 535.9C194.97 536.34 194.85 536.755 194.61 537.145C194.37 537.545 194 537.865 193.5 538.105C193 538.355 192.36 538.48 191.58 538.48C190.52 538.48 189.665 538.28 189.015 537.88C188.365 537.49 188.04 536.9 188.04 536.11C188.04 535.44 188.365 534.86 189.015 534.37C188.815 534.28 188.64 534.185 188.49 534.085C188.35 533.985 188.225 533.88 188.115 533.77V533.425L189.42 532.045C188.84 531.535 188.55 530.88 188.55 530.08C188.55 529.58 188.67 529.125 188.91 528.715C189.16 528.305 189.51 527.98 189.96 527.74C190.41 527.5 190.955 527.38 191.595 527.38C192.015 527.38 192.405 527.44 192.765 527.56H195.585V528.73L194.31 528.82C194.51 529.2 194.61 529.62 194.61 530.08C194.61 530.58 194.49 531.035 194.25 531.445C194.01 531.855 193.66 532.18 193.2 532.42C192.75 532.66 192.215 532.78 191.595 532.78ZM191.595 531.31C191.985 531.31 192.305 531.205 192.555 530.995C192.815 530.785 192.945 530.485 192.945 530.095C192.945 529.705 192.815 529.405 192.555 529.195C192.305 528.985 191.985 528.88 191.595 528.88C191.185 528.88 190.855 528.985 190.605 529.195C190.355 529.405 190.23 529.705 190.23 530.095C190.23 530.485 190.355 530.785 190.605 530.995C190.855 531.205 191.185 531.31 191.595 531.31ZM189.795 535.915C189.795 536.285 189.965 536.56 190.305 536.74C190.655 536.93 191.08 537.025 191.58 537.025C192.06 537.025 192.45 536.925 192.75 536.725C193.05 536.535 193.2 536.275 193.2 535.945C193.2 535.675 193.1 535.45 192.9 535.27C192.71 535.09 192.325 534.98 191.745 534.94C191.335 534.91 190.955 534.865 190.605 534.805C190.315 534.965 190.105 535.14 189.975 535.33C189.855 535.52 189.795 535.715 189.795 535.915ZM196.985 535V524.2H198.905V535H196.985ZM204.482 535.18C203.732 535.18 203.067 535.02 202.487 534.7C201.907 534.38 201.452 533.93 201.122 533.35C200.792 532.77 200.627 532.1 200.627 531.34C200.627 530.57 200.787 529.885 201.107 529.285C201.437 528.685 201.887 528.22 202.457 527.89C203.037 527.55 203.717 527.38 204.497 527.38C205.227 527.38 205.872 527.54 206.432 527.86C206.992 528.18 207.427 528.62 207.737 529.18C208.057 529.73 208.217 530.345 208.217 531.025C208.217 531.135 208.212 531.25 208.202 531.37C208.202 531.49 208.197 531.615 208.187 531.745H202.532C202.572 532.325 202.772 532.78 203.132 533.11C203.502 533.44 203.947 533.605 204.467 533.605C204.857 533.605 205.182 533.52 205.442 533.35C205.712 533.17 205.912 532.94 206.042 532.66H207.992C207.852 533.13 207.617 533.56 207.287 533.95C206.967 534.33 206.567 534.63 206.087 534.85C205.617 535.07 205.082 535.18 204.482 535.18ZM204.497 528.94C204.027 528.94 203.612 529.075 203.252 529.345C202.892 529.605 202.662 530.005 202.562 530.545H206.267C206.237 530.055 206.057 529.665 205.727 529.375C205.397 529.085 204.987 528.94 204.497 528.94Z" fill="white"/>
<g id="ant-design:google-outlined">
<path id="Vector_16" d="M62.9278 529.505H55.1655V532.695H59.5998C59.4086 533.726 58.8286 534.599 57.9541 535.183C57.2151 535.677 56.2719 535.969 55.1633 535.969C53.017 535.969 51.2016 534.519 50.5528 532.571C50.3895 532.076 50.295 531.548 50.295 531.004C50.295 530.461 50.3895 529.932 50.5528 529.438C51.2037 527.492 53.0192 526.041 55.1655 526.041C56.375 526.041 57.46 526.458 58.3151 527.275L60.6784 524.909C59.2496 523.577 57.387 522.761 55.1655 522.761C51.945 522.761 49.1584 524.608 47.8028 527.303C47.2442 528.415 46.9262 529.674 46.9262 531.006C46.9262 532.338 47.2442 533.595 47.8028 534.708C49.1584 537.402 51.945 539.25 55.1655 539.25C57.3912 539.25 59.2561 538.511 60.6182 537.252C62.1758 535.817 63.076 533.703 63.076 531.191C63.076 530.607 63.0245 530.046 62.9278 529.505Z" fill="white"/>
</g>
</g>
<g id="Group 5">
<g id="Rectangle 3_2" filter="url(#filter3_d)">
<rect x="35" y="557" width="291" height="37" rx="18.5" fill="#4D5EFF"/>
</g>
<path id="Facebook" d="M151.144 580V569.5H157.924V571.045H153.064V573.985H156.994V575.5H153.064V580H151.144ZM161.296 580.18C160.656 580.18 160.131 580.08 159.721 579.88C159.311 579.67 159.006 579.395 158.806 579.055C158.606 578.715 158.506 578.34 158.506 577.93C158.506 577.24 158.776 576.68 159.316 576.25C159.856 575.82 160.666 575.605 161.746 575.605H163.636V575.425C163.636 574.915 163.491 574.54 163.201 574.3C162.911 574.06 162.551 573.94 162.121 573.94C161.731 573.94 161.391 574.035 161.101 574.225C160.811 574.405 160.631 574.675 160.561 575.035H158.686C158.736 574.495 158.916 574.025 159.226 573.625C159.546 573.225 159.956 572.92 160.456 572.71C160.956 572.49 161.516 572.38 162.136 572.38C163.196 572.38 164.031 572.645 164.641 573.175C165.251 573.705 165.556 574.455 165.556 575.425V580H163.921L163.741 578.8C163.521 579.2 163.211 579.53 162.811 579.79C162.421 580.05 161.916 580.18 161.296 580.18ZM161.731 578.68C162.281 578.68 162.706 578.5 163.006 578.14C163.316 577.78 163.511 577.335 163.591 576.805H161.956C161.446 576.805 161.081 576.9 160.861 577.09C160.641 577.27 160.531 577.495 160.531 577.765C160.531 578.055 160.641 578.28 160.861 578.44C161.081 578.6 161.371 578.68 161.731 578.68ZM171.033 580.18C170.273 580.18 169.603 580.015 169.023 579.685C168.443 579.355 167.983 578.895 167.643 578.305C167.313 577.715 167.148 577.04 167.148 576.28C167.148 575.52 167.313 574.845 167.643 574.255C167.983 573.665 168.443 573.205 169.023 572.875C169.603 572.545 170.273 572.38 171.033 572.38C171.983 572.38 172.783 572.63 173.433 573.13C174.083 573.62 174.498 574.3 174.678 575.17H172.653C172.553 574.81 172.353 574.53 172.053 574.33C171.763 574.12 171.418 574.015 171.018 574.015C170.488 574.015 170.038 574.215 169.668 574.615C169.298 575.015 169.113 575.57 169.113 576.28C169.113 576.99 169.298 577.545 169.668 577.945C170.038 578.345 170.488 578.545 171.018 578.545C171.418 578.545 171.763 578.445 172.053 578.245C172.353 578.045 172.553 577.76 172.653 577.39H174.678C174.498 578.23 174.083 578.905 173.433 579.415C172.783 579.925 171.983 580.18 171.033 580.18ZM179.997 580.18C179.247 580.18 178.582 580.02 178.002 579.7C177.422 579.38 176.967 578.93 176.637 578.35C176.307 577.77 176.142 577.1 176.142 576.34C176.142 575.57 176.302 574.885 176.622 574.285C176.952 573.685 177.402 573.22 177.972 572.89C178.552 572.55 179.232 572.38 180.012 572.38C180.742 572.38 181.387 572.54 181.947 572.86C182.507 573.18 182.942 573.62 183.252 574.18C183.572 574.73 183.732 575.345 183.732 576.025C183.732 576.135 183.727 576.25 183.717 576.37C183.717 576.49 183.712 576.615 183.702 576.745H178.047C178.087 577.325 178.287 577.78 178.647 578.11C179.017 578.44 179.462 578.605 179.982 578.605C180.372 578.605 180.697 578.52 180.957 578.35C181.227 578.17 181.427 577.94 181.557 577.66H183.507C183.367 578.13 183.132 578.56 182.802 578.95C182.482 579.33 182.082 579.63 181.602 579.85C181.132 580.07 180.597 580.18 179.997 580.18ZM180.012 573.94C179.542 573.94 179.127 574.075 178.767 574.345C178.407 574.605 178.177 575.005 178.077 575.545H181.782C181.752 575.055 181.572 574.665 181.242 574.375C180.912 574.085 180.502 573.94 180.012 573.94ZM189.757 580.18C189.197 580.18 188.707 580.075 188.287 579.865C187.867 579.655 187.527 579.36 187.267 578.98L187.057 580H185.347V569.2H187.267V573.625C187.507 573.295 187.822 573.005 188.212 572.755C188.612 572.505 189.127 572.38 189.757 572.38C190.457 572.38 191.082 572.55 191.632 572.89C192.182 573.23 192.617 573.695 192.937 574.285C193.257 574.875 193.417 575.545 193.417 576.295C193.417 577.045 193.257 577.715 192.937 578.305C192.617 578.885 192.182 579.345 191.632 579.685C191.082 580.015 190.457 580.18 189.757 580.18ZM189.352 578.5C189.962 578.5 190.467 578.295 190.867 577.885C191.267 577.475 191.467 576.945 191.467 576.295C191.467 575.645 191.267 575.11 190.867 574.69C190.467 574.27 189.962 574.06 189.352 574.06C188.732 574.06 188.222 574.27 187.822 574.69C187.432 575.1 187.237 575.63 187.237 576.28C187.237 576.93 187.432 577.465 187.822 577.885C188.222 578.295 188.732 578.5 189.352 578.5ZM198.702 580.18C197.982 580.18 197.332 580.015 196.752 579.685C196.182 579.355 195.727 578.9 195.387 578.32C195.057 577.73 194.892 577.05 194.892 576.28C194.892 575.51 195.062 574.835 195.402 574.255C195.742 573.665 196.197 573.205 196.767 572.875C197.347 572.545 197.997 572.38 198.717 572.38C199.427 572.38 200.067 572.545 200.637 572.875C201.217 573.205 201.672 573.665 202.002 574.255C202.342 574.835 202.512 575.51 202.512 576.28C202.512 577.05 202.342 577.73 202.002 578.32C201.672 578.9 201.217 579.355 200.637 579.685C200.057 580.015 199.412 580.18 198.702 580.18ZM198.702 578.515C199.202 578.515 199.637 578.33 200.007 577.96C200.377 577.58 200.562 577.02 200.562 576.28C200.562 575.54 200.377 574.985 200.007 574.615C199.637 574.235 199.207 574.045 198.717 574.045C198.207 574.045 197.767 574.235 197.397 574.615C197.037 574.985 196.857 575.54 196.857 576.28C196.857 577.02 197.037 577.58 197.397 577.96C197.767 578.33 198.202 578.515 198.702 578.515ZM207.799 580.18C207.079 580.18 206.429 580.015 205.849 579.685C205.279 579.355 204.824 578.9 204.484 578.32C204.154 577.73 203.989 577.05 203.989 576.28C203.989 575.51 204.159 574.835 204.499 574.255C204.839 573.665 205.294 573.205 205.864 572.875C206.444 572.545 207.094 572.38 207.814 572.38C208.524 572.38 209.164 572.545 209.734 572.875C210.314 573.205 210.769 573.665 211.099 574.255C211.439 574.835 211.609 575.51 211.609 576.28C211.609 577.05 211.439 577.73 211.099 578.32C210.769 578.9 210.314 579.355 209.734 579.685C209.154 580.015 208.509 580.18 207.799 580.18ZM207.799 578.515C208.299 578.515 208.734 578.33 209.104 577.96C209.474 577.58 209.659 577.02 209.659 576.28C209.659 575.54 209.474 574.985 209.104 574.615C208.734 574.235 208.304 574.045 207.814 574.045C207.304 574.045 206.864 574.235 206.494 574.615C206.134 574.985 205.954 575.54 205.954 576.28C205.954 577.02 206.134 577.58 206.494 577.96C206.864 578.33 207.299 578.515 207.799 578.515ZM213.326 580V569.2H215.246V575.575L217.886 572.56H220.166L217.121 575.95L220.661 580H218.261L215.246 576.265V580H213.326Z" fill="white"/>
</g>
<g id="cib:facebook-f" clip-path="url(#clip0)">
<path id="Vector_17" d="M58.723 577L59.1675 574.105H56.389V572.226C56.389 571.434 56.777 570.661 58.0215 570.661H59.2845V568.196C59.2845 568.196 58.1385 568.001 57.0425 568.001C54.7545 568.001 53.259 569.388 53.259 571.898V574.105H50.7155V577.001H53.259V584.001H56.389V577.001L58.723 577Z" fill="white"/>
</g>
</g>
<defs>
<filter id="filter0_d" x="31" y="510" width="299" height="45" filterUnits="userSpaceOnUse" color-interpolation-filters="sRGB">
<feFlood flood-opacity="0" result="BackgroundImageFix"/>
<feColorMatrix in="SourceAlpha" type="matrix" values="0 0 0 0 0 0 0 0 0 0 0 0 0 0 0 0 0 0 127 0" result="hardAlpha"/>
<feOffset dy="2"/>
<feGaussianBlur stdDeviation="2"/>
<feColorMatrix type="matrix" values="0 0 0 0 0 0 0 0 0 0 0 0 0 0 0 0 0 0 0.34 0"/>
<feBlend mode="normal" in2="BackgroundImageFix" result="effect1_dropShadow"/>
<feBlend mode="normal" in="SourceGraphic" in2="effect1_dropShadow" result="shape"/>
</filter>
<filter id="filter1_d" x="31" y="415" width="299" height="45" filterUnits="userSpaceOnUse" color-interpolation-filters="sRGB">
<feFlood flood-opacity="0" result="BackgroundImageFix"/>
<feColorMatrix in="SourceAlpha" type="matrix" values="0 0 0 0 0 0 0 0 0 0 0 0 0 0 0 0 0 0 127 0" result="hardAlpha"/>
<feOffset dy="2"/>
<feGaussianBlur stdDeviation="2"/>
<feColorMatrix type="matrix" values="0 0 0 0 0 0 0 0 0 0 0 0 0 0 0 0 0 0 0.34 0"/>
<feBlend mode="normal" in2="BackgroundImageFix" result="effect1_dropShadow"/>
<feBlend mode="normal" in="SourceGraphic" in2="effect1_dropShadow" result="shape"/>
</filter>
<filter id="filter2_d" x="31" y="510" width="299" height="45" filterUnits="userSpaceOnUse" color-interpolation-filters="sRGB">
<feFlood flood-opacity="0" result="BackgroundImageFix"/>
<feColorMatrix in="SourceAlpha" type="matrix" values="0 0 0 0 0 0 0 0 0 0 0 0 0 0 0 0 0 0 127 0" result="hardAlpha"/>
<feOffset dy="2"/>
<feGaussianBlur stdDeviation="2"/>
<feColorMatrix type="matrix" values="0 0 0 0 0 0 0 0 0 0 0 0 0 0 0 0 0 0 0.34 0"/>
<feBlend mode="normal" in2="BackgroundImageFix" result="effect1_dropShadow"/>
<feBlend mode="normal" in="SourceGraphic" in2="effect1_dropShadow" result="shape"/>
</filter>
<filter id="filter3_d" x="31" y="555" width="299" height="45" filterUnits="userSpaceOnUse" color-interpolation-filters="sRGB">
<feFlood flood-opacity="0" result="BackgroundImageFix"/>
<feColorMatrix in="SourceAlpha" type="matrix" values="0 0 0 0 0 0 0 0 0 0 0 0 0 0 0 0 0 0 127 0" result="hardAlpha"/>
<feOffset dy="2"/>
<feGaussianBlur stdDeviation="2"/>
<feColorMatrix type="matrix" values="0 0 0 0 0 0 0 0 0 0 0 0 0 0 0 0 0 0 0.34 0"/>
<feBlend mode="normal" in2="BackgroundImageFix" result="effect1_dropShadow"/>
<feBlend mode="normal" in="SourceGraphic" in2="effect1_dropShadow" result="shape"/>
</filter>
<clipPath id="clip0">
<rect width="16" height="16" fill="white" transform="translate(47 568)"/>
</clipPath>
</defs>
</svg>
