<svg width="360" height="640" viewBox="0 0 360 640" fill="none" xmlns="http://www.w3.org/2000/svg">
<g id="login signup prompt">
<rect width="360" height="640" fill="#000C7B"/>
<g id="Frame">
<path id="Vector" d="M95.7137 170.622C95.0423 171.296 94.5282 172.109 94.208 173.003C93.8877 173.898 93.7692 174.851 93.8607 175.797L93.8289 175.765C93.9231 176.878 93.7725 177.997 93.388 179.046C93.0034 180.095 92.394 181.047 91.6024 181.837C90.8105 182.627 89.8555 183.235 88.8039 183.618C87.7523 184.001 86.6294 184.152 85.5138 184.058L85.5457 184.089C84.2111 183.966 82.8706 184.255 81.707 184.919C80.5435 185.583 79.6135 186.588 79.044 187.798C78.4745 189.008 78.2929 190.364 78.5243 191.681C78.7558 192.998 79.3887 194.211 80.337 195.156C81.2852 196.101 82.5025 196.731 83.823 196.96C85.1436 197.19 86.5028 197.008 87.7157 196.439C88.9286 195.87 89.9358 194.941 90.6003 193.78C91.2647 192.619 91.554 191.282 91.4286 189.951L91.4622 189.983C91.368 188.87 91.5184 187.75 91.903 186.702C92.2875 185.653 92.8971 184.7 93.6887 183.911C94.4806 183.121 95.4356 182.513 96.4871 182.13C97.5388 181.746 98.6615 181.596 99.7773 181.69L99.7437 181.658C100.834 181.756 101.931 181.578 102.934 181.14C103.937 180.702 104.812 180.019 105.48 179.154C106.147 178.289 106.585 177.27 106.752 176.191C106.92 175.112 106.811 174.008 106.437 172.982C106.063 171.956 105.435 171.041 104.612 170.322C103.789 169.602 102.797 169.102 101.728 168.866C100.659 168.631 99.5481 168.668 98.4976 168.975C97.4472 169.282 96.4915 169.849 95.719 170.622H95.7137Z" fill="#B8BFFF"/>
<path id="Vector_2" d="M82.6458 179.924L82.6122 179.892C83.5604 179.987 84.5181 179.871 85.416 179.552C86.3137 179.233 87.1293 178.719 87.8035 178.047C88.4775 177.375 88.9937 176.562 89.3142 175.667C89.6348 174.772 89.7519 173.817 89.6571 172.871L89.6908 172.903C89.5966 171.79 89.7471 170.67 90.1315 169.621C90.5161 168.573 91.1257 167.62 91.9173 166.831C92.7091 166.041 93.6641 165.433 94.7156 165.05C95.7673 164.666 96.8901 164.516 98.0059 164.61L97.9722 164.578C99.307 164.703 100.648 164.415 101.812 163.752C102.976 163.089 103.907 162.084 104.477 160.874C105.048 159.664 105.23 158.308 104.999 156.991C104.769 155.674 104.136 154.46 103.188 153.514C102.24 152.569 101.023 151.938 99.7026 151.708C98.382 151.478 97.0224 151.66 95.8091 152.229C94.5959 152.798 93.5883 153.726 92.9235 154.887C92.2587 156.048 91.9692 157.385 92.0946 158.717L92.0627 158.683C92.1572 159.796 92.0069 160.916 91.6225 161.965C91.2381 163.014 90.6286 163.966 89.8369 164.756C89.0451 165.545 88.09 166.153 87.0383 166.537C85.9864 166.92 84.8635 167.07 83.7477 166.976L83.7795 167.009C82.8313 166.914 81.8735 167.03 80.9757 167.349C80.078 167.668 79.2624 168.182 78.5882 168.854C77.914 169.526 77.398 170.339 77.0773 171.234C76.7569 172.129 76.6398 173.084 76.7346 174.03L76.7027 173.998C76.7966 175.111 76.6458 176.231 76.2612 177.279C75.8765 178.328 75.2671 179.28 74.4755 180.07C73.6837 180.859 72.7289 181.467 71.6774 181.851C70.626 182.234 69.5033 182.385 68.3876 182.291L68.4195 182.323C67.0847 182.198 65.7438 182.486 64.5796 183.149C63.4154 183.812 62.4847 184.817 61.9142 186.027C61.3438 187.237 61.1615 188.593 61.3922 189.91C61.6229 191.227 62.2553 192.441 63.2033 193.387C64.1512 194.332 65.3685 194.963 66.6892 195.193C68.0098 195.423 69.3694 195.241 70.5826 194.672C71.7958 194.103 72.8035 193.175 73.4682 192.014C74.1331 190.853 74.4225 189.516 74.2971 188.185L74.3307 188.216C74.2365 187.104 74.3871 185.984 74.7717 184.935C75.1561 183.886 75.7656 182.934 76.5573 182.144C77.3491 181.355 78.3041 180.747 79.3556 180.363C80.4073 179.98 81.53 179.83 82.6458 179.924Z" fill="#B8BFFF"/>
<path id="Vector_3" d="M70.7737 176.378C71.4451 175.704 71.9591 174.891 72.2791 173.997C72.5991 173.103 72.7172 172.149 72.6248 171.203L72.6585 171.235C72.5642 170.122 72.7147 169.002 73.0995 167.953C73.4843 166.904 74.0941 165.951 74.8863 165.162C75.6784 164.372 76.6338 163.764 77.6858 163.381C78.7379 162.998 79.8611 162.848 80.9771 162.942L80.9435 162.911C82.2777 163.035 83.6182 162.746 84.7818 162.084C85.9455 161.421 86.8756 160.416 87.4459 159.206C88.0159 157.997 88.198 156.641 87.9674 155.325C87.7367 154.008 87.1043 152.795 86.1568 151.85C85.2093 150.904 83.9923 150.274 82.6722 150.044C81.3521 149.814 79.9929 149.995 78.7802 150.564C77.5673 151.132 76.5599 152.06 75.8953 153.221C75.2304 154.381 74.9408 155.718 75.0659 157.049L75.034 157.017C75.1282 158.13 74.9777 159.25 74.5931 160.298C74.2085 161.347 73.5992 162.3 72.8074 163.089C72.0157 163.879 71.0607 164.487 70.0091 164.87C68.9575 165.254 67.8346 165.404 66.7189 165.31L66.7508 165.342C65.6606 165.244 64.5634 165.423 63.5608 165.861C62.5582 166.299 61.6826 166.982 61.0153 167.847C60.348 168.712 59.9105 169.732 59.7433 170.81C59.5761 171.889 59.6847 172.993 60.059 174.019C60.4332 175.044 61.0611 175.959 61.8843 176.679C62.7075 177.398 63.6995 177.899 64.7684 178.134C65.8372 178.369 66.9483 178.332 67.9987 178.025C69.0491 177.718 70.0048 177.151 70.7772 176.378H70.7737Z" fill="#B8BFFF"/>
<path id="Vector_4" d="M125.647 158.757H130.908V184.291H125.647V158.757Z" fill="#B8BFFF"/>
<path id="Vector_5" d="M133.888 175.548C133.881 173.713 134.42 171.917 135.436 170.387C136.453 168.858 137.902 167.664 139.6 166.957C141.298 166.25 143.168 166.061 144.973 166.414C146.778 166.768 148.438 167.648 149.742 168.943C151.045 170.237 151.934 171.889 152.296 173.688C152.658 175.487 152.476 177.353 151.773 179.049C151.071 180.745 149.88 182.195 148.35 183.215C146.821 184.236 145.023 184.78 143.183 184.78C141.961 184.794 140.75 184.565 139.618 184.106C138.486 183.648 137.458 182.969 136.593 182.109C135.727 181.25 135.042 180.227 134.578 179.1C134.113 177.973 133.879 176.766 133.888 175.548ZM147.216 175.548C147.194 174.757 146.939 173.99 146.482 173.343C146.026 172.696 145.388 172.197 144.649 171.91C143.91 171.622 143.102 171.558 142.327 171.726C141.551 171.894 140.843 172.286 140.29 172.853C139.737 173.42 139.363 174.137 139.217 174.915C139.07 175.692 139.156 176.496 139.465 177.225C139.774 177.954 140.291 178.576 140.952 179.013C141.614 179.45 142.389 179.683 143.183 179.683C143.726 179.698 144.266 179.6 144.77 179.396C145.273 179.191 145.729 178.885 146.108 178.497C146.487 178.108 146.781 177.645 146.972 177.138C147.162 176.63 147.246 176.089 147.216 175.548Z" fill="#B8BFFF"/>
<path id="Vector_6" d="M173.446 166.803V183.409C173.446 189.285 168.851 191.769 164.186 191.769C162.544 191.892 160.9 191.561 159.434 190.813C157.968 190.065 156.736 188.929 155.875 187.529L160.364 184.941C160.726 185.671 161.303 186.272 162.017 186.666C162.732 187.06 163.55 187.227 164.362 187.144C164.881 187.216 165.409 187.17 165.908 187.011C166.407 186.851 166.864 186.582 167.244 186.222C167.625 185.863 167.92 185.423 168.107 184.935C168.294 184.447 168.368 183.923 168.325 183.402V181.803C167.708 182.555 166.924 183.152 166.035 183.547C165.146 183.942 164.176 184.124 163.203 184.077C160.889 184.004 158.695 183.036 157.084 181.378C155.473 179.72 154.572 177.502 154.572 175.193C154.572 172.885 155.473 170.666 157.084 169.008C158.695 167.35 160.889 166.382 163.203 166.31C164.176 166.263 165.146 166.445 166.035 166.839C166.924 167.234 167.708 167.832 168.325 168.583V166.799L173.446 166.803ZM168.326 175.196C168.362 174.35 168.142 173.514 167.697 172.793C167.251 172.073 166.6 171.502 165.826 171.154C165.053 170.806 164.192 170.697 163.356 170.841C162.52 170.985 161.746 171.375 161.134 171.961C160.522 172.547 160.1 173.303 159.922 174.13C159.744 174.958 159.818 175.82 160.136 176.605C160.453 177.389 160.998 178.062 161.702 178.535C162.406 179.008 163.235 179.26 164.084 179.259C164.637 179.298 165.191 179.22 165.712 179.032C166.233 178.844 166.709 178.549 167.108 178.166C167.508 177.783 167.823 177.321 168.033 176.81C168.242 176.298 168.343 175.748 168.326 175.196Z" fill="#B8BFFF"/>
<path id="Vector_7" d="M176.425 175.548C176.418 173.713 176.957 171.917 177.974 170.387C178.99 168.858 180.439 167.664 182.137 166.957C183.835 166.25 185.705 166.061 187.51 166.414C189.316 166.768 190.975 167.648 192.279 168.943C193.583 170.237 194.471 171.889 194.833 173.688C195.195 175.487 195.013 177.353 194.311 179.049C193.608 180.745 192.417 182.195 190.888 183.215C189.358 184.236 187.56 184.78 185.72 184.78C184.499 184.794 183.287 184.565 182.155 184.106C181.024 183.648 179.995 182.969 179.13 182.109C178.264 181.25 177.58 180.227 177.115 179.1C176.651 177.973 176.416 176.766 176.425 175.548ZM189.753 175.548C189.732 174.757 189.476 173.99 189.02 173.343C188.563 172.696 187.925 172.197 187.186 171.91C186.447 171.622 185.639 171.558 184.864 171.726C184.089 171.894 183.38 172.286 182.827 172.853C182.274 173.42 181.901 174.137 181.754 174.915C181.607 175.692 181.694 176.496 182.002 177.225C182.311 177.954 182.828 178.576 183.49 179.013C184.151 179.45 184.927 179.683 185.72 179.683C186.263 179.698 186.804 179.6 187.307 179.396C187.811 179.191 188.266 178.885 188.645 178.497C189.024 178.108 189.318 177.645 189.509 177.138C189.7 176.63 189.783 176.089 189.753 175.548Z" fill="#B8BFFF"/>
<path id="Vector_8" d="M197.468 162.116C197.468 161.493 197.653 160.884 198 160.367C198.347 159.849 198.84 159.445 199.417 159.207C199.994 158.969 200.628 158.906 201.241 159.028C201.853 159.149 202.415 159.449 202.857 159.889C203.298 160.33 203.599 160.891 203.721 161.501C203.843 162.112 203.78 162.745 203.541 163.32C203.302 163.896 202.898 164.387 202.378 164.733C201.859 165.079 201.249 165.264 200.625 165.264C199.79 165.255 198.992 164.921 198.402 164.333C197.812 163.744 197.476 162.948 197.468 162.116ZM197.999 166.803H203.262V184.293H197.992L197.999 166.803Z" fill="#B8BFFF"/>
<path id="Vector_9" d="M225.979 175.548C226.04 176.704 225.871 177.86 225.482 178.951C225.093 180.041 224.492 181.044 223.713 181.902C222.934 182.76 221.993 183.456 220.943 183.95C219.893 184.444 218.756 184.726 217.597 184.78C216.622 184.833 215.647 184.669 214.744 184.3C213.84 183.931 213.03 183.366 212.373 182.646V191.287H207.112V166.803H212.373V168.446C213.031 167.726 213.841 167.162 214.744 166.793C215.648 166.424 216.622 166.26 217.597 166.313C218.756 166.367 219.894 166.649 220.944 167.143C221.994 167.637 222.935 168.333 223.714 169.191C224.493 170.05 225.095 171.053 225.483 172.144C225.872 173.235 226.04 174.391 225.979 175.548ZM220.718 175.548C220.697 174.729 220.435 173.935 219.964 173.264C219.493 172.593 218.834 172.076 218.07 171.777C217.306 171.478 216.47 171.41 215.668 171.583C214.865 171.755 214.131 172.16 213.558 172.746C212.985 173.332 212.598 174.074 212.445 174.879C212.293 175.683 212.381 176.514 212.7 177.269C213.019 178.024 213.554 178.667 214.239 179.12C214.923 179.573 215.725 179.814 216.546 179.814C217.11 179.839 217.673 179.745 218.197 179.538C218.722 179.331 219.197 179.016 219.591 178.613C219.985 178.21 220.288 177.729 220.483 177.2C220.677 176.672 220.757 176.109 220.718 175.548Z" fill="#B8BFFF"/>
<path id="Vector_10" d="M242.214 179.044C242.214 183.066 238.709 184.78 234.921 184.78C233.391 184.918 231.855 184.596 230.51 183.854C229.166 183.112 228.076 181.984 227.38 180.618L231.938 178.03C232.123 178.661 232.519 179.211 233.06 179.586C233.602 179.962 234.257 180.141 234.914 180.093C236.176 180.093 236.808 179.708 236.808 179.01C236.808 177.085 228.179 178.1 228.179 172.05C228.179 168.235 231.407 166.313 235.054 166.313C236.425 166.27 237.782 166.594 238.985 167.252C240.188 167.911 241.192 168.878 241.892 170.055L237.403 172.468C237.207 172.01 236.879 171.62 236.461 171.346C236.043 171.073 235.554 170.928 235.054 170.93C234.142 170.93 233.58 171.283 233.58 171.908C233.587 173.903 242.214 172.573 242.214 179.044Z" fill="#B8BFFF"/>
<path id="Vector_11" d="M261.433 166.803V184.293H256.171V182.648C255.564 183.374 254.793 183.945 253.922 184.316C253.05 184.687 252.104 184.847 251.158 184.782C247.615 184.782 244.604 182.264 244.604 177.539V166.803H249.865V176.77C249.821 177.187 249.869 177.608 250.005 178.004C250.14 178.401 250.361 178.763 250.652 179.065C250.942 179.368 251.295 179.604 251.686 179.757C252.076 179.909 252.496 179.976 252.916 179.95C254.845 179.95 256.177 178.832 256.177 176.348V166.808L261.433 166.803Z" fill="#B8BFFF"/>
<path id="Vector_12" d="M291.6 173.553V184.291H286.339V174.007C286.339 172.258 285.497 171.14 283.815 171.14C282.061 171.14 281.078 172.364 281.078 174.428V184.291H275.818V174.007C275.818 172.258 274.977 171.14 273.292 171.14C271.539 171.14 270.557 172.364 270.557 174.428V184.291H265.296V166.801H270.557V168.408C271.103 167.695 271.818 167.13 272.639 166.763C273.461 166.397 274.36 166.242 275.257 166.311C276.157 166.267 277.053 166.457 277.859 166.861C278.663 167.266 279.349 167.871 279.85 168.619C280.433 167.837 281.205 167.215 282.095 166.811C282.984 166.408 283.962 166.236 284.936 166.311C288.962 166.313 291.6 169.181 291.6 173.553Z" fill="#B8BFFF"/>
<path id="Vector_13" d="M296.05 166.695C298.206 166.695 299.954 164.951 299.954 162.801C299.954 160.651 298.206 158.907 296.05 158.907C293.894 158.907 292.146 160.651 292.146 162.801C292.146 164.951 293.894 166.695 296.05 166.695Z" fill="#B8BFFF"/>
</g>
<g id="Group 7">
<g id="Rectangle 1" filter="url(#filter0_d)">
<rect x="34" y="558" width="291" height="37" rx="18.5" fill="#B8BFFF"/>
</g>
<path id="LOGIN" d="M157.249 582V571.5H159.169V580.5H163.819V582H157.249ZM169.479 582.18C168.429 582.18 167.509 581.95 166.719 581.49C165.939 581.03 165.324 580.395 164.874 579.585C164.434 578.765 164.214 577.82 164.214 576.75C164.214 575.68 164.434 574.74 164.874 573.93C165.324 573.11 165.939 572.47 166.719 572.01C167.509 571.55 168.429 571.32 169.479 571.32C170.519 571.32 171.434 571.55 172.224 572.01C173.014 572.47 173.629 573.11 174.069 573.93C174.509 574.74 174.729 575.68 174.729 576.75C174.729 577.82 174.509 578.765 174.069 579.585C173.629 580.395 173.014 581.03 172.224 581.49C171.434 581.95 170.519 582.18 169.479 582.18ZM169.479 580.455C170.479 580.455 171.274 580.125 171.864 579.465C172.464 578.805 172.764 577.9 172.764 576.75C172.764 575.6 172.464 574.695 171.864 574.035C171.274 573.375 170.479 573.045 169.479 573.045C168.479 573.045 167.679 573.375 167.079 574.035C166.479 574.695 166.179 575.6 166.179 576.75C166.179 577.9 166.479 578.805 167.079 579.465C167.679 580.125 168.479 580.455 169.479 580.455ZM181.014 582.18C180.024 582.18 179.159 581.955 178.419 581.505C177.679 581.055 177.104 580.43 176.694 579.63C176.284 578.82 176.079 577.88 176.079 576.81C176.079 575.73 176.289 574.78 176.709 573.96C177.139 573.13 177.744 572.485 178.524 572.025C179.314 571.555 180.249 571.32 181.329 571.32C182.559 571.32 183.579 571.615 184.389 572.205C185.199 572.795 185.724 573.61 185.964 574.65H183.819C183.659 574.16 183.369 573.78 182.949 573.51C182.529 573.23 181.989 573.09 181.329 573.09C180.279 573.09 179.469 573.425 178.899 574.095C178.329 574.755 178.044 575.665 178.044 576.825C178.044 577.985 178.324 578.885 178.884 579.525C179.454 580.155 180.224 580.47 181.194 580.47C182.144 580.47 182.859 580.215 183.339 579.705C183.829 579.185 184.124 578.505 184.224 577.665H181.569V576.225H186.159V582H184.389L184.239 580.62C183.899 581.12 183.474 581.505 182.964 581.775C182.454 582.045 181.804 582.18 181.014 582.18ZM188.025 582V571.5H189.945V582H188.025ZM191.98 582V571.5H193.9L198.835 578.895V571.5H200.755V582H198.835L193.9 574.62V582H191.98Z" fill="#000C7B"/>
</g>
<g id="Group 8">
<g id="Rectangle 1_2" filter="url(#filter1_d)">
<rect x="34.7" y="509.7" width="289.6" height="35.6" rx="17.8" stroke="#B8BFFF" stroke-width="1.4"/>
</g>
<path id="SIGN UP" d="M154.999 533.18C154.229 533.18 153.549 533.05 152.959 532.79C152.369 532.52 151.904 532.14 151.564 531.65C151.224 531.15 151.049 530.545 151.039 529.835H153.064C153.084 530.325 153.259 530.74 153.589 531.08C153.929 531.41 154.394 531.575 154.984 531.575C155.494 531.575 155.899 531.455 156.199 531.215C156.499 530.965 156.649 530.635 156.649 530.225C156.649 529.795 156.514 529.46 156.244 529.22C155.984 528.98 155.634 528.785 155.194 528.635C154.754 528.485 154.284 528.325 153.784 528.155C152.974 527.875 152.354 527.515 151.924 527.075C151.504 526.635 151.294 526.05 151.294 525.32C151.284 524.7 151.429 524.17 151.729 523.73C152.039 523.28 152.459 522.935 152.989 522.695C153.519 522.445 154.129 522.32 154.819 522.32C155.519 522.32 156.134 522.445 156.664 522.695C157.204 522.945 157.624 523.295 157.924 523.745C158.234 524.195 158.399 524.73 158.419 525.35H156.364C156.354 524.98 156.209 524.655 155.929 524.375C155.659 524.085 155.279 523.94 154.789 523.94C154.369 523.93 154.014 524.035 153.724 524.255C153.444 524.465 153.304 524.775 153.304 525.185C153.304 525.535 153.414 525.815 153.634 526.025C153.854 526.225 154.154 526.395 154.534 526.535C154.914 526.675 155.349 526.825 155.839 526.985C156.359 527.165 156.834 527.375 157.264 527.615C157.694 527.855 158.039 528.175 158.299 528.575C158.559 528.965 158.689 529.47 158.689 530.09C158.689 530.64 158.549 531.15 158.269 531.62C157.989 532.09 157.574 532.47 157.024 532.76C156.474 533.04 155.799 533.18 154.999 533.18ZM160.364 533V522.5H162.284V533H160.364ZM168.909 533.18C167.919 533.18 167.054 532.955 166.314 532.505C165.574 532.055 164.999 531.43 164.589 530.63C164.179 529.82 163.974 528.88 163.974 527.81C163.974 526.73 164.184 525.78 164.604 524.96C165.034 524.13 165.639 523.485 166.419 523.025C167.209 522.555 168.144 522.32 169.224 522.32C170.454 522.32 171.474 522.615 172.284 523.205C173.094 523.795 173.619 524.61 173.859 525.65H171.714C171.554 525.16 171.264 524.78 170.844 524.51C170.424 524.23 169.884 524.09 169.224 524.09C168.174 524.09 167.364 524.425 166.794 525.095C166.224 525.755 165.939 526.665 165.939 527.825C165.939 528.985 166.219 529.885 166.779 530.525C167.349 531.155 168.119 531.47 169.089 531.47C170.039 531.47 170.754 531.215 171.234 530.705C171.724 530.185 172.019 529.505 172.119 528.665H169.464V527.225H174.054V533H172.284L172.134 531.62C171.794 532.12 171.369 532.505 170.859 532.775C170.349 533.045 169.699 533.18 168.909 533.18ZM175.92 533V522.5H177.84L182.775 529.895V522.5H184.695V533H182.775L177.84 525.62V533H175.92ZM194.355 533.18C193.585 533.18 192.89 533.03 192.27 532.73C191.65 532.42 191.155 531.955 190.785 531.335C190.425 530.715 190.245 529.93 190.245 528.98V522.5H192.165V528.995C192.165 529.815 192.36 530.425 192.75 530.825C193.15 531.225 193.7 531.425 194.4 531.425C195.09 531.425 195.635 531.225 196.035 530.825C196.435 530.425 196.635 529.815 196.635 528.995V522.5H198.555V528.98C198.555 529.93 198.365 530.715 197.985 531.335C197.605 531.955 197.095 532.42 196.455 532.73C195.825 533.03 195.125 533.18 194.355 533.18ZM200.515 533V522.5H204.4C205.24 522.5 205.935 522.64 206.485 522.92C207.035 523.2 207.445 523.585 207.715 524.075C207.985 524.565 208.12 525.115 208.12 525.725C208.12 526.305 207.99 526.84 207.73 527.33C207.47 527.81 207.065 528.2 206.515 528.5C205.965 528.79 205.26 528.935 204.4 528.935H202.435V533H200.515ZM202.435 527.375H204.28C204.95 527.375 205.43 527.23 205.72 526.94C206.02 526.64 206.17 526.235 206.17 525.725C206.17 525.205 206.02 524.8 205.72 524.51C205.43 524.21 204.95 524.06 204.28 524.06H202.435V527.375Z" fill="#B8BFFF"/>
</g>
<path id="Anytime, Anywhere" d="M58.598 317L65.254 298.8H68.998L75.654 317H72.118L70.662 312.788H63.564L62.082 317H58.598ZM64.474 310.188H69.752L67.1 302.622L64.474 310.188ZM77.9205 317V304.104H80.8585L81.1185 306.288C81.5171 305.525 82.0891 304.919 82.8345 304.468C83.5971 304.017 84.4898 303.792 85.5125 303.792C87.1071 303.792 88.3465 304.295 89.2305 305.3C90.1145 306.305 90.5565 307.779 90.5565 309.72V317H87.2285V310.032C87.2285 308.923 87.0031 308.073 86.5525 307.484C86.1018 306.895 85.3998 306.6 84.4465 306.6C83.5105 306.6 82.7391 306.929 82.1325 307.588C81.5431 308.247 81.2485 309.165 81.2485 310.344V317H77.9205ZM94.9192 322.72L97.9092 316.142H97.1292L92.1112 304.104H95.7252L99.3392 313.178L103.109 304.104H106.645L98.4552 322.72H94.9192ZM114.567 317C113.215 317 112.132 316.671 111.317 316.012C110.502 315.353 110.095 314.183 110.095 312.502V306.886H107.885V304.104H110.095L110.485 300.646H113.423V304.104H116.907V306.886H113.423V312.528C113.423 313.152 113.553 313.585 113.813 313.828C114.09 314.053 114.558 314.166 115.217 314.166H116.829V317H114.567ZM121.558 302.102C120.952 302.102 120.449 301.92 120.05 301.556C119.669 301.192 119.478 300.733 119.478 300.178C119.478 299.623 119.669 299.173 120.05 298.826C120.449 298.462 120.952 298.28 121.558 298.28C122.165 298.28 122.659 298.462 123.04 298.826C123.439 299.173 123.638 299.623 123.638 300.178C123.638 300.733 123.439 301.192 123.04 301.556C122.659 301.92 122.165 302.102 121.558 302.102ZM119.894 317V304.104H123.222V317H119.894ZM126.696 317V304.104H129.634L129.92 305.846C130.336 305.222 130.882 304.728 131.558 304.364C132.251 303.983 133.049 303.792 133.95 303.792C135.943 303.792 137.356 304.563 138.188 306.106C138.656 305.395 139.28 304.832 140.06 304.416C140.857 304 141.724 303.792 142.66 303.792C144.341 303.792 145.633 304.295 146.534 305.3C147.435 306.305 147.886 307.779 147.886 309.72V317H144.558V310.032C144.558 308.923 144.341 308.073 143.908 307.484C143.492 306.895 142.842 306.6 141.958 306.6C141.057 306.6 140.329 306.929 139.774 307.588C139.237 308.247 138.968 309.165 138.968 310.344V317H135.64V310.032C135.64 308.923 135.423 308.073 134.99 307.484C134.557 306.895 133.889 306.6 132.988 306.6C132.104 306.6 131.385 306.929 130.83 307.588C130.293 308.247 130.024 309.165 130.024 310.344V317H126.696ZM157.311 317.312C156.011 317.312 154.859 317.035 153.853 316.48C152.848 315.925 152.059 315.145 151.487 314.14C150.915 313.135 150.629 311.973 150.629 310.656C150.629 309.321 150.907 308.134 151.461 307.094C152.033 306.054 152.813 305.248 153.801 304.676C154.807 304.087 155.985 303.792 157.337 303.792C158.603 303.792 159.721 304.069 160.691 304.624C161.662 305.179 162.416 305.941 162.953 306.912C163.508 307.865 163.785 308.931 163.785 310.11C163.785 310.301 163.777 310.5 163.759 310.708C163.759 310.916 163.751 311.133 163.733 311.358H153.931C154.001 312.363 154.347 313.152 154.971 313.724C155.613 314.296 156.384 314.582 157.285 314.582C157.961 314.582 158.525 314.435 158.975 314.14C159.443 313.828 159.79 313.429 160.015 312.944H163.395C163.153 313.759 162.745 314.504 162.173 315.18C161.619 315.839 160.925 316.359 160.093 316.74C159.279 317.121 158.351 317.312 157.311 317.312ZM157.337 306.496C156.523 306.496 155.803 306.73 155.179 307.198C154.555 307.649 154.157 308.342 153.983 309.278H160.405C160.353 308.429 160.041 307.753 159.469 307.25C158.897 306.747 158.187 306.496 157.337 306.496ZM165.259 320.016L166.741 313.542H169.965L167.443 320.016H165.259ZM177.705 317L184.361 298.8H188.105L194.761 317H191.225L189.769 312.788H182.671L181.189 317H177.705ZM183.581 310.188H188.859L186.207 302.622L183.581 310.188ZM197.028 317V304.104H199.966L200.226 306.288C200.625 305.525 201.197 304.919 201.942 304.468C202.705 304.017 203.597 303.792 204.62 303.792C206.215 303.792 207.454 304.295 208.338 305.3C209.222 306.305 209.664 307.779 209.664 309.72V317H206.336V310.032C206.336 308.923 206.111 308.073 205.66 307.484C205.209 306.895 204.507 306.6 203.554 306.6C202.618 306.6 201.847 306.929 201.24 307.588C200.651 308.247 200.356 309.165 200.356 310.344V317H197.028ZM214.027 322.72L217.017 316.142H216.237L211.219 304.104H214.833L218.447 313.178L222.217 304.104H225.753L217.563 322.72H214.027ZM230.45 317L226.68 304.104H229.982L232.218 313.386L234.818 304.104H238.51L241.11 313.386L243.372 304.104H246.674L242.878 317H239.42L236.664 307.354L233.908 317H230.45ZM248.774 317V298.28H252.102V306.08C252.535 305.369 253.116 304.815 253.844 304.416C254.589 304 255.439 303.792 256.392 303.792C257.987 303.792 259.217 304.295 260.084 305.3C260.968 306.305 261.41 307.779 261.41 309.72V317H258.108V310.032C258.108 308.923 257.883 308.073 257.432 307.484C256.999 306.895 256.305 306.6 255.352 306.6C254.416 306.6 253.636 306.929 253.012 307.588C252.405 308.247 252.102 309.165 252.102 310.344V317H248.774ZM270.858 317.312C269.558 317.312 268.406 317.035 267.4 316.48C266.395 315.925 265.606 315.145 265.034 314.14C264.462 313.135 264.176 311.973 264.176 310.656C264.176 309.321 264.454 308.134 265.008 307.094C265.58 306.054 266.36 305.248 267.348 304.676C268.354 304.087 269.532 303.792 270.884 303.792C272.15 303.792 273.268 304.069 274.238 304.624C275.209 305.179 275.963 305.941 276.5 306.912C277.055 307.865 277.332 308.931 277.332 310.11C277.332 310.301 277.324 310.5 277.306 310.708C277.306 310.916 277.298 311.133 277.28 311.358H267.478C267.548 312.363 267.894 313.152 268.518 313.724C269.16 314.296 269.931 314.582 270.832 314.582C271.508 314.582 272.072 314.435 272.522 314.14C272.99 313.828 273.337 313.429 273.562 312.944H276.942C276.7 313.759 276.292 314.504 275.72 315.18C275.166 315.839 274.472 316.359 273.64 316.74C272.826 317.121 271.898 317.312 270.858 317.312ZM270.884 306.496C270.07 306.496 269.35 306.73 268.726 307.198C268.102 307.649 267.704 308.342 267.53 309.278H273.952C273.9 308.429 273.588 307.753 273.016 307.25C272.444 306.747 271.734 306.496 270.884 306.496ZM280.131 317V304.104H283.095L283.407 306.522C283.875 305.69 284.508 305.031 285.305 304.546C286.12 304.043 287.073 303.792 288.165 303.792V307.302H287.229C286.501 307.302 285.851 307.415 285.279 307.64C284.707 307.865 284.257 308.255 283.927 308.81C283.615 309.365 283.459 310.136 283.459 311.124V317H280.131ZM296.477 317.312C295.177 317.312 294.025 317.035 293.019 316.48C292.014 315.925 291.225 315.145 290.653 314.14C290.081 313.135 289.795 311.973 289.795 310.656C289.795 309.321 290.073 308.134 290.627 307.094C291.199 306.054 291.979 305.248 292.967 304.676C293.973 304.087 295.151 303.792 296.503 303.792C297.769 303.792 298.887 304.069 299.857 304.624C300.828 305.179 301.582 305.941 302.119 306.912C302.674 307.865 302.951 308.931 302.951 310.11C302.951 310.301 302.943 310.5 302.925 310.708C302.925 310.916 302.917 311.133 302.899 311.358H293.097C293.167 312.363 293.513 313.152 294.137 313.724C294.779 314.296 295.55 314.582 296.451 314.582C297.127 314.582 297.691 314.435 298.141 314.14C298.609 313.828 298.956 313.429 299.181 312.944H302.561C302.319 313.759 301.911 314.504 301.339 315.18C300.785 315.839 300.091 316.359 299.259 316.74C298.445 317.121 297.517 317.312 296.477 317.312ZM296.503 306.496C295.689 306.496 294.969 306.73 294.345 307.198C293.721 307.649 293.323 308.342 293.149 309.278H299.571C299.519 308.429 299.207 307.753 298.635 307.25C298.063 306.747 297.353 306.496 296.503 306.496Z" fill="#B8BFFF"/>
<path id="The ultimate news source" d="M100.206 346V337.166H97.28V336.2H104.308V337.166H101.382V346H100.206ZM105.674 346V335.92H106.85V340.246C107.083 339.817 107.415 339.485 107.844 339.252C108.273 339.009 108.74 338.888 109.244 338.888C110.047 338.888 110.691 339.14 111.176 339.644C111.661 340.139 111.904 340.904 111.904 341.94V346H110.742V342.066C110.742 340.619 110.159 339.896 108.992 339.896C108.385 339.896 107.877 340.115 107.466 340.554C107.055 340.983 106.85 341.599 106.85 342.402V346H105.674ZM116.808 346.168C116.145 346.168 115.557 346.019 115.044 345.72C114.53 345.412 114.124 344.987 113.826 344.446C113.536 343.905 113.392 343.265 113.392 342.528C113.392 341.8 113.536 341.165 113.826 340.624C114.115 340.073 114.516 339.649 115.03 339.35C115.552 339.042 116.154 338.888 116.836 338.888C117.508 338.888 118.086 339.042 118.572 339.35C119.066 339.649 119.444 340.045 119.706 340.54C119.967 341.035 120.098 341.567 120.098 342.136C120.098 342.239 120.093 342.341 120.084 342.444C120.084 342.547 120.084 342.663 120.084 342.794H114.554C114.582 343.326 114.703 343.769 114.918 344.124C115.142 344.469 115.417 344.731 115.744 344.908C116.08 345.085 116.434 345.174 116.808 345.174C117.293 345.174 117.699 345.062 118.026 344.838C118.352 344.614 118.59 344.311 118.74 343.928H119.902C119.715 344.572 119.356 345.109 118.824 345.538C118.301 345.958 117.629 346.168 116.808 346.168ZM116.808 339.882C116.248 339.882 115.748 340.055 115.31 340.4C114.88 340.736 114.633 341.231 114.568 341.884H118.936C118.908 341.259 118.693 340.769 118.292 340.414C117.89 340.059 117.396 339.882 116.808 339.882ZM127.896 346.168C127.074 346.168 126.421 345.921 125.936 345.426C125.45 344.922 125.208 344.152 125.208 343.116V339.056H126.384V342.99C126.384 344.437 126.976 345.16 128.162 345.16C128.768 345.16 129.268 344.945 129.66 344.516C130.061 344.077 130.262 343.457 130.262 342.654V339.056H131.438V346H130.374L130.29 344.754C130.075 345.193 129.753 345.538 129.324 345.79C128.904 346.042 128.428 346.168 127.896 346.168ZM133.373 346V335.92H134.549V346H133.373ZM139.221 346C138.586 346 138.087 345.846 137.723 345.538C137.359 345.23 137.177 344.675 137.177 343.872V340.05H135.973V339.056H137.177L137.331 337.39H138.353V339.056H140.397V340.05H138.353V343.872C138.353 344.311 138.441 344.609 138.619 344.768C138.796 344.917 139.109 344.992 139.557 344.992H140.285V346H139.221ZM142.605 337.516C142.371 337.516 142.175 337.441 142.017 337.292C141.867 337.133 141.793 336.937 141.793 336.704C141.793 336.48 141.867 336.293 142.017 336.144C142.175 335.995 142.371 335.92 142.605 335.92C142.829 335.92 143.02 335.995 143.179 336.144C143.337 336.293 143.417 336.48 143.417 336.704C143.417 336.937 143.337 337.133 143.179 337.292C143.02 337.441 142.829 337.516 142.605 337.516ZM142.017 346V339.056H143.193V346H142.017ZM145.24 346V339.056H146.304L146.388 340.064C146.612 339.691 146.911 339.401 147.284 339.196C147.658 338.991 148.078 338.888 148.544 338.888C149.095 338.888 149.566 339 149.958 339.224C150.36 339.448 150.668 339.789 150.882 340.246C151.125 339.826 151.456 339.495 151.876 339.252C152.306 339.009 152.768 338.888 153.262 338.888C154.093 338.888 154.756 339.14 155.25 339.644C155.745 340.139 155.992 340.904 155.992 341.94V346H154.83V342.066C154.83 341.347 154.686 340.806 154.396 340.442C154.107 340.078 153.692 339.896 153.15 339.896C152.59 339.896 152.124 340.115 151.75 340.554C151.386 340.983 151.204 341.599 151.204 342.402V346H150.028V342.066C150.028 341.347 149.884 340.806 149.594 340.442C149.305 340.078 148.89 339.896 148.348 339.896C147.798 339.896 147.336 340.115 146.962 340.554C146.598 340.983 146.416 341.599 146.416 342.402V346H145.24ZM160.074 346.168C159.495 346.168 159.015 346.07 158.632 345.874C158.249 345.678 157.965 345.417 157.778 345.09C157.591 344.763 157.498 344.409 157.498 344.026C157.498 343.317 157.769 342.771 158.31 342.388C158.851 342.005 159.589 341.814 160.522 341.814H162.398V341.73C162.398 341.123 162.239 340.666 161.922 340.358C161.605 340.041 161.18 339.882 160.648 339.882C160.191 339.882 159.794 339.999 159.458 340.232C159.131 340.456 158.926 340.787 158.842 341.226H157.638C157.685 340.722 157.853 340.297 158.142 339.952C158.441 339.607 158.809 339.345 159.248 339.168C159.687 338.981 160.153 338.888 160.648 338.888C161.619 338.888 162.347 339.149 162.832 339.672C163.327 340.185 163.574 340.871 163.574 341.73V346H162.524L162.454 344.754C162.258 345.146 161.969 345.482 161.586 345.762C161.213 346.033 160.709 346.168 160.074 346.168ZM160.256 345.174C160.704 345.174 161.087 345.057 161.404 344.824C161.731 344.591 161.978 344.287 162.146 343.914C162.314 343.541 162.398 343.149 162.398 342.738V342.724H160.62C159.929 342.724 159.439 342.845 159.15 343.088C158.87 343.321 158.73 343.615 158.73 343.97C158.73 344.334 158.861 344.628 159.122 344.852C159.393 345.067 159.771 345.174 160.256 345.174ZM167.891 346C167.256 346 166.757 345.846 166.393 345.538C166.029 345.23 165.847 344.675 165.847 343.872V340.05H164.643V339.056H165.847L166.001 337.39H167.023V339.056H169.067V340.05H167.023V343.872C167.023 344.311 167.111 344.609 167.289 344.768C167.466 344.917 167.779 344.992 168.227 344.992H168.955V346H167.891ZM173.491 346.168C172.829 346.168 172.241 346.019 171.727 345.72C171.214 345.412 170.808 344.987 170.509 344.446C170.22 343.905 170.075 343.265 170.075 342.528C170.075 341.8 170.22 341.165 170.509 340.624C170.799 340.073 171.2 339.649 171.713 339.35C172.236 339.042 172.838 338.888 173.519 338.888C174.191 338.888 174.77 339.042 175.255 339.35C175.75 339.649 176.128 340.045 176.389 340.54C176.651 341.035 176.781 341.567 176.781 342.136C176.781 342.239 176.777 342.341 176.767 342.444C176.767 342.547 176.767 342.663 176.767 342.794H171.237C171.265 343.326 171.387 343.769 171.601 344.124C171.825 344.469 172.101 344.731 172.427 344.908C172.763 345.085 173.118 345.174 173.491 345.174C173.977 345.174 174.383 345.062 174.709 344.838C175.036 344.614 175.274 344.311 175.423 343.928H176.585C176.399 344.572 176.039 345.109 175.507 345.538C174.985 345.958 174.313 346.168 173.491 346.168ZM173.491 339.882C172.931 339.882 172.432 340.055 171.993 340.4C171.564 340.736 171.317 341.231 171.251 341.884H175.619C175.591 341.259 175.377 340.769 174.975 340.414C174.574 340.059 174.079 339.882 173.491 339.882ZM182.045 346V339.056H183.109L183.179 340.302C183.403 339.863 183.725 339.518 184.145 339.266C184.565 339.014 185.041 338.888 185.573 338.888C186.394 338.888 187.048 339.14 187.533 339.644C188.028 340.139 188.275 340.904 188.275 341.94V346H187.099V342.066C187.099 340.619 186.502 339.896 185.307 339.896C184.71 339.896 184.21 340.115 183.809 340.554C183.417 340.983 183.221 341.599 183.221 342.402V346H182.045ZM193.179 346.168C192.516 346.168 191.928 346.019 191.415 345.72C190.901 345.412 190.495 344.987 190.197 344.446C189.907 343.905 189.763 343.265 189.763 342.528C189.763 341.8 189.907 341.165 190.197 340.624C190.486 340.073 190.887 339.649 191.401 339.35C191.923 339.042 192.525 338.888 193.207 338.888C193.879 338.888 194.457 339.042 194.943 339.35C195.437 339.649 195.815 340.045 196.077 340.54C196.338 341.035 196.469 341.567 196.469 342.136C196.469 342.239 196.464 342.341 196.455 342.444C196.455 342.547 196.455 342.663 196.455 342.794H190.925C190.953 343.326 191.074 343.769 191.289 344.124C191.513 344.469 191.788 344.731 192.115 344.908C192.451 345.085 192.805 345.174 193.179 345.174C193.664 345.174 194.07 345.062 194.397 344.838C194.723 344.614 194.961 344.311 195.111 343.928H196.273C196.086 344.572 195.727 345.109 195.195 345.538C194.672 345.958 194 346.168 193.179 346.168ZM193.179 339.882C192.619 339.882 192.119 340.055 191.681 340.4C191.251 340.736 191.004 341.231 190.939 341.884H195.307C195.279 341.259 195.064 340.769 194.663 340.414C194.261 340.059 193.767 339.882 193.179 339.882ZM199.154 346L197.124 339.056H198.3L199.77 344.502L201.394 339.056H202.724L204.362 344.502L205.818 339.056H207.008L204.978 346H203.774L202.066 340.274L200.358 346H199.154ZM210.969 346.168C210.138 346.168 209.447 345.958 208.897 345.538C208.346 345.118 208.024 344.549 207.931 343.83H209.135C209.209 344.194 209.401 344.511 209.709 344.782C210.026 345.043 210.451 345.174 210.983 345.174C211.477 345.174 211.841 345.071 212.075 344.866C212.308 344.651 212.425 344.399 212.425 344.11C212.425 343.69 212.271 343.41 211.963 343.27C211.664 343.13 211.239 343.004 210.689 342.892C210.315 342.817 209.942 342.71 209.569 342.57C209.195 342.43 208.883 342.234 208.631 341.982C208.379 341.721 208.253 341.38 208.253 340.96C208.253 340.353 208.477 339.859 208.925 339.476C209.382 339.084 209.998 338.888 210.773 338.888C211.51 338.888 212.112 339.075 212.579 339.448C213.055 339.812 213.33 340.335 213.405 341.016H212.243C212.196 340.661 212.042 340.386 211.781 340.19C211.529 339.985 211.188 339.882 210.759 339.882C210.339 339.882 210.012 339.971 209.779 340.148C209.555 340.325 209.443 340.559 209.443 340.848C209.443 341.128 209.587 341.347 209.877 341.506C210.175 341.665 210.577 341.8 211.081 341.912C211.51 342.005 211.916 342.122 212.299 342.262C212.691 342.393 213.008 342.593 213.251 342.864C213.503 343.125 213.629 343.508 213.629 344.012C213.638 344.637 213.4 345.155 212.915 345.566C212.439 345.967 211.79 346.168 210.969 346.168ZM221.674 346.168C220.843 346.168 220.153 345.958 219.602 345.538C219.051 345.118 218.729 344.549 218.636 343.83H219.84C219.915 344.194 220.106 344.511 220.414 344.782C220.731 345.043 221.156 345.174 221.688 345.174C222.183 345.174 222.547 345.071 222.78 344.866C223.013 344.651 223.13 344.399 223.13 344.11C223.13 343.69 222.976 343.41 222.668 343.27C222.369 343.13 221.945 343.004 221.394 342.892C221.021 342.817 220.647 342.71 220.274 342.57C219.901 342.43 219.588 342.234 219.336 341.982C219.084 341.721 218.958 341.38 218.958 340.96C218.958 340.353 219.182 339.859 219.63 339.476C220.087 339.084 220.703 338.888 221.478 338.888C222.215 338.888 222.817 339.075 223.284 339.448C223.76 339.812 224.035 340.335 224.11 341.016H222.948C222.901 340.661 222.747 340.386 222.486 340.19C222.234 339.985 221.893 339.882 221.464 339.882C221.044 339.882 220.717 339.971 220.484 340.148C220.26 340.325 220.148 340.559 220.148 340.848C220.148 341.128 220.293 341.347 220.582 341.506C220.881 341.665 221.282 341.8 221.786 341.912C222.215 342.005 222.621 342.122 223.004 342.262C223.396 342.393 223.713 342.593 223.956 342.864C224.208 343.125 224.334 343.508 224.334 344.012C224.343 344.637 224.105 345.155 223.62 345.566C223.144 345.967 222.495 346.168 221.674 346.168ZM229.178 346.168C228.525 346.168 227.937 346.019 227.414 345.72C226.891 345.421 226.476 345.001 226.168 344.46C225.869 343.909 225.72 343.265 225.72 342.528C225.72 341.791 225.874 341.151 226.182 340.61C226.49 340.059 226.905 339.635 227.428 339.336C227.96 339.037 228.553 338.888 229.206 338.888C229.859 338.888 230.447 339.037 230.97 339.336C231.493 339.635 231.903 340.059 232.202 340.61C232.51 341.151 232.664 341.791 232.664 342.528C232.664 343.265 232.51 343.909 232.202 344.46C231.894 345.001 231.474 345.421 230.942 345.72C230.419 346.019 229.831 346.168 229.178 346.168ZM229.178 345.16C229.579 345.16 229.953 345.062 230.298 344.866C230.643 344.67 230.923 344.376 231.138 343.984C231.353 343.592 231.46 343.107 231.46 342.528C231.46 341.949 231.353 341.464 231.138 341.072C230.933 340.68 230.657 340.386 230.312 340.19C229.967 339.994 229.598 339.896 229.206 339.896C228.805 339.896 228.431 339.994 228.086 340.19C227.741 340.386 227.461 340.68 227.246 341.072C227.031 341.464 226.924 341.949 226.924 342.528C226.924 343.107 227.031 343.592 227.246 343.984C227.461 344.376 227.736 344.67 228.072 344.866C228.417 345.062 228.786 345.16 229.178 345.16ZM236.833 346.168C236.012 346.168 235.358 345.921 234.873 345.426C234.388 344.922 234.145 344.152 234.145 343.116V339.056H235.321V342.99C235.321 344.437 235.914 345.16 237.099 345.16C237.706 345.16 238.205 344.945 238.597 344.516C238.998 344.077 239.199 343.457 239.199 342.654V339.056H240.375V346H239.311L239.227 344.754C239.012 345.193 238.69 345.538 238.261 345.79C237.841 346.042 237.365 346.168 236.833 346.168ZM242.311 346V339.056H243.375L243.473 340.386C243.687 339.929 244.014 339.565 244.453 339.294C244.891 339.023 245.433 338.888 246.077 338.888V340.12H245.755C245.344 340.12 244.966 340.195 244.621 340.344C244.275 340.484 244 340.727 243.795 341.072C243.589 341.417 243.487 341.893 243.487 342.5V346H242.311ZM250.329 346.168C249.666 346.168 249.069 346.019 248.537 345.72C248.014 345.412 247.599 344.987 247.291 344.446C246.992 343.895 246.843 343.256 246.843 342.528C246.843 341.8 246.992 341.165 247.291 340.624C247.599 340.073 248.014 339.649 248.537 339.35C249.069 339.042 249.666 338.888 250.329 338.888C251.15 338.888 251.841 339.103 252.401 339.532C252.97 339.961 253.33 340.535 253.479 341.254H252.275C252.182 340.825 251.953 340.493 251.589 340.26C251.225 340.017 250.8 339.896 250.315 339.896C249.923 339.896 249.554 339.994 249.209 340.19C248.864 340.386 248.584 340.68 248.369 341.072C248.154 341.464 248.047 341.949 248.047 342.528C248.047 343.107 248.154 343.592 248.369 343.984C248.584 344.376 248.864 344.675 249.209 344.88C249.554 345.076 249.923 345.174 250.315 345.174C250.8 345.174 251.225 345.057 251.589 344.824C251.953 344.581 252.182 344.241 252.275 343.802H253.479C253.339 344.502 252.984 345.071 252.415 345.51C251.846 345.949 251.15 346.168 250.329 346.168ZM258.243 346.168C257.581 346.168 256.993 346.019 256.479 345.72C255.966 345.412 255.56 344.987 255.261 344.446C254.972 343.905 254.827 343.265 254.827 342.528C254.827 341.8 254.972 341.165 255.261 340.624C255.551 340.073 255.952 339.649 256.465 339.35C256.988 339.042 257.59 338.888 258.271 338.888C258.943 338.888 259.522 339.042 260.007 339.35C260.502 339.649 260.88 340.045 261.141 340.54C261.403 341.035 261.533 341.567 261.533 342.136C261.533 342.239 261.529 342.341 261.519 342.444C261.519 342.547 261.519 342.663 261.519 342.794H255.989C256.017 343.326 256.139 343.769 256.353 344.124C256.577 344.469 256.853 344.731 257.179 344.908C257.515 345.085 257.87 345.174 258.243 345.174C258.729 345.174 259.135 345.062 259.461 344.838C259.788 344.614 260.026 344.311 260.175 343.928H261.337C261.151 344.572 260.791 345.109 260.259 345.538C259.737 345.958 259.065 346.168 258.243 346.168ZM258.243 339.882C257.683 339.882 257.184 340.055 256.745 340.4C256.316 340.736 256.069 341.231 256.003 341.884H260.371C260.343 341.259 260.129 340.769 259.727 340.414C259.326 340.059 258.831 339.882 258.243 339.882Z" fill="#B8BFFF"/>
</g>
<defs>
<filter id="filter0_d" x="30" y="556" width="299" height="45" filterUnits="userSpaceOnUse" color-interpolation-filters="sRGB">
<feFlood flood-opacity="0" result="BackgroundImageFix"/>
<feColorMatrix in="SourceAlpha" type="matrix" values="0 0 0 0 0 0 0 0 0 0 0 0 0 0 0 0 0 0 127 0" result="hardAlpha"/>
<feOffset dy="2"/>
<feGaussianBlur stdDeviation="2"/>
<feColorMatrix type="matrix" values="0 0 0 0 0 0 0 0 0 0 0 0 0 0 0 0 0 0 0.34 0"/>
<feBlend mode="normal" in2="BackgroundImageFix" result="effect1_dropShadow"/>
<feBlend mode="normal" in="SourceGraphic" in2="effect1_dropShadow" result="shape"/>
</filter>
<filter id="filter1_d" x="30" y="507" width="299" height="45" filterUnits="userSpaceOnUse" color-interpolation-filters="sRGB">
<feFlood flood-opacity="0" result="BackgroundImageFix"/>
<feColorMatrix in="SourceAlpha" type="matrix" values="0 0 0 0 0 0 0 0 0 0 0 0 0 0 0 0 0 0 127 0" result="hardAlpha"/>
<feOffset dy="2"/>
<feGaussianBlur stdDeviation="2"/>
<feColorMatrix type="matrix" values="0 0 0 0 0 0 0 0 0 0 0 0 0 0 0 0 0 0 0.34 0"/>
<feBlend mode="normal" in2="BackgroundImageFix" result="effect1_dropShadow"/>
<feBlend mode="normal" in="SourceGraphic" in2="effect1_dropShadow" result="shape"/>
</filter>
</defs>
</svg>
