<svg width="360" height="640" viewBox="0 0 360 640" fill="none" xmlns="http://www.w3.org/2000/svg">
<g id="signup">
<rect width="360" height="640" fill="#000C7B"/>
<g id="Frame">
<path id="Vector" d="M101.312 122.285C100.681 122.921 100.198 123.688 99.897 124.531C99.5961 125.375 99.4848 126.275 99.5708 127.167L99.5409 127.137C99.6294 128.187 99.4879 129.243 99.1266 130.232C98.7653 131.222 98.1928 132.12 97.449 132.865C96.7051 133.61 95.8079 134.184 94.8198 134.545C93.8319 134.907 92.7769 135.049 91.7287 134.96L91.7587 134.99C90.5048 134.873 89.2454 135.146 88.1521 135.773C87.059 136.399 86.1853 137.347 85.6502 138.489C85.1152 139.631 84.9446 140.91 85.1619 142.152C85.3794 143.394 85.9741 144.539 86.865 145.43C87.7559 146.322 88.8996 146.916 90.1401 147.133C91.3809 147.349 92.6579 147.177 93.7974 146.64C94.9369 146.103 95.8833 145.228 96.5075 144.132C97.1318 143.037 97.4036 141.776 97.2857 140.52L97.3174 140.55C97.2288 139.5 97.3701 138.444 97.7314 137.454C98.0928 136.465 98.6654 135.567 99.4092 134.822C100.153 134.077 101.05 133.503 102.038 133.142C103.026 132.78 104.081 132.638 105.13 132.727L105.098 132.697C106.122 132.789 107.153 132.621 108.095 132.208C109.037 131.795 109.86 131.15 110.487 130.334C111.114 129.518 111.526 128.556 111.683 127.539C111.84 126.521 111.738 125.48 111.387 124.512C111.035 123.544 110.445 122.681 109.672 122.002C108.899 121.323 107.967 120.851 106.962 120.629C105.958 120.407 104.914 120.442 103.927 120.731C102.94 121.021 102.042 121.555 101.317 122.285H101.312Z" fill="#B8BFFF"/>
<path id="Vector_2" d="M89.0342 131.06L89.0026 131.03C89.8935 131.12 90.7932 131.01 91.6368 130.709C92.4803 130.408 93.2465 129.924 93.8799 129.29C94.5132 128.656 94.9982 127.889 95.2992 127.044C95.6005 126.2 95.7105 125.299 95.6214 124.407L95.6531 124.437C95.5645 123.387 95.706 122.331 96.0671 121.341C96.4284 120.352 97.0011 119.453 97.7449 118.708C98.4888 117.963 99.3861 117.39 100.374 117.028C101.362 116.666 102.417 116.525 103.465 116.613L103.434 116.583C104.688 116.701 105.947 116.429 107.041 115.804C108.135 115.178 109.009 114.23 109.545 113.089C110.081 111.947 110.253 110.668 110.036 109.425C109.819 108.183 109.225 107.038 108.334 106.146C107.444 105.254 106.3 104.659 105.059 104.442C103.819 104.225 102.541 104.396 101.401 104.933C100.261 105.469 99.3148 106.345 98.6902 107.441C98.0656 108.536 97.7937 109.798 97.9115 111.053L97.8815 111.022C97.9702 112.071 97.8291 113.128 97.468 114.118C97.1068 115.107 96.5341 116.006 95.7904 116.751C95.0464 117.496 94.149 118.069 93.161 118.431C92.1727 118.793 91.1177 118.934 90.0694 118.845L90.0993 118.877C89.2084 118.787 88.3086 118.896 87.4651 119.197C86.6216 119.498 85.8554 119.983 85.222 120.617C84.5886 121.251 84.1037 122.018 83.8025 122.862C83.5014 123.707 83.3914 124.608 83.4805 125.5L83.4505 125.47C83.5387 126.52 83.3971 127.576 83.0358 128.565C82.6743 129.555 82.1018 130.453 81.358 131.198C80.6142 131.943 79.7171 132.516 78.7292 132.878C77.7414 133.24 76.6865 133.382 75.6384 133.293L75.6683 133.323C74.4143 133.205 73.1545 133.478 72.0607 134.103C70.9669 134.729 70.0924 135.677 69.5565 136.818C69.0206 137.96 68.8493 139.239 69.066 140.481C69.2828 141.724 69.877 142.869 70.7676 143.761C71.6582 144.653 72.8019 145.248 74.0426 145.465C75.2834 145.682 76.5608 145.511 77.7006 144.974C78.8404 144.437 79.7872 143.562 80.4117 142.466C81.0363 141.371 81.3082 140.109 81.1904 138.853L81.222 138.883C81.1335 137.833 81.275 136.777 81.6363 135.788C81.9974 134.798 82.5701 133.9 83.3139 133.155C84.0578 132.41 84.955 131.837 85.9429 131.475C86.931 131.113 87.9859 130.971 89.0342 131.06Z" fill="#B8BFFF"/>
<path id="Vector_3" d="M77.8801 127.715C78.5109 127.08 78.9938 126.313 79.2945 125.469C79.5951 124.625 79.706 123.725 79.6193 122.833L79.6509 122.863C79.5623 121.813 79.7037 120.756 80.0652 119.767C80.4267 118.777 80.9996 117.878 81.7439 117.133C82.4882 116.389 83.3857 115.815 84.3741 115.454C85.3626 115.092 86.4179 114.951 87.4664 115.04L87.4348 115.01C88.6883 115.128 89.9477 114.855 91.0409 114.23C92.1342 113.604 93.0081 112.656 93.5439 111.515C94.0794 110.374 94.2505 109.096 94.0338 107.853C93.8171 106.611 93.223 105.467 92.3328 104.575C91.4425 103.683 90.2992 103.089 89.0589 102.872C87.8187 102.654 86.5417 102.826 85.4023 103.362C84.2628 103.899 83.3163 104.774 82.6919 105.869C82.0673 106.964 81.7952 108.225 81.9127 109.48L81.8827 109.45C81.9712 110.5 81.8298 111.556 81.4685 112.546C81.1071 113.535 80.5347 114.434 79.7908 115.178C79.0469 115.923 78.1497 116.497 77.1617 116.858C76.1737 117.22 75.1188 117.362 74.0705 117.273L74.1005 117.303C73.0762 117.211 72.0454 117.38 71.1034 117.793C70.1615 118.206 69.3389 118.851 68.7119 119.667C68.085 120.483 67.6739 121.445 67.5169 122.463C67.3598 123.48 67.4618 124.521 67.8134 125.489C68.165 126.457 68.7549 127.32 69.5284 127.999C70.3018 128.678 71.2338 129.15 72.238 129.372C73.2422 129.594 74.2861 129.558 75.2729 129.269C76.2598 128.979 77.1577 128.445 77.8834 127.715H77.8801Z" fill="#B8BFFF"/>
<path id="Vector_4" d="M129.435 111.092H134.378V135.18H129.435V111.092Z" fill="#B8BFFF"/>
<path id="Vector_5" d="M137.177 126.932C137.17 125.201 137.676 123.506 138.632 122.064C139.587 120.621 140.948 119.495 142.543 118.828C144.139 118.16 145.895 117.982 147.592 118.316C149.288 118.649 150.847 119.479 152.072 120.701C153.297 121.922 154.132 123.48 154.472 125.178C154.811 126.875 154.64 128.635 153.981 130.235C153.321 131.835 152.201 133.203 150.765 134.165C149.328 135.128 147.638 135.642 145.909 135.642C144.762 135.655 143.624 135.439 142.56 135.006C141.497 134.573 140.531 133.933 139.718 133.122C138.905 132.311 138.261 131.346 137.825 130.283C137.389 129.22 137.169 128.081 137.177 126.932ZM149.699 126.932C149.678 126.186 149.439 125.462 149.01 124.852C148.581 124.241 147.982 123.771 147.287 123.5C146.593 123.228 145.834 123.168 145.105 123.326C144.377 123.485 143.711 123.854 143.192 124.39C142.672 124.925 142.321 125.601 142.183 126.335C142.046 127.068 142.127 127.826 142.417 128.514C142.707 129.202 143.193 129.788 143.814 130.201C144.435 130.613 145.164 130.833 145.909 130.833C146.42 130.847 146.928 130.755 147.401 130.562C147.874 130.369 148.302 130.081 148.658 129.714C149.014 129.347 149.29 128.911 149.469 128.432C149.649 127.953 149.727 127.442 149.699 126.932Z" fill="#B8BFFF"/>
<path id="Vector_6" d="M174.342 118.682V134.348C174.342 139.892 170.025 142.235 165.643 142.235C164.1 142.351 162.555 142.038 161.178 141.333C159.8 140.627 158.643 139.555 157.834 138.235L162.051 135.793C162.392 136.482 162.934 137.049 163.605 137.421C164.276 137.792 165.045 137.95 165.808 137.872C166.295 137.939 166.792 137.896 167.261 137.746C167.729 137.595 168.159 137.341 168.516 137.002C168.874 136.663 169.15 136.248 169.326 135.788C169.502 135.327 169.572 134.833 169.531 134.342V132.833C168.952 133.542 168.215 134.106 167.38 134.478C166.544 134.851 165.633 135.022 164.719 134.978C162.545 134.91 160.484 133.997 158.97 132.432C157.457 130.868 156.61 128.775 156.61 126.597C156.61 124.419 157.457 122.327 158.97 120.763C160.484 119.198 162.545 118.285 164.719 118.217C165.633 118.173 166.544 118.344 167.38 118.716C168.215 119.089 168.952 119.652 169.531 120.362V118.678L174.342 118.682ZM169.532 126.6C169.566 125.802 169.36 125.013 168.941 124.333C168.523 123.654 167.91 123.115 167.184 122.787C166.457 122.459 165.649 122.356 164.863 122.491C164.077 122.627 163.35 122.995 162.775 123.548C162.2 124.101 161.803 124.814 161.636 125.595C161.469 126.375 161.539 127.188 161.837 127.929C162.135 128.669 162.648 129.304 163.309 129.75C163.97 130.196 164.749 130.434 165.546 130.433C166.066 130.47 166.587 130.397 167.076 130.219C167.566 130.041 168.013 129.763 168.388 129.402C168.764 129.041 169.06 128.605 169.257 128.122C169.454 127.64 169.548 127.121 169.532 126.6Z" fill="#B8BFFF"/>
<path id="Vector_7" d="M177.141 126.932C177.135 125.201 177.641 123.506 178.596 122.064C179.552 120.621 180.913 119.495 182.508 118.828C184.103 118.16 185.86 117.982 187.556 118.316C189.252 118.649 190.812 119.479 192.036 120.701C193.261 121.922 194.096 123.48 194.436 125.178C194.776 126.875 194.605 128.635 193.945 130.235C193.285 131.835 192.166 133.203 190.729 134.165C189.292 135.128 187.603 135.642 185.874 135.642C184.727 135.655 183.588 135.439 182.525 135.006C181.462 134.573 180.495 133.933 179.682 133.122C178.869 132.311 178.226 131.346 177.79 130.283C177.353 129.22 177.133 128.081 177.141 126.932ZM189.664 126.932C189.643 126.186 189.403 125.462 188.974 124.852C188.545 124.241 187.946 123.771 187.252 123.5C186.557 123.228 185.798 123.168 185.07 123.326C184.342 123.485 183.676 123.854 183.156 124.39C182.636 124.925 182.286 125.601 182.148 126.335C182.01 127.068 182.091 127.826 182.381 128.514C182.671 129.202 183.157 129.788 183.778 130.201C184.4 130.613 185.129 130.833 185.874 130.833C186.384 130.847 186.892 130.755 187.365 130.562C187.838 130.369 188.266 130.081 188.622 129.714C188.978 129.347 189.255 128.911 189.434 128.432C189.613 127.953 189.691 127.442 189.664 126.932Z" fill="#B8BFFF"/>
<path id="Vector_8" d="M196.911 114.26C196.911 113.673 197.085 113.098 197.411 112.61C197.737 112.122 198.2 111.741 198.742 111.516C199.284 111.291 199.881 111.232 200.456 111.347C201.031 111.462 201.56 111.745 201.974 112.16C202.389 112.575 202.672 113.104 202.786 113.681C202.9 114.257 202.842 114.854 202.617 115.397C202.393 115.939 202.013 116.403 201.525 116.729C201.037 117.056 200.464 117.23 199.877 117.23C199.093 117.222 198.343 116.907 197.789 116.351C197.234 115.796 196.919 115.045 196.911 114.26ZM197.411 118.682H202.355V135.182H197.404L197.411 118.682Z" fill="#B8BFFF"/>
<path id="Vector_9" d="M223.698 126.932C223.755 128.022 223.597 129.113 223.231 130.142C222.866 131.171 222.301 132.117 221.569 132.927C220.837 133.736 219.953 134.393 218.967 134.859C217.98 135.325 216.912 135.591 215.823 135.642C214.907 135.692 213.991 135.537 213.142 135.189C212.293 134.841 211.533 134.308 210.915 133.628V141.78H205.972V118.682H210.915V120.232C211.533 119.553 212.294 119.02 213.143 118.673C213.992 118.325 214.907 118.17 215.823 118.22C216.912 118.271 217.981 118.537 218.967 119.003C219.954 119.469 220.838 120.126 221.57 120.935C222.302 121.745 222.867 122.692 223.232 123.721C223.597 124.75 223.756 125.841 223.698 126.932ZM218.755 126.932C218.736 126.16 218.49 125.41 218.047 124.777C217.605 124.145 216.986 123.657 216.268 123.375C215.55 123.093 214.764 123.029 214.01 123.191C213.256 123.354 212.567 123.736 212.028 124.289C211.49 124.842 211.126 125.541 210.983 126.301C210.839 127.06 210.923 127.844 211.223 128.556C211.522 129.268 212.025 129.875 212.668 130.302C213.31 130.729 214.065 130.957 214.836 130.957C215.365 130.98 215.894 130.892 216.387 130.696C216.88 130.501 217.326 130.204 217.696 129.824C218.066 129.443 218.352 128.989 218.534 128.491C218.717 127.993 218.792 127.461 218.755 126.932Z" fill="#B8BFFF"/>
<path id="Vector_10" d="M238.951 130.23C238.951 134.025 235.658 135.642 232.1 135.642C230.662 135.772 229.218 135.468 227.955 134.768C226.692 134.068 225.668 133.004 225.015 131.715L229.297 129.273C229.47 129.869 229.842 130.388 230.351 130.742C230.86 131.096 231.475 131.265 232.093 131.22C233.278 131.22 233.872 130.857 233.872 130.198C233.872 128.382 225.765 129.34 225.765 123.632C225.765 120.033 228.798 118.22 232.224 118.22C233.512 118.179 234.787 118.485 235.917 119.106C237.047 119.727 237.991 120.64 238.648 121.75L234.431 124.027C234.246 123.595 233.939 123.226 233.546 122.968C233.153 122.71 232.694 122.573 232.224 122.575C231.367 122.575 230.84 122.908 230.84 123.498C230.846 125.38 238.951 124.125 238.951 130.23Z" fill="#B8BFFF"/>
<path id="Vector_11" d="M257.007 118.682V135.182H252.064V133.63C251.493 134.315 250.77 134.854 249.951 135.204C249.132 135.554 248.243 135.705 247.354 135.643C244.026 135.643 241.197 133.268 241.197 128.81V118.682H246.139V128.085C246.098 128.478 246.143 128.875 246.271 129.249C246.397 129.623 246.605 129.965 246.878 130.25C247.151 130.536 247.483 130.758 247.85 130.903C248.216 131.047 248.611 131.109 249.005 131.085C250.818 131.085 252.069 130.03 252.069 127.687V118.687L257.007 118.682Z" fill="#B8BFFF"/>
<path id="Vector_12" d="M285.35 125.05V135.18H280.407V125.478C280.407 123.828 279.616 122.773 278.035 122.773C276.388 122.773 275.464 123.928 275.464 125.875V135.18H270.523V125.478C270.523 123.828 269.732 122.773 268.15 122.773C266.502 122.773 265.58 123.928 265.58 125.875V135.18H260.637V118.68H265.58V120.197C266.092 119.524 266.765 118.99 267.535 118.645C268.308 118.299 269.153 118.152 269.995 118.218C270.841 118.177 271.683 118.356 272.44 118.737C273.196 119.118 273.84 119.69 274.311 120.395C274.858 119.657 275.584 119.07 276.419 118.69C277.255 118.309 278.174 118.147 279.089 118.218C282.872 118.22 285.35 120.925 285.35 125.05Z" fill="#B8BFFF"/>
<path id="Vector_13" d="M289.531 118.58C291.556 118.58 293.199 116.935 293.199 114.907C293.199 112.878 291.556 111.233 289.531 111.233C287.505 111.233 285.863 112.878 285.863 114.907C285.863 116.935 287.505 118.58 289.531 118.58Z" fill="#B8BFFF"/>
</g>
<path id="USERNAME" d="M38.38 261.12C37.8667 261.12 37.4033 261.02 36.99 260.82C36.5767 260.613 36.2467 260.303 36 259.89C35.76 259.477 35.64 258.953 35.64 258.32V254H36.92V258.33C36.92 258.877 37.05 259.283 37.31 259.55C37.5767 259.817 37.9433 259.95 38.41 259.95C38.87 259.95 39.2333 259.817 39.5 259.55C39.7667 259.283 39.9 258.877 39.9 258.33V254H41.18V258.32C41.18 258.953 41.0533 259.477 40.8 259.89C40.5467 260.303 40.2067 260.613 39.78 260.82C39.36 261.02 38.8933 261.12 38.38 261.12ZM44.8766 261.12C44.3633 261.12 43.91 261.033 43.5166 260.86C43.1233 260.68 42.8133 260.427 42.5866 260.1C42.36 259.767 42.2433 259.363 42.2366 258.89H43.5866C43.6 259.217 43.7166 259.493 43.9366 259.72C44.1633 259.94 44.4733 260.05 44.8666 260.05C45.2066 260.05 45.4766 259.97 45.6766 259.81C45.8766 259.643 45.9766 259.423 45.9766 259.15C45.9766 258.863 45.8866 258.64 45.7066 258.48C45.5333 258.32 45.3 258.19 45.0066 258.09C44.7133 257.99 44.4 257.883 44.0666 257.77C43.5266 257.583 43.1133 257.343 42.8266 257.05C42.5466 256.757 42.4066 256.367 42.4066 255.88C42.4 255.467 42.4966 255.113 42.6966 254.82C42.9033 254.52 43.1833 254.29 43.5366 254.13C43.89 253.963 44.2966 253.88 44.7566 253.88C45.2233 253.88 45.6333 253.963 45.9866 254.13C46.3466 254.297 46.6266 254.53 46.8266 254.83C47.0333 255.13 47.1433 255.487 47.1566 255.9H45.7866C45.78 255.653 45.6833 255.437 45.4966 255.25C45.3166 255.057 45.0633 254.96 44.7366 254.96C44.4566 254.953 44.22 255.023 44.0266 255.17C43.84 255.31 43.7466 255.517 43.7466 255.79C43.7466 256.023 43.82 256.21 43.9666 256.35C44.1133 256.483 44.3133 256.597 44.5666 256.69C44.82 256.783 45.11 256.883 45.4366 256.99C45.7833 257.11 46.1 257.25 46.3866 257.41C46.6733 257.57 46.9033 257.783 47.0766 258.05C47.25 258.31 47.3366 258.647 47.3366 259.06C47.3366 259.427 47.2433 259.767 47.0566 260.08C46.87 260.393 46.5933 260.647 46.2266 260.84C45.86 261.027 45.41 261.12 44.8766 261.12ZM48.4534 261V254H53.0234V255.03H49.7334V256.95H52.7234V257.95H49.7334V259.97H53.0234V261H48.4534ZM54.2347 261V254H56.8047C57.3647 254 57.8247 254.097 58.1847 254.29C58.5514 254.477 58.8247 254.733 59.0047 255.06C59.1847 255.38 59.2747 255.737 59.2747 256.13C59.2747 256.557 59.1614 256.947 58.9347 257.3C58.7147 257.653 58.368 257.91 57.8947 258.07L59.3447 261H57.8747L56.5747 258.24H55.5147V261H54.2347ZM55.5147 257.3H56.7247C57.1514 257.3 57.4647 257.197 57.6647 256.99C57.8647 256.783 57.9647 256.51 57.9647 256.17C57.9647 255.837 57.8647 255.57 57.6647 255.37C57.4714 255.17 57.1547 255.07 56.7147 255.07H55.5147V257.3ZM60.4652 261V254H61.7452L65.0352 258.93V254H66.3152V261H65.0352L61.7452 256.08V261H60.4652ZM67.2222 261L69.7822 254H71.2222L73.7822 261H72.4222L71.8622 259.38H69.1322L68.5622 261H67.2222ZM69.4822 258.38H71.5122L70.4922 255.47L69.4822 258.38ZM74.6839 261V254H76.2039L78.4339 258.44L80.6339 254H82.1539V261H80.8739V256.17L78.9239 260H77.9139L75.9639 256.17V261H74.6839ZM83.512 261V254H88.082V255.03H84.792V256.95H87.782V257.95H84.792V259.97H88.082V261H83.512Z" fill="#B8BFFF"/>
<path id="USERNAME_2" d="M38.38 261.12C37.8667 261.12 37.4033 261.02 36.99 260.82C36.5767 260.613 36.2467 260.303 36 259.89C35.76 259.477 35.64 258.953 35.64 258.32V254H36.92V258.33C36.92 258.877 37.05 259.283 37.31 259.55C37.5767 259.817 37.9433 259.95 38.41 259.95C38.87 259.95 39.2333 259.817 39.5 259.55C39.7667 259.283 39.9 258.877 39.9 258.33V254H41.18V258.32C41.18 258.953 41.0533 259.477 40.8 259.89C40.5467 260.303 40.2067 260.613 39.78 260.82C39.36 261.02 38.8933 261.12 38.38 261.12ZM44.8766 261.12C44.3633 261.12 43.91 261.033 43.5166 260.86C43.1233 260.68 42.8133 260.427 42.5866 260.1C42.36 259.767 42.2433 259.363 42.2366 258.89H43.5866C43.6 259.217 43.7166 259.493 43.9366 259.72C44.1633 259.94 44.4733 260.05 44.8666 260.05C45.2066 260.05 45.4766 259.97 45.6766 259.81C45.8766 259.643 45.9766 259.423 45.9766 259.15C45.9766 258.863 45.8866 258.64 45.7066 258.48C45.5333 258.32 45.3 258.19 45.0066 258.09C44.7133 257.99 44.4 257.883 44.0666 257.77C43.5266 257.583 43.1133 257.343 42.8266 257.05C42.5466 256.757 42.4066 256.367 42.4066 255.88C42.4 255.467 42.4966 255.113 42.6966 254.82C42.9033 254.52 43.1833 254.29 43.5366 254.13C43.89 253.963 44.2966 253.88 44.7566 253.88C45.2233 253.88 45.6333 253.963 45.9866 254.13C46.3466 254.297 46.6266 254.53 46.8266 254.83C47.0333 255.13 47.1433 255.487 47.1566 255.9H45.7866C45.78 255.653 45.6833 255.437 45.4966 255.25C45.3166 255.057 45.0633 254.96 44.7366 254.96C44.4566 254.953 44.22 255.023 44.0266 255.17C43.84 255.31 43.7466 255.517 43.7466 255.79C43.7466 256.023 43.82 256.21 43.9666 256.35C44.1133 256.483 44.3133 256.597 44.5666 256.69C44.82 256.783 45.11 256.883 45.4366 256.99C45.7833 257.11 46.1 257.25 46.3866 257.41C46.6733 257.57 46.9033 257.783 47.0766 258.05C47.25 258.31 47.3366 258.647 47.3366 259.06C47.3366 259.427 47.2433 259.767 47.0566 260.08C46.87 260.393 46.5933 260.647 46.2266 260.84C45.86 261.027 45.41 261.12 44.8766 261.12ZM48.4534 261V254H53.0234V255.03H49.7334V256.95H52.7234V257.95H49.7334V259.97H53.0234V261H48.4534ZM54.2347 261V254H56.8047C57.3647 254 57.8247 254.097 58.1847 254.29C58.5514 254.477 58.8247 254.733 59.0047 255.06C59.1847 255.38 59.2747 255.737 59.2747 256.13C59.2747 256.557 59.1614 256.947 58.9347 257.3C58.7147 257.653 58.368 257.91 57.8947 258.07L59.3447 261H57.8747L56.5747 258.24H55.5147V261H54.2347ZM55.5147 257.3H56.7247C57.1514 257.3 57.4647 257.197 57.6647 256.99C57.8647 256.783 57.9647 256.51 57.9647 256.17C57.9647 255.837 57.8647 255.57 57.6647 255.37C57.4714 255.17 57.1547 255.07 56.7147 255.07H55.5147V257.3ZM60.4652 261V254H61.7452L65.0352 258.93V254H66.3152V261H65.0352L61.7452 256.08V261H60.4652ZM67.2222 261L69.7822 254H71.2222L73.7822 261H72.4222L71.8622 259.38H69.1322L68.5622 261H67.2222ZM69.4822 258.38H71.5122L70.4922 255.47L69.4822 258.38ZM74.6839 261V254H76.2039L78.4339 258.44L80.6339 254H82.1539V261H80.8739V256.17L78.9239 260H77.9139L75.9639 256.17V261H74.6839ZM83.512 261V254H88.082V255.03H84.792V256.95H87.782V257.95H84.792V259.97H88.082V261H83.512Z" fill="#B8BFFF"/>
<line id="Line 1" x1="35" y1="293.5" x2="326" y2="293.5" stroke="#ADB5FF"/>
<path id="Melvin Chia" d="M36.3358 284V274.2H38.0858L41.4038 280.724L44.7078 274.2H46.4578V284H44.9738V276.762L41.9778 282.6H40.8298L37.8198 276.776V284H36.3358ZM51.6411 284.168C50.9597 284.168 50.3531 284.019 49.8211 283.72C49.2984 283.412 48.8877 282.987 48.5891 282.446C48.2904 281.905 48.1411 281.275 48.1411 280.556C48.1411 279.828 48.2857 279.189 48.5751 278.638C48.8737 278.087 49.2844 277.658 49.8071 277.35C50.3391 277.042 50.9551 276.888 51.6551 276.888C52.3364 276.888 52.9291 277.042 53.4331 277.35C53.9371 277.649 54.3291 278.05 54.6091 278.554C54.8891 279.058 55.0291 279.613 55.0291 280.22C55.0291 280.313 55.0244 280.416 55.0151 280.528C55.0151 280.631 55.0104 280.747 55.0011 280.878H49.5971C49.6437 281.55 49.8631 282.063 50.2551 282.418C50.6564 282.763 51.1184 282.936 51.6411 282.936C52.0611 282.936 52.4111 282.843 52.6911 282.656C52.9804 282.46 53.1951 282.199 53.3351 281.872H54.8191C54.6324 282.525 54.2591 283.071 53.6991 283.51C53.1484 283.949 52.4624 284.168 51.6411 284.168ZM51.6411 278.106C51.1464 278.106 50.7077 278.255 50.3251 278.554C49.9424 278.843 49.7091 279.282 49.6251 279.87H53.5451C53.5171 279.329 53.3257 278.899 52.9711 278.582C52.6164 278.265 52.1731 278.106 51.6411 278.106ZM56.5689 284V273.92H58.0529V284H56.5689ZM61.8781 284L59.2741 277.056H60.8281L62.7601 282.586L64.6921 277.056H66.2321L63.6421 284H61.8781ZM68.2917 275.74C68.0117 275.74 67.7783 275.656 67.5917 275.488C67.4143 275.311 67.3257 275.091 67.3257 274.83C67.3257 274.569 67.4143 274.354 67.5917 274.186C67.7783 274.009 68.0117 273.92 68.2917 273.92C68.5717 273.92 68.8003 274.009 68.9777 274.186C69.1643 274.354 69.2577 274.569 69.2577 274.83C69.2577 275.091 69.1643 275.311 68.9777 275.488C68.8003 275.656 68.5717 275.74 68.2917 275.74ZM67.5497 284V277.056H69.0337V284H67.5497ZM70.9927 284V277.056H72.3087L72.4207 278.274C72.6354 277.845 72.948 277.509 73.3587 277.266C73.7787 277.014 74.2594 276.888 74.8007 276.888C75.6407 276.888 76.2987 277.149 76.7747 277.672C77.26 278.195 77.5027 278.974 77.5027 280.01V284H76.0327V280.164C76.0327 278.82 75.482 278.148 74.3807 278.148C73.83 278.148 73.3727 278.344 73.0087 278.736C72.654 279.128 72.4767 279.688 72.4767 280.416V284H70.9927ZM87.2018 284.168C86.2312 284.168 85.3912 283.958 84.6818 283.538C83.9818 283.109 83.4405 282.516 83.0578 281.76C82.6752 280.995 82.4838 280.113 82.4838 279.114C82.4838 278.106 82.6752 277.224 83.0578 276.468C83.4405 275.703 83.9818 275.105 84.6818 274.676C85.3912 274.247 86.2312 274.032 87.2018 274.032C88.3498 274.032 89.2878 274.312 90.0158 274.872C90.7438 275.432 91.2058 276.216 91.4018 277.224H89.7498C89.6192 276.655 89.3392 276.202 88.9098 275.866C88.4805 275.53 87.9065 275.362 87.1878 275.362C86.2078 275.362 85.4332 275.698 84.8638 276.37C84.2945 277.033 84.0098 277.947 84.0098 279.114C84.0098 280.271 84.2945 281.181 84.8638 281.844C85.4332 282.507 86.2078 282.838 87.1878 282.838C87.9065 282.838 88.4805 282.679 88.9098 282.362C89.3392 282.045 89.6192 281.611 89.7498 281.06H91.4018C91.2058 282.031 90.7438 282.791 90.0158 283.342C89.2878 283.893 88.3498 284.168 87.2018 284.168ZM92.9771 284V273.92H94.4611V278.176C94.6944 277.775 95.0164 277.462 95.4271 277.238C95.8471 277.005 96.3091 276.888 96.8131 276.888C97.6437 276.888 98.2971 277.149 98.7731 277.672C99.2491 278.195 99.4871 278.974 99.4871 280.01V284H98.0171V280.164C98.0171 278.82 97.4804 278.148 96.4071 278.148C95.8471 278.148 95.3804 278.344 95.0071 278.736C94.6431 279.128 94.4611 279.688 94.4611 280.416V284H92.9771ZM102.075 275.74C101.795 275.74 101.562 275.656 101.375 275.488C101.198 275.311 101.109 275.091 101.109 274.83C101.109 274.569 101.198 274.354 101.375 274.186C101.562 274.009 101.795 273.92 102.075 273.92C102.355 273.92 102.584 274.009 102.761 274.186C102.948 274.354 103.041 274.569 103.041 274.83C103.041 275.091 102.948 275.311 102.761 275.488C102.584 275.656 102.355 275.74 102.075 275.74ZM101.333 284V277.056H102.817V284H101.333ZM107.128 284.168C106.54 284.168 106.055 284.07 105.672 283.874C105.289 283.678 105.005 283.421 104.818 283.104C104.631 282.777 104.538 282.423 104.538 282.04C104.538 281.368 104.799 280.836 105.322 280.444C105.845 280.052 106.591 279.856 107.562 279.856H109.382V279.73C109.382 279.189 109.233 278.783 108.934 278.512C108.645 278.241 108.267 278.106 107.8 278.106C107.389 278.106 107.03 278.209 106.722 278.414C106.423 278.61 106.241 278.904 106.176 279.296H104.692C104.739 278.792 104.907 278.363 105.196 278.008C105.495 277.644 105.868 277.369 106.316 277.182C106.773 276.986 107.273 276.888 107.814 276.888C108.785 276.888 109.536 277.145 110.068 277.658C110.6 278.162 110.866 278.853 110.866 279.73V284H109.578L109.452 282.81C109.256 283.193 108.971 283.515 108.598 283.776C108.225 284.037 107.735 284.168 107.128 284.168ZM107.422 282.964C107.823 282.964 108.159 282.871 108.43 282.684C108.71 282.488 108.925 282.231 109.074 281.914C109.233 281.597 109.331 281.247 109.368 280.864H107.716C107.128 280.864 106.708 280.967 106.456 281.172C106.213 281.377 106.092 281.634 106.092 281.942C106.092 282.259 106.209 282.511 106.442 282.698C106.685 282.875 107.011 282.964 107.422 282.964Z" fill="#B8BFFF"/>
<path id="EMAIL" d="M35.68 330V323H40.25V324.03H36.96V325.95H39.95V326.95H36.96V328.97H40.25V330H35.68ZM41.4613 330V323H42.9813L45.2113 327.44L47.4113 323H48.9313V330H47.6513V325.17L45.7013 329H44.6913L42.7413 325.17V330H41.4613ZM49.8394 330L52.3994 323H53.8394L56.3994 330H55.0394L54.4794 328.38H51.7494L51.1794 330H49.8394ZM52.0994 327.38H54.1294L53.1094 324.47L52.0994 327.38ZM57.3011 330V323H58.5811V330H57.3011ZM59.9378 330V323H61.2178V329H64.3178V330H59.9378Z" fill="#B8BFFF"/>
<line id="Line 4" x1="35" y1="362.5" x2="326" y2="362.5" stroke="#ADB5FF"/>
<path id="melvinchia623600@gmail.com" d="M35.938 353V346.056H37.254L37.38 347.036C37.604 346.681 37.898 346.401 38.262 346.196C38.6353 345.991 39.0647 345.888 39.55 345.888C40.6513 345.888 41.4167 346.322 41.846 347.19C42.098 346.789 42.434 346.471 42.854 346.238C43.2833 346.005 43.7453 345.888 44.24 345.888C45.108 345.888 45.7893 346.149 46.284 346.672C46.7787 347.195 47.026 347.974 47.026 349.01V353H45.542V349.164C45.542 347.82 45.0287 347.148 44.002 347.148C43.4793 347.148 43.05 347.344 42.714 347.736C42.3873 348.128 42.224 348.688 42.224 349.416V353H40.74V349.164C40.74 347.82 40.222 347.148 39.186 347.148C38.6727 347.148 38.248 347.344 37.912 347.736C37.5853 348.128 37.422 348.688 37.422 349.416V353H35.938ZM52.0102 353.168C51.3289 353.168 50.7222 353.019 50.1902 352.72C49.6676 352.412 49.2569 351.987 48.9582 351.446C48.6596 350.905 48.5102 350.275 48.5102 349.556C48.5102 348.828 48.6549 348.189 48.9442 347.638C49.2429 347.087 49.6536 346.658 50.1762 346.35C50.7082 346.042 51.3242 345.888 52.0242 345.888C52.7056 345.888 53.2982 346.042 53.8022 346.35C54.3062 346.649 54.6982 347.05 54.9782 347.554C55.2582 348.058 55.3982 348.613 55.3982 349.22C55.3982 349.313 55.3936 349.416 55.3842 349.528C55.3842 349.631 55.3796 349.747 55.3702 349.878H49.9662C50.0129 350.55 50.2322 351.063 50.6242 351.418C51.0256 351.763 51.4876 351.936 52.0102 351.936C52.4302 351.936 52.7802 351.843 53.0602 351.656C53.3496 351.46 53.5642 351.199 53.7042 350.872H55.1882C55.0016 351.525 54.6282 352.071 54.0682 352.51C53.5176 352.949 52.8316 353.168 52.0102 353.168ZM52.0102 347.106C51.5156 347.106 51.0769 347.255 50.6942 347.554C50.3116 347.843 50.0782 348.282 49.9942 348.87H53.9142C53.8862 348.329 53.6949 347.899 53.3402 347.582C52.9856 347.265 52.5422 347.106 52.0102 347.106ZM56.938 353V342.92H58.422V353H56.938ZM62.2473 353L59.6433 346.056H61.1973L63.1293 351.586L65.0613 346.056H66.6013L64.0113 353H62.2473ZM68.6608 344.74C68.3808 344.74 68.1475 344.656 67.9608 344.488C67.7835 344.311 67.6948 344.091 67.6948 343.83C67.6948 343.569 67.7835 343.354 67.9608 343.186C68.1475 343.009 68.3808 342.92 68.6608 342.92C68.9408 342.92 69.1695 343.009 69.3468 343.186C69.5335 343.354 69.6268 343.569 69.6268 343.83C69.6268 344.091 69.5335 344.311 69.3468 344.488C69.1695 344.656 68.9408 344.74 68.6608 344.74ZM67.9188 353V346.056H69.4028V353H67.9188ZM71.3618 353V346.056H72.6778L72.7898 347.274C73.0045 346.845 73.3172 346.509 73.7278 346.266C74.1478 346.014 74.6285 345.888 75.1698 345.888C76.0098 345.888 76.6678 346.149 77.1438 346.672C77.6292 347.195 77.8718 347.974 77.8718 349.01V353H76.4018V349.164C76.4018 347.82 75.8512 347.148 74.7498 347.148C74.1992 347.148 73.7418 347.344 73.3778 347.736C73.0232 348.128 72.8458 348.688 72.8458 349.416V353H71.3618ZM82.9096 353.168C82.2283 353.168 81.617 353.014 81.0756 352.706C80.5436 352.398 80.1236 351.973 79.8156 351.432C79.517 350.881 79.3676 350.247 79.3676 349.528C79.3676 348.809 79.517 348.179 79.8156 347.638C80.1236 347.087 80.5436 346.658 81.0756 346.35C81.617 346.042 82.2283 345.888 82.9096 345.888C83.7683 345.888 84.487 346.112 85.0656 346.56C85.6536 347.008 86.0316 347.615 86.1996 348.38H84.6456C84.5523 347.997 84.347 347.699 84.0296 347.484C83.7123 347.269 83.339 347.162 82.9096 347.162C82.5456 347.162 82.2096 347.255 81.9016 347.442C81.5936 347.619 81.3463 347.885 81.1596 348.24C80.973 348.585 80.8796 349.015 80.8796 349.528C80.8796 350.041 80.973 350.475 81.1596 350.83C81.3463 351.175 81.5936 351.441 81.9016 351.628C82.2096 351.815 82.5456 351.908 82.9096 351.908C83.339 351.908 83.7123 351.801 84.0296 351.586C84.347 351.371 84.5523 351.068 84.6456 350.676H86.1996C86.041 351.423 85.6676 352.025 85.0796 352.482C84.4916 352.939 83.7683 353.168 82.9096 353.168ZM87.8091 353V342.92H89.2931V347.176C89.5264 346.775 89.8484 346.462 90.2591 346.238C90.6791 346.005 91.1411 345.888 91.6451 345.888C92.4758 345.888 93.1291 346.149 93.6051 346.672C94.0811 347.195 94.3191 347.974 94.3191 349.01V353H92.8491V349.164C92.8491 347.82 92.3124 347.148 91.2391 347.148C90.6791 347.148 90.2124 347.344 89.8391 347.736C89.4751 348.128 89.2931 348.688 89.2931 349.416V353H87.8091ZM96.9069 344.74C96.6269 344.74 96.3936 344.656 96.2069 344.488C96.0296 344.311 95.9409 344.091 95.9409 343.83C95.9409 343.569 96.0296 343.354 96.2069 343.186C96.3936 343.009 96.6269 342.92 96.9069 342.92C97.1869 342.92 97.4156 343.009 97.5929 343.186C97.7796 343.354 97.8729 343.569 97.8729 343.83C97.8729 344.091 97.7796 344.311 97.5929 344.488C97.4156 344.656 97.1869 344.74 96.9069 344.74ZM96.1649 353V346.056H97.6489V353H96.1649ZM101.96 353.168C101.372 353.168 100.887 353.07 100.504 352.874C100.121 352.678 99.8366 352.421 99.6499 352.104C99.4633 351.777 99.3699 351.423 99.3699 351.04C99.3699 350.368 99.6313 349.836 100.154 349.444C100.677 349.052 101.423 348.856 102.394 348.856H104.214V348.73C104.214 348.189 104.065 347.783 103.766 347.512C103.477 347.241 103.099 347.106 102.632 347.106C102.221 347.106 101.862 347.209 101.554 347.414C101.255 347.61 101.073 347.904 101.008 348.296H99.5239C99.5706 347.792 99.7386 347.363 100.028 347.008C100.327 346.644 100.7 346.369 101.148 346.182C101.605 345.986 102.105 345.888 102.646 345.888C103.617 345.888 104.368 346.145 104.9 346.658C105.432 347.162 105.698 347.853 105.698 348.73V353H104.41L104.284 351.81C104.088 352.193 103.803 352.515 103.43 352.776C103.057 353.037 102.567 353.168 101.96 353.168ZM102.254 351.964C102.655 351.964 102.991 351.871 103.262 351.684C103.542 351.488 103.757 351.231 103.906 350.914C104.065 350.597 104.163 350.247 104.2 349.864H102.548C101.96 349.864 101.54 349.967 101.288 350.172C101.045 350.377 100.924 350.634 100.924 350.942C100.924 351.259 101.041 351.511 101.274 351.698C101.517 351.875 101.843 351.964 102.254 351.964ZM111.082 353.168C110.364 353.168 109.757 353.033 109.262 352.762C108.768 352.491 108.366 352.132 108.058 351.684C107.76 351.236 107.545 350.732 107.414 350.172C107.284 349.612 107.218 349.038 107.218 348.45C107.218 347.367 107.368 346.42 107.666 345.608C107.974 344.796 108.413 344.166 108.982 343.718C109.552 343.261 110.242 343.032 111.054 343.032C111.698 343.032 112.249 343.158 112.706 343.41C113.164 343.662 113.518 343.998 113.77 344.418C114.032 344.838 114.19 345.295 114.246 345.79H112.86C112.776 345.305 112.576 344.931 112.258 344.67C111.941 344.409 111.535 344.278 111.04 344.278C110.359 344.278 109.794 344.6 109.346 345.244C108.908 345.879 108.674 346.859 108.646 348.184C108.87 347.773 109.216 347.423 109.682 347.134C110.158 346.845 110.704 346.7 111.32 346.7C111.871 346.7 112.384 346.831 112.86 347.092C113.346 347.353 113.738 347.722 114.036 348.198C114.344 348.665 114.498 349.22 114.498 349.864C114.498 350.433 114.358 350.97 114.078 351.474C113.798 351.978 113.402 352.389 112.888 352.706C112.384 353.014 111.782 353.168 111.082 353.168ZM110.998 351.88C111.39 351.88 111.74 351.796 112.048 351.628C112.356 351.46 112.599 351.231 112.776 350.942C112.954 350.643 113.042 350.307 113.042 349.934C113.042 349.337 112.846 348.861 112.454 348.506C112.072 348.151 111.582 347.974 110.984 347.974C110.592 347.974 110.238 348.063 109.92 348.24C109.612 348.417 109.37 348.655 109.192 348.954C109.015 349.243 108.926 349.565 108.926 349.92C108.926 350.303 109.015 350.643 109.192 350.942C109.379 351.231 109.626 351.46 109.934 351.628C110.252 351.796 110.606 351.88 110.998 351.88ZM115.874 353V351.936C116.509 351.432 117.116 350.923 117.694 350.41C118.273 349.897 118.786 349.393 119.234 348.898C119.692 348.394 120.051 347.904 120.312 347.428C120.574 346.943 120.704 346.476 120.704 346.028C120.704 345.729 120.653 345.449 120.55 345.188C120.448 344.917 120.28 344.703 120.046 344.544C119.813 344.376 119.5 344.292 119.108 344.292C118.52 344.292 118.077 344.479 117.778 344.852C117.489 345.225 117.349 345.673 117.358 346.196H115.916C115.926 345.505 116.07 344.927 116.35 344.46C116.64 343.993 117.022 343.639 117.498 343.396C117.984 343.153 118.53 343.032 119.136 343.032C120.06 343.032 120.798 343.293 121.348 343.816C121.908 344.329 122.188 345.048 122.188 345.972C122.188 346.523 122.053 347.069 121.782 347.61C121.521 348.151 121.176 348.674 120.746 349.178C120.326 349.673 119.874 350.139 119.388 350.578C118.903 351.017 118.441 351.413 118.002 351.768H122.482V353H115.874ZM127.218 353.168C126.583 353.168 126.005 353.056 125.482 352.832C124.969 352.599 124.558 352.249 124.25 351.782C123.942 351.315 123.779 350.732 123.76 350.032H125.23C125.249 350.555 125.426 350.998 125.762 351.362C126.107 351.717 126.593 351.894 127.218 351.894C127.815 351.894 128.273 351.731 128.59 351.404C128.907 351.068 129.066 350.653 129.066 350.158C129.066 349.561 128.851 349.117 128.422 348.828C128.002 348.539 127.484 348.394 126.868 348.394H126.14V347.162H126.882C127.433 347.162 127.876 347.031 128.212 346.77C128.557 346.509 128.73 346.14 128.73 345.664C128.73 345.263 128.595 344.936 128.324 344.684C128.063 344.432 127.689 344.306 127.204 344.306C126.7 344.306 126.303 344.455 126.014 344.754C125.725 345.043 125.566 345.407 125.538 345.846H124.068C124.087 345.277 124.227 344.782 124.488 344.362C124.759 343.942 125.127 343.615 125.594 343.382C126.061 343.149 126.597 343.032 127.204 343.032C127.857 343.032 128.403 343.149 128.842 343.382C129.29 343.606 129.626 343.914 129.85 344.306C130.083 344.689 130.2 345.109 130.2 345.566C130.2 346.089 130.055 346.546 129.766 346.938C129.477 347.33 129.089 347.591 128.604 347.722C129.164 347.843 129.626 348.119 129.99 348.548C130.354 348.968 130.536 349.514 130.536 350.186C130.536 350.727 130.41 351.227 130.158 351.684C129.906 352.132 129.533 352.491 129.038 352.762C128.543 353.033 127.937 353.168 127.218 353.168ZM135.965 353.168C135.246 353.168 134.64 353.033 134.145 352.762C133.65 352.491 133.249 352.132 132.941 351.684C132.642 351.236 132.428 350.732 132.297 350.172C132.166 349.612 132.101 349.038 132.101 348.45C132.101 347.367 132.25 346.42 132.549 345.608C132.857 344.796 133.296 344.166 133.865 343.718C134.434 343.261 135.125 343.032 135.937 343.032C136.581 343.032 137.132 343.158 137.589 343.41C138.046 343.662 138.401 343.998 138.653 344.418C138.914 344.838 139.073 345.295 139.129 345.79H137.743C137.659 345.305 137.458 344.931 137.141 344.67C136.824 344.409 136.418 344.278 135.923 344.278C135.242 344.278 134.677 344.6 134.229 345.244C133.79 345.879 133.557 346.859 133.529 348.184C133.753 347.773 134.098 347.423 134.565 347.134C135.041 346.845 135.587 346.7 136.203 346.7C136.754 346.7 137.267 346.831 137.743 347.092C138.228 347.353 138.62 347.722 138.919 348.198C139.227 348.665 139.381 349.22 139.381 349.864C139.381 350.433 139.241 350.97 138.961 351.474C138.681 351.978 138.284 352.389 137.771 352.706C137.267 353.014 136.665 353.168 135.965 353.168ZM135.881 351.88C136.273 351.88 136.623 351.796 136.931 351.628C137.239 351.46 137.482 351.231 137.659 350.942C137.836 350.643 137.925 350.307 137.925 349.934C137.925 349.337 137.729 348.861 137.337 348.506C136.954 348.151 136.464 347.974 135.867 347.974C135.475 347.974 135.12 348.063 134.803 348.24C134.495 348.417 134.252 348.655 134.075 348.954C133.898 349.243 133.809 349.565 133.809 349.92C133.809 350.303 133.898 350.643 134.075 350.942C134.262 351.231 134.509 351.46 134.817 351.628C135.134 351.796 135.489 351.88 135.881 351.88ZM145.133 353.168C144.246 353.168 143.481 352.958 142.837 352.538C142.202 352.109 141.712 351.516 141.367 350.76C141.031 349.995 140.863 349.108 140.863 348.1C140.863 347.092 141.031 346.21 141.367 345.454C141.712 344.689 142.202 344.096 142.837 343.676C143.481 343.247 144.246 343.032 145.133 343.032C146.019 343.032 146.78 343.247 147.415 343.676C148.049 344.096 148.535 344.689 148.871 345.454C149.216 346.21 149.389 347.092 149.389 348.1C149.389 349.108 149.216 349.995 148.871 350.76C148.535 351.516 148.049 352.109 147.415 352.538C146.78 352.958 146.019 353.168 145.133 353.168ZM145.133 351.838C145.665 351.838 146.136 351.689 146.547 351.39C146.967 351.091 147.293 350.662 147.527 350.102C147.76 349.542 147.877 348.875 147.877 348.1C147.877 347.325 147.76 346.658 147.527 346.098C147.293 345.538 146.967 345.109 146.547 344.81C146.136 344.511 145.665 344.362 145.133 344.362C144.591 344.362 144.115 344.511 143.705 344.81C143.294 345.109 142.972 345.538 142.739 346.098C142.505 346.658 142.389 347.325 142.389 348.1C142.389 348.875 142.505 349.542 142.739 350.102C142.972 350.662 143.294 351.091 143.705 351.39C144.115 351.689 144.591 351.838 145.133 351.838ZM154.963 353.168C154.076 353.168 153.311 352.958 152.667 352.538C152.032 352.109 151.542 351.516 151.197 350.76C150.861 349.995 150.693 349.108 150.693 348.1C150.693 347.092 150.861 346.21 151.197 345.454C151.542 344.689 152.032 344.096 152.667 343.676C153.311 343.247 154.076 343.032 154.963 343.032C155.849 343.032 156.61 343.247 157.245 343.676C157.879 344.096 158.365 344.689 158.701 345.454C159.046 346.21 159.219 347.092 159.219 348.1C159.219 349.108 159.046 349.995 158.701 350.76C158.365 351.516 157.879 352.109 157.245 352.538C156.61 352.958 155.849 353.168 154.963 353.168ZM154.963 351.838C155.495 351.838 155.966 351.689 156.377 351.39C156.797 351.091 157.123 350.662 157.357 350.102C157.59 349.542 157.707 348.875 157.707 348.1C157.707 347.325 157.59 346.658 157.357 346.098C157.123 345.538 156.797 345.109 156.377 344.81C155.966 344.511 155.495 344.362 154.963 344.362C154.421 344.362 153.945 344.511 153.535 344.81C153.124 345.109 152.802 345.538 152.569 346.098C152.335 346.658 152.219 347.325 152.219 348.1C152.219 348.875 152.335 349.542 152.569 350.102C152.802 350.662 153.124 351.091 153.535 351.39C153.945 351.689 154.421 351.838 154.963 351.838ZM165.997 355.884C164.98 355.884 164.088 355.688 163.323 355.296C162.567 354.904 161.974 354.349 161.545 353.63C161.125 352.921 160.915 352.081 160.915 351.11C160.915 350.093 161.092 349.15 161.447 348.282C161.802 347.414 162.301 346.653 162.945 346C163.589 345.347 164.345 344.843 165.213 344.488C166.081 344.124 167.033 343.942 168.069 343.942C169.133 343.942 170.052 344.143 170.827 344.544C171.602 344.945 172.199 345.505 172.619 346.224C173.048 346.943 173.263 347.769 173.263 348.702C173.263 349.253 173.193 349.789 173.053 350.312C172.913 350.835 172.708 351.306 172.437 351.726C172.176 352.137 171.849 352.468 171.457 352.72C171.074 352.963 170.631 353.084 170.127 353.084C169.651 353.084 169.278 352.972 169.007 352.748C168.746 352.515 168.587 352.202 168.531 351.81C168.251 352.211 167.892 352.524 167.453 352.748C167.024 352.972 166.562 353.084 166.067 353.084C165.367 353.084 164.816 352.874 164.415 352.454C164.023 352.025 163.827 351.446 163.827 350.718C163.827 350.205 163.906 349.715 164.065 349.248C164.224 348.772 164.452 348.352 164.751 347.988C165.05 347.615 165.4 347.321 165.801 347.106C166.212 346.891 166.664 346.784 167.159 346.784C168.064 346.784 168.657 347.143 168.937 347.862L169.105 346.938H170.337L169.665 350.802C169.6 351.185 169.614 351.497 169.707 351.74C169.8 351.973 170.01 352.09 170.337 352.09C170.626 352.09 170.878 351.987 171.093 351.782C171.317 351.577 171.499 351.311 171.639 350.984C171.788 350.657 171.9 350.303 171.975 349.92C172.05 349.528 172.087 349.145 172.087 348.772C172.087 347.587 171.718 346.658 170.981 345.986C170.244 345.305 169.217 344.964 167.901 344.964C167.07 344.964 166.3 345.123 165.591 345.44C164.882 345.748 164.266 346.177 163.743 346.728C163.22 347.269 162.814 347.904 162.525 348.632C162.236 349.36 162.091 350.144 162.091 350.984C162.091 352.207 162.46 353.154 163.197 353.826C163.934 354.507 164.942 354.848 166.221 354.848C166.632 354.848 167.038 354.806 167.439 354.722C167.85 354.638 168.232 354.517 168.587 354.358L168.825 355.338C167.966 355.702 167.024 355.884 165.997 355.884ZM166.529 351.978C166.893 351.978 167.229 351.88 167.537 351.684C167.845 351.479 168.097 351.203 168.293 350.858C168.489 350.503 168.606 350.102 168.643 349.654C168.69 349.169 168.596 348.753 168.363 348.408C168.13 348.063 167.761 347.89 167.257 347.89C166.828 347.89 166.454 348.016 166.137 348.268C165.82 348.52 165.577 348.842 165.409 349.234C165.241 349.626 165.157 350.041 165.157 350.48C165.157 350.928 165.269 351.292 165.493 351.572C165.726 351.843 166.072 351.978 166.529 351.978ZM178.083 350.872C177.719 350.872 177.383 350.83 177.075 350.746L176.473 351.334C176.575 351.399 176.701 351.455 176.851 351.502C177 351.549 177.21 351.591 177.481 351.628C177.751 351.665 178.12 351.703 178.587 351.74C179.511 351.824 180.178 352.048 180.589 352.412C180.999 352.767 181.205 353.243 181.205 353.84C181.205 354.251 181.093 354.638 180.869 355.002C180.654 355.375 180.313 355.674 179.847 355.898C179.389 356.131 178.801 356.248 178.083 356.248C177.112 356.248 176.323 356.061 175.717 355.688C175.119 355.324 174.821 354.769 174.821 354.022C174.821 353.733 174.895 353.443 175.045 353.154C175.203 352.874 175.451 352.608 175.787 352.356C175.591 352.272 175.418 352.183 175.269 352.09C175.129 351.987 175.003 351.885 174.891 351.782V351.446L176.095 350.214C175.553 349.747 175.283 349.136 175.283 348.38C175.283 347.923 175.39 347.507 175.605 347.134C175.829 346.751 176.151 346.448 176.571 346.224C176.991 346 177.495 345.888 178.083 345.888C178.475 345.888 178.839 345.944 179.175 346.056H181.765V347.036L180.533 347.106C180.757 347.489 180.869 347.913 180.869 348.38C180.869 348.847 180.757 349.267 180.533 349.64C180.318 350.013 180.001 350.312 179.581 350.536C179.17 350.76 178.671 350.872 178.083 350.872ZM178.083 349.71C178.512 349.71 178.857 349.598 179.119 349.374C179.389 349.141 179.525 348.814 179.525 348.394C179.525 347.965 179.389 347.638 179.119 347.414C178.857 347.19 178.512 347.078 178.083 347.078C177.644 347.078 177.289 347.19 177.019 347.414C176.757 347.638 176.627 347.965 176.627 348.394C176.627 348.814 176.757 349.141 177.019 349.374C177.289 349.598 177.644 349.71 178.083 349.71ZM176.221 353.882C176.221 354.283 176.398 354.582 176.753 354.778C177.107 354.983 177.551 355.086 178.083 355.086C178.596 355.086 179.011 354.974 179.329 354.75C179.646 354.535 179.805 354.246 179.805 353.882C179.805 353.611 179.697 353.378 179.483 353.182C179.268 352.995 178.862 352.879 178.265 352.832C177.817 352.804 177.42 352.762 177.075 352.706C176.748 352.883 176.524 353.075 176.403 353.28C176.281 353.485 176.221 353.686 176.221 353.882ZM183.088 353V346.056H184.404L184.53 347.036C184.754 346.681 185.048 346.401 185.412 346.196C185.786 345.991 186.215 345.888 186.7 345.888C187.802 345.888 188.567 346.322 188.996 347.19C189.248 346.789 189.584 346.471 190.004 346.238C190.434 346.005 190.896 345.888 191.39 345.888C192.258 345.888 192.94 346.149 193.434 346.672C193.929 347.195 194.176 347.974 194.176 349.01V353H192.692V349.164C192.692 347.82 192.179 347.148 191.152 347.148C190.63 347.148 190.2 347.344 189.864 347.736C189.538 348.128 189.374 348.688 189.374 349.416V353H187.89V349.164C187.89 347.82 187.372 347.148 186.336 347.148C185.823 347.148 185.398 347.344 185.062 347.736C184.736 348.128 184.572 348.688 184.572 349.416V353H183.088ZM198.265 353.168C197.677 353.168 197.191 353.07 196.809 352.874C196.426 352.678 196.141 352.421 195.955 352.104C195.768 351.777 195.675 351.423 195.675 351.04C195.675 350.368 195.936 349.836 196.459 349.444C196.981 349.052 197.728 348.856 198.699 348.856H200.519V348.73C200.519 348.189 200.369 347.783 200.071 347.512C199.781 347.241 199.403 347.106 198.937 347.106C198.526 347.106 198.167 347.209 197.859 347.414C197.56 347.61 197.378 347.904 197.313 348.296H195.829C195.875 347.792 196.043 347.363 196.333 347.008C196.631 346.644 197.005 346.369 197.453 346.182C197.91 345.986 198.409 345.888 198.951 345.888C199.921 345.888 200.673 346.145 201.205 346.658C201.737 347.162 202.003 347.853 202.003 348.73V353H200.715L200.589 351.81C200.393 352.193 200.108 352.515 199.735 352.776C199.361 353.037 198.871 353.168 198.265 353.168ZM198.559 351.964C198.96 351.964 199.296 351.871 199.567 351.684C199.847 351.488 200.061 351.231 200.211 350.914C200.369 350.597 200.467 350.247 200.505 349.864H198.853C198.265 349.864 197.845 349.967 197.593 350.172C197.35 350.377 197.229 350.634 197.229 350.942C197.229 351.259 197.345 351.511 197.579 351.698C197.821 351.875 198.148 351.964 198.559 351.964ZM204.573 344.74C204.293 344.74 204.06 344.656 203.873 344.488C203.696 344.311 203.607 344.091 203.607 343.83C203.607 343.569 203.696 343.354 203.873 343.186C204.06 343.009 204.293 342.92 204.573 342.92C204.853 342.92 205.082 343.009 205.259 343.186C205.446 343.354 205.539 343.569 205.539 343.83C205.539 344.091 205.446 344.311 205.259 344.488C205.082 344.656 204.853 344.74 204.573 344.74ZM203.831 353V346.056H205.315V353H203.831ZM207.274 353V342.92H208.758V353H207.274ZM211.225 353.084C210.945 353.084 210.712 352.995 210.525 352.818C210.348 352.631 210.259 352.412 210.259 352.16C210.259 351.899 210.348 351.679 210.525 351.502C210.712 351.315 210.945 351.222 211.225 351.222C211.505 351.222 211.734 351.315 211.911 351.502C212.089 351.679 212.177 351.899 212.177 352.16C212.177 352.412 212.089 352.631 211.911 352.818C211.734 352.995 211.505 353.084 211.225 353.084ZM216.962 353.168C216.281 353.168 215.67 353.014 215.128 352.706C214.596 352.398 214.176 351.973 213.868 351.432C213.57 350.881 213.42 350.247 213.42 349.528C213.42 348.809 213.57 348.179 213.868 347.638C214.176 347.087 214.596 346.658 215.128 346.35C215.67 346.042 216.281 345.888 216.962 345.888C217.821 345.888 218.54 346.112 219.118 346.56C219.706 347.008 220.084 347.615 220.252 348.38H218.698C218.605 347.997 218.4 347.699 218.082 347.484C217.765 347.269 217.392 347.162 216.962 347.162C216.598 347.162 216.262 347.255 215.954 347.442C215.646 347.619 215.399 347.885 215.212 348.24C215.026 348.585 214.932 349.015 214.932 349.528C214.932 350.041 215.026 350.475 215.212 350.83C215.399 351.175 215.646 351.441 215.954 351.628C216.262 351.815 216.598 351.908 216.962 351.908C217.392 351.908 217.765 351.801 218.082 351.586C218.4 351.371 218.605 351.068 218.698 350.676H220.252C220.094 351.423 219.72 352.025 219.132 352.482C218.544 352.939 217.821 353.168 216.962 353.168ZM225.11 353.168C224.447 353.168 223.85 353.019 223.318 352.72C222.795 352.412 222.38 351.987 222.072 351.446C221.764 350.895 221.61 350.256 221.61 349.528C221.61 348.8 221.764 348.165 222.072 347.624C222.389 347.073 222.814 346.649 223.346 346.35C223.878 346.042 224.47 345.888 225.124 345.888C225.786 345.888 226.379 346.042 226.902 346.35C227.434 346.649 227.854 347.073 228.162 347.624C228.479 348.165 228.638 348.8 228.638 349.528C228.638 350.256 228.479 350.895 228.162 351.446C227.854 351.987 227.434 352.412 226.902 352.72C226.37 353.019 225.772 353.168 225.11 353.168ZM225.11 351.894C225.464 351.894 225.791 351.805 226.09 351.628C226.398 351.451 226.645 351.189 226.832 350.844C227.018 350.489 227.112 350.051 227.112 349.528C227.112 349.005 227.018 348.571 226.832 348.226C226.654 347.871 226.412 347.605 226.104 347.428C225.805 347.251 225.478 347.162 225.124 347.162C224.769 347.162 224.438 347.251 224.13 347.428C223.831 347.605 223.588 347.871 223.402 348.226C223.215 348.571 223.122 349.005 223.122 349.528C223.122 350.051 223.215 350.489 223.402 350.844C223.588 351.189 223.831 351.451 224.13 351.628C224.428 351.805 224.755 351.894 225.11 351.894ZM230.243 353V346.056H231.559L231.685 347.036C231.909 346.681 232.203 346.401 232.567 346.196C232.94 345.991 233.369 345.888 233.855 345.888C234.956 345.888 235.721 346.322 236.151 347.19C236.403 346.789 236.739 346.471 237.159 346.238C237.588 346.005 238.05 345.888 238.545 345.888C239.413 345.888 240.094 346.149 240.589 346.672C241.083 347.195 241.331 347.974 241.331 349.01V353H239.847V349.164C239.847 347.82 239.333 347.148 238.307 347.148C237.784 347.148 237.355 347.344 237.019 347.736C236.692 348.128 236.529 348.688 236.529 349.416V353H235.045V349.164C235.045 347.82 234.527 347.148 233.491 347.148C232.977 347.148 232.553 347.344 232.217 347.736C231.89 348.128 231.727 348.688 231.727 349.416V353H230.243Z" fill="#B8BFFF"/>
<path id="PASSWORD" d="M36.0677 403V396H38.6577C39.2177 396 39.681 396.093 40.0477 396.28C40.4144 396.467 40.6877 396.723 40.8677 397.05C41.0477 397.377 41.1377 397.743 41.1377 398.15C41.1377 398.537 41.051 398.893 40.8777 399.22C40.7044 399.54 40.4344 399.8 40.0677 400C39.701 400.193 39.231 400.29 38.6577 400.29H37.3477V403H36.0677ZM37.3477 399.25H38.5777C39.0244 399.25 39.3444 399.153 39.5377 398.96C39.7377 398.76 39.8377 398.49 39.8377 398.15C39.8377 397.803 39.7377 397.533 39.5377 397.34C39.3444 397.14 39.0244 397.04 38.5777 397.04H37.3477V399.25ZM40.94 403L43.5 396H44.94L47.5 403H46.14L45.58 401.38H42.85L42.28 403H40.94ZM43.2 400.38H45.23L44.21 397.47L43.2 400.38ZM50.7917 403.12C50.2783 403.12 49.825 403.033 49.4317 402.86C49.0383 402.68 48.7283 402.427 48.5017 402.1C48.275 401.767 48.1583 401.363 48.1517 400.89H49.5017C49.515 401.217 49.6317 401.493 49.8517 401.72C50.0783 401.94 50.3883 402.05 50.7817 402.05C51.1217 402.05 51.3917 401.97 51.5917 401.81C51.7917 401.643 51.8917 401.423 51.8917 401.15C51.8917 400.863 51.8017 400.64 51.6217 400.48C51.4483 400.32 51.215 400.19 50.9217 400.09C50.6283 399.99 50.315 399.883 49.9817 399.77C49.4417 399.583 49.0283 399.343 48.7417 399.05C48.4617 398.757 48.3217 398.367 48.3217 397.88C48.315 397.467 48.4117 397.113 48.6117 396.82C48.8183 396.52 49.0983 396.29 49.4517 396.13C49.805 395.963 50.2117 395.88 50.6717 395.88C51.1383 395.88 51.5483 395.963 51.9017 396.13C52.2617 396.297 52.5417 396.53 52.7417 396.83C52.9483 397.13 53.0583 397.487 53.0717 397.9H51.7017C51.695 397.653 51.5983 397.437 51.4117 397.25C51.2317 397.057 50.9783 396.96 50.6517 396.96C50.3717 396.953 50.135 397.023 49.9417 397.17C49.755 397.31 49.6617 397.517 49.6617 397.79C49.6617 398.023 49.735 398.21 49.8817 398.35C50.0283 398.483 50.2283 398.597 50.4817 398.69C50.735 398.783 51.025 398.883 51.3517 398.99C51.6983 399.11 52.015 399.25 52.3017 399.41C52.5883 399.57 52.8183 399.783 52.9917 400.05C53.165 400.31 53.2517 400.647 53.2517 401.06C53.2517 401.427 53.1583 401.767 52.9717 402.08C52.785 402.393 52.5083 402.647 52.1417 402.84C51.775 403.027 51.325 403.12 50.7917 403.12ZM56.7585 403.12C56.2451 403.12 55.7918 403.033 55.3985 402.86C55.0051 402.68 54.6951 402.427 54.4685 402.1C54.2418 401.767 54.1251 401.363 54.1185 400.89H55.4685C55.4818 401.217 55.5985 401.493 55.8185 401.72C56.0451 401.94 56.3551 402.05 56.7485 402.05C57.0885 402.05 57.3585 401.97 57.5585 401.81C57.7585 401.643 57.8585 401.423 57.8585 401.15C57.8585 400.863 57.7685 400.64 57.5885 400.48C57.4151 400.32 57.1818 400.19 56.8885 400.09C56.5951 399.99 56.2818 399.883 55.9485 399.77C55.4085 399.583 54.9951 399.343 54.7085 399.05C54.4285 398.757 54.2885 398.367 54.2885 397.88C54.2818 397.467 54.3785 397.113 54.5785 396.82C54.7851 396.52 55.0651 396.29 55.4185 396.13C55.7718 395.963 56.1785 395.88 56.6385 395.88C57.1051 395.88 57.5151 395.963 57.8685 396.13C58.2285 396.297 58.5085 396.53 58.7085 396.83C58.9151 397.13 59.0251 397.487 59.0385 397.9H57.6685C57.6618 397.653 57.5651 397.437 57.3785 397.25C57.1985 397.057 56.9451 396.96 56.6185 396.96C56.3385 396.953 56.1018 397.023 55.9085 397.17C55.7218 397.31 55.6285 397.517 55.6285 397.79C55.6285 398.023 55.7018 398.21 55.8485 398.35C55.9951 398.483 56.1951 398.597 56.4485 398.69C56.7018 398.783 56.9918 398.883 57.3185 398.99C57.6651 399.11 57.9818 399.25 58.2685 399.41C58.5551 399.57 58.7851 399.783 58.9585 400.05C59.1318 400.31 59.2185 400.647 59.2185 401.06C59.2185 401.427 59.1251 401.767 58.9385 402.08C58.7518 402.393 58.4751 402.647 58.1085 402.84C57.7418 403.027 57.2918 403.12 56.7585 403.12ZM61.6674 403L59.8174 396H61.1874L62.4474 401.57L63.9274 396H65.3374L66.7774 401.57L68.0374 396H69.4174L67.5174 403H65.9974L64.6074 397.81L63.1774 403H61.6674ZM73.3223 403.12C72.6223 403.12 72.009 402.967 71.4823 402.66C70.9623 402.353 70.5523 401.93 70.2523 401.39C69.959 400.843 69.8123 400.213 69.8123 399.5C69.8123 398.787 69.959 398.16 70.2523 397.62C70.5523 397.073 70.9623 396.647 71.4823 396.34C72.009 396.033 72.6223 395.88 73.3223 395.88C74.0156 395.88 74.6256 396.033 75.1523 396.34C75.679 396.647 76.089 397.073 76.3823 397.62C76.6756 398.16 76.8223 398.787 76.8223 399.5C76.8223 400.213 76.6756 400.843 76.3823 401.39C76.089 401.93 75.679 402.353 75.1523 402.66C74.6256 402.967 74.0156 403.12 73.3223 403.12ZM73.3223 401.97C73.989 401.97 74.519 401.75 74.9123 401.31C75.3123 400.87 75.5123 400.267 75.5123 399.5C75.5123 398.733 75.3123 398.13 74.9123 397.69C74.519 397.25 73.989 397.03 73.3223 397.03C72.6556 397.03 72.1223 397.25 71.7223 397.69C71.3223 398.13 71.1223 398.733 71.1223 399.5C71.1223 400.267 71.3223 400.87 71.7223 401.31C72.1223 401.75 72.6556 401.97 73.3223 401.97ZM77.9525 403V396H80.5225C81.0825 396 81.5425 396.097 81.9025 396.29C82.2691 396.477 82.5425 396.733 82.7225 397.06C82.9025 397.38 82.9925 397.737 82.9925 398.13C82.9925 398.557 82.8791 398.947 82.6525 399.3C82.4325 399.653 82.0858 399.91 81.6125 400.07L83.0625 403H81.5925L80.2925 400.24H79.2325V403H77.9525ZM79.2325 399.3H80.4425C80.8691 399.3 81.1825 399.197 81.3825 398.99C81.5825 398.783 81.6825 398.51 81.6825 398.17C81.6825 397.837 81.5825 397.57 81.3825 397.37C81.1891 397.17 80.8725 397.07 80.4325 397.07H79.2325V399.3ZM84.1829 403V396H86.5729C87.3929 396 88.0663 396.147 88.5929 396.44C89.1263 396.727 89.5196 397.133 89.7729 397.66C90.0329 398.18 90.1629 398.793 90.1629 399.5C90.1629 400.207 90.0329 400.823 89.7729 401.35C89.5196 401.87 89.1263 402.277 88.5929 402.57C88.0663 402.857 87.3929 403 86.5729 403H84.1829ZM85.4629 401.9H86.5129C87.0996 401.9 87.5629 401.807 87.9029 401.62C88.2429 401.427 88.4863 401.153 88.6329 400.8C88.7796 400.44 88.8529 400.007 88.8529 399.5C88.8529 399 88.7796 398.57 88.6329 398.21C88.4863 397.85 88.2429 397.573 87.9029 397.38C87.5629 397.187 87.0996 397.09 86.5129 397.09H85.4629V401.9Z" fill="#B8BFFF"/>
<line id="Line 2" x1="35" y1="432.5" x2="326" y2="432.5" stroke="#ADB5FF"/>
<path id="&#226;&#128;&#162;&#226;&#128;&#162;&#226;&#128;&#162;&#226;&#128;&#162;&#226;&#128;&#162;&#226;&#128;&#162;&#226;&#128;&#162;&#226;&#128;&#162;&#226;&#128;&#162;&#226;&#128;&#162;&#226;&#128;&#162;&#226;&#128;&#162;&#226;&#128;&#162;&#226;&#128;&#162;&#226;&#128;&#162;" d="M38.0362 422.116C37.7096 422.116 37.4109 422.037 37.1402 421.878C36.8696 421.719 36.6502 421.509 36.4822 421.248C36.3236 420.977 36.2442 420.674 36.2442 420.338C36.2442 420.002 36.3236 419.699 36.4822 419.428C36.6502 419.157 36.8696 418.943 37.1402 418.784C37.4109 418.625 37.7096 418.546 38.0362 418.546C38.3722 418.546 38.6756 418.625 38.9462 418.784C39.2169 418.943 39.4316 419.157 39.5902 419.428C39.7489 419.699 39.8282 420.002 39.8282 420.338C39.8282 420.674 39.7489 420.977 39.5902 421.248C39.4316 421.509 39.2169 421.719 38.9462 421.878C38.6756 422.037 38.3722 422.116 38.0362 422.116ZM44.7442 422.116C44.4175 422.116 44.1189 422.037 43.8482 421.878C43.5775 421.719 43.3582 421.509 43.1902 421.248C43.0315 420.977 42.9522 420.674 42.9522 420.338C42.9522 420.002 43.0315 419.699 43.1902 419.428C43.3582 419.157 43.5775 418.943 43.8482 418.784C44.1189 418.625 44.4175 418.546 44.7442 418.546C45.0802 418.546 45.3835 418.625 45.6542 418.784C45.9249 418.943 46.1395 419.157 46.2982 419.428C46.4569 419.699 46.5362 420.002 46.5362 420.338C46.5362 420.674 46.4569 420.977 46.2982 421.248C46.1395 421.509 45.9249 421.719 45.6542 421.878C45.3835 422.037 45.0802 422.116 44.7442 422.116ZM51.4522 422.116C51.1255 422.116 50.8268 422.037 50.5562 421.878C50.2855 421.719 50.0662 421.509 49.8982 421.248C49.7395 420.977 49.6602 420.674 49.6602 420.338C49.6602 420.002 49.7395 419.699 49.8982 419.428C50.0662 419.157 50.2855 418.943 50.5562 418.784C50.8268 418.625 51.1255 418.546 51.4522 418.546C51.7882 418.546 52.0915 418.625 52.3622 418.784C52.6328 418.943 52.8475 419.157 53.0062 419.428C53.1648 419.699 53.2442 420.002 53.2442 420.338C53.2442 420.674 53.1648 420.977 53.0062 421.248C52.8475 421.509 52.6328 421.719 52.3622 421.878C52.0915 422.037 51.7882 422.116 51.4522 422.116ZM58.1601 422.116C57.8335 422.116 57.5348 422.037 57.2641 421.878C56.9935 421.719 56.7741 421.509 56.6061 421.248C56.4475 420.977 56.3681 420.674 56.3681 420.338C56.3681 420.002 56.4475 419.699 56.6061 419.428C56.7741 419.157 56.9935 418.943 57.2641 418.784C57.5348 418.625 57.8335 418.546 58.1601 418.546C58.4961 418.546 58.7995 418.625 59.0701 418.784C59.3408 418.943 59.5555 419.157 59.7141 419.428C59.8728 419.699 59.9521 420.002 59.9521 420.338C59.9521 420.674 59.8728 420.977 59.7141 421.248C59.5555 421.509 59.3408 421.719 59.0701 421.878C58.7995 422.037 58.4961 422.116 58.1601 422.116ZM64.8681 422.116C64.5414 422.116 64.2428 422.037 63.9721 421.878C63.7014 421.719 63.4821 421.509 63.3141 421.248C63.1554 420.977 63.0761 420.674 63.0761 420.338C63.0761 420.002 63.1554 419.699 63.3141 419.428C63.4821 419.157 63.7014 418.943 63.9721 418.784C64.2428 418.625 64.5414 418.546 64.8681 418.546C65.2041 418.546 65.5074 418.625 65.7781 418.784C66.0488 418.943 66.2634 419.157 66.4221 419.428C66.5808 419.699 66.6601 420.002 66.6601 420.338C66.6601 420.674 66.5808 420.977 66.4221 421.248C66.2634 421.509 66.0488 421.719 65.7781 421.878C65.5074 422.037 65.2041 422.116 64.8681 422.116ZM71.5761 422.116C71.2494 422.116 70.9507 422.037 70.6801 421.878C70.4094 421.719 70.1901 421.509 70.0221 421.248C69.8634 420.977 69.7841 420.674 69.7841 420.338C69.7841 420.002 69.8634 419.699 70.0221 419.428C70.1901 419.157 70.4094 418.943 70.6801 418.784C70.9507 418.625 71.2494 418.546 71.5761 418.546C71.9121 418.546 72.2154 418.625 72.4861 418.784C72.7567 418.943 72.9714 419.157 73.1301 419.428C73.2887 419.699 73.3681 420.002 73.3681 420.338C73.3681 420.674 73.2887 420.977 73.1301 421.248C72.9714 421.509 72.7567 421.719 72.4861 421.878C72.2154 422.037 71.9121 422.116 71.5761 422.116ZM78.284 422.116C77.9574 422.116 77.6587 422.037 77.388 421.878C77.1174 421.719 76.898 421.509 76.73 421.248C76.5714 420.977 76.492 420.674 76.492 420.338C76.492 420.002 76.5714 419.699 76.73 419.428C76.898 419.157 77.1174 418.943 77.388 418.784C77.6587 418.625 77.9574 418.546 78.284 418.546C78.62 418.546 78.9234 418.625 79.194 418.784C79.4647 418.943 79.6794 419.157 79.838 419.428C79.9967 419.699 80.076 420.002 80.076 420.338C80.076 420.674 79.9967 420.977 79.838 421.248C79.6794 421.509 79.4647 421.719 79.194 421.878C78.9234 422.037 78.62 422.116 78.284 422.116ZM84.992 422.116C84.6653 422.116 84.3667 422.037 84.096 421.878C83.8253 421.719 83.606 421.509 83.438 421.248C83.2793 420.977 83.2 420.674 83.2 420.338C83.2 420.002 83.2793 419.699 83.438 419.428C83.606 419.157 83.8253 418.943 84.096 418.784C84.3667 418.625 84.6653 418.546 84.992 418.546C85.328 418.546 85.6313 418.625 85.902 418.784C86.1727 418.943 86.3873 419.157 86.546 419.428C86.7047 419.699 86.784 420.002 86.784 420.338C86.784 420.674 86.7047 420.977 86.546 421.248C86.3873 421.509 86.1727 421.719 85.902 421.878C85.6313 422.037 85.328 422.116 84.992 422.116ZM91.7 422.116C91.3733 422.116 91.0747 422.037 90.804 421.878C90.5333 421.719 90.314 421.509 90.146 421.248C89.9873 420.977 89.908 420.674 89.908 420.338C89.908 420.002 89.9873 419.699 90.146 419.428C90.314 419.157 90.5333 418.943 90.804 418.784C91.0747 418.625 91.3733 418.546 91.7 418.546C92.036 418.546 92.3393 418.625 92.61 418.784C92.8807 418.943 93.0953 419.157 93.254 419.428C93.4127 419.699 93.492 420.002 93.492 420.338C93.492 420.674 93.4127 420.977 93.254 421.248C93.0953 421.509 92.8807 421.719 92.61 421.878C92.3393 422.037 92.036 422.116 91.7 422.116ZM98.408 422.116C98.0813 422.116 97.7826 422.037 97.512 421.878C97.2413 421.719 97.022 421.509 96.854 421.248C96.6953 420.977 96.616 420.674 96.616 420.338C96.616 420.002 96.6953 419.699 96.854 419.428C97.022 419.157 97.2413 418.943 97.512 418.784C97.7826 418.625 98.0813 418.546 98.408 418.546C98.744 418.546 99.0473 418.625 99.318 418.784C99.5886 418.943 99.8033 419.157 99.962 419.428C100.121 419.699 100.2 420.002 100.2 420.338C100.2 420.674 100.121 420.977 99.962 421.248C99.8033 421.509 99.5886 421.719 99.318 421.878C99.0473 422.037 98.744 422.116 98.408 422.116ZM105.116 422.116C104.789 422.116 104.491 422.037 104.22 421.878C103.949 421.719 103.73 421.509 103.562 421.248C103.403 420.977 103.324 420.674 103.324 420.338C103.324 420.002 103.403 419.699 103.562 419.428C103.73 419.157 103.949 418.943 104.22 418.784C104.491 418.625 104.789 418.546 105.116 418.546C105.452 418.546 105.755 418.625 106.026 418.784C106.297 418.943 106.511 419.157 106.67 419.428C106.829 419.699 106.908 420.002 106.908 420.338C106.908 420.674 106.829 420.977 106.67 421.248C106.511 421.509 106.297 421.719 106.026 421.878C105.755 422.037 105.452 422.116 105.116 422.116ZM111.824 422.116C111.497 422.116 111.199 422.037 110.928 421.878C110.657 421.719 110.438 421.509 110.27 421.248C110.111 420.977 110.032 420.674 110.032 420.338C110.032 420.002 110.111 419.699 110.27 419.428C110.438 419.157 110.657 418.943 110.928 418.784C111.199 418.625 111.497 418.546 111.824 418.546C112.16 418.546 112.463 418.625 112.734 418.784C113.005 418.943 113.219 419.157 113.378 419.428C113.537 419.699 113.616 420.002 113.616 420.338C113.616 420.674 113.537 420.977 113.378 421.248C113.219 421.509 113.005 421.719 112.734 421.878C112.463 422.037 112.16 422.116 111.824 422.116ZM118.532 422.116C118.205 422.116 117.907 422.037 117.636 421.878C117.365 421.719 117.146 421.509 116.978 421.248C116.819 420.977 116.74 420.674 116.74 420.338C116.74 420.002 116.819 419.699 116.978 419.428C117.146 419.157 117.365 418.943 117.636 418.784C117.907 418.625 118.205 418.546 118.532 418.546C118.868 418.546 119.171 418.625 119.442 418.784C119.713 418.943 119.927 419.157 120.086 419.428C120.245 419.699 120.324 420.002 120.324 420.338C120.324 420.674 120.245 420.977 120.086 421.248C119.927 421.509 119.713 421.719 119.442 421.878C119.171 422.037 118.868 422.116 118.532 422.116ZM125.24 422.116C124.913 422.116 124.614 422.037 124.344 421.878C124.073 421.719 123.854 421.509 123.686 421.248C123.527 420.977 123.448 420.674 123.448 420.338C123.448 420.002 123.527 419.699 123.686 419.428C123.854 419.157 124.073 418.943 124.344 418.784C124.614 418.625 124.913 418.546 125.24 418.546C125.576 418.546 125.879 418.625 126.15 418.784C126.42 418.943 126.635 419.157 126.794 419.428C126.952 419.699 127.032 420.002 127.032 420.338C127.032 420.674 126.952 420.977 126.794 421.248C126.635 421.509 126.42 421.719 126.15 421.878C125.879 422.037 125.576 422.116 125.24 422.116ZM131.948 422.116C131.621 422.116 131.322 422.037 131.052 421.878C130.781 421.719 130.562 421.509 130.394 421.248C130.235 420.977 130.156 420.674 130.156 420.338C130.156 420.002 130.235 419.699 130.394 419.428C130.562 419.157 130.781 418.943 131.052 418.784C131.322 418.625 131.621 418.546 131.948 418.546C132.284 418.546 132.587 418.625 132.858 418.784C133.128 418.943 133.343 419.157 133.502 419.428C133.66 419.699 133.74 420.002 133.74 420.338C133.74 420.674 133.66 420.977 133.502 421.248C133.343 421.509 133.128 421.719 132.858 421.878C132.587 422.037 132.284 422.116 131.948 422.116Z" fill="#B8BFFF"/>
<g id="carbon:view">
<path id="Vector_14" d="M325.47 420.83C324.882 419.309 323.861 417.993 322.533 417.046C321.206 416.099 319.63 415.561 318 415.5C316.37 415.561 314.794 416.099 313.467 417.046C312.139 417.993 311.118 419.309 310.53 420.83C310.49 420.94 310.49 421.06 310.53 421.17C311.118 422.691 312.139 424.007 313.467 424.954C314.794 425.901 316.37 426.439 318 426.5C319.63 426.439 321.206 425.901 322.533 424.954C323.861 424.007 324.882 422.691 325.47 421.17C325.51 421.06 325.51 420.94 325.47 420.83ZM318 425.5C315.35 425.5 312.55 423.535 311.535 421C312.55 418.465 315.35 416.5 318 416.5C320.65 416.5 323.45 418.465 324.465 421C323.45 423.535 320.65 425.5 318 425.5Z" fill="#B8BFFF"/>
<path id="Vector_15" d="M318 418C317.407 418 316.827 418.176 316.333 418.506C315.84 418.835 315.455 419.304 315.228 419.852C315.001 420.4 314.942 421.003 315.058 421.585C315.173 422.167 315.459 422.702 315.879 423.121C316.298 423.541 316.833 423.827 317.415 423.942C317.997 424.058 318.6 423.999 319.148 423.772C319.696 423.545 320.165 423.16 320.494 422.667C320.824 422.173 321 421.593 321 421C321 420.204 320.684 419.441 320.121 418.879C319.559 418.316 318.796 418 318 418ZM318 423C317.604 423 317.218 422.883 316.889 422.663C316.56 422.443 316.304 422.131 316.152 421.765C316.001 421.4 315.961 420.998 316.038 420.61C316.116 420.222 316.306 419.865 316.586 419.586C316.865 419.306 317.222 419.116 317.61 419.038C317.998 418.961 318.4 419.001 318.765 419.152C319.131 419.304 319.443 419.56 319.663 419.889C319.883 420.218 320 420.604 320 421C320 421.53 319.789 422.039 319.414 422.414C319.039 422.789 318.53 423 318 423Z" fill="#B8BFFF"/>
</g>
<path id="REPEAT PASSWORD" d="M35.68 474V467H38.25C38.81 467 39.27 467.097 39.63 467.29C39.9967 467.477 40.27 467.733 40.45 468.06C40.63 468.38 40.72 468.737 40.72 469.13C40.72 469.557 40.6067 469.947 40.38 470.3C40.16 470.653 39.8133 470.91 39.34 471.07L40.79 474H39.32L38.02 471.24H36.96V474H35.68ZM36.96 470.3H38.17C38.5967 470.3 38.91 470.197 39.11 469.99C39.31 469.783 39.41 469.51 39.41 469.17C39.41 468.837 39.31 468.57 39.11 468.37C38.9167 468.17 38.6 468.07 38.16 468.07H36.96V470.3ZM41.9105 474V467H46.4805V468.03H43.1905V469.95H46.1805V470.95H43.1905V472.97H46.4805V474H41.9105ZM47.6917 474V467H50.2817C50.8417 467 51.3051 467.093 51.6717 467.28C52.0384 467.467 52.3117 467.723 52.4917 468.05C52.6717 468.377 52.7617 468.743 52.7617 469.15C52.7617 469.537 52.6751 469.893 52.5017 470.22C52.3284 470.54 52.0584 470.8 51.6917 471C51.3251 471.193 50.8551 471.29 50.2817 471.29H48.9717V474H47.6917ZM48.9717 470.25H50.2017C50.6484 470.25 50.9684 470.153 51.1617 469.96C51.3617 469.76 51.4617 469.49 51.4617 469.15C51.4617 468.803 51.3617 468.533 51.1617 468.34C50.9684 468.14 50.6484 468.04 50.2017 468.04H48.9717V470.25ZM53.7659 474V467H58.3359V468.03H55.0459V469.95H58.0359V470.95H55.0459V472.97H58.3359V474H53.7659ZM59.0972 474L61.6572 467H63.0972L65.6572 474H64.2972L63.7372 472.38H61.0072L60.4372 474H59.0972ZM61.3572 471.38H63.3872L62.3672 468.47L61.3572 471.38ZM67.4467 474V468.03H65.4067V467H70.7767V468.03H68.7267V474H67.4467ZM74.1077 474V467H76.6977C77.2577 467 77.7211 467.093 78.0877 467.28C78.4544 467.467 78.7277 467.723 78.9077 468.05C79.0877 468.377 79.1777 468.743 79.1777 469.15C79.1777 469.537 79.0911 469.893 78.9177 470.22C78.7444 470.54 78.4744 470.8 78.1077 471C77.7411 471.193 77.2711 471.29 76.6977 471.29H75.3877V474H74.1077ZM75.3877 470.25H76.6177C77.0644 470.25 77.3844 470.153 77.5777 469.96C77.7777 469.76 77.8777 469.49 77.8777 469.15C77.8777 468.803 77.7777 468.533 77.5777 468.34C77.3844 468.14 77.0644 468.04 76.6177 468.04H75.3877V470.25ZM78.98 474L81.54 467H82.98L85.54 474H84.18L83.62 472.38H80.89L80.32 474H78.98ZM81.24 471.38H83.27L82.25 468.47L81.24 471.38ZM88.8317 474.12C88.3184 474.12 87.8651 474.033 87.4717 473.86C87.0784 473.68 86.7684 473.427 86.5417 473.1C86.3151 472.767 86.1984 472.363 86.1917 471.89H87.5417C87.5551 472.217 87.6717 472.493 87.8917 472.72C88.1184 472.94 88.4284 473.05 88.8217 473.05C89.1617 473.05 89.4317 472.97 89.6317 472.81C89.8317 472.643 89.9317 472.423 89.9317 472.15C89.9317 471.863 89.8417 471.64 89.6617 471.48C89.4884 471.32 89.2551 471.19 88.9617 471.09C88.6684 470.99 88.3551 470.883 88.0217 470.77C87.4817 470.583 87.0684 470.343 86.7817 470.05C86.5017 469.757 86.3617 469.367 86.3617 468.88C86.3551 468.467 86.4517 468.113 86.6517 467.82C86.8584 467.52 87.1384 467.29 87.4917 467.13C87.8451 466.963 88.2517 466.88 88.7117 466.88C89.1784 466.88 89.5884 466.963 89.9417 467.13C90.3017 467.297 90.5817 467.53 90.7817 467.83C90.9884 468.13 91.0984 468.487 91.1117 468.9H89.7417C89.7351 468.653 89.6384 468.437 89.4517 468.25C89.2717 468.057 89.0184 467.96 88.6917 467.96C88.4117 467.953 88.1751 468.023 87.9817 468.17C87.7951 468.31 87.7017 468.517 87.7017 468.79C87.7017 469.023 87.7751 469.21 87.9217 469.35C88.0684 469.483 88.2684 469.597 88.5217 469.69C88.7751 469.783 89.0651 469.883 89.3917 469.99C89.7384 470.11 90.0551 470.25 90.3417 470.41C90.6284 470.57 90.8584 470.783 91.0317 471.05C91.2051 471.31 91.2917 471.647 91.2917 472.06C91.2917 472.427 91.1984 472.767 91.0117 473.08C90.8251 473.393 90.5484 473.647 90.1817 473.84C89.8151 474.027 89.3651 474.12 88.8317 474.12ZM94.7985 474.12C94.2852 474.12 93.8318 474.033 93.4385 473.86C93.0452 473.68 92.7352 473.427 92.5085 473.1C92.2818 472.767 92.1652 472.363 92.1585 471.89H93.5085C93.5218 472.217 93.6385 472.493 93.8585 472.72C94.0852 472.94 94.3952 473.05 94.7885 473.05C95.1285 473.05 95.3985 472.97 95.5985 472.81C95.7985 472.643 95.8985 472.423 95.8985 472.15C95.8985 471.863 95.8085 471.64 95.6285 471.48C95.4552 471.32 95.2218 471.19 94.9285 471.09C94.6352 470.99 94.3218 470.883 93.9885 470.77C93.4485 470.583 93.0352 470.343 92.7485 470.05C92.4685 469.757 92.3285 469.367 92.3285 468.88C92.3218 468.467 92.4185 468.113 92.6185 467.82C92.8252 467.52 93.1052 467.29 93.4585 467.13C93.8118 466.963 94.2185 466.88 94.6785 466.88C95.1452 466.88 95.5552 466.963 95.9085 467.13C96.2685 467.297 96.5485 467.53 96.7485 467.83C96.9552 468.13 97.0652 468.487 97.0785 468.9H95.7085C95.7018 468.653 95.6052 468.437 95.4185 468.25C95.2385 468.057 94.9852 467.96 94.6585 467.96C94.3785 467.953 94.1418 468.023 93.9485 468.17C93.7618 468.31 93.6685 468.517 93.6685 468.79C93.6685 469.023 93.7418 469.21 93.8885 469.35C94.0352 469.483 94.2352 469.597 94.4885 469.69C94.7418 469.783 95.0318 469.883 95.3585 469.99C95.7052 470.11 96.0218 470.25 96.3085 470.41C96.5952 470.57 96.8252 470.783 96.9985 471.05C97.1718 471.31 97.2585 471.647 97.2585 472.06C97.2585 472.427 97.1652 472.767 96.9785 473.08C96.7918 473.393 96.5152 473.647 96.1485 473.84C95.7818 474.027 95.3318 474.12 94.7985 474.12ZM99.7074 474L97.8574 467H99.2274L100.487 472.57L101.967 467H103.377L104.817 472.57L106.077 467H107.457L105.557 474H104.037L102.647 468.81L101.217 474H99.7074ZM111.362 474.12C110.662 474.12 110.049 473.967 109.522 473.66C109.002 473.353 108.592 472.93 108.292 472.39C107.999 471.843 107.852 471.213 107.852 470.5C107.852 469.787 107.999 469.16 108.292 468.62C108.592 468.073 109.002 467.647 109.522 467.34C110.049 467.033 110.662 466.88 111.362 466.88C112.056 466.88 112.666 467.033 113.192 467.34C113.719 467.647 114.129 468.073 114.422 468.62C114.716 469.16 114.862 469.787 114.862 470.5C114.862 471.213 114.716 471.843 114.422 472.39C114.129 472.93 113.719 473.353 113.192 473.66C112.666 473.967 112.056 474.12 111.362 474.12ZM111.362 472.97C112.029 472.97 112.559 472.75 112.952 472.31C113.352 471.87 113.552 471.267 113.552 470.5C113.552 469.733 113.352 469.13 112.952 468.69C112.559 468.25 112.029 468.03 111.362 468.03C110.696 468.03 110.162 468.25 109.762 468.69C109.362 469.13 109.162 469.733 109.162 470.5C109.162 471.267 109.362 471.87 109.762 472.31C110.162 472.75 110.696 472.97 111.362 472.97ZM115.993 474V467H118.563C119.123 467 119.583 467.097 119.943 467.29C120.309 467.477 120.583 467.733 120.763 468.06C120.943 468.38 121.033 468.737 121.033 469.13C121.033 469.557 120.919 469.947 120.693 470.3C120.473 470.653 120.126 470.91 119.653 471.07L121.103 474H119.633L118.333 471.24H117.273V474H115.993ZM117.273 470.3H118.483C118.909 470.3 119.223 470.197 119.423 469.99C119.623 469.783 119.723 469.51 119.723 469.17C119.723 468.837 119.623 468.57 119.423 468.37C119.229 468.17 118.913 468.07 118.473 468.07H117.273V470.3ZM122.223 474V467H124.613C125.433 467 126.106 467.147 126.633 467.44C127.166 467.727 127.56 468.133 127.813 468.66C128.073 469.18 128.203 469.793 128.203 470.5C128.203 471.207 128.073 471.823 127.813 472.35C127.56 472.87 127.166 473.277 126.633 473.57C126.106 473.857 125.433 474 124.613 474H122.223ZM123.503 472.9H124.553C125.14 472.9 125.603 472.807 125.943 472.62C126.283 472.427 126.526 472.153 126.673 471.8C126.82 471.44 126.893 471.007 126.893 470.5C126.893 470 126.82 469.57 126.673 469.21C126.526 468.85 126.283 468.573 125.943 468.38C125.603 468.187 125.14 468.09 124.553 468.09H123.503V472.9Z" fill="#B8BFFF"/>
<line id="Line 3" x1="35" y1="503.5" x2="326" y2="503.5" stroke="#ADB5FF"/>
<path id="7_PZCZzHJdr&#39;Vv#" d="M36.68 496L40.474 487.474H35.378V486.2H42V487.278L38.234 496H36.68ZM44.0642 497.918V496.518H51.7502V497.918H44.0642ZM55.0701 496V486.2H58.5001C59.2654 486.2 59.9001 486.331 60.4041 486.592C60.9081 486.844 61.2814 487.194 61.5241 487.642C61.7761 488.081 61.9021 488.58 61.9021 489.14C61.9021 489.672 61.7808 490.162 61.5381 490.61C61.3048 491.049 60.9361 491.399 60.4321 491.66C59.9281 491.921 59.2841 492.052 58.5001 492.052H56.5541V496H55.0701ZM56.5541 490.834H58.4301C59.1301 490.834 59.6294 490.685 59.9281 490.386C60.2361 490.078 60.3901 489.663 60.3901 489.14C60.3901 488.599 60.2361 488.179 59.9281 487.88C59.6294 487.572 59.1301 487.418 58.4301 487.418H56.5541V490.834ZM64.2715 496V494.852L68.9475 487.46H64.3275V486.2H70.6695V487.348L65.9795 494.74H70.7115V496H64.2715ZM77.9673 496.168C76.9966 496.168 76.1566 495.958 75.4473 495.538C74.7473 495.109 74.206 494.516 73.8233 493.76C73.4406 492.995 73.2493 492.113 73.2493 491.114C73.2493 490.106 73.4406 489.224 73.8233 488.468C74.206 487.703 74.7473 487.105 75.4473 486.676C76.1566 486.247 76.9966 486.032 77.9673 486.032C79.1153 486.032 80.0533 486.312 80.7813 486.872C81.5093 487.432 81.9713 488.216 82.1673 489.224H80.5153C80.3846 488.655 80.1046 488.202 79.6753 487.866C79.246 487.53 78.672 487.362 77.9533 487.362C76.9733 487.362 76.1986 487.698 75.6293 488.37C75.06 489.033 74.7753 489.947 74.7753 491.114C74.7753 492.271 75.06 493.181 75.6293 493.844C76.1986 494.507 76.9733 494.838 77.9533 494.838C78.672 494.838 79.246 494.679 79.6753 494.362C80.1046 494.045 80.3846 493.611 80.5153 493.06H82.1673C81.9713 494.031 81.5093 494.791 80.7813 495.342C80.0533 495.893 79.1153 496.168 77.9673 496.168ZM84.9745 496V494.852L89.6505 487.46H85.0305V486.2H91.3725V487.348L86.6825 494.74H91.4145V496H84.9745ZM94.0578 496V494.796L97.7678 490.288H94.1138V489.056H99.4478V490.26L95.7098 494.768H99.5178V496H94.0578ZM102.637 496V486.2H104.121V490.4H108.867V486.2H110.351V496H108.867V491.618H104.121V496H102.637ZM116.25 496.168C115.336 496.168 114.608 495.911 114.066 495.398C113.534 494.885 113.268 494.161 113.268 493.228H114.752C114.752 493.695 114.864 494.082 115.088 494.39C115.322 494.698 115.7 494.852 116.222 494.852C116.736 494.852 117.1 494.707 117.314 494.418C117.529 494.119 117.636 493.741 117.636 493.284V486.2H119.12V493.284C119.12 494.208 118.864 494.922 118.35 495.426C117.837 495.921 117.137 496.168 116.25 496.168ZM125.751 496.168C125.079 496.168 124.486 496.009 123.973 495.692C123.46 495.375 123.058 494.941 122.769 494.39C122.48 493.839 122.335 493.214 122.335 492.514C122.335 491.814 122.48 491.193 122.769 490.652C123.058 490.101 123.46 489.672 123.973 489.364C124.496 489.047 125.093 488.888 125.765 488.888C126.316 488.888 126.796 488.995 127.207 489.21C127.627 489.425 127.954 489.728 128.187 490.12V485.92H129.671V496H128.341L128.187 494.922C127.963 495.249 127.655 495.538 127.263 495.79C126.871 496.042 126.367 496.168 125.751 496.168ZM126.017 494.88C126.652 494.88 127.17 494.661 127.571 494.222C127.982 493.783 128.187 493.219 128.187 492.528C128.187 491.828 127.982 491.263 127.571 490.834C127.17 490.395 126.652 490.176 126.017 490.176C125.382 490.176 124.86 490.395 124.449 490.834C124.038 491.263 123.833 491.828 123.833 492.528C123.833 492.985 123.926 493.391 124.113 493.746C124.3 494.101 124.556 494.381 124.883 494.586C125.219 494.782 125.597 494.88 126.017 494.88ZM133.082 496V489.056H134.412L134.538 490.372C134.781 489.915 135.117 489.555 135.546 489.294C135.985 489.023 136.512 488.888 137.128 488.888V490.442H136.722C136.311 490.442 135.943 490.512 135.616 490.652C135.299 490.783 135.042 491.011 134.846 491.338C134.659 491.655 134.566 492.099 134.566 492.668V496H133.082ZM139.703 488.272L139.535 485.43H140.893L140.725 488.272H139.703ZM146.854 496L143.228 486.2H144.81L147.75 494.46L150.704 486.2H152.272L148.646 496H146.854ZM156.779 496L154.175 489.056H155.729L157.661 494.586L159.593 489.056H161.133L158.543 496H156.779ZM164.957 496L165.503 493.396H163.501V492.066H165.797L166.259 489.91H164.173V488.58H166.539L167.099 486.004H168.499L167.939 488.58H170.767L171.327 486.004H172.727L172.181 488.58H174.057V489.91H171.887L171.425 492.066H173.385V493.396H171.145L170.585 496H169.185L169.745 493.396H166.917L166.357 496H164.957ZM167.197 492.066H170.025L170.487 489.91H167.659L167.197 492.066Z" fill="#B8BFFF"/>
<g id="Rectangle 1" filter="url(#filter0_d)">
<rect x="35" y="534" width="291" height="37" rx="18.5" fill="#B8BFFF"/>
</g>
<path id="SIGN UP" d="M155.999 558.18C155.229 558.18 154.549 558.05 153.959 557.79C153.369 557.52 152.904 557.14 152.564 556.65C152.224 556.15 152.049 555.545 152.039 554.835H154.064C154.084 555.325 154.259 555.74 154.589 556.08C154.929 556.41 155.394 556.575 155.984 556.575C156.494 556.575 156.899 556.455 157.199 556.215C157.499 555.965 157.649 555.635 157.649 555.225C157.649 554.795 157.514 554.46 157.244 554.22C156.984 553.98 156.634 553.785 156.194 553.635C155.754 553.485 155.284 553.325 154.784 553.155C153.974 552.875 153.354 552.515 152.924 552.075C152.504 551.635 152.294 551.05 152.294 550.32C152.284 549.7 152.429 549.17 152.729 548.73C153.039 548.28 153.459 547.935 153.989 547.695C154.519 547.445 155.129 547.32 155.819 547.32C156.519 547.32 157.134 547.445 157.664 547.695C158.204 547.945 158.624 548.295 158.924 548.745C159.234 549.195 159.399 549.73 159.419 550.35H157.364C157.354 549.98 157.209 549.655 156.929 549.375C156.659 549.085 156.279 548.94 155.789 548.94C155.369 548.93 155.014 549.035 154.724 549.255C154.444 549.465 154.304 549.775 154.304 550.185C154.304 550.535 154.414 550.815 154.634 551.025C154.854 551.225 155.154 551.395 155.534 551.535C155.914 551.675 156.349 551.825 156.839 551.985C157.359 552.165 157.834 552.375 158.264 552.615C158.694 552.855 159.039 553.175 159.299 553.575C159.559 553.965 159.689 554.47 159.689 555.09C159.689 555.64 159.549 556.15 159.269 556.62C158.989 557.09 158.574 557.47 158.024 557.76C157.474 558.04 156.799 558.18 155.999 558.18ZM161.364 558V547.5H163.284V558H161.364ZM169.909 558.18C168.919 558.18 168.054 557.955 167.314 557.505C166.574 557.055 165.999 556.43 165.589 555.63C165.179 554.82 164.974 553.88 164.974 552.81C164.974 551.73 165.184 550.78 165.604 549.96C166.034 549.13 166.639 548.485 167.419 548.025C168.209 547.555 169.144 547.32 170.224 547.32C171.454 547.32 172.474 547.615 173.284 548.205C174.094 548.795 174.619 549.61 174.859 550.65H172.714C172.554 550.16 172.264 549.78 171.844 549.51C171.424 549.23 170.884 549.09 170.224 549.09C169.174 549.09 168.364 549.425 167.794 550.095C167.224 550.755 166.939 551.665 166.939 552.825C166.939 553.985 167.219 554.885 167.779 555.525C168.349 556.155 169.119 556.47 170.089 556.47C171.039 556.47 171.754 556.215 172.234 555.705C172.724 555.185 173.019 554.505 173.119 553.665H170.464V552.225H175.054V558H173.284L173.134 556.62C172.794 557.12 172.369 557.505 171.859 557.775C171.349 558.045 170.699 558.18 169.909 558.18ZM176.92 558V547.5H178.84L183.775 554.895V547.5H185.695V558H183.775L178.84 550.62V558H176.92ZM195.355 558.18C194.585 558.18 193.89 558.03 193.27 557.73C192.65 557.42 192.155 556.955 191.785 556.335C191.425 555.715 191.245 554.93 191.245 553.98V547.5H193.165V553.995C193.165 554.815 193.36 555.425 193.75 555.825C194.15 556.225 194.7 556.425 195.4 556.425C196.09 556.425 196.635 556.225 197.035 555.825C197.435 555.425 197.635 554.815 197.635 553.995V547.5H199.555V553.98C199.555 554.93 199.365 555.715 198.985 556.335C198.605 556.955 198.095 557.42 197.455 557.73C196.825 558.03 196.125 558.18 195.355 558.18ZM201.515 558V547.5H205.4C206.24 547.5 206.935 547.64 207.485 547.92C208.035 548.2 208.445 548.585 208.715 549.075C208.985 549.565 209.12 550.115 209.12 550.725C209.12 551.305 208.99 551.84 208.73 552.33C208.47 552.81 208.065 553.2 207.515 553.5C206.965 553.79 206.26 553.935 205.4 553.935H203.435V558H201.515ZM203.435 552.375H205.28C205.95 552.375 206.43 552.23 206.72 551.94C207.02 551.64 207.17 551.235 207.17 550.725C207.17 550.205 207.02 549.8 206.72 549.51C206.43 549.21 205.95 549.06 205.28 549.06H203.435V552.375Z" fill="#000C7B"/>
<g id="carbon:view-off">
<path id="Vector_16" d="M312.62 494.255L313.335 493.545C312.552 492.842 311.937 491.972 311.535 491C312.55 488.465 315.35 486.5 318 486.5C318.682 486.509 319.358 486.631 320 486.86L320.775 486.08C319.896 485.709 318.954 485.512 318 485.5C316.37 485.561 314.794 486.099 313.467 487.046C312.139 487.993 311.118 489.309 310.53 490.83C310.49 490.94 310.49 491.06 310.53 491.17C310.974 492.349 311.69 493.406 312.62 494.255Z" fill="#B8BFFF"/>
<path id="Vector_17" d="M316 490.865C316.035 490.386 316.241 489.935 316.581 489.596C316.92 489.256 317.371 489.05 317.85 489.015L318.755 488.105C318.248 487.971 317.715 487.973 317.208 488.11C316.702 488.247 316.241 488.514 315.87 488.885C315.499 489.256 315.232 489.717 315.095 490.223C314.958 490.73 314.956 491.263 315.09 491.77L316 490.865Z" fill="#B8BFFF"/>
<path id="Vector_18" d="M325.47 490.83C324.897 489.337 323.899 488.044 322.6 487.11L325 484.705L324.295 484L311 497.295L311.705 498L314.255 495.45C315.392 496.117 316.682 496.479 318 496.5C319.63 496.439 321.206 495.901 322.533 494.954C323.861 494.007 324.882 492.691 325.47 491.17C325.51 491.06 325.51 490.94 325.47 490.83ZM320 491C319.998 491.35 319.904 491.693 319.728 491.996C319.551 492.298 319.298 492.549 318.995 492.723C318.691 492.897 318.347 492.988 317.997 492.988C317.647 492.987 317.303 492.895 317 492.72L319.72 490C319.9 490.303 319.996 490.648 320 491ZM318 495.5C316.951 495.482 315.922 495.211 315 494.71L316.27 493.44C316.848 493.841 317.548 494.026 318.248 493.963C318.948 493.9 319.604 493.594 320.102 493.097C320.599 492.599 320.905 491.943 320.968 491.243C321.031 490.543 320.846 489.843 320.445 489.265L321.88 487.83C323.027 488.617 323.924 489.718 324.465 491C323.45 493.535 320.65 495.5 318 495.5Z" fill="#B8BFFF"/>
</g>
<path id="Already have an account ?" d="M116.456 593L119.016 586H120.456L123.016 593H121.656L121.096 591.38H118.366L117.796 593H116.456ZM118.716 590.38H120.746L119.726 587.47L118.716 590.38ZM123.887 593V585.8H125.167V593H123.887ZM126.475 593V588.04H127.615L127.735 588.97C127.915 588.65 128.159 588.397 128.465 588.21C128.779 588.017 129.145 587.92 129.565 587.92V589.27H129.205C128.925 589.27 128.675 589.313 128.455 589.4C128.235 589.487 128.062 589.637 127.935 589.85C127.815 590.063 127.755 590.36 127.755 590.74V593H126.475ZM132.762 593.12C132.262 593.12 131.819 593.013 131.432 592.8C131.045 592.587 130.742 592.287 130.522 591.9C130.302 591.513 130.192 591.067 130.192 590.56C130.192 590.047 130.299 589.59 130.512 589.19C130.732 588.79 131.032 588.48 131.412 588.26C131.799 588.033 132.252 587.92 132.772 587.92C133.259 587.92 133.689 588.027 134.062 588.24C134.435 588.453 134.725 588.747 134.932 589.12C135.145 589.487 135.252 589.897 135.252 590.35C135.252 590.423 135.249 590.5 135.242 590.58C135.242 590.66 135.239 590.743 135.232 590.83H131.462C131.489 591.217 131.622 591.52 131.862 591.74C132.109 591.96 132.405 592.07 132.752 592.07C133.012 592.07 133.229 592.013 133.402 591.9C133.582 591.78 133.715 591.627 133.802 591.44H135.102C135.009 591.753 134.852 592.04 134.632 592.3C134.419 592.553 134.152 592.753 133.832 592.9C133.519 593.047 133.162 593.12 132.762 593.12ZM132.772 588.96C132.459 588.96 132.182 589.05 131.942 589.23C131.702 589.403 131.549 589.67 131.482 590.03H133.952C133.932 589.703 133.812 589.443 133.592 589.25C133.372 589.057 133.099 588.96 132.772 588.96ZM138.039 593.12C137.612 593.12 137.262 593.053 136.989 592.92C136.715 592.78 136.512 592.597 136.379 592.37C136.245 592.143 136.179 591.893 136.179 591.62C136.179 591.16 136.359 590.787 136.719 590.5C137.079 590.213 137.619 590.07 138.339 590.07H139.599V589.95C139.599 589.61 139.502 589.36 139.309 589.2C139.115 589.04 138.875 588.96 138.589 588.96C138.329 588.96 138.102 589.023 137.909 589.15C137.715 589.27 137.595 589.45 137.549 589.69H136.299C136.332 589.33 136.452 589.017 136.659 588.75C136.872 588.483 137.145 588.28 137.479 588.14C137.812 587.993 138.185 587.92 138.599 587.92C139.305 587.92 139.862 588.097 140.269 588.45C140.675 588.803 140.879 589.303 140.879 589.95V593H139.789L139.669 592.2C139.522 592.467 139.315 592.687 139.049 592.86C138.789 593.033 138.452 593.12 138.039 593.12ZM138.329 592.12C138.695 592.12 138.979 592 139.179 591.76C139.385 591.52 139.515 591.223 139.569 590.87H138.479C138.139 590.87 137.895 590.933 137.749 591.06C137.602 591.18 137.529 591.33 137.529 591.51C137.529 591.703 137.602 591.853 137.749 591.96C137.895 592.067 138.089 592.12 138.329 592.12ZM144.38 593.12C143.914 593.12 143.497 593.007 143.13 592.78C142.764 592.553 142.474 592.243 142.26 591.85C142.047 591.457 141.94 591.01 141.94 590.51C141.94 590.01 142.047 589.567 142.26 589.18C142.474 588.787 142.764 588.48 143.13 588.26C143.497 588.033 143.914 587.92 144.38 587.92C144.754 587.92 145.08 587.99 145.36 588.13C145.64 588.27 145.867 588.467 146.04 588.72V585.8H147.32V593H146.18L146.04 592.29C145.88 592.51 145.667 592.703 145.4 592.87C145.14 593.037 144.8 593.12 144.38 593.12ZM144.65 592C145.064 592 145.4 591.863 145.66 591.59C145.927 591.31 146.06 590.953 146.06 590.52C146.06 590.087 145.927 589.733 145.66 589.46C145.4 589.18 145.064 589.04 144.65 589.04C144.244 589.04 143.907 589.177 143.64 589.45C143.374 589.723 143.24 590.077 143.24 590.51C143.24 590.943 143.374 591.3 143.64 591.58C143.907 591.86 144.244 592 144.65 592ZM149.244 595.2L150.394 592.67H150.094L148.164 588.04H149.554L150.944 591.53L152.394 588.04H153.754L150.604 595.2H149.244ZM156.973 593V585.8H158.253V588.8C158.42 588.527 158.643 588.313 158.923 588.16C159.21 588 159.537 587.92 159.903 587.92C160.517 587.92 160.99 588.113 161.323 588.5C161.663 588.887 161.833 589.453 161.833 590.2V593H160.563V590.32C160.563 589.893 160.477 589.567 160.303 589.34C160.137 589.113 159.87 589 159.503 589C159.143 589 158.843 589.127 158.603 589.38C158.37 589.633 158.253 589.987 158.253 590.44V593H156.973ZM164.767 593.12C164.341 593.12 163.991 593.053 163.717 592.92C163.444 592.78 163.241 592.597 163.107 592.37C162.974 592.143 162.907 591.893 162.907 591.62C162.907 591.16 163.087 590.787 163.447 590.5C163.807 590.213 164.347 590.07 165.067 590.07H166.327V589.95C166.327 589.61 166.231 589.36 166.037 589.2C165.844 589.04 165.604 588.96 165.317 588.96C165.057 588.96 164.831 589.023 164.637 589.15C164.444 589.27 164.324 589.45 164.277 589.69H163.027C163.061 589.33 163.181 589.017 163.387 588.75C163.601 588.483 163.874 588.28 164.207 588.14C164.541 587.993 164.914 587.92 165.327 587.92C166.034 587.92 166.591 588.097 166.997 588.45C167.404 588.803 167.607 589.303 167.607 589.95V593H166.517L166.397 592.2C166.251 592.467 166.044 592.687 165.777 592.86C165.517 593.033 165.181 593.12 164.767 593.12ZM165.057 592.12C165.424 592.12 165.707 592 165.907 591.76C166.114 591.52 166.244 591.223 166.297 590.87H165.207C164.867 590.87 164.624 590.933 164.477 591.06C164.331 591.18 164.257 591.33 164.257 591.51C164.257 591.703 164.331 591.853 164.477 591.96C164.624 592.067 164.817 592.12 165.057 592.12ZM170.022 593L168.202 588.04H169.542L170.802 591.79L172.062 588.04H173.402L171.572 593H170.022ZM176.375 593.12C175.875 593.12 175.432 593.013 175.045 592.8C174.659 592.587 174.355 592.287 174.135 591.9C173.915 591.513 173.805 591.067 173.805 590.56C173.805 590.047 173.912 589.59 174.125 589.19C174.345 588.79 174.645 588.48 175.025 588.26C175.412 588.033 175.865 587.92 176.385 587.92C176.872 587.92 177.302 588.027 177.675 588.24C178.049 588.453 178.339 588.747 178.545 589.12C178.759 589.487 178.865 589.897 178.865 590.35C178.865 590.423 178.862 590.5 178.855 590.58C178.855 590.66 178.852 590.743 178.845 590.83H175.075C175.102 591.217 175.235 591.52 175.475 591.74C175.722 591.96 176.019 592.07 176.365 592.07C176.625 592.07 176.842 592.013 177.015 591.9C177.195 591.78 177.329 591.627 177.415 591.44H178.715C178.622 591.753 178.465 592.04 178.245 592.3C178.032 592.553 177.765 592.753 177.445 592.9C177.132 593.047 176.775 593.12 176.375 593.12ZM176.385 588.96C176.072 588.96 175.795 589.05 175.555 589.23C175.315 589.403 175.162 589.67 175.095 590.03H177.565C177.545 589.703 177.425 589.443 177.205 589.25C176.985 589.057 176.712 588.96 176.385 588.96ZM184.035 593.12C183.608 593.12 183.258 593.053 182.985 592.92C182.711 592.78 182.508 592.597 182.375 592.37C182.241 592.143 182.175 591.893 182.175 591.62C182.175 591.16 182.355 590.787 182.715 590.5C183.075 590.213 183.615 590.07 184.335 590.07H185.595V589.95C185.595 589.61 185.498 589.36 185.305 589.2C185.111 589.04 184.871 588.96 184.585 588.96C184.325 588.96 184.098 589.023 183.905 589.15C183.711 589.27 183.591 589.45 183.545 589.69H182.295C182.328 589.33 182.448 589.017 182.655 588.75C182.868 588.483 183.141 588.28 183.475 588.14C183.808 587.993 184.181 587.92 184.595 587.92C185.301 587.92 185.858 588.097 186.265 588.45C186.671 588.803 186.875 589.303 186.875 589.95V593H185.785L185.665 592.2C185.518 592.467 185.311 592.687 185.045 592.86C184.785 593.033 184.448 593.12 184.035 593.12ZM184.325 592.12C184.691 592.12 184.975 592 185.175 591.76C185.381 591.52 185.511 591.223 185.565 590.87H184.475C184.135 590.87 183.891 590.933 183.745 591.06C183.598 591.18 183.525 591.33 183.525 591.51C183.525 591.703 183.598 591.853 183.745 591.96C183.891 592.067 184.085 592.12 184.325 592.12ZM188.096 593V588.04H189.226L189.326 588.88C189.48 588.587 189.7 588.353 189.986 588.18C190.28 588.007 190.623 587.92 191.016 587.92C191.63 587.92 192.106 588.113 192.446 588.5C192.786 588.887 192.956 589.453 192.956 590.2V593H191.676V590.32C191.676 589.893 191.59 589.567 191.416 589.34C191.243 589.113 190.973 589 190.606 589C190.246 589 189.95 589.127 189.716 589.38C189.49 589.633 189.376 589.987 189.376 590.44V593H188.096ZM198.273 593.12C197.846 593.12 197.496 593.053 197.223 592.92C196.95 592.78 196.746 592.597 196.613 592.37C196.48 592.143 196.413 591.893 196.413 591.62C196.413 591.16 196.593 590.787 196.953 590.5C197.313 590.213 197.853 590.07 198.573 590.07H199.833V589.95C199.833 589.61 199.736 589.36 199.543 589.2C199.35 589.04 199.11 588.96 198.823 588.96C198.563 588.96 198.336 589.023 198.143 589.15C197.95 589.27 197.83 589.45 197.783 589.69H196.533C196.566 589.33 196.686 589.017 196.893 588.75C197.106 588.483 197.38 588.28 197.713 588.14C198.046 587.993 198.42 587.92 198.833 587.92C199.54 587.92 200.096 588.097 200.503 588.45C200.91 588.803 201.113 589.303 201.113 589.95V593H200.023L199.903 592.2C199.756 592.467 199.55 592.687 199.283 592.86C199.023 593.033 198.686 593.12 198.273 593.12ZM198.563 592.12C198.93 592.12 199.213 592 199.413 591.76C199.62 591.52 199.75 591.223 199.803 590.87H198.713C198.373 590.87 198.13 590.933 197.983 591.06C197.836 591.18 197.763 591.33 197.763 591.51C197.763 591.703 197.836 591.853 197.983 591.96C198.13 592.067 198.323 592.12 198.563 592.12ZM204.765 593.12C204.258 593.12 203.811 593.01 203.425 592.79C203.038 592.57 202.731 592.263 202.505 591.87C202.285 591.477 202.175 591.027 202.175 590.52C202.175 590.013 202.285 589.563 202.505 589.17C202.731 588.777 203.038 588.47 203.425 588.25C203.811 588.03 204.258 587.92 204.765 587.92C205.398 587.92 205.931 588.087 206.365 588.42C206.798 588.747 207.075 589.2 207.195 589.78H205.845C205.778 589.54 205.645 589.353 205.445 589.22C205.251 589.08 205.021 589.01 204.755 589.01C204.401 589.01 204.101 589.143 203.855 589.41C203.608 589.677 203.485 590.047 203.485 590.52C203.485 590.993 203.608 591.363 203.855 591.63C204.101 591.897 204.401 592.03 204.755 592.03C205.021 592.03 205.251 591.963 205.445 591.83C205.645 591.697 205.778 591.507 205.845 591.26H207.195C207.075 591.82 206.798 592.27 206.365 592.61C205.931 592.95 205.398 593.12 204.765 593.12ZM210.761 593.12C210.254 593.12 209.807 593.01 209.421 592.79C209.034 592.57 208.727 592.263 208.501 591.87C208.281 591.477 208.171 591.027 208.171 590.52C208.171 590.013 208.281 589.563 208.501 589.17C208.727 588.777 209.034 588.47 209.421 588.25C209.807 588.03 210.254 587.92 210.761 587.92C211.394 587.92 211.927 588.087 212.361 588.42C212.794 588.747 213.071 589.2 213.191 589.78H211.841C211.774 589.54 211.641 589.353 211.441 589.22C211.247 589.08 211.017 589.01 210.751 589.01C210.397 589.01 210.097 589.143 209.851 589.41C209.604 589.677 209.481 590.047 209.481 590.52C209.481 590.993 209.604 591.363 209.851 591.63C210.097 591.897 210.397 592.03 210.751 592.03C211.017 592.03 211.247 591.963 211.441 591.83C211.641 591.697 211.774 591.507 211.841 591.26H213.191C213.071 591.82 212.794 592.27 212.361 592.61C211.927 592.95 211.394 593.12 210.761 593.12ZM216.707 593.12C216.227 593.12 215.793 593.01 215.407 592.79C215.027 592.57 214.723 592.267 214.497 591.88C214.277 591.487 214.167 591.033 214.167 590.52C214.167 590.007 214.28 589.557 214.507 589.17C214.733 588.777 215.037 588.47 215.417 588.25C215.803 588.03 216.237 587.92 216.717 587.92C217.19 587.92 217.617 588.03 217.997 588.25C218.383 588.47 218.687 588.777 218.907 589.17C219.133 589.557 219.247 590.007 219.247 590.52C219.247 591.033 219.133 591.487 218.907 591.88C218.687 592.267 218.383 592.57 217.997 592.79C217.61 593.01 217.18 593.12 216.707 593.12ZM216.707 592.01C217.04 592.01 217.33 591.887 217.577 591.64C217.823 591.387 217.947 591.013 217.947 590.52C217.947 590.027 217.823 589.657 217.577 589.41C217.33 589.157 217.043 589.03 216.717 589.03C216.377 589.03 216.083 589.157 215.837 589.41C215.597 589.657 215.477 590.027 215.477 590.52C215.477 591.013 215.597 591.387 215.837 591.64C216.083 591.887 216.373 592.01 216.707 592.01ZM222.251 593.12C221.631 593.12 221.151 592.927 220.811 592.54C220.478 592.153 220.311 591.587 220.311 590.84V588.04H221.581V590.72C221.581 591.147 221.668 591.473 221.841 591.7C222.015 591.927 222.288 592.04 222.661 592.04C223.015 592.04 223.305 591.913 223.531 591.66C223.765 591.407 223.881 591.053 223.881 590.6V588.04H225.161V593H224.031L223.931 592.16C223.778 592.453 223.555 592.687 223.261 592.86C222.975 593.033 222.638 593.12 222.251 593.12ZM226.475 593V588.04H227.605L227.705 588.88C227.859 588.587 228.079 588.353 228.365 588.18C228.659 588.007 229.002 587.92 229.395 587.92C230.009 587.92 230.485 588.113 230.825 588.5C231.165 588.887 231.335 589.453 231.335 590.2V593H230.055V590.32C230.055 589.893 229.969 589.567 229.795 589.34C229.622 589.113 229.352 589 228.985 589C228.625 589 228.329 589.127 228.095 589.38C227.869 589.633 227.755 589.987 227.755 590.44V593H226.475ZM234.769 593C234.249 593 233.833 592.873 233.519 592.62C233.206 592.367 233.049 591.917 233.049 591.27V589.11H232.199V588.04H233.049L233.199 586.71H234.329V588.04H235.669V589.11H234.329V591.28C234.329 591.52 234.379 591.687 234.479 591.78C234.586 591.867 234.766 591.91 235.019 591.91H235.639V593H234.769ZM239.871 590.82L239.831 589.17H240.291C240.631 589.17 240.941 589.14 241.221 589.08C241.501 589.02 241.724 588.903 241.891 588.73C242.058 588.557 242.141 588.303 242.141 587.97C242.141 587.65 242.044 587.4 241.851 587.22C241.658 587.033 241.401 586.94 241.081 586.94C240.748 586.94 240.488 587.033 240.301 587.22C240.114 587.4 240.021 587.647 240.021 587.96H238.811C238.804 587.56 238.891 587.203 239.071 586.89C239.251 586.577 239.511 586.33 239.851 586.15C240.198 585.97 240.611 585.88 241.091 585.88C241.538 585.88 241.931 585.963 242.271 586.13C242.618 586.297 242.888 586.537 243.081 586.85C243.281 587.157 243.381 587.533 243.381 587.98C243.381 588.44 243.278 588.82 243.071 589.12C242.871 589.42 242.594 589.643 242.241 589.79C241.894 589.937 241.491 590.013 241.031 590.02L241.001 590.82H239.871ZM240.441 593.07C240.208 593.07 240.014 592.997 239.861 592.85C239.714 592.703 239.641 592.527 239.641 592.32C239.641 592.107 239.714 591.927 239.861 591.78C240.014 591.633 240.208 591.56 240.441 591.56C240.674 591.56 240.864 591.633 241.011 591.78C241.158 591.927 241.231 592.107 241.231 592.32C241.231 592.527 241.158 592.703 241.011 592.85C240.864 592.997 240.674 593.07 240.441 593.07Z" fill="#B8BFFF"/>
</g>
<defs>
<filter id="filter0_d" x="31" y="532" width="299" height="45" filterUnits="userSpaceOnUse" color-interpolation-filters="sRGB">
<feFlood flood-opacity="0" result="BackgroundImageFix"/>
<feColorMatrix in="SourceAlpha" type="matrix" values="0 0 0 0 0 0 0 0 0 0 0 0 0 0 0 0 0 0 127 0" result="hardAlpha"/>
<feOffset dy="2"/>
<feGaussianBlur stdDeviation="2"/>
<feColorMatrix type="matrix" values="0 0 0 0 0 0 0 0 0 0 0 0 0 0 0 0 0 0 0.34 0"/>
<feBlend mode="normal" in2="BackgroundImageFix" result="effect1_dropShadow"/>
<feBlend mode="normal" in="SourceGraphic" in2="effect1_dropShadow" result="shape"/>
</filter>
</defs>
</svg>
