<svg width="25" height="26" viewBox="0 0 25 26" fill="none" xmlns="http://www.w3.org/2000/svg">
<path d="M16.9607 8.06449C16.2298 3.56348 14.506 0.403198 12.5 0.403198C10.494 0.403198 8.77016 3.56348 8.03931 8.06449H16.9607ZM7.66129 12.9032C7.66129 14.0222 7.72177 15.0957 7.82762 16.129H17.1673C17.2732 15.0957 17.3337 14.0222 17.3337 12.9032C17.3337 11.7842 17.2732 10.7107 17.1673 9.67739H7.82762C7.72177 10.7107 7.66129 11.7842 7.66129 12.9032ZM24.0272 8.06449C22.5857 4.64211 19.6673 1.99594 16.0635 0.927392C17.2933 2.63102 18.1401 5.19655 18.5837 8.06449H24.0272ZM8.93145 0.927392C5.33266 1.99594 2.40927 4.64211 0.972782 8.06449H6.41633C6.85484 5.19655 7.70161 2.63102 8.93145 0.927392ZM24.5665 9.67739H18.7853C18.8911 10.7359 18.9516 11.8195 18.9516 12.9032C18.9516 13.9869 18.8911 15.0705 18.7853 16.129H24.5615C24.8387 15.0957 24.995 14.0222 24.995 12.9032C24.995 11.7842 24.8387 10.7107 24.5665 9.67739ZM6.04839 12.9032C6.04839 11.8195 6.10887 10.7359 6.21472 9.67739H0.433468C0.16129 10.7107 0 11.7842 0 12.9032C0 14.0222 0.16129 15.0957 0.433468 16.129H6.20968C6.10887 15.0705 6.04839 13.9869 6.04839 12.9032ZM8.03931 17.7419C8.77016 22.2429 10.494 25.4032 12.5 25.4032C14.506 25.4032 16.2298 22.2429 16.9607 17.7419H8.03931ZM16.0685 24.879C19.6673 23.8105 22.5907 21.1643 24.0323 17.7419H18.5887C18.1452 20.6099 17.2984 23.1754 16.0685 24.879ZM0.972782 17.7419C2.41431 21.1643 5.33266 23.8105 8.93649 24.879C7.70665 23.1754 6.85988 20.6099 6.41633 17.7419H0.972782Z" fill="#B8BFFF"/>
</svg>
