<svg width="20" height="20" viewBox="0 0 20 20" fill="none" xmlns="http://www.w3.org/2000/svg">
<path d="M13.82 17.9765H19C19.2652 17.9765 19.5196 17.8711 19.7071 17.6836C19.8946 17.4961 20 17.2417 20 16.9765C20 16.7113 19.8946 16.4569 19.7071 16.2694C19.5196 16.0818 19.2652 15.9765 19 15.9765H13.82C13.6098 15.3973 13.2264 14.8969 12.7218 14.5433C12.2173 14.1897 11.6161 14 11 14C10.3839 14 9.7827 14.1897 9.27816 14.5433C8.77363 14.8969 8.3902 15.3973 8.18 15.9765L0.999998 15.9765C0.734781 15.9765 0.480426 16.0818 0.29289 16.2694C0.105354 16.4569 -2.38419e-06 16.7113 -2.38419e-06 16.9765C-2.38419e-06 17.2417 0.105354 17.4961 0.29289 17.6836C0.480426 17.8711 0.734781 17.9765 0.999998 17.9765H8.18C8.3902 18.5556 8.77363 19.056 9.27816 19.4096C9.7827 19.7633 10.3839 19.953 11 19.953C11.6161 19.953 12.2173 19.7633 12.7218 19.4096C13.2264 19.056 13.6098 18.5556 13.82 17.9765ZM10 16.9765C10 16.7787 10.0586 16.5854 10.1685 16.4209C10.2784 16.2565 10.4346 16.1283 10.6173 16.0526C10.8 15.9769 11.0011 15.9571 11.1951 15.9957C11.3891 16.0343 11.5673 16.1295 11.7071 16.2694C11.847 16.4092 11.9422 16.5874 11.9808 16.7814C12.0194 16.9754 11.9996 17.1764 11.9239 17.3592C11.8482 17.5419 11.72 17.6981 11.5556 17.8079C11.3911 17.9178 11.1978 17.9765 11 17.9765C10.7348 17.9765 10.4804 17.8711 10.2929 17.6836C10.1054 17.4961 10 17.2417 10 16.9765ZM7.82 10.9765H19C19.2652 10.9765 19.5196 10.8711 19.7071 10.6836C19.8946 10.496 20 10.2417 20 9.97648C20 9.71126 19.8946 9.45691 19.7071 9.26937C19.5196 9.08183 19.2652 8.97648 19 8.97648H7.82C7.60979 8.39733 7.22637 7.89694 6.72183 7.54332C6.2173 7.1897 5.61612 7 5 7C4.38388 7 3.7827 7.1897 3.27816 7.54332C2.77363 7.89694 2.3902 8.39733 2.18 8.97648H0.999998C0.734781 8.97648 0.480426 9.08183 0.29289 9.26937C0.105354 9.45691 -2.38419e-06 9.71126 -2.38419e-06 9.97648C-2.38419e-06 10.2417 0.105354 10.496 0.29289 10.6836C0.480426 10.8711 0.734781 10.9765 0.999998 10.9765H2.18C2.3902 11.5556 2.77363 12.056 3.27816 12.4096C3.7827 12.7633 4.38388 12.953 5 12.953C5.61612 12.953 6.2173 12.7633 6.72183 12.4096C7.22637 12.056 7.60979 11.5556 7.82 10.9765ZM4 9.97648C4 9.7787 4.05865 9.58536 4.16853 9.42091C4.27841 9.25646 4.43459 9.12829 4.61732 9.0526C4.80004 8.97691 5.00111 8.95711 5.19509 8.99569C5.38907 9.03428 5.56725 9.12952 5.70711 9.26937C5.84696 9.40922 5.9422 9.58741 5.98078 9.78139C6.01937 9.97537 5.99957 10.1764 5.92388 10.3592C5.84819 10.5419 5.72002 10.6981 5.55557 10.8079C5.39112 10.9178 5.19778 10.9765 5 10.9765C4.73478 10.9765 4.48043 10.8711 4.29289 10.6836C4.10535 10.496 4 10.2417 4 9.97648ZM15.82 3.97648L19 3.97648C19.2652 3.97648 19.5196 3.87112 19.7071 3.68358C19.8946 3.49605 20 3.24169 20 2.97648C20 2.71126 19.8946 2.45691 19.7071 2.26937C19.5196 2.08183 19.2652 1.97648 19 1.97648L15.82 1.97648C15.6098 1.39732 15.2264 0.896937 14.7218 0.543318C14.2173 0.1897 13.6161 0 13 0C12.3839 0 11.7827 0.1897 11.2782 0.543318C10.7736 0.896937 10.3902 1.39732 10.18 1.97648L0.999998 1.97648C0.734781 1.97648 0.480426 2.08183 0.29289 2.26937C0.105354 2.45691 -2.38419e-06 2.71126 -2.38419e-06 2.97648C-2.38419e-06 3.24169 0.105354 3.49605 0.29289 3.68358C0.480426 3.87112 0.734781 3.97648 0.999998 3.97648L10.18 3.97648C10.3902 4.55563 10.7736 5.05602 11.2782 5.40964C11.7827 5.76325 12.3839 5.95295 13 5.95295C13.6161 5.95295 14.2173 5.76325 14.7218 5.40964C15.2264 5.05602 15.6098 4.55563 15.82 3.97648ZM12 2.97648C12 2.7787 12.0586 2.58536 12.1685 2.42091C12.2784 2.25646 12.4346 2.12828 12.6173 2.0526C12.8 1.97691 13.0011 1.95711 13.1951 1.99569C13.3891 2.03428 13.5673 2.12952 13.7071 2.26937C13.847 2.40922 13.9422 2.58741 13.9808 2.78139C14.0194 2.97537 13.9996 3.17643 13.9239 3.35916C13.8482 3.54189 13.72 3.69807 13.5556 3.80795C13.3911 3.91783 13.1978 3.97648 13 3.97648C12.7348 3.97648 12.4804 3.87112 12.2929 3.68358C12.1054 3.49605 12 3.24169 12 2.97648Z" fill="#000C7B"/>
</svg>
