<svg width="24" height="24" viewBox="0 0 24 24" fill="none" xmlns="http://www.w3.org/2000/svg">
<path fill-rule="evenodd" clip-rule="evenodd" d="M18.0971 20.8867V17.5367C20.3323 17.0382 22.4603 14.6662 22.4603 11.8073C22.4603 8.58674 20.0368 0.0690918 17.3853 0.0690918C14.7338 0.0690918 12.3044 8.58674 12.3044 11.8073C12.3044 14.6029 14.5294 16.9382 16.6926 17.5044V20.7544C15.2177 20.6834 13.7413 20.6481 12.2647 20.6485C10.7566 20.6489 9.25013 20.7456 7.75441 20.9382V17.0088C9.31029 16.5514 10.6515 14.9235 10.6515 12.9647C10.6515 10.6559 9.04117 4.46321 7.06029 4.46321C5.075 4.46321 3.46911 10.6559 3.46911 12.9647C3.46911 14.9559 4.8 16.6117 6.4 17.0367V21.1441C2.87794 21.7514 0.502937 22.7809 0.502937 23.4485H24.0323C24.0309 22.7779 21.6397 21.197 18.0971 20.8867Z" fill="#B8BFFF"/>
</svg>
