<svg width="24" height="25" viewBox="0 0 24 25" fill="none" xmlns="http://www.w3.org/2000/svg">
<path d="M21.3675 7.14286H14.245V1.78571L11.5741 0L8.90313 1.78571V7.14286H1.78063L0 8.92857V10.7143H23.1481V8.92857L21.3675 7.14286ZM11.5741 2.67857C12.2863 2.67857 12.8205 3.21429 12.8205 4.10714C12.8205 5 12.2863 5.35714 11.5741 5.35714C10.8618 5.35714 10.1496 4.82143 10.1496 3.92857C10.1496 3.21429 10.8618 2.67857 11.5741 2.67857ZM21.3675 12.5H1.78063V19.6429L0 22.3214V25H23.1481V22.3214L21.3675 19.6429V12.5ZM7.12251 22.3214H5.34188V14.2857H7.12251V22.3214ZM12.4644 22.3214H10.6838V14.2857H12.4644V22.3214ZM17.8063 22.3214H16.0256V14.2857H17.8063V22.3214Z" fill="#B8BFFF"/>
</svg>
